  0
SECTION
  2
HEADER
  9
$ACADVER
  1
AC1021
  9
$ACADMAINTVER
 70
25
  9
$DWGCODEPAGE
  3
ANSI_1252
  9
$INSBASE
 10
0.0
 20
0.0
 30
0.0
  9
$EXTMIN
 10
1e+20
 20
1e+20
 30
1e+20
  9
$EXTMAX
 10
-1e+20
 20
-1e+20
 30
-1e+20
  9
$LIMMIN
 10
0.0
 20
0.0
  9
$LIMMAX
 10
420.0
 20
297.0
  9
$ORTHOMODE
 70
0
  9
$REGENMODE
 70
1
  9
$FILLMODE
 70
1
  9
$QTEXTMODE
 70
0
  9
$MIRRTEXT
 70
1
  9
$LTSCALE
 40
1.0
  9
$ATTMODE
 70
1
  9
$TEXTSIZE
 40
2.5
  9
$TRACEWID
 40
1.0
  9
$TEXTSTYLE
  7
Standard
  9
$CLAYER
  8
engraving
  9
$CELTYPE
  6
ByLayer
  9
$CECOLOR
 62
256
  9
$CELTSCALE
 40
1.0
  9
$DISPSILH
 70
0
  9
$DIMSCALE
 40
1.0
  9
$DIMASZ
 40
2.5
  9
$DIMEXO
 40
0.625
  9
$DIMDLI
 40
3.75
  9
$DIMRND
 40
0.0
  9
$DIMDLE
 40
0.0
  9
$DIMEXE
 40
1.25
  9
$DIMTP
 40
0.0
  9
$DIMTM
 40
0.0
  9
$DIMTXT
 40
2.5
  9
$DIMCEN
 40
2.5
  9
$DIMTSZ
 40
0.0
  9
$DIMTOL
 70
0
  9
$DIMLIM
 70
0
  9
$DIMTIH
 70
0
  9
$DIMTOH
 70
0
  9
$DIMSE1
 70
0
  9
$DIMSE2
 70
0
  9
$DIMTAD
 70
1
  9
$DIMZIN
 70
8
  9
$DIMBLK
  1

  9
$DIMASO
 70
1
  9
$DIMSHO
 70
1
  9
$DIMPOST
  1

  9
$DIMAPOST
  1

  9
$DIMALT
 70
0
  9
$DIMALTD
 70
3
  9
$DIMALTF
 40
0.03937007874
  9
$DIMLFAC
 40
1.0
  9
$DIMTOFL
 70
1
  9
$DIMTVP
 40
0.0
  9
$DIMTIX
 70
0
  9
$DIMSOXD
 70
0
  9
$DIMSAH
 70
0
  9
$DIMBLK1
  1

  9
$DIMBLK2
  1

  9
$DIMSTYLE
  2
ISO-25
  9
$DIMCLRD
 70
0
  9
$DIMCLRE
 70
0
  9
$DIMCLRT
 70
0
  9
$DIMTFAC
 40
1.0
  9
$DIMGAP
 40
0.625
  9
$DIMJUST
 70
0
  9
$DIMSD1
 70
0
  9
$DIMSD2
 70
0
  9
$DIMTOLJ
 70
0
  9
$DIMTZIN
 70
8
  9
$DIMALTZ
 70
0
  9
$DIMALTTZ
 70
0
  9
$DIMUPT
 70
0
  9
$DIMDEC
 70
2
  9
$DIMTDEC
 70
2
  9
$DIMALTU
 70
2
  9
$DIMALTTD
 70
3
  9
$DIMTXSTY
  7
Standard
  9
$DIMAUNIT
 70
0
  9
$DIMADEC
 70
0
  9
$DIMALTRND
 40
0.0
  9
$DIMAZIN
 70
0
  9
$DIMDSEP
 70
44
  9
$DIMATFIT
 70
3
  9
$DIMFRAC
 70
0
  9
$DIMLDRBLK
  1

  9
$DIMLUNIT
 70
2
  9
$DIMLWD
 70
-2
  9
$DIMLWE
 70
-2
  9
$DIMTMOVE
 70
0
  9
$DIMFXL
 40
1.0
  9
$DIMFXLON
 70
0
  9
$DIMJOGANG
 40
0.785398163397
  9
$DIMTFILL
 70
0
  9
$DIMTFILLCLR
 70
0
  9
$DIMARCSYM
 70
0
  9
$DIMLTYPE
  6

  9
$DIMLTEX1
  6

  9
$DIMLTEX2
  6

  9
$LUNITS
 70
2
  9
$LUPREC
 70
4
  9
$SKETCHINC
 40
1.0
  9
$FILLETRAD
 40
10.0
  9
$AUNITS
 70
0
  9
$AUPREC
 70
2
  9
$MENU
  1
.
  9
$ELEVATION
 40
0.0
  9
$PELEVATION
 40
0.0
  9
$THICKNESS
 40
0.0
  9
$LIMCHECK
 70
0
  9
$CHAMFERA
 40
0.0
  9
$CHAMFERB
 40
0.0
  9
$CHAMFERC
 40
0.0
  9
$CHAMFERD
 40
0.0
  9
$SKPOLY
 70
0
  9
$TDCREATE
 40
2461164.6959953704
  9
$TDUPDATE
 40
2461164.6960069444
  9
$USRTIMER
 70
1
  9
$ANGBASE
 50
0.0
  9
$ANGDIR
 70
0
  9
$PDMODE
 70
0
  9
$PDSIZE
 40
0.0
  9
$PLINEWID
 40
0.0
  9
$SPLFRAME
 70
0
  9
$SPLINETYPE
 70
6
  9
$SPLINESEGS
 70
8
  9
$HANDSEED
  5
24A0D
  9
$SURFTAB1
 70
6
  9
$SURFTAB2
 70
6
  9
$SURFTYPE
 70
6
  9
$SURFU
 70
6
  9
$SURFV
 70
6
  9
$UCSBASE
  2

  9
$UCSNAME
  2

  9
$UCSORG
 10
0.0
 20
0.0
 30
0.0
  9
$UCSXDIR
 10
1.0
 20
0.0
 30
0.0
  9
$UCSYDIR
 10
0.0
 20
1.0
 30
0.0
  9
$UCSORTHOREF
  2

  9
$UCSORTHOVIEW
 70
0
  9
$UCSORGTOP
 10
0.0
 20
0.0
 30
0.0
  9
$UCSORGBOTTOM
 10
0.0
 20
0.0
 30
0.0
  9
$UCSORGLEFT
 10
0.0
 20
0.0
 30
0.0
  9
$UCSORGRIGHT
 10
0.0
 20
0.0
 30
0.0
  9
$UCSORGFRONT
 10
0.0
 20
0.0
 30
0.0
  9
$UCSORGBACK
 10
0.0
 20
0.0
 30
0.0
  9
$PUCSBASE
  2

  9
$PUCSNAME
  2

  9
$PUCSORG
 10
0.0
 20
0.0
 30
0.0
  9
$PUCSXDIR
 10
1.0
 20
0.0
 30
0.0
  9
$PUCSYDIR
 10
0.0
 20
1.0
 30
0.0
  9
$PUCSORTHOREF
  2

  9
$PUCSORTHOVIEW
 70
0
  9
$PUCSORGTOP
 10
0.0
 20
0.0
 30
0.0
  9
$PUCSORGBOTTOM
 10
0.0
 20
0.0
 30
0.0
  9
$PUCSORGLEFT
 10
0.0
 20
0.0
 30
0.0
  9
$PUCSORGRIGHT
 10
0.0
 20
0.0
 30
0.0
  9
$PUCSORGFRONT
 10
0.0
 20
0.0
 30
0.0
  9
$PUCSORGBACK
 10
0.0
 20
0.0
 30
0.0
  9
$USERI1
 70
0
  9
$USERI2
 70
0
  9
$USERI3
 70
0
  9
$USERI4
 70
0
  9
$USERI5
 70
0
  9
$USERR1
 40
0.0
  9
$USERR2
 40
0.0
  9
$USERR3
 40
0.0
  9
$USERR4
 40
0.0
  9
$USERR5
 40
0.0
  9
$WORLDVIEW
 70
1
  9
$SHADEDGE
 70
3
  9
$SHADEDIF
 70
70
  9
$TILEMODE
 70
1
  9
$MAXACTVP
 70
64
  9
$PINSBASE
 10
0.0
 20
0.0
 30
0.0
  9
$PLIMCHECK
 70
0
  9
$PEXTMIN
 10
1e+20
 20
1e+20
 30
1e+20
  9
$PEXTMAX
 10
-1e+20
 20
-1e+20
 30
-1e+20
  9
$PLIMMIN
 10
0.0
 20
0.0
  9
$PLIMMAX
 10
420.0
 20
297.0
  9
$UNITMODE
 70
0
  9
$VISRETAIN
 70
1
  9
$PLINEGEN
 70
0
  9
$PSLTSCALE
 70
1
  9
$TREEDEPTH
 70
3020
  9
$CMLSTYLE
  2
Standard
  9
$CMLJUST
 70
0
  9
$CMLSCALE
 40
20.0
  9
$PROXYGRAPHICS
 70
1
  9
$MEASUREMENT
 70
1
  9
$CELWEIGHT
370
-1
  9
$ENDCAPS
280
0
  9
$JOINSTYLE
280
0
  9
$LWDISPLAY
290
0
  9
$INSUNITS
 70
6
  9
$HYPERLINKBASE
  1

  9
$STYLESHEET
  1

  9
$XEDIT
290
1
  9
$CEPSNTYPE
380
0
  9
$PSTYLEMODE
290
1
  9
$FINGERPRINTGUID
  2
{348CCA9D-C673-450F-BE33-908A08BBFF0A}
  9
$VERSIONGUID
  2
{2638B2AD-5BDE-4587-BA80-BB384C8E021D}
  9
$EXTNAMES
290
1
  9
$PSVPSCALE
 40
0.0
  9
$OLESTARTUP
290
0
  9
$SORTENTS
280
127
  9
$INDEXCTL
280
0
  9
$HIDETEXT
280
1
  9
$XCLIPFRAME
290
1
  9
$HALOGAP
280
0
  9
$OBSCOLOR
 70
257
  9
$OBSLTYPE
280
0
  9
$INTERSECTIONDISPLAY
280
0
  9
$INTERSECTIONCOLOR
 70
257
  9
$DIMASSOC
280
2
  9
$PROJECTNAME
  1

  9
$CAMERADISPLAY
290
0
  9
$LENSLENGTH
 40
50.0
  9
$CAMERAHEIGHT
 40
0.0
  9
$STEPSPERSEC
 40
24.0
  9
$STEPSIZE
 40
100.0
  9
$3DDWFPREC
 40
2.0
  9
$PSOLWIDTH
 40
0.005
  9
$PSOLHEIGHT
 40
0.08
  9
$LOFTANG1
 40
1.570796326795
  9
$LOFTANG2
 40
1.570796326795
  9
$LOFTMAG1
 40
0.0
  9
$LOFTMAG2
 40
0.0
  9
$LOFTPARAM
 70
7
  9
$LOFTNORMALS
280
1
  9
$LATITUDE
 40
37.795
  9
$LONGITUDE
 40
-122.394
  9
$NORTHDIRECTION
 40
0.0
  9
$TIMEZONE
 70
-8000
  9
$LIGHTGLYPHDISPLAY
280
1
  9
$TILEMODELIGHTSYNCH
280
1
  9
$CMATERIAL
347
2000F
  9
$SOLIDHIST
280
0
  9
$SHOWHIST
280
1
  9
$DWFFRAME
280
2
  9
$DGNFRAME
280
2
  9
$REALWORLDSCALE
290
1
  9
$INTERFERECOLOR
 62
256
  9
$CSHADOW
280
0
  9
$SHADOWPLANELOCATION
 40
0.0
  0
ENDSEC
  0
SECTION
  2
CLASSES
  0
CLASS
  1
ACDBDICTIONARYWDFLT
  2
AcDbDictionaryWithDefault
  3
ObjectDBX Classes
 90
0
 91
0
280
0
281
0
  0
CLASS
  1
SUN
  2
AcDbSun
  3
SCENEOE
 90
1153
 91
0
280
0
281
0
  0
CLASS
  1
VISUALSTYLE
  2
AcDbVisualStyle
  3
ObjectDBX Classes
 90
4095
 91
0
280
0
281
0
  0
CLASS
  1
MATERIAL
  2
AcDbMaterial
  3
ObjectDBX Classes
 90
1153
 91
0
280
0
281
0
  0
CLASS
  1
SCALE
  2
AcDbScale
  3
ObjectDBX Classes
 90
1153
 91
0
280
0
281
0
  0
CLASS
  1
TABLESTYLE
  2
AcDbTableStyle
  3
ObjectDBX Classes
 90
4095
 91
0
280
0
281
0
  0
CLASS
  1
MLEADERSTYLE
  2
AcDbMLeaderStyle
  3
ACDB_MLEADERSTYLE_CLASS
 90
4095
 91
0
280
0
281
0
  0
CLASS
  1
DICTIONARYVAR
  2
AcDbDictionaryVar
  3
ObjectDBX Classes
 90
0
 91
0
280
0
281
0
  0
CLASS
  1
CELLSTYLEMAP
  2
AcDbCellStyleMap
  3
ObjectDBX Classes
 90
1152
 91
0
280
0
281
0
  0
CLASS
  1
MENTALRAYRENDERSETTINGS
  2
AcDbMentalRayRenderSettings
  3
SCENEOE
 90
1024
 91
0
280
0
281
0
  0
CLASS
  1
ACDBDETAILVIEWSTYLE
  2
AcDbDetailViewStyle
  3
ObjectDBX Classes
 90
1025
 91
0
280
0
281
0
  0
CLASS
  1
ACDBSECTIONVIEWSTYLE
  2
AcDbSectionViewStyle
  3
ObjectDBX Classes
 90
1025
 91
0
280
0
281
0
  0
CLASS
  1
RASTERVARIABLES
  2
AcDbRasterVariables
  3
ISM
 90
0
 91
0
280
0
281
0
  0
CLASS
  1
LAYOUT
  2
AcDbLayout
  3
ObjectDBX Classes
 90
0
 91
0
280
0
281
0
  0
CLASS
  1
ACDBPLACEHOLDER
  2
AcDbPlaceHolder
  3
ObjectDBX Classes
 90
0
 91
0
280
0
281
0
  0
ENDSEC
  0
SECTION
  2
TABLES
  0
TABLE
  2
VPORT
  5
8
330
0
100
AcDbSymbolTable
 70
1
  0
VPORT
  5
31
330
8
100
AcDbSymbolTableRecord
100
AcDbViewportTableRecord
  2
*ACTIVE
 70
0
 10
0.0
 20
0.0
 11
1.0
 21
1.0
 12
142.7816412443661
 22
67.26956282090245
 13
0.0
 23
0.0
 14
10.0
 24
10.0
 15
10.0
 25
10.0
 16
0.0
 26
0.0
 36
1.0
 17
0.0
 27
0.0
 37
0.0
 40
139.4580462433333
 41
1.387988560533842
 42
50.0
 43
0.0
 44
0.0
 50
0.0
 51
0.0
 71
0
 72
100
 73
1
 74
3
 75
0
 76
0
 77
0
 78
0
281
0
 65
1
110
0.0
120
0.0
130
0.0
111
1.0
121
0.0
131
0.0
112
0.0
122
1.0
132
0.0
 79
0
146
0.0
 60
7
 61
5
348
10020
292
1
282
1
141
0.0
142
0.0
 63
250
421
3358443
  0
ENDTAB
  0
TABLE
  2
LTYPE
  5
5
330
0
100
AcDbSymbolTable
 70
27
  0
LTYPE
  5
14
330
5
100
AcDbSymbolTableRecord
100
AcDbLinetypeTableRecord
  2
ByBlock
 70
0
  3

 72
65
 73
0
 40
0.0
  0
LTYPE
  5
15
330
5
100
AcDbSymbolTableRecord
100
AcDbLinetypeTableRecord
  2
ByLayer
 70
0
  3

 72
65
 73
0
 40
0.0
  0
LTYPE
  5
16
330
5
100
AcDbSymbolTableRecord
100
AcDbLinetypeTableRecord
  2
Continuous
 70
0
  3
Solid line
 72
65
 73
0
 40
0.0
  0
LTYPE
  5
32
330
5
100
AcDbSymbolTableRecord
100
AcDbLinetypeTableRecord
  2
DOT
 70
0
  3
Dot . . . . . . . . . . . . . . . . . . . . . .
 72
65
 73
2
 40
6.35
 49
0.0
 74
0
 49
-6.35
 74
0
  0
LTYPE
  5
33
330
5
100
AcDbSymbolTableRecord
100
AcDbLinetypeTableRecord
  2
DOTTINY
 70
0
  3
Dot (.15x) .....................................
 72
65
 73
2
 40
0.9525
 49
0.0
 74
0
 49
-0.9525
 74
0
  0
LTYPE
  5
34
330
5
100
AcDbSymbolTableRecord
100
AcDbLinetypeTableRecord
  2
DOT2
 70
0
  3
Dot (.5x) .....................................
 72
65
 73
2
 40
3.175
 49
0.0
 74
0
 49
-3.175
 74
0
  0
LTYPE
  5
35
330
5
100
AcDbSymbolTableRecord
100
AcDbLinetypeTableRecord
  2
DOTX2
 70
0
  3
Dot (2x) .  .  .  .  .  .  .  .  .  .  .  .  .
 72
65
 73
2
 40
12.7
 49
0.0
 74
0
 49
-12.7
 74
0
  0
LTYPE
  5
36
330
5
100
AcDbSymbolTableRecord
100
AcDbLinetypeTableRecord
  2
DASHED
 70
0
  3
Dashed _ _ _ _ _ _ _ _ _ _ _ _ _ _ _ _ _
 72
65
 73
2
 40
19.05
 49
12.7
 74
0
 49
-6.35
 74
0
  0
LTYPE
  5
37
330
5
100
AcDbSymbolTableRecord
100
AcDbLinetypeTableRecord
  2
DASHEDTINY
 70
0
  3
Dashed (.15x) _ _ _ _ _ _ _ _ _ _ _ _ _ _ _ _ _
 72
65
 73
2
 40
2.8575
 49
1.905
 74
0
 49
-0.9525
 74
0
  0
LTYPE
  5
38
330
5
100
AcDbSymbolTableRecord
100
AcDbLinetypeTableRecord
  2
DASHED2
 70
0
  3
Dashed (.5x) _ _ _ _ _ _ _ _ _ _ _ _ _ _ _ _ _
 72
65
 73
2
 40
9.524999999999999
 49
6.35
 74
0
 49
-3.175
 74
0
  0
LTYPE
  5
39
330
5
100
AcDbSymbolTableRecord
100
AcDbLinetypeTableRecord
  2
DASHEDX2
 70
0
  3
Dashed (2x) ____  ____  ____  ____  ____  ___
 72
65
 73
2
 40
38.09999999999999
 49
25.4
 74
0
 49
-12.7
 74
0
  0
LTYPE
  5
3A
330
5
100
AcDbSymbolTableRecord
100
AcDbLinetypeTableRecord
  2
DASHDOT
 70
0
  3
Dash dot __ . __ . __ . __ . __ . __ . __ . __
 72
65
 73
4
 40
25.4
 49
12.7
 74
0
 49
-6.35
 74
0
 49
0.0
 74
0
 49
-6.35
 74
0
  0
LTYPE
  5
3B
330
5
100
AcDbSymbolTableRecord
100
AcDbLinetypeTableRecord
  2
DASHDOTTINY
 70
0
  3
Dash dot (.15x) _._._._._._._._._._._._._._._.
 72
65
 73
4
 40
3.81
 49
1.905
 74
0
 49
-0.9525
 74
0
 49
0.0
 74
0
 49
-0.9525
 74
0
  0
LTYPE
  5
3C
330
5
100
AcDbSymbolTableRecord
100
AcDbLinetypeTableRecord
  2
DASHDOT2
 70
0
  3
Dash dot (.5x) _._._._._._._._._._._._._._._.
 72
65
 73
4
 40
12.7
 49
6.35
 74
0
 49
-3.175
 74
0
 49
0.0
 74
0
 49
-3.175
 74
0
  0
LTYPE
  5
3D
330
5
100
AcDbSymbolTableRecord
100
AcDbLinetypeTableRecord
  2
DASHDOTX2
 70
0
  3
Dash dot (2x) ____  .  ____  .  ____  .  ___
 72
65
 73
4
 40
50.8
 49
25.4
 74
0
 49
-12.7
 74
0
 49
0.0
 74
0
 49
-12.7
 74
0
  0
LTYPE
  5
3E
330
5
100
AcDbSymbolTableRecord
100
AcDbLinetypeTableRecord
  2
DIVIDE
 70
0
  3
Divide ____ . . ____ . . ____ . . ____ . . ____
 72
65
 73
6
 40
31.75
 49
12.7
 74
0
 49
-6.35
 74
0
 49
0.0
 74
0
 49
-6.35
 74
0
 49
0.0
 74
0
 49
-6.35
 74
0
  0
LTYPE
  5
3F
330
5
100
AcDbSymbolTableRecord
100
AcDbLinetypeTableRecord
  2
DIVIDETINY
 70
0
  3
Divide (.15x) __..__..__..__..__..__..__..__.._
 72
65
 73
6
 40
4.7625
 49
1.905
 74
0
 49
-0.9525
 74
0
 49
0.0
 74
0
 49
-0.9525
 74
0
 49
0.0
 74
0
 49
-0.9525
 74
0
  0
LTYPE
  5
40
330
5
100
AcDbSymbolTableRecord
100
AcDbLinetypeTableRecord
  2
DIVIDE2
 70
0
  3
Divide (.5x) __..__..__..__..__..__..__..__.._
 72
65
 73
6
 40
15.875
 49
6.35
 74
0
 49
-3.175
 74
0
 49
0.0
 74
0
 49
-3.175
 74
0
 49
0.0
 74
0
 49
-3.175
 74
0
  0
LTYPE
  5
41
330
5
100
AcDbSymbolTableRecord
100
AcDbLinetypeTableRecord
  2
DIVIDEX2
 70
0
  3
Divide (2x) ________  .  .  ________  .  .  _
 72
65
 73
6
 40
63.5
 49
25.4
 74
0
 49
-12.7
 74
0
 49
0.0
 74
0
 49
-12.7
 74
0
 49
0.0
 74
0
 49
-12.7
 74
0
  0
LTYPE
  5
42
330
5
100
AcDbSymbolTableRecord
100
AcDbLinetypeTableRecord
  2
BORDER
 70
0
  3
Border __ __ . __ __ . __ __ . __ __ . __ __ .
 72
65
 73
6
 40
44.45
 49
12.7
 74
0
 49
-6.35
 74
0
 49
12.7
 74
0
 49
-6.35
 74
0
 49
0.0
 74
0
 49
-6.35
 74
0
  0
LTYPE
  5
43
330
5
100
AcDbSymbolTableRecord
100
AcDbLinetypeTableRecord
  2
BORDERTINY
 70
0
  3
Border (.15x) __.__.__.__.__.__.__.__.__.__.__.
 72
65
 73
6
 40
6.6675
 49
1.905
 74
0
 49
-0.9525
 74
0
 49
1.905
 74
0
 49
-0.9525
 74
0
 49
0.0
 74
0
 49
-0.9525
 74
0
  0
LTYPE
  5
44
330
5
100
AcDbSymbolTableRecord
100
AcDbLinetypeTableRecord
  2
BORDER2
 70
0
  3
Border (.5x) __.__.__.__.__.__.__.__.__.__.__.
 72
65
 73
6
 40
22.225
 49
6.35
 74
0
 49
-3.175
 74
0
 49
6.35
 74
0
 49
-3.175
 74
0
 49
0.0
 74
0
 49
-3.175
 74
0
  0
LTYPE
  5
45
330
5
100
AcDbSymbolTableRecord
100
AcDbLinetypeTableRecord
  2
BORDERX2
 70
0
  3
Border (2x) ____  ____  .  ____  ____  .  ___
 72
65
 73
6
 40
88.89999999999999
 49
25.4
 74
0
 49
-12.7
 74
0
 49
25.4
 74
0
 49
-12.7
 74
0
 49
0.0
 74
0
 49
-12.7
 74
0
  0
LTYPE
  5
46
330
5
100
AcDbSymbolTableRecord
100
AcDbLinetypeTableRecord
  2
CENTER
 70
0
  3
Center ____ _ ____ _ ____ _ ____ _ ____ _ ____
 72
65
 73
4
 40
50.8
 49
31.75
 74
0
 49
-6.35
 74
0
 49
6.35
 74
0
 49
-6.35
 74
0
  0
LTYPE
  5
47
330
5
100
AcDbSymbolTableRecord
100
AcDbLinetypeTableRecord
  2
CENTERTINY
 70
0
  3
Center (.15x) ___ _ ___ _ ___ _ ___ _ ___ _ ___
 72
65
 73
4
 40
7.619999999999999
 49
4.7625
 74
0
 49
-0.9525
 74
0
 49
0.9525
 74
0
 49
-0.9525
 74
0
  0
LTYPE
  5
48
330
5
100
AcDbSymbolTableRecord
100
AcDbLinetypeTableRecord
  2
CENTER2
 70
0
  3
Center (.5x) ___ _ ___ _ ___ _ ___ _ ___ _ ___
 72
65
 73
4
 40
28.575
 49
19.05
 74
0
 49
-3.175
 74
0
 49
3.175
 74
0
 49
-3.175
 74
0
  0
LTYPE
  5
49
330
5
100
AcDbSymbolTableRecord
100
AcDbLinetypeTableRecord
  2
CENTERX2
 70
0
  3
Center (2x) ________  __  ________  __  _____
 72
65
 73
4
 40
101.6
 49
63.5
 74
0
 49
-12.7
 74
0
 49
12.7
 74
0
 49
-12.7
 74
0
  0
ENDTAB
  0
TABLE
  2
LAYER
  5
2
330
0
100
AcDbSymbolTable
 70
3
  0
LAYER
  5
10
330
2
100
AcDbSymbolTableRecord
100
AcDbLayerTableRecord
  2
0
 70
0
 62
7
  6
CONTINUOUS
370
-3
390
F
347
20010
  0
LAYER
  5
4A
330
2
100
AcDbSymbolTableRecord
100
AcDbLayerTableRecord
  2
Defpoints
 70
0
 62
7
  6
CONTINUOUS
290
0
370
-3
390
F
347
20010
  0
LAYER
  5
4B
330
2
100
AcDbSymbolTableRecord
100
AcDbLayerTableRecord
  2
engraving
 70
0
 62
1
  6
CONTINUOUS
370
-3
390
F
347
20010
  0
ENDTAB
  0
TABLE
  2
STYLE
  5
3
330
0
100
AcDbSymbolTable
 70
1
  0
STYLE
  5
4C
330
3
100
AcDbSymbolTableRecord
100
AcDbTextStyleTableRecord
  2
Standard
 70
0
 40
0.0
 41
1.0
 50
0.0
 71
0
 42
1.0
  3
txt
  4

  0
ENDTAB
  0
TABLE
  2
VIEW
  5
6
330
0
100
AcDbSymbolTable
 70
0
  0
ENDTAB
  0
TABLE
  2
UCS
  5
7
330
0
100
AcDbSymbolTable
 70
0
  0
ENDTAB
  0
TABLE
  2
APPID
  5
9
330
0
100
AcDbSymbolTable
 70
4
  0
APPID
  5
12
330
9
100
AcDbSymbolTableRecord
100
AcDbRegAppTableRecord
  2
ACAD
 70
0
  0
APPID
  5
4D
330
9
100
AcDbSymbolTableRecord
100
AcDbRegAppTableRecord
  2
LibreCad
 70
0
  0
APPID
  5
2022F
330
9
100
AcDbSymbolTableRecord
100
AcDbRegAppTableRecord
  2
HATCHBACKGROUNDCOLOR
 70
0
  0
APPID
  5
20230
330
9
100
AcDbSymbolTableRecord
100
AcDbRegAppTableRecord
  2
EZDXF
 70
0
  0
ENDTAB
  0
TABLE
  2
DIMSTYLE
  5
A
330
0
100
AcDbSymbolTable
 70
1
100
AcDbDimStyleTable
  0
DIMSTYLE
105
4E
330
A
100
AcDbSymbolTableRecord
100
AcDbDimStyleTableRecord
  2
Standard
 70
0
 40
1.0
 41
2.5
 42
0.625
 43
0.38
 44
1.25
 45
0.0
 46
0.0
 47
0.0
 48
0.0
 49
1.0
140
2.5
141
0.09
142
0.0
143
25.4
144
1.0
145
0.0
146
1.0
147
0.625
148
0.0
 69
0
 70
0
 71
0
 72
0
 73
0
 74
1
 75
0
 76
0
 77
0
 78
8
 79
0
170
0
171
2
172
0
173
0
174
0
175
0
176
0
177
0
178
0
179
0
271
2
272
4
273
2
274
2
275
0
276
0
277
2
278
44
279
0
280
0
281
0
282
0
283
1
284
0
285
0
286
0
288
0
289
3
290
0
340
4C
371
-2
372
-2
  0
ENDTAB
  0
TABLE
  2
BLOCK_RECORD
  5
1
330
0
100
AcDbSymbolTable
 70
3
  0
BLOCK_RECORD
  5
1F
330
1
100
AcDbSymbolTableRecord
100
AcDbBlockTableRecord
  2
*Model_Space
340
2000C
 70
0
280
1
281
0
  0
BLOCK_RECORD
  5
1E
330
1
100
AcDbSymbolTableRecord
100
AcDbBlockTableRecord
  2
*Paper_Space
340
2000D
 70
0
280
1
281
0
  0
BLOCK_RECORD
  5
4F
330
1
100
AcDbSymbolTableRecord
100
AcDbBlockTableRecord
  2
BASE_GEOMETRY
340
0
 70
0
280
1
281
0
  0
ENDTAB
  0
ENDSEC
  0
SECTION
  2
BLOCKS
  0
BLOCK
  5
20
330
1F
100
AcDbEntity
  8
0
100
AcDbBlockBegin
  2
*Model_Space
 70
0
 10
0.0
 20
0.0
 30
0.0
  3
*Model_Space
  1

  0
ENDBLK
  5
21
330
1F
100
AcDbEntity
  8
0
100
AcDbBlockEnd
  0
BLOCK
  5
1C
330
1E
100
AcDbEntity
  8
0
100
AcDbBlockBegin
  2
*Paper_Space
 70
0
 10
0.0
 20
0.0
 30
0.0
  3
*Paper_Space
  1

  0
ENDBLK
  5
1D
330
1E
100
AcDbEntity
  8
0
100
AcDbBlockEnd
  0
BLOCK
  5
50
330
4F
100
AcDbEntity
  8
0
100
AcDbBlockBegin
  2
BASE_GEOMETRY
 70
0
 10
0.0
 20
0.0
 30
0.0
  3
BASE_GEOMETRY
  1

  0
LINE
  5
247F1
330
4F
100
AcDbEntity
  8
0
100
AcDbLine
 10
150.16666666666669
 20
93.833333333333
 30
-0.49999999999999145
 11
149.66666666666669
 21
93.833333333333
 31
-0.4999999999999914
  0
LINE
  5
247F2
330
4F
100
AcDbEntity
  8
0
100
AcDbLine
 10
149.66666666666669
 20
93.833333333333
 30
-0.49999999999999145
 11
149.66666666666669
 21
89.833333333333
 31
-0.49999999999999145
  0
LINE
  5
247F3
330
4F
100
AcDbEntity
  8
0
100
AcDbLine
 10
150.16666666666669
 20
89.833333333333
 30
-0.49999999999999145
 11
149.66666666666669
 21
89.833333333333
 31
-0.4999999999999914
  0
LINE
  5
247F4
330
4F
100
AcDbEntity
  8
0
100
AcDbLine
 10
150.16666666666669
 20
93.833333333333
 30
-0.49999999999999145
 11
150.16666666666669
 21
89.833333333333
 31
-0.49999999999999145
  0
LINE
  5
247F5
330
4F
100
AcDbEntity
  8
0
100
AcDbLine
 10
149.66649999999998
 20
77.333333333333
 30
-0.49999999999999145
 11
149.66649999999998
 21
76.833333333333
 31
-0.49999999999999145
  0
LINE
  5
247F6
330
4F
100
AcDbEntity
  8
0
100
AcDbLine
 10
149.6665
 20
77.333333333333
 30
-0.49999999999998435
 11
130.33350000000002
 21
77.333333333333
 31
-0.49999999999998435
  0
LINE
  5
247F7
330
4F
100
AcDbEntity
  8
0
100
AcDbLine
 10
130.33350000000002
 20
77.333333333333
 30
-0.49999999999998435
 11
130.33350000000002
 21
76.833333333333
 31
-0.49999999999998435
  0
LINE
  5
247F8
330
4F
100
AcDbEntity
  8
0
100
AcDbLine
 10
149.6665
 20
76.833333333333
 30
-0.49999999999998435
 11
130.33350000000002
 21
76.833333333333
 31
-0.49999999999998435
  0
LINE
  5
247F9
330
4F
100
AcDbEntity
  8
0
100
AcDbLine
 10
150.16666666666669
 20
75.833333333333
 30
-0.49999999999999145
 11
149.66666666666669
 21
75.833333333333
 31
-0.4999999999999914
  0
LINE
  5
247FA
330
4F
100
AcDbEntity
  8
0
100
AcDbLine
 10
149.66666666666669
 20
75.833333333333
 30
-0.49999999999999145
 11
149.66666666666669
 21
71.833333333333
 31
-0.49999999999999145
  0
LINE
  5
247FB
330
4F
100
AcDbEntity
  8
0
100
AcDbLine
 10
150.16666666666669
 20
71.833333333333
 30
-0.49999999999999145
 11
149.66666666666669
 21
71.833333333333
 31
-0.4999999999999914
  0
LINE
  5
247FC
330
4F
100
AcDbEntity
  8
0
100
AcDbLine
 10
150.16666666666669
 20
75.833333333333
 30
-0.49999999999999145
 11
150.16666666666669
 21
71.833333333333
 31
-0.49999999999999145
  0
LINE
  5
247FD
330
4F
100
AcDbEntity
  8
0
100
AcDbLine
 10
149.66649999999998
 20
59.333333333333
 30
-0.49999999999999145
 11
149.66649999999998
 21
58.833333333333
 31
-0.49999999999999145
  0
LINE
  5
247FE
330
4F
100
AcDbEntity
  8
0
100
AcDbLine
 10
149.6665
 20
59.333333333333
 30
-0.49999999999998435
 11
130.33350000000002
 21
59.333333333333
 31
-0.49999999999998435
  0
LINE
  5
247FF
330
4F
100
AcDbEntity
  8
0
100
AcDbLine
 10
130.33350000000002
 20
59.333333333333
 30
-0.49999999999998435
 11
130.33350000000002
 21
58.833333333333
 31
-0.49999999999998435
  0
LINE
  5
24800
330
4F
100
AcDbEntity
  8
0
100
AcDbLine
 10
149.6665
 20
58.833333333333
 30
-0.49999999999998435
 11
130.33350000000002
 21
58.833333333333
 31
-0.49999999999998435
  0
LINE
  5
24801
330
4F
100
AcDbEntity
  8
0
100
AcDbLine
 10
150.16666666666669
 20
57.833333333333
 30
-0.49999999999999145
 11
149.66666666666669
 21
57.833333333333
 31
-0.4999999999999914
  0
LINE
  5
24802
330
4F
100
AcDbEntity
  8
0
100
AcDbLine
 10
149.66666666666669
 20
57.833333333333
 30
-0.49999999999999145
 11
149.66666666666669
 21
53.833333333333
 31
-0.49999999999999145
  0
LINE
  5
24803
330
4F
100
AcDbEntity
  8
0
100
AcDbLine
 10
150.16666666666669
 20
53.833333333333
 30
-0.49999999999999145
 11
149.66666666666669
 21
53.833333333333
 31
-0.4999999999999914
  0
LINE
  5
24804
330
4F
100
AcDbEntity
  8
0
100
AcDbLine
 10
150.16666666666669
 20
57.833333333333
 30
-0.49999999999999145
 11
150.16666666666669
 21
53.833333333333
 31
-0.49999999999999145
  0
LINE
  5
24805
330
4F
100
AcDbEntity
  8
0
100
AcDbLine
 10
149.66649999999998
 20
41.333333333333
 30
-0.49999999999999145
 11
149.66649999999998
 21
40.833333333333
 31
-0.49999999999999145
  0
LINE
  5
24806
330
4F
100
AcDbEntity
  8
0
100
AcDbLine
 10
149.6665
 20
41.333333333333
 30
-0.49999999999998435
 11
130.33350000000002
 21
41.333333333333
 31
-0.49999999999998435
  0
LINE
  5
24807
330
4F
100
AcDbEntity
  8
0
100
AcDbLine
 10
130.33350000000002
 20
41.333333333333
 30
-0.49999999999998435
 11
130.33350000000002
 21
40.833333333333
 31
-0.49999999999998435
  0
LINE
  5
24808
330
4F
100
AcDbEntity
  8
0
100
AcDbLine
 10
149.6665
 20
40.833333333333
 30
-0.49999999999998435
 11
130.33350000000002
 21
40.833333333333
 31
-0.49999999999998435
  0
LINE
  5
24809
330
4F
100
AcDbEntity
  8
0
100
AcDbLine
 10
150.16666666666669
 20
39.833333333333
 30
-0.49999999999999145
 11
149.66666666666669
 21
39.833333333333
 31
-0.4999999999999914
  0
LINE
  5
2480A
330
4F
100
AcDbEntity
  8
0
100
AcDbLine
 10
149.66666666666669
 20
39.833333333333
 30
-0.49999999999999145
 11
149.66666666666669
 21
35.833333333333
 31
-0.49999999999999145
  0
LINE
  5
2480B
330
4F
100
AcDbEntity
  8
0
100
AcDbLine
 10
150.16666666666669
 20
35.833333333333
 30
-0.49999999999999145
 11
149.66666666666669
 21
35.833333333333
 31
-0.4999999999999914
  0
LINE
  5
2480C
330
4F
100
AcDbEntity
  8
0
100
AcDbLine
 10
150.16666666666669
 20
39.833333333333
 30
-0.49999999999999145
 11
150.16666666666669
 21
35.833333333333
 31
-0.49999999999999145
  0
LINE
  5
2480D
330
4F
100
AcDbEntity
  8
0
100
AcDbLine
 10
149.66649999999998
 20
23.333333333333
 30
-0.49999999999999145
 11
149.66649999999998
 21
22.833333333333
 31
-0.49999999999999145
  0
LINE
  5
2480E
330
4F
100
AcDbEntity
  8
0
100
AcDbLine
 10
149.6665
 20
23.333333333333
 30
-0.49999999999998435
 11
130.33350000000002
 21
23.333333333333
 31
-0.49999999999998435
  0
LINE
  5
2480F
330
4F
100
AcDbEntity
  8
0
100
AcDbLine
 10
130.33350000000002
 20
23.333333333333
 30
-0.49999999999998435
 11
130.33350000000002
 21
22.833333333333
 31
-0.49999999999998435
  0
LINE
  5
24810
330
4F
100
AcDbEntity
  8
0
100
AcDbLine
 10
149.6665
 20
22.833333333333
 30
-0.49999999999998435
 11
130.33350000000002
 21
22.833333333333
 31
-0.49999999999998435
  0
LINE
  5
24811
330
4F
100
AcDbEntity
  8
0
100
AcDbLine
 10
150.16666666666669
 20
21.833333333333
 30
-0.49999999999999145
 11
149.66666666666669
 21
21.833333333333
 31
-0.4999999999999914
  0
LINE
  5
24812
330
4F
100
AcDbEntity
  8
0
100
AcDbLine
 10
149.66666666666669
 20
21.833333333333
 30
-0.49999999999999145
 11
149.66666666666669
 21
17.833333333333
 31
-0.49999999999999145
  0
LINE
  5
24813
330
4F
100
AcDbEntity
  8
0
100
AcDbLine
 10
150.16666666666669
 20
17.833333333333
 30
-0.49999999999999145
 11
149.66666666666669
 21
17.833333333333
 31
-0.4999999999999914
  0
LINE
  5
24814
330
4F
100
AcDbEntity
  8
0
100
AcDbLine
 10
150.16666666666669
 20
21.833333333333
 30
-0.49999999999999145
 11
150.16666666666669
 21
17.833333333333
 31
-0.49999999999999145
  0
LINE
  5
24815
330
4F
100
AcDbEntity
  8
0
100
AcDbLine
 10
145.0
 20
5.333333333333002
 30
-0.49999999999998435
 11
135.0
 21
5.333333333333002
 31
-0.49999999999998435
  0
LINE
  5
24816
330
4F
100
AcDbEntity
  8
0
100
AcDbLine
 10
145.0
 20
5.333333333333002
 30
-0.49999999999999145
 11
145.0
 21
5.833333333333002
 31
-0.49999999999999134
  0
LINE
  5
24817
330
4F
100
AcDbEntity
  8
0
100
AcDbLine
 10
135.0
 20
5.833333333333002
 30
-0.49999999999998435
 11
145.0
 21
5.833333333333002
 31
-0.49999999999998435
  0
LINE
  5
24818
330
4F
100
AcDbEntity
  8
0
100
AcDbLine
 10
135.0
 20
5.333333333333002
 30
-0.49999999999998435
 11
135.0
 21
5.833333333333002
 31
-0.49999999999998423
  0
LINE
  5
24819
330
4F
100
AcDbEntity
  8
0
100
AcDbLine
 10
135.0
 20
94.833333333333
 30
-0.49999999999998435
 11
135.0
 21
95.333333333333
 31
-0.49999999999998423
  0
LINE
  5
2481A
330
4F
100
AcDbEntity
  8
0
100
AcDbLine
 10
135.0
 20
94.833333333333
 30
-0.49999999999998435
 11
145.0
 21
94.833333333333
 31
-0.49999999999998435
  0
LINE
  5
2481B
330
4F
100
AcDbEntity
  8
0
100
AcDbLine
 10
145.0
 20
94.833333333333
 30
-0.49999999999999145
 11
145.0
 21
95.333333333333
 31
-0.49999999999999134
  0
LINE
  5
2481C
330
4F
100
AcDbEntity
  8
0
100
AcDbLine
 10
145.0
 20
95.333333333333
 30
-0.49999999999999856
 11
208.33333333333331
 21
95.333333333333
 31
-0.49999999999999856
  0
LINE
  5
2481D
330
4F
100
AcDbEntity
  8
0
100
AcDbLine
 10
208.33333333333331
 20
94.833333333333
 30
-0.49999999999999856
 11
208.33333333333331
 21
95.333333333333
 31
-0.49999999999999845
  0
LINE
  5
2481E
330
4F
100
AcDbEntity
  8
0
100
AcDbLine
 10
208.33333333333331
 20
94.833333333333
 30
-0.49999999999998435
 11
218.33333333333303
 21
94.833333333333
 31
-0.49999999999998435
  0
LINE
  5
2481F
330
4F
100
AcDbEntity
  8
0
100
AcDbLine
 10
218.33333333333303
 20
94.833333333333
 30
-0.49999999999999856
 11
218.33333333333303
 21
95.333333333333
 31
-0.49999999999999845
  0
LINE
  5
24820
330
4F
100
AcDbEntity
  8
0
100
AcDbLine
 10
218.333333333333
 20
95.333333333333
 30
-0.49999999999999856
 11
224.0
 21
95.333333333333
 31
-0.49999999999999856
  0
LINE
  5
24821
330
4F
100
AcDbEntity
  8
0
100
AcDbLine
 10
224.0
 20
95.333333333333
 30
-0.49999999999999856
 11
224.0
 21
0.0
 31
-0.49999999999999856
  0
LINE
  5
24822
330
4F
100
AcDbEntity
  8
0
100
AcDbLine
 10
0.0
 20
0.0
 30
-0.49999999999998435
 11
224.0
 21
0.0
 31
-0.49999999999998435
  0
LINE
  5
24823
330
4F
100
AcDbEntity
  8
0
100
AcDbLine
 10
1.4210854715202004e-14
 20
95.333333333333
 30
-0.49999999999997014
 11
1.4210854715202004e-14
 21
0.0
 31
-0.49999999999997014
  0
LINE
  5
24824
330
4F
100
AcDbEntity
  8
0
100
AcDbLine
 10
0.0
 20
95.333333333333
 30
-0.49999999999999856
 11
5.666666666666998
 21
95.333333333333
 31
-0.49999999999999856
  0
LINE
  5
24825
330
4F
100
AcDbEntity
  8
0
100
AcDbLine
 10
5.6666666666670125
 20
94.833333333333
 30
-0.49999999999997014
 11
5.6666666666670125
 21
95.333333333333
 31
-0.49999999999997
  0
LINE
  5
24826
330
4F
100
AcDbEntity
  8
0
100
AcDbLine
 10
5.6666666666670125
 20
94.833333333333
 30
-0.49999999999998435
 11
15.666666666666714
 21
94.833333333333
 31
-0.49999999999998435
  0
LINE
  5
24827
330
4F
100
AcDbEntity
  8
0
100
AcDbLine
 10
15.666666666666714
 20
94.833333333333
 30
-0.49999999999997014
 11
15.666666666666714
 21
95.333333333333
 31
-0.49999999999997
  0
LINE
  5
24828
330
4F
100
AcDbEntity
  8
0
100
AcDbLine
 10
15.666666666666686
 20
95.333333333333
 30
-0.49999999999999856
 11
79.0
 21
95.333333333333
 31
-0.49999999999999856
  0
LINE
  5
24829
330
4F
100
AcDbEntity
  8
0
100
AcDbLine
 10
79.0
 20
94.833333333333
 30
-0.49999999999997724
 11
79.0
 21
95.333333333333
 31
-0.49999999999997713
  0
LINE
  5
2482A
330
4F
100
AcDbEntity
  8
0
100
AcDbLine
 10
79.0
 20
94.833333333333
 30
-0.49999999999998435
 11
89.00000000000001
 21
94.833333333333
 31
-0.49999999999998435
  0
LINE
  5
2482B
330
4F
100
AcDbEntity
  8
0
100
AcDbLine
 10
89.0
 20
94.833333333333
 30
-0.49999999999998435
 11
89.0
 21
95.333333333333
 31
-0.49999999999998423
  0
LINE
  5
2482C
330
4F
100
AcDbEntity
  8
0
100
AcDbLine
 10
89.0
 20
95.333333333333
 30
-0.49999999999999856
 11
135.0
 21
95.333333333333
 31
-0.49999999999999856
  0
LINE
  5
2482D
330
4F
100
AcDbEntity
  8
0
100
AcDbLine
 10
130.3333333333334
 20
93.833333333333
 30
-0.49999999999998435
 11
130.3333333333334
 21
89.833333333333
 31
-0.49999999999998435
  0
LINE
  5
2482E
330
4F
100
AcDbEntity
  8
0
100
AcDbLine
 10
130.3333333333334
 20
93.833333333333
 30
-0.49999999999998435
 11
129.8333333333334
 21
93.833333333333
 31
-0.4999999999999843
  0
LINE
  5
2482F
330
4F
100
AcDbEntity
  8
0
100
AcDbLine
 10
129.8333333333334
 20
93.833333333333
 30
-0.49999999999998435
 11
129.8333333333334
 21
89.833333333333
 31
-0.49999999999998435
  0
LINE
  5
24830
330
4F
100
AcDbEntity
  8
0
100
AcDbLine
 10
130.3333333333334
 20
89.833333333333
 30
-0.49999999999998435
 11
129.8333333333334
 21
89.833333333333
 31
-0.4999999999999843
  0
LINE
  5
24831
330
4F
100
AcDbEntity
  8
0
100
AcDbLine
 10
130.3333333333334
 20
75.833333333333
 30
-0.49999999999998435
 11
130.3333333333334
 21
71.833333333333
 31
-0.49999999999998435
  0
LINE
  5
24832
330
4F
100
AcDbEntity
  8
0
100
AcDbLine
 10
130.3333333333334
 20
75.833333333333
 30
-0.49999999999998435
 11
129.8333333333334
 21
75.833333333333
 31
-0.4999999999999843
  0
LINE
  5
24833
330
4F
100
AcDbEntity
  8
0
100
AcDbLine
 10
129.8333333333334
 20
75.833333333333
 30
-0.49999999999998435
 11
129.8333333333334
 21
71.833333333333
 31
-0.49999999999998435
  0
LINE
  5
24834
330
4F
100
AcDbEntity
  8
0
100
AcDbLine
 10
130.3333333333334
 20
71.833333333333
 30
-0.49999999999998435
 11
129.8333333333334
 21
71.833333333333
 31
-0.4999999999999843
  0
LINE
  5
24835
330
4F
100
AcDbEntity
  8
0
100
AcDbLine
 10
130.3333333333334
 20
57.833333333333
 30
-0.49999999999998435
 11
130.3333333333334
 21
53.833333333333
 31
-0.49999999999998435
  0
LINE
  5
24836
330
4F
100
AcDbEntity
  8
0
100
AcDbLine
 10
130.3333333333334
 20
57.833333333333
 30
-0.49999999999998435
 11
129.8333333333334
 21
57.833333333333
 31
-0.4999999999999843
  0
LINE
  5
24837
330
4F
100
AcDbEntity
  8
0
100
AcDbLine
 10
129.8333333333334
 20
57.833333333333
 30
-0.49999999999998435
 11
129.8333333333334
 21
53.833333333333
 31
-0.49999999999998435
  0
LINE
  5
24838
330
4F
100
AcDbEntity
  8
0
100
AcDbLine
 10
130.3333333333334
 20
53.833333333333
 30
-0.49999999999998435
 11
129.8333333333334
 21
53.833333333333
 31
-0.4999999999999843
  0
LINE
  5
24839
330
4F
100
AcDbEntity
  8
0
100
AcDbLine
 10
130.3333333333334
 20
39.833333333333
 30
-0.49999999999998435
 11
130.3333333333334
 21
35.833333333333
 31
-0.49999999999998435
  0
LINE
  5
2483A
330
4F
100
AcDbEntity
  8
0
100
AcDbLine
 10
130.3333333333334
 20
39.833333333333
 30
-0.49999999999998435
 11
129.8333333333334
 21
39.833333333333
 31
-0.4999999999999843
  0
LINE
  5
2483B
330
4F
100
AcDbEntity
  8
0
100
AcDbLine
 10
129.8333333333334
 20
39.833333333333
 30
-0.49999999999998435
 11
129.8333333333334
 21
35.833333333333
 31
-0.49999999999998435
  0
LINE
  5
2483C
330
4F
100
AcDbEntity
  8
0
100
AcDbLine
 10
130.3333333333334
 20
35.833333333333
 30
-0.49999999999998435
 11
129.8333333333334
 21
35.833333333333
 31
-0.4999999999999843
  0
LINE
  5
2483D
330
4F
100
AcDbEntity
  8
0
100
AcDbLine
 10
130.3333333333334
 20
21.833333333333
 30
-0.49999999999998435
 11
130.3333333333334
 21
17.833333333333
 31
-0.49999999999998435
  0
LINE
  5
2483E
330
4F
100
AcDbEntity
  8
0
100
AcDbLine
 10
130.3333333333334
 20
21.833333333333
 30
-0.49999999999998435
 11
129.8333333333334
 21
21.833333333333
 31
-0.4999999999999843
  0
LINE
  5
2483F
330
4F
100
AcDbEntity
  8
0
100
AcDbLine
 10
129.8333333333334
 20
21.833333333333
 30
-0.49999999999998435
 11
129.8333333333334
 21
17.833333333333
 31
-0.49999999999998435
  0
LINE
  5
24840
330
4F
100
AcDbEntity
  8
0
100
AcDbLine
 10
130.3333333333334
 20
17.833333333333
 30
-0.49999999999998435
 11
129.8333333333334
 21
17.833333333333
 31
-0.4999999999999843
  0
LINE
  5
24841
330
4F
100
AcDbEntity
  8
0
100
AcDbLine
 10
93.6666666666666
 20
17.833333333333
 30
-0.49999999999998435
 11
93.6666666666666
 21
21.833333333333
 31
-0.49999999999998435
  0
LINE
  5
24842
330
4F
100
AcDbEntity
  8
0
100
AcDbLine
 10
93.6666666666666
 20
17.833333333333
 30
-0.49999999999998435
 11
94.1666666666666
 21
17.833333333333
 31
-0.4999999999999844
  0
LINE
  5
24843
330
4F
100
AcDbEntity
  8
0
100
AcDbLine
 10
94.1666666666666
 20
17.833333333333
 30
-0.49999999999998435
 11
94.1666666666666
 21
21.833333333333
 31
-0.49999999999998435
  0
LINE
  5
24844
330
4F
100
AcDbEntity
  8
0
100
AcDbLine
 10
93.6666666666666
 20
21.833333333333
 30
-0.49999999999998435
 11
94.1666666666666
 21
21.833333333333
 31
-0.4999999999999844
  0
LINE
  5
24845
330
4F
100
AcDbEntity
  8
0
100
AcDbLine
 10
93.66650000000001
 20
22.833333333333
 30
-0.49999999999998435
 11
74.33350000000002
 21
22.833333333333
 31
-0.49999999999998435
  0
LINE
  5
24846
330
4F
100
AcDbEntity
  8
0
100
AcDbLine
 10
93.66650000000001
 20
23.333333333333
 30
-0.49999999999998435
 11
93.66650000000001
 21
22.833333333333
 31
-0.49999999999998435
  0
LINE
  5
24847
330
4F
100
AcDbEntity
  8
0
100
AcDbLine
 10
93.66650000000001
 20
23.333333333333
 30
-0.49999999999998435
 11
74.33350000000002
 21
23.333333333333
 31
-0.49999999999998435
  0
LINE
  5
24848
330
4F
100
AcDbEntity
  8
0
100
AcDbLine
 10
74.3335
 20
23.333333333333
 30
-0.49999999999997724
 11
74.3335
 21
22.833333333333
 31
-0.49999999999997724
  0
LINE
  5
24849
330
4F
100
AcDbEntity
  8
0
100
AcDbLine
 10
93.6666666666666
 20
35.833333333333
 30
-0.49999999999998435
 11
93.6666666666666
 21
39.833333333333
 31
-0.49999999999998435
  0
LINE
  5
2484A
330
4F
100
AcDbEntity
  8
0
100
AcDbLine
 10
93.6666666666666
 20
35.833333333333
 30
-0.49999999999998435
 11
94.1666666666666
 21
35.833333333333
 31
-0.4999999999999844
  0
LINE
  5
2484B
330
4F
100
AcDbEntity
  8
0
100
AcDbLine
 10
94.1666666666666
 20
35.833333333333
 30
-0.49999999999998435
 11
94.1666666666666
 21
39.833333333333
 31
-0.49999999999998435
  0
LINE
  5
2484C
330
4F
100
AcDbEntity
  8
0
100
AcDbLine
 10
93.6666666666666
 20
39.833333333333
 30
-0.49999999999998435
 11
94.1666666666666
 21
39.833333333333
 31
-0.4999999999999844
  0
LINE
  5
2484D
330
4F
100
AcDbEntity
  8
0
100
AcDbLine
 10
93.66650000000001
 20
40.833333333333
 30
-0.49999999999998435
 11
74.33350000000002
 21
40.833333333333
 31
-0.49999999999998435
  0
LINE
  5
2484E
330
4F
100
AcDbEntity
  8
0
100
AcDbLine
 10
93.66650000000001
 20
41.333333333333
 30
-0.49999999999998435
 11
93.66650000000001
 21
40.833333333333
 31
-0.49999999999998435
  0
LINE
  5
2484F
330
4F
100
AcDbEntity
  8
0
100
AcDbLine
 10
93.66650000000001
 20
41.333333333333
 30
-0.49999999999998435
 11
74.33350000000002
 21
41.333333333333
 31
-0.49999999999998435
  0
LINE
  5
24850
330
4F
100
AcDbEntity
  8
0
100
AcDbLine
 10
74.3335
 20
41.333333333333
 30
-0.49999999999997724
 11
74.3335
 21
40.833333333333
 31
-0.49999999999997724
  0
LINE
  5
24851
330
4F
100
AcDbEntity
  8
0
100
AcDbLine
 10
93.6666666666666
 20
53.833333333333
 30
-0.49999999999998435
 11
93.6666666666666
 21
57.833333333333
 31
-0.49999999999998435
  0
LINE
  5
24852
330
4F
100
AcDbEntity
  8
0
100
AcDbLine
 10
93.6666666666666
 20
53.833333333333
 30
-0.49999999999998435
 11
94.1666666666666
 21
53.833333333333
 31
-0.4999999999999844
  0
LINE
  5
24853
330
4F
100
AcDbEntity
  8
0
100
AcDbLine
 10
94.1666666666666
 20
53.833333333333
 30
-0.49999999999998435
 11
94.1666666666666
 21
57.833333333333
 31
-0.49999999999998435
  0
LINE
  5
24854
330
4F
100
AcDbEntity
  8
0
100
AcDbLine
 10
93.6666666666666
 20
57.833333333333
 30
-0.49999999999998435
 11
94.1666666666666
 21
57.833333333333
 31
-0.4999999999999844
  0
LINE
  5
24855
330
4F
100
AcDbEntity
  8
0
100
AcDbLine
 10
93.66650000000001
 20
58.833333333333
 30
-0.49999999999998435
 11
74.33350000000002
 21
58.833333333333
 31
-0.49999999999998435
  0
LINE
  5
24856
330
4F
100
AcDbEntity
  8
0
100
AcDbLine
 10
93.66650000000001
 20
59.333333333333
 30
-0.49999999999998435
 11
93.66650000000001
 21
58.833333333333
 31
-0.49999999999998435
  0
LINE
  5
24857
330
4F
100
AcDbEntity
  8
0
100
AcDbLine
 10
93.66650000000001
 20
59.333333333333
 30
-0.49999999999998435
 11
74.33350000000002
 21
59.333333333333
 31
-0.49999999999998435
  0
LINE
  5
24858
330
4F
100
AcDbEntity
  8
0
100
AcDbLine
 10
74.3335
 20
59.333333333333
 30
-0.49999999999997724
 11
74.3335
 21
58.833333333333
 31
-0.49999999999997724
  0
LINE
  5
24859
330
4F
100
AcDbEntity
  8
0
100
AcDbLine
 10
93.6666666666666
 20
71.833333333333
 30
-0.49999999999998435
 11
93.6666666666666
 21
75.833333333333
 31
-0.49999999999998435
  0
LINE
  5
2485A
330
4F
100
AcDbEntity
  8
0
100
AcDbLine
 10
93.6666666666666
 20
71.833333333333
 30
-0.49999999999998435
 11
94.1666666666666
 21
71.833333333333
 31
-0.4999999999999844
  0
LINE
  5
2485B
330
4F
100
AcDbEntity
  8
0
100
AcDbLine
 10
94.1666666666666
 20
71.833333333333
 30
-0.49999999999998435
 11
94.1666666666666
 21
75.833333333333
 31
-0.49999999999998435
  0
LINE
  5
2485C
330
4F
100
AcDbEntity
  8
0
100
AcDbLine
 10
93.6666666666666
 20
75.833333333333
 30
-0.49999999999998435
 11
94.1666666666666
 21
75.833333333333
 31
-0.4999999999999844
  0
LINE
  5
2485D
330
4F
100
AcDbEntity
  8
0
100
AcDbLine
 10
93.66650000000001
 20
76.833333333333
 30
-0.49999999999998435
 11
74.33350000000002
 21
76.833333333333
 31
-0.49999999999998435
  0
LINE
  5
2485E
330
4F
100
AcDbEntity
  8
0
100
AcDbLine
 10
93.66650000000001
 20
77.333333333333
 30
-0.49999999999998435
 11
93.66650000000001
 21
76.833333333333
 31
-0.49999999999998435
  0
LINE
  5
2485F
330
4F
100
AcDbEntity
  8
0
100
AcDbLine
 10
93.66650000000001
 20
77.333333333333
 30
-0.49999999999998435
 11
74.33350000000002
 21
77.333333333333
 31
-0.49999999999998435
  0
LINE
  5
24860
330
4F
100
AcDbEntity
  8
0
100
AcDbLine
 10
74.3335
 20
77.333333333333
 30
-0.49999999999997724
 11
74.3335
 21
76.833333333333
 31
-0.49999999999997724
  0
LINE
  5
24861
330
4F
100
AcDbEntity
  8
0
100
AcDbLine
 10
93.6666666666666
 20
89.833333333333
 30
-0.49999999999998435
 11
93.6666666666666
 21
93.833333333333
 31
-0.49999999999998435
  0
LINE
  5
24862
330
4F
100
AcDbEntity
  8
0
100
AcDbLine
 10
93.6666666666666
 20
89.833333333333
 30
-0.49999999999998435
 11
94.1666666666666
 21
89.833333333333
 31
-0.4999999999999844
  0
LINE
  5
24863
330
4F
100
AcDbEntity
  8
0
100
AcDbLine
 10
94.1666666666666
 20
89.833333333333
 30
-0.49999999999998435
 11
94.1666666666666
 21
93.833333333333
 31
-0.49999999999998435
  0
LINE
  5
24864
330
4F
100
AcDbEntity
  8
0
100
AcDbLine
 10
93.6666666666666
 20
93.833333333333
 30
-0.49999999999998435
 11
94.1666666666666
 21
93.833333333333
 31
-0.4999999999999844
  0
LINE
  5
24865
330
4F
100
AcDbEntity
  8
0
100
AcDbLine
 10
73.8333333333333
 20
17.833333333333
 30
-0.49999999999997724
 11
74.3333333333333
 21
17.833333333333
 31
-0.4999999999999773
  0
LINE
  5
24866
330
4F
100
AcDbEntity
  8
0
100
AcDbLine
 10
74.3333333333333
 20
17.833333333333
 30
-0.49999999999997724
 11
74.3333333333333
 21
21.833333333333
 31
-0.49999999999997724
  0
LINE
  5
24867
330
4F
100
AcDbEntity
  8
0
100
AcDbLine
 10
73.8333333333333
 20
21.833333333333
 30
-0.49999999999997724
 11
74.3333333333333
 21
21.833333333333
 31
-0.4999999999999773
  0
LINE
  5
24868
330
4F
100
AcDbEntity
  8
0
100
AcDbLine
 10
73.8333333333333
 20
17.833333333333
 30
-0.49999999999997724
 11
73.8333333333333
 21
21.833333333333
 31
-0.49999999999997724
  0
LINE
  5
24869
330
4F
100
AcDbEntity
  8
0
100
AcDbLine
 10
73.8333333333333
 20
35.833333333333
 30
-0.49999999999997724
 11
74.3333333333333
 21
35.833333333333
 31
-0.4999999999999773
  0
LINE
  5
2486A
330
4F
100
AcDbEntity
  8
0
100
AcDbLine
 10
74.3333333333333
 20
35.833333333333
 30
-0.49999999999997724
 11
74.3333333333333
 21
39.833333333333
 31
-0.49999999999997724
  0
LINE
  5
2486B
330
4F
100
AcDbEntity
  8
0
100
AcDbLine
 10
73.8333333333333
 20
39.833333333333
 30
-0.49999999999997724
 11
74.3333333333333
 21
39.833333333333
 31
-0.4999999999999773
  0
LINE
  5
2486C
330
4F
100
AcDbEntity
  8
0
100
AcDbLine
 10
73.8333333333333
 20
35.833333333333
 30
-0.49999999999997724
 11
73.8333333333333
 21
39.833333333333
 31
-0.49999999999997724
  0
LINE
  5
2486D
330
4F
100
AcDbEntity
  8
0
100
AcDbLine
 10
73.8333333333333
 20
53.833333333333
 30
-0.49999999999997724
 11
74.3333333333333
 21
53.833333333333
 31
-0.4999999999999773
  0
LINE
  5
2486E
330
4F
100
AcDbEntity
  8
0
100
AcDbLine
 10
74.3333333333333
 20
53.833333333333
 30
-0.49999999999997724
 11
74.3333333333333
 21
57.833333333333
 31
-0.49999999999997724
  0
LINE
  5
2486F
330
4F
100
AcDbEntity
  8
0
100
AcDbLine
 10
73.8333333333333
 20
57.833333333333
 30
-0.49999999999997724
 11
74.3333333333333
 21
57.833333333333
 31
-0.4999999999999773
  0
LINE
  5
24870
330
4F
100
AcDbEntity
  8
0
100
AcDbLine
 10
73.8333333333333
 20
53.833333333333
 30
-0.49999999999997724
 11
73.8333333333333
 21
57.833333333333
 31
-0.49999999999997724
  0
LINE
  5
24871
330
4F
100
AcDbEntity
  8
0
100
AcDbLine
 10
73.8333333333333
 20
71.833333333333
 30
-0.49999999999997724
 11
74.3333333333333
 21
71.833333333333
 31
-0.4999999999999773
  0
LINE
  5
24872
330
4F
100
AcDbEntity
  8
0
100
AcDbLine
 10
74.3333333333333
 20
71.833333333333
 30
-0.49999999999997724
 11
74.3333333333333
 21
75.833333333333
 31
-0.49999999999997724
  0
LINE
  5
24873
330
4F
100
AcDbEntity
  8
0
100
AcDbLine
 10
73.8333333333333
 20
75.833333333333
 30
-0.49999999999997724
 11
74.3333333333333
 21
75.833333333333
 31
-0.4999999999999773
  0
LINE
  5
24874
330
4F
100
AcDbEntity
  8
0
100
AcDbLine
 10
73.8333333333333
 20
71.833333333333
 30
-0.49999999999997724
 11
73.8333333333333
 21
75.833333333333
 31
-0.49999999999997724
  0
LINE
  5
24875
330
4F
100
AcDbEntity
  8
0
100
AcDbLine
 10
73.8333333333333
 20
89.833333333333
 30
-0.49999999999997724
 11
74.3333333333333
 21
89.833333333333
 31
-0.4999999999999773
  0
LINE
  5
24876
330
4F
100
AcDbEntity
  8
0
100
AcDbLine
 10
74.3333333333333
 20
89.833333333333
 30
-0.49999999999997724
 11
74.3333333333333
 21
93.833333333333
 31
-0.49999999999997724
  0
LINE
  5
24877
330
4F
100
AcDbEntity
  8
0
100
AcDbLine
 10
73.8333333333333
 20
93.833333333333
 30
-0.49999999999997724
 11
74.3333333333333
 21
93.833333333333
 31
-0.4999999999999773
  0
LINE
  5
24878
330
4F
100
AcDbEntity
  8
0
100
AcDbLine
 10
73.8333333333333
 20
89.833333333333
 30
-0.49999999999997724
 11
73.8333333333333
 21
93.833333333333
 31
-0.49999999999997724
  0
LINE
  5
24879
330
4F
100
AcDbEntity
  8
0
100
AcDbLine
 10
79.0
 20
5.333333333333002
 30
-0.49999999999997724
 11
79.0
 21
5.833333333333002
 31
-0.49999999999997713
  0
LINE
  5
2487A
330
4F
100
AcDbEntity
  8
0
100
AcDbLine
 10
79.0
 20
5.333333333333002
 30
-0.49999999999998435
 11
89.00000000000001
 21
5.333333333333002
 31
-0.49999999999998435
  0
LINE
  5
2487B
330
4F
100
AcDbEntity
  8
0
100
AcDbLine
 10
89.0
 20
5.333333333333002
 30
-0.49999999999998435
 11
89.0
 21
5.833333333333002
 31
-0.49999999999998423
  0
LINE
  5
2487C
330
4F
100
AcDbEntity
  8
0
100
AcDbLine
 10
79.0
 20
5.833333333333002
 30
-0.49999999999998435
 11
89.00000000000001
 21
5.833333333333002
 31
-0.49999999999998435
  0
LINE
  5
2487D
330
4F
100
AcDbEntity
  8
0
100
AcDbLine
 10
5.6666666666670125
 20
5.333333333333002
 30
-0.49999999999997014
 11
5.6666666666670125
 21
5.833333333333002
 31
-0.49999999999997
  0
LINE
  5
2487E
330
4F
100
AcDbEntity
  8
0
100
AcDbLine
 10
5.6666666666670125
 20
5.333333333333002
 30
-0.49999999999998435
 11
15.666666666666714
 21
5.333333333333002
 31
-0.49999999999998435
  0
LINE
  5
2487F
330
4F
100
AcDbEntity
  8
0
100
AcDbLine
 10
15.666666666666714
 20
5.333333333333002
 30
-0.49999999999997014
 11
15.666666666666714
 21
5.833333333333002
 31
-0.49999999999997
  0
LINE
  5
24880
330
4F
100
AcDbEntity
  8
0
100
AcDbLine
 10
5.6666666666670125
 20
5.833333333333002
 30
-0.49999999999998435
 11
15.666666666666714
 21
5.833333333333002
 31
-0.49999999999998435
  0
LINE
  5
24881
330
4F
100
AcDbEntity
  8
0
100
AcDbLine
 10
0.5000000000000142
 20
17.833333333333
 30
-0.49999999999997014
 11
1.0000000000000142
 21
17.833333333333
 31
-0.4999999999999702
  0
LINE
  5
24882
330
4F
100
AcDbEntity
  8
0
100
AcDbLine
 10
1.0000000000000142
 20
17.833333333333
 30
-0.49999999999997014
 11
1.0000000000000142
 21
21.833333333333
 31
-0.49999999999997014
  0
LINE
  5
24883
330
4F
100
AcDbEntity
  8
0
100
AcDbLine
 10
0.5000000000000142
 20
21.833333333333
 30
-0.49999999999997014
 11
1.0000000000000142
 21
21.833333333333
 31
-0.4999999999999702
  0
LINE
  5
24884
330
4F
100
AcDbEntity
  8
0
100
AcDbLine
 10
0.5000000000000142
 20
17.833333333333
 30
-0.49999999999997014
 11
0.5000000000000142
 21
21.833333333333
 31
-0.49999999999997014
  0
LINE
  5
24885
330
4F
100
AcDbEntity
  8
0
100
AcDbLine
 10
1.0000000000000142
 20
23.333333333333
 30
-0.49999999999997014
 11
1.0000000000000142
 21
22.833333333333
 31
-0.49999999999997014
  0
LINE
  5
24886
330
4F
100
AcDbEntity
  8
0
100
AcDbLine
 10
20.333333333333314
 20
22.833333333333
 30
-0.49999999999998435
 11
1.0000000000000142
 21
22.833333333333
 31
-0.49999999999998435
  0
LINE
  5
24887
330
4F
100
AcDbEntity
  8
0
100
AcDbLine
 10
20.333333333333314
 20
23.333333333333
 30
-0.49999999999997014
 11
20.333333333333314
 21
22.833333333333
 31
-0.49999999999997014
  0
LINE
  5
24888
330
4F
100
AcDbEntity
  8
0
100
AcDbLine
 10
20.333333333333314
 20
23.333333333333
 30
-0.49999999999998435
 11
1.0000000000000142
 21
23.333333333333
 31
-0.49999999999998435
  0
LINE
  5
24889
330
4F
100
AcDbEntity
  8
0
100
AcDbLine
 10
0.5000000000000142
 20
35.833333333333
 30
-0.49999999999997014
 11
1.0000000000000142
 21
35.833333333333
 31
-0.4999999999999702
  0
LINE
  5
2488A
330
4F
100
AcDbEntity
  8
0
100
AcDbLine
 10
1.0000000000000142
 20
35.833333333333
 30
-0.49999999999997014
 11
1.0000000000000142
 21
39.833333333333
 31
-0.49999999999997014
  0
LINE
  5
2488B
330
4F
100
AcDbEntity
  8
0
100
AcDbLine
 10
0.5000000000000142
 20
39.833333333333
 30
-0.49999999999997014
 11
1.0000000000000142
 21
39.833333333333
 31
-0.4999999999999702
  0
LINE
  5
2488C
330
4F
100
AcDbEntity
  8
0
100
AcDbLine
 10
0.5000000000000142
 20
35.833333333333
 30
-0.49999999999997014
 11
0.5000000000000142
 21
39.833333333333
 31
-0.49999999999997014
  0
LINE
  5
2488D
330
4F
100
AcDbEntity
  8
0
100
AcDbLine
 10
1.0000000000000142
 20
41.333333333333
 30
-0.49999999999997014
 11
1.0000000000000142
 21
40.833333333333
 31
-0.49999999999997014
  0
LINE
  5
2488E
330
4F
100
AcDbEntity
  8
0
100
AcDbLine
 10
20.333333333333314
 20
40.833333333333
 30
-0.49999999999998435
 11
1.0000000000000142
 21
40.833333333333
 31
-0.49999999999998435
  0
LINE
  5
2488F
330
4F
100
AcDbEntity
  8
0
100
AcDbLine
 10
20.333333333333314
 20
41.333333333333
 30
-0.49999999999997014
 11
20.333333333333314
 21
40.833333333333
 31
-0.49999999999997014
  0
LINE
  5
24890
330
4F
100
AcDbEntity
  8
0
100
AcDbLine
 10
20.333333333333314
 20
41.333333333333
 30
-0.49999999999998435
 11
1.0000000000000142
 21
41.333333333333
 31
-0.49999999999998435
  0
LINE
  5
24891
330
4F
100
AcDbEntity
  8
0
100
AcDbLine
 10
0.5000000000000142
 20
53.833333333333
 30
-0.49999999999997014
 11
1.0000000000000142
 21
53.833333333333
 31
-0.4999999999999702
  0
LINE
  5
24892
330
4F
100
AcDbEntity
  8
0
100
AcDbLine
 10
1.0000000000000142
 20
53.833333333333
 30
-0.49999999999997014
 11
1.0000000000000142
 21
57.833333333333
 31
-0.49999999999997014
  0
LINE
  5
24893
330
4F
100
AcDbEntity
  8
0
100
AcDbLine
 10
0.5000000000000142
 20
57.833333333333
 30
-0.49999999999997014
 11
1.0000000000000142
 21
57.833333333333
 31
-0.4999999999999702
  0
LINE
  5
24894
330
4F
100
AcDbEntity
  8
0
100
AcDbLine
 10
0.5000000000000142
 20
53.833333333333
 30
-0.49999999999997014
 11
0.5000000000000142
 21
57.833333333333
 31
-0.49999999999997014
  0
LINE
  5
24895
330
4F
100
AcDbEntity
  8
0
100
AcDbLine
 10
1.0000000000000142
 20
59.333333333333
 30
-0.49999999999997014
 11
1.0000000000000142
 21
58.833333333333
 31
-0.49999999999997014
  0
LINE
  5
24896
330
4F
100
AcDbEntity
  8
0
100
AcDbLine
 10
20.333333333333314
 20
58.833333333333
 30
-0.49999999999998435
 11
1.0000000000000142
 21
58.833333333333
 31
-0.49999999999998435
  0
LINE
  5
24897
330
4F
100
AcDbEntity
  8
0
100
AcDbLine
 10
20.333333333333314
 20
59.333333333333
 30
-0.49999999999997014
 11
20.333333333333314
 21
58.833333333333
 31
-0.49999999999997014
  0
LINE
  5
24898
330
4F
100
AcDbEntity
  8
0
100
AcDbLine
 10
20.333333333333314
 20
59.333333333333
 30
-0.49999999999998435
 11
1.0000000000000142
 21
59.333333333333
 31
-0.49999999999998435
  0
LINE
  5
24899
330
4F
100
AcDbEntity
  8
0
100
AcDbLine
 10
0.5000000000000142
 20
71.833333333333
 30
-0.49999999999997014
 11
1.0000000000000142
 21
71.833333333333
 31
-0.4999999999999702
  0
LINE
  5
2489A
330
4F
100
AcDbEntity
  8
0
100
AcDbLine
 10
1.0000000000000142
 20
71.833333333333
 30
-0.49999999999997014
 11
1.0000000000000142
 21
75.833333333333
 31
-0.49999999999997014
  0
LINE
  5
2489B
330
4F
100
AcDbEntity
  8
0
100
AcDbLine
 10
0.5000000000000142
 20
75.833333333333
 30
-0.49999999999997014
 11
1.0000000000000142
 21
75.833333333333
 31
-0.4999999999999702
  0
LINE
  5
2489C
330
4F
100
AcDbEntity
  8
0
100
AcDbLine
 10
0.5000000000000142
 20
71.833333333333
 30
-0.49999999999997014
 11
0.5000000000000142
 21
75.833333333333
 31
-0.49999999999997014
  0
LINE
  5
2489D
330
4F
100
AcDbEntity
  8
0
100
AcDbLine
 10
1.0000000000000142
 20
77.333333333333
 30
-0.49999999999997014
 11
1.0000000000000142
 21
76.833333333333
 31
-0.49999999999997014
  0
LINE
  5
2489E
330
4F
100
AcDbEntity
  8
0
100
AcDbLine
 10
20.333333333333314
 20
76.833333333333
 30
-0.49999999999998435
 11
1.0000000000000142
 21
76.833333333333
 31
-0.49999999999998435
  0
LINE
  5
2489F
330
4F
100
AcDbEntity
  8
0
100
AcDbLine
 10
20.333333333333314
 20
77.333333333333
 30
-0.49999999999997014
 11
20.333333333333314
 21
76.833333333333
 31
-0.49999999999997014
  0
LINE
  5
248A0
330
4F
100
AcDbEntity
  8
0
100
AcDbLine
 10
20.333333333333314
 20
77.333333333333
 30
-0.49999999999998435
 11
1.0000000000000142
 21
77.333333333333
 31
-0.49999999999998435
  0
LINE
  5
248A1
330
4F
100
AcDbEntity
  8
0
100
AcDbLine
 10
0.5000000000000142
 20
89.833333333333
 30
-0.49999999999997014
 11
1.0000000000000142
 21
89.833333333333
 31
-0.4999999999999702
  0
LINE
  5
248A2
330
4F
100
AcDbEntity
  8
0
100
AcDbLine
 10
1.0000000000000142
 20
89.833333333333
 30
-0.49999999999997014
 11
1.0000000000000142
 21
93.833333333333
 31
-0.49999999999997014
  0
LINE
  5
248A3
330
4F
100
AcDbEntity
  8
0
100
AcDbLine
 10
0.5000000000000142
 20
93.833333333333
 30
-0.49999999999997014
 11
1.0000000000000142
 21
93.833333333333
 31
-0.4999999999999702
  0
LINE
  5
248A4
330
4F
100
AcDbEntity
  8
0
100
AcDbLine
 10
0.5000000000000142
 20
89.833333333333
 30
-0.49999999999997014
 11
0.5000000000000142
 21
93.833333333333
 31
-0.49999999999997014
  0
LINE
  5
248A5
330
4F
100
AcDbEntity
  8
0
100
AcDbLine
 10
20.333333333333314
 20
17.833333333333
 30
-0.49999999999997014
 11
20.333333333333314
 21
21.833333333333
 31
-0.49999999999997014
  0
LINE
  5
248A6
330
4F
100
AcDbEntity
  8
0
100
AcDbLine
 10
20.333333333333314
 20
17.833333333333
 30
-0.49999999999997014
 11
20.833333333333314
 21
17.833333333333
 31
-0.4999999999999702
  0
LINE
  5
248A7
330
4F
100
AcDbEntity
  8
0
100
AcDbLine
 10
20.833333333333314
 20
17.833333333333
 30
-0.49999999999997014
 11
20.833333333333314
 21
21.833333333333
 31
-0.49999999999997014
  0
LINE
  5
248A8
330
4F
100
AcDbEntity
  8
0
100
AcDbLine
 10
20.333333333333314
 20
21.833333333333
 30
-0.49999999999997014
 11
20.833333333333314
 21
21.833333333333
 31
-0.4999999999999702
  0
LINE
  5
248A9
330
4F
100
AcDbEntity
  8
0
100
AcDbLine
 10
20.333333333333314
 20
35.833333333333
 30
-0.49999999999997014
 11
20.333333333333314
 21
39.833333333333
 31
-0.49999999999997014
  0
LINE
  5
248AA
330
4F
100
AcDbEntity
  8
0
100
AcDbLine
 10
20.333333333333314
 20
35.833333333333
 30
-0.49999999999997014
 11
20.833333333333314
 21
35.833333333333
 31
-0.4999999999999702
  0
LINE
  5
248AB
330
4F
100
AcDbEntity
  8
0
100
AcDbLine
 10
20.833333333333314
 20
35.833333333333
 30
-0.49999999999997014
 11
20.833333333333314
 21
39.833333333333
 31
-0.49999999999997014
  0
LINE
  5
248AC
330
4F
100
AcDbEntity
  8
0
100
AcDbLine
 10
20.333333333333314
 20
39.833333333333
 30
-0.49999999999997014
 11
20.833333333333314
 21
39.833333333333
 31
-0.4999999999999702
  0
LINE
  5
248AD
330
4F
100
AcDbEntity
  8
0
100
AcDbLine
 10
20.333333333333314
 20
53.833333333333
 30
-0.49999999999997014
 11
20.333333333333314
 21
57.833333333333
 31
-0.49999999999997014
  0
LINE
  5
248AE
330
4F
100
AcDbEntity
  8
0
100
AcDbLine
 10
20.333333333333314
 20
53.833333333333
 30
-0.49999999999997014
 11
20.833333333333314
 21
53.833333333333
 31
-0.4999999999999702
  0
LINE
  5
248AF
330
4F
100
AcDbEntity
  8
0
100
AcDbLine
 10
20.833333333333314
 20
53.833333333333
 30
-0.49999999999997014
 11
20.833333333333314
 21
57.833333333333
 31
-0.49999999999997014
  0
LINE
  5
248B0
330
4F
100
AcDbEntity
  8
0
100
AcDbLine
 10
20.333333333333314
 20
57.833333333333
 30
-0.49999999999997014
 11
20.833333333333314
 21
57.833333333333
 31
-0.4999999999999702
  0
LINE
  5
248B1
330
4F
100
AcDbEntity
  8
0
100
AcDbLine
 10
20.333333333333314
 20
71.833333333333
 30
-0.49999999999997014
 11
20.333333333333314
 21
75.833333333333
 31
-0.49999999999997014
  0
LINE
  5
248B2
330
4F
100
AcDbEntity
  8
0
100
AcDbLine
 10
20.333333333333314
 20
71.833333333333
 30
-0.49999999999997014
 11
20.833333333333314
 21
71.833333333333
 31
-0.4999999999999702
  0
LINE
  5
248B3
330
4F
100
AcDbEntity
  8
0
100
AcDbLine
 10
20.833333333333314
 20
71.833333333333
 30
-0.49999999999997014
 11
20.833333333333314
 21
75.833333333333
 31
-0.49999999999997014
  0
LINE
  5
248B4
330
4F
100
AcDbEntity
  8
0
100
AcDbLine
 10
20.333333333333314
 20
75.833333333333
 30
-0.49999999999997014
 11
20.833333333333314
 21
75.833333333333
 31
-0.4999999999999702
  0
LINE
  5
248B5
330
4F
100
AcDbEntity
  8
0
100
AcDbLine
 10
20.333333333333314
 20
89.833333333333
 30
-0.49999999999997014
 11
20.333333333333314
 21
93.833333333333
 31
-0.49999999999997014
  0
LINE
  5
248B6
330
4F
100
AcDbEntity
  8
0
100
AcDbLine
 10
20.333333333333314
 20
89.833333333333
 30
-0.49999999999997014
 11
20.833333333333314
 21
89.833333333333
 31
-0.4999999999999702
  0
LINE
  5
248B7
330
4F
100
AcDbEntity
  8
0
100
AcDbLine
 10
20.833333333333314
 20
89.833333333333
 30
-0.49999999999997014
 11
20.833333333333314
 21
93.833333333333
 31
-0.49999999999997014
  0
LINE
  5
248B8
330
4F
100
AcDbEntity
  8
0
100
AcDbLine
 10
20.333333333333314
 20
93.833333333333
 30
-0.49999999999997014
 11
20.833333333333314
 21
93.833333333333
 31
-0.4999999999999702
  0
LINE
  5
248B9
330
4F
100
AcDbEntity
  8
0
100
AcDbLine
 10
203.6666666666667
 20
93.833333333333
 30
-0.49999999999999856
 11
203.6666666666667
 21
89.833333333333
 31
-0.49999999999999856
  0
LINE
  5
248BA
330
4F
100
AcDbEntity
  8
0
100
AcDbLine
 10
203.6666666666667
 20
93.833333333333
 30
-0.49999999999999856
 11
203.1666666666667
 21
93.833333333333
 31
-0.4999999999999985
  0
LINE
  5
248BB
330
4F
100
AcDbEntity
  8
0
100
AcDbLine
 10
203.1666666666667
 20
93.833333333333
 30
-0.49999999999999856
 11
203.1666666666667
 21
89.833333333333
 31
-0.49999999999999856
  0
LINE
  5
248BC
330
4F
100
AcDbEntity
  8
0
100
AcDbLine
 10
203.6666666666667
 20
89.833333333333
 30
-0.49999999999999856
 11
203.1666666666667
 21
89.833333333333
 31
-0.4999999999999985
  0
LINE
  5
248BD
330
4F
100
AcDbEntity
  8
0
100
AcDbLine
 10
223.0
 20
77.333333333333
 30
-0.49999999999998435
 11
203.6666666666667
 21
77.333333333333
 31
-0.49999999999998435
  0
LINE
  5
248BE
330
4F
100
AcDbEntity
  8
0
100
AcDbLine
 10
203.6666666666667
 20
77.333333333333
 30
-0.49999999999999856
 11
203.6666666666667
 21
76.833333333333
 31
-0.49999999999999856
  0
LINE
  5
248BF
330
4F
100
AcDbEntity
  8
0
100
AcDbLine
 10
223.0
 20
76.833333333333
 30
-0.49999999999998435
 11
203.6666666666667
 21
76.833333333333
 31
-0.49999999999998435
  0
LINE
  5
248C0
330
4F
100
AcDbEntity
  8
0
100
AcDbLine
 10
223.0
 20
77.333333333333
 30
-0.49999999999999856
 11
223.0
 21
76.833333333333
 31
-0.49999999999999856
  0
LINE
  5
248C1
330
4F
100
AcDbEntity
  8
0
100
AcDbLine
 10
203.6666666666667
 20
75.833333333333
 30
-0.49999999999999856
 11
203.6666666666667
 21
71.833333333333
 31
-0.49999999999999856
  0
LINE
  5
248C2
330
4F
100
AcDbEntity
  8
0
100
AcDbLine
 10
203.6666666666667
 20
75.833333333333
 30
-0.49999999999999856
 11
203.1666666666667
 21
75.833333333333
 31
-0.4999999999999985
  0
LINE
  5
248C3
330
4F
100
AcDbEntity
  8
0
100
AcDbLine
 10
203.1666666666667
 20
75.833333333333
 30
-0.49999999999999856
 11
203.1666666666667
 21
71.833333333333
 31
-0.49999999999999856
  0
LINE
  5
248C4
330
4F
100
AcDbEntity
  8
0
100
AcDbLine
 10
203.6666666666667
 20
71.833333333333
 30
-0.49999999999999856
 11
203.1666666666667
 21
71.833333333333
 31
-0.4999999999999985
  0
LINE
  5
248C5
330
4F
100
AcDbEntity
  8
0
100
AcDbLine
 10
223.0
 20
59.333333333333
 30
-0.49999999999998435
 11
203.6666666666667
 21
59.333333333333
 31
-0.49999999999998435
  0
LINE
  5
248C6
330
4F
100
AcDbEntity
  8
0
100
AcDbLine
 10
203.6666666666667
 20
59.333333333333
 30
-0.49999999999999856
 11
203.6666666666667
 21
58.833333333333
 31
-0.49999999999999856
  0
LINE
  5
248C7
330
4F
100
AcDbEntity
  8
0
100
AcDbLine
 10
223.0
 20
58.833333333333
 30
-0.49999999999998435
 11
203.6666666666667
 21
58.833333333333
 31
-0.49999999999998435
  0
LINE
  5
248C8
330
4F
100
AcDbEntity
  8
0
100
AcDbLine
 10
223.0
 20
59.333333333333
 30
-0.49999999999999856
 11
223.0
 21
58.833333333333
 31
-0.49999999999999856
  0
LINE
  5
248C9
330
4F
100
AcDbEntity
  8
0
100
AcDbLine
 10
203.6666666666667
 20
57.833333333333
 30
-0.49999999999999856
 11
203.6666666666667
 21
53.833333333333
 31
-0.49999999999999856
  0
LINE
  5
248CA
330
4F
100
AcDbEntity
  8
0
100
AcDbLine
 10
203.6666666666667
 20
57.833333333333
 30
-0.49999999999999856
 11
203.1666666666667
 21
57.833333333333
 31
-0.4999999999999985
  0
LINE
  5
248CB
330
4F
100
AcDbEntity
  8
0
100
AcDbLine
 10
203.1666666666667
 20
57.833333333333
 30
-0.49999999999999856
 11
203.1666666666667
 21
53.833333333333
 31
-0.49999999999999856
  0
LINE
  5
248CC
330
4F
100
AcDbEntity
  8
0
100
AcDbLine
 10
203.6666666666667
 20
53.833333333333
 30
-0.49999999999999856
 11
203.1666666666667
 21
53.833333333333
 31
-0.4999999999999985
  0
LINE
  5
248CD
330
4F
100
AcDbEntity
  8
0
100
AcDbLine
 10
223.0
 20
41.333333333333
 30
-0.49999999999998435
 11
203.6666666666667
 21
41.333333333333
 31
-0.49999999999998435
  0
LINE
  5
248CE
330
4F
100
AcDbEntity
  8
0
100
AcDbLine
 10
203.6666666666667
 20
41.333333333333
 30
-0.49999999999999856
 11
203.6666666666667
 21
40.833333333333
 31
-0.49999999999999856
  0
LINE
  5
248CF
330
4F
100
AcDbEntity
  8
0
100
AcDbLine
 10
223.0
 20
40.833333333333
 30
-0.49999999999998435
 11
203.6666666666667
 21
40.833333333333
 31
-0.49999999999998435
  0
LINE
  5
248D0
330
4F
100
AcDbEntity
  8
0
100
AcDbLine
 10
223.0
 20
41.333333333333
 30
-0.49999999999999856
 11
223.0
 21
40.833333333333
 31
-0.49999999999999856
  0
LINE
  5
248D1
330
4F
100
AcDbEntity
  8
0
100
AcDbLine
 10
203.6666666666667
 20
39.833333333333
 30
-0.49999999999999856
 11
203.6666666666667
 21
35.833333333333
 31
-0.49999999999999856
  0
LINE
  5
248D2
330
4F
100
AcDbEntity
  8
0
100
AcDbLine
 10
203.6666666666667
 20
39.833333333333
 30
-0.49999999999999856
 11
203.1666666666667
 21
39.833333333333
 31
-0.4999999999999985
  0
LINE
  5
248D3
330
4F
100
AcDbEntity
  8
0
100
AcDbLine
 10
203.1666666666667
 20
39.833333333333
 30
-0.49999999999999856
 11
203.1666666666667
 21
35.833333333333
 31
-0.49999999999999856
  0
LINE
  5
248D4
330
4F
100
AcDbEntity
  8
0
100
AcDbLine
 10
203.6666666666667
 20
35.833333333333
 30
-0.49999999999999856
 11
203.1666666666667
 21
35.833333333333
 31
-0.4999999999999985
  0
LINE
  5
248D5
330
4F
100
AcDbEntity
  8
0
100
AcDbLine
 10
223.0
 20
23.333333333333
 30
-0.49999999999998435
 11
203.6666666666667
 21
23.333333333333
 31
-0.49999999999998435
  0
LINE
  5
248D6
330
4F
100
AcDbEntity
  8
0
100
AcDbLine
 10
203.6666666666667
 20
23.333333333333
 30
-0.49999999999999856
 11
203.6666666666667
 21
22.833333333333
 31
-0.49999999999999856
  0
LINE
  5
248D7
330
4F
100
AcDbEntity
  8
0
100
AcDbLine
 10
223.0
 20
22.833333333333
 30
-0.49999999999998435
 11
203.6666666666667
 21
22.833333333333
 31
-0.49999999999998435
  0
LINE
  5
248D8
330
4F
100
AcDbEntity
  8
0
100
AcDbLine
 10
223.0
 20
23.333333333333
 30
-0.49999999999999856
 11
223.0
 21
22.833333333333
 31
-0.49999999999999856
  0
LINE
  5
248D9
330
4F
100
AcDbEntity
  8
0
100
AcDbLine
 10
203.6666666666667
 20
21.833333333333
 30
-0.49999999999999856
 11
203.6666666666667
 21
17.833333333333
 31
-0.49999999999999856
  0
LINE
  5
248DA
330
4F
100
AcDbEntity
  8
0
100
AcDbLine
 10
203.6666666666667
 20
21.833333333333
 30
-0.49999999999999856
 11
203.1666666666667
 21
21.833333333333
 31
-0.4999999999999985
  0
LINE
  5
248DB
330
4F
100
AcDbEntity
  8
0
100
AcDbLine
 10
203.1666666666667
 20
21.833333333333
 30
-0.49999999999999856
 11
203.1666666666667
 21
17.833333333333
 31
-0.49999999999999856
  0
LINE
  5
248DC
330
4F
100
AcDbEntity
  8
0
100
AcDbLine
 10
203.6666666666667
 20
17.833333333333
 30
-0.49999999999999856
 11
203.1666666666667
 21
17.833333333333
 31
-0.4999999999999985
  0
LINE
  5
248DD
330
4F
100
AcDbEntity
  8
0
100
AcDbLine
 10
218.33333333333303
 20
5.333333333333002
 30
-0.49999999999998435
 11
208.33333333333331
 21
5.333333333333002
 31
-0.49999999999998435
  0
LINE
  5
248DE
330
4F
100
AcDbEntity
  8
0
100
AcDbLine
 10
218.33333333333303
 20
5.333333333333002
 30
-0.49999999999999856
 11
218.33333333333303
 21
5.833333333333002
 31
-0.49999999999999845
  0
LINE
  5
248DF
330
4F
100
AcDbEntity
  8
0
100
AcDbLine
 10
208.33333333333331
 20
5.833333333333002
 30
-0.49999999999998435
 11
218.33333333333303
 21
5.833333333333002
 31
-0.49999999999998435
  0
LINE
  5
248E0
330
4F
100
AcDbEntity
  8
0
100
AcDbLine
 10
208.33333333333331
 20
5.333333333333002
 30
-0.49999999999999856
 11
208.33333333333331
 21
5.833333333333002
 31
-0.49999999999999845
  0
LINE
  5
248E1
330
4F
100
AcDbEntity
  8
0
100
AcDbLine
 10
223.5
 20
93.833333333333
 30
-0.49999999999999856
 11
223.0
 21
93.833333333333
 31
-0.4999999999999985
  0
LINE
  5
248E2
330
4F
100
AcDbEntity
  8
0
100
AcDbLine
 10
223.0
 20
93.833333333333
 30
-0.49999999999999856
 11
223.0
 21
89.833333333333
 31
-0.49999999999999856
  0
LINE
  5
248E3
330
4F
100
AcDbEntity
  8
0
100
AcDbLine
 10
223.5
 20
89.833333333333
 30
-0.49999999999999856
 11
223.0
 21
89.833333333333
 31
-0.4999999999999985
  0
LINE
  5
248E4
330
4F
100
AcDbEntity
  8
0
100
AcDbLine
 10
223.5
 20
93.833333333333
 30
-0.49999999999999856
 11
223.5
 21
89.833333333333
 31
-0.49999999999999856
  0
LINE
  5
248E5
330
4F
100
AcDbEntity
  8
0
100
AcDbLine
 10
223.5
 20
75.833333333333
 30
-0.49999999999999856
 11
223.0
 21
75.833333333333
 31
-0.4999999999999985
  0
LINE
  5
248E6
330
4F
100
AcDbEntity
  8
0
100
AcDbLine
 10
223.0
 20
75.833333333333
 30
-0.49999999999999856
 11
223.0
 21
71.833333333333
 31
-0.49999999999999856
  0
LINE
  5
248E7
330
4F
100
AcDbEntity
  8
0
100
AcDbLine
 10
223.5
 20
71.833333333333
 30
-0.49999999999999856
 11
223.0
 21
71.833333333333
 31
-0.4999999999999985
  0
LINE
  5
248E8
330
4F
100
AcDbEntity
  8
0
100
AcDbLine
 10
223.5
 20
75.833333333333
 30
-0.49999999999999856
 11
223.5
 21
71.833333333333
 31
-0.49999999999999856
  0
LINE
  5
248E9
330
4F
100
AcDbEntity
  8
0
100
AcDbLine
 10
223.5
 20
57.833333333333
 30
-0.49999999999999856
 11
223.0
 21
57.833333333333
 31
-0.4999999999999985
  0
LINE
  5
248EA
330
4F
100
AcDbEntity
  8
0
100
AcDbLine
 10
223.0
 20
57.833333333333
 30
-0.49999999999999856
 11
223.0
 21
53.833333333333
 31
-0.49999999999999856
  0
LINE
  5
248EB
330
4F
100
AcDbEntity
  8
0
100
AcDbLine
 10
223.5
 20
53.833333333333
 30
-0.49999999999999856
 11
223.0
 21
53.833333333333
 31
-0.4999999999999985
  0
LINE
  5
248EC
330
4F
100
AcDbEntity
  8
0
100
AcDbLine
 10
223.5
 20
57.833333333333
 30
-0.49999999999999856
 11
223.5
 21
53.833333333333
 31
-0.49999999999999856
  0
LINE
  5
248ED
330
4F
100
AcDbEntity
  8
0
100
AcDbLine
 10
223.5
 20
39.833333333333
 30
-0.49999999999999856
 11
223.0
 21
39.833333333333
 31
-0.4999999999999985
  0
LINE
  5
248EE
330
4F
100
AcDbEntity
  8
0
100
AcDbLine
 10
223.0
 20
39.833333333333
 30
-0.49999999999999856
 11
223.0
 21
35.833333333333
 31
-0.49999999999999856
  0
LINE
  5
248EF
330
4F
100
AcDbEntity
  8
0
100
AcDbLine
 10
223.5
 20
35.833333333333
 30
-0.49999999999999856
 11
223.0
 21
35.833333333333
 31
-0.4999999999999985
  0
LINE
  5
248F0
330
4F
100
AcDbEntity
  8
0
100
AcDbLine
 10
223.5
 20
39.833333333333
 30
-0.49999999999999856
 11
223.5
 21
35.833333333333
 31
-0.49999999999999856
  0
LINE
  5
248F1
330
4F
100
AcDbEntity
  8
0
100
AcDbLine
 10
223.5
 20
21.833333333333
 30
-0.49999999999999856
 11
223.0
 21
21.833333333333
 31
-0.4999999999999985
  0
LINE
  5
248F2
330
4F
100
AcDbEntity
  8
0
100
AcDbLine
 10
223.0
 20
21.833333333333
 30
-0.49999999999999856
 11
223.0
 21
17.833333333333
 31
-0.49999999999999856
  0
LINE
  5
248F3
330
4F
100
AcDbEntity
  8
0
100
AcDbLine
 10
223.5
 20
17.833333333333
 30
-0.49999999999999856
 11
223.0
 21
17.833333333333
 31
-0.4999999999999985
  0
LINE
  5
248F4
330
4F
100
AcDbEntity
  8
0
100
AcDbLine
 10
223.5
 20
21.833333333333
 30
-0.49999999999999856
 11
223.5
 21
17.833333333333
 31
-0.49999999999999856
  0
LINE
  5
248F5
330
4F
100
AcDbEntity
  8
0
100
AcDbLine
 10
219.20000000000002
 20
21.266666666666296
 30
-0.49999999999999856
 11
219.20000000000002
 21
8.299999999999699
 31
-0.49999999999999856
  0
LINE
  5
248F6
330
4F
100
AcDbEntity
  8
0
100
AcDbLine
 10
219.20000000000002
 20
21.266666666666296
 30
-0.4999999999999991
 11
214.938888888889
 21
21.266666666666296
 31
-0.499999999999998
  0
LINE
  5
248F7
330
4F
100
AcDbEntity
  8
0
100
AcDbLine
 10
214.938888888889
 20
21.266666666666296
 30
-0.49999999999999856
 11
214.938888888889
 21
17.766666666666296
 31
-0.49999999999999856
  0
LINE
  5
248F8
330
4F
100
AcDbEntity
  8
0
100
AcDbLine
 10
207.46666666666673
 20
17.766666666666296
 30
-0.4999999999999976
 11
214.93888888888904
 21
17.766666666666296
 31
-0.4999999999999995
  0
LINE
  5
248F9
330
4F
100
AcDbEntity
  8
0
100
AcDbLine
 10
207.4666666666667
 20
17.766666666666296
 30
-0.49999999999999856
 11
207.4666666666667
 21
8.299999999999699
 31
-0.49999999999999856
  0
LINE
  5
248FA
330
4F
100
AcDbEntity
  8
0
100
AcDbLine
 10
207.46666666666673
 20
8.299999999999699
 30
-0.4999999999999971
 11
219.20000000000005
 21
8.299999999999699
 31
-0.5
  0
LINE
  5
248FB
330
4F
100
AcDbEntity
  8
0
100
AcDbLine
 10
52.33333333333331
 20
83.833333333333
 30
-0.49999999999998435
 11
42.333333333333314
 21
83.833333333333
 31
-0.49999999999998435
  0
LINE
  5
248FC
330
4F
100
AcDbEntity
  8
0
100
AcDbLine
 10
52.3333333333333
 20
83.833333333333
 30
-0.49999999999997724
 11
52.3333333333333
 21
84.333333333333
 31
-0.49999999999997724
  0
LINE
  5
248FD
330
4F
100
AcDbEntity
  8
0
100
AcDbLine
 10
52.33333333333331
 20
84.333333333333
 30
-0.49999999999998435
 11
42.333333333333314
 21
84.333333333333
 31
-0.49999999999998435
  0
LINE
  5
248FE
330
4F
100
AcDbEntity
  8
0
100
AcDbLine
 10
42.333333333333314
 20
83.833333333333
 30
-0.49999999999997724
 11
42.333333333333314
 21
84.333333333333
 31
-0.49999999999997724
  0
LINE
  5
248FF
330
4F
100
AcDbEntity
  8
0
100
AcDbLine
 10
181.6666666666667
 20
83.833333333333
 30
-0.49999999999998435
 11
171.6666666666667
 21
83.833333333333
 31
-0.49999999999998435
  0
LINE
  5
24900
330
4F
100
AcDbEntity
  8
0
100
AcDbLine
 10
181.6666666666667
 20
83.833333333333
 30
-0.49999999999999145
 11
181.6666666666667
 21
84.333333333333
 31
-0.49999999999999145
  0
LINE
  5
24901
330
4F
100
AcDbEntity
  8
0
100
AcDbLine
 10
181.6666666666667
 20
84.333333333333
 30
-0.49999999999998435
 11
171.6666666666667
 21
84.333333333333
 31
-0.49999999999998435
  0
LINE
  5
24902
330
4F
100
AcDbEntity
  8
0
100
AcDbLine
 10
171.66666666666669
 20
83.833333333333
 30
-0.49999999999999145
 11
171.66666666666669
 21
84.333333333333
 31
-0.49999999999999145
  0
LINE
  5
24903
330
4F
100
AcDbEntity
  8
0
100
AcDbLine
 10
115.8
 20
89.76666666666631
 30
-0.4999999999999831
 11
125.5333333333333
 21
89.76666666666631
 31
-0.49999999999998557
  0
LINE
  5
24904
330
4F
100
AcDbEntity
  8
0
100
AcDbLine
 10
115.80000000000001
 20
89.7666666666663
 30
-0.49999999999998435
 11
115.80000000000001
 21
80.2999999999996
 31
-0.49999999999998435
  0
LINE
  5
24905
330
4F
100
AcDbEntity
  8
0
100
AcDbLine
 10
115.8
 20
80.2999999999996
 30
-0.4999999999999831
 11
125.5333333333333
 21
80.2999999999996
 31
-0.49999999999998557
  0
LINE
  5
24906
330
4F
100
AcDbEntity
  8
0
100
AcDbLine
 10
125.5333333333333
 20
89.7666666666663
 30
-0.49999999999998435
 11
125.5333333333333
 21
80.2999999999996
 31
-0.49999999999998435
  0
LINE
  5
24907
330
4F
100
AcDbEntity
  8
0
100
AcDbLine
 10
154.46666666666673
 20
89.76666666666631
 30
-0.49999999999999023
 11
164.20000000000002
 21
89.76666666666631
 31
-0.4999999999999927
  0
LINE
  5
24908
330
4F
100
AcDbEntity
  8
0
100
AcDbLine
 10
154.4666666666667
 20
89.7666666666663
 30
-0.49999999999999145
 11
154.4666666666667
 21
80.2999999999996
 31
-0.49999999999999145
  0
LINE
  5
24909
330
4F
100
AcDbEntity
  8
0
100
AcDbLine
 10
154.46666666666673
 20
80.2999999999996
 30
-0.49999999999999023
 11
164.20000000000002
 21
80.2999999999996
 31
-0.4999999999999927
  0
LINE
  5
2490A
330
4F
100
AcDbEntity
  8
0
100
AcDbLine
 10
164.2
 20
89.7666666666663
 30
-0.49999999999999145
 11
164.2
 21
80.2999999999996
 31
-0.49999999999999145
  0
LINE
  5
2490B
330
4F
100
AcDbEntity
  8
0
100
AcDbLine
 10
34.86666666666672
 20
89.76666666666631
 30
-0.49999999999997724
 11
25.13333333333331
 21
89.76666666666631
 31
-0.49999999999997724
  0
LINE
  5
2490C
330
4F
100
AcDbEntity
  8
0
100
AcDbLine
 10
25.13333333333331
 20
89.7666666666663
 30
-0.49999999999997014
 11
25.13333333333331
 21
80.2999999999996
 31
-0.49999999999997014
  0
LINE
  5
2490D
330
4F
100
AcDbEntity
  8
0
100
AcDbLine
 10
34.86666666666672
 20
80.2999999999996
 30
-0.49999999999997724
 11
25.13333333333331
 21
80.2999999999996
 31
-0.49999999999997724
  0
LINE
  5
2490E
330
4F
100
AcDbEntity
  8
0
100
AcDbLine
 10
34.86666666666672
 20
89.7666666666663
 30
-0.49999999999997724
 11
34.86666666666672
 21
80.2999999999996
 31
-0.49999999999997724
  0
LINE
  5
2490F
330
4F
100
AcDbEntity
  8
0
100
AcDbLine
 10
69.5333333333333
 20
89.76666666666631
 30
-0.49999999999997724
 11
59.8
 21
89.76666666666631
 31
-0.49999999999997724
  0
LINE
  5
24910
330
4F
100
AcDbEntity
  8
0
100
AcDbLine
 10
59.8
 20
89.7666666666663
 30
-0.49999999999997724
 11
59.8
 21
80.2999999999996
 31
-0.49999999999997724
  0
LINE
  5
24911
330
4F
100
AcDbEntity
  8
0
100
AcDbLine
 10
69.5333333333333
 20
80.2999999999996
 30
-0.49999999999997724
 11
59.8
 21
80.2999999999996
 31
-0.49999999999997724
  0
LINE
  5
24912
330
4F
100
AcDbEntity
  8
0
100
AcDbLine
 10
69.5333333333333
 20
89.7666666666663
 30
-0.49999999999997724
 11
69.5333333333333
 21
80.2999999999996
 31
-0.49999999999997724
  0
LINE
  5
24913
330
4F
100
AcDbEntity
  8
0
100
AcDbLine
 10
108.2
 20
89.76666666666631
 30
-0.49999999999998435
 11
98.4666666666667
 21
89.76666666666631
 31
-0.49999999999998435
  0
LINE
  5
24914
330
4F
100
AcDbEntity
  8
0
100
AcDbLine
 10
98.4666666666667
 20
89.7666666666663
 30
-0.49999999999998435
 11
98.4666666666667
 21
80.2999999999996
 31
-0.49999999999998435
  0
LINE
  5
24915
330
4F
100
AcDbEntity
  8
0
100
AcDbLine
 10
108.2
 20
80.2999999999996
 30
-0.49999999999998435
 11
98.4666666666667
 21
80.2999999999996
 31
-0.49999999999998435
  0
LINE
  5
24916
330
4F
100
AcDbEntity
  8
0
100
AcDbLine
 10
108.2
 20
89.7666666666663
 30
-0.49999999999998435
 11
108.2
 21
80.2999999999996
 31
-0.49999999999998435
  0
LINE
  5
24917
330
4F
100
AcDbEntity
  8
0
100
AcDbLine
 10
189.1333333333333
 20
89.76666666666631
 30
-0.49999999999999023
 11
198.8666666666667
 21
89.76666666666631
 31
-0.4999999999999927
  0
LINE
  5
24918
330
4F
100
AcDbEntity
  8
0
100
AcDbLine
 10
189.13333333333333
 20
89.7666666666663
 30
-0.49999999999999145
 11
189.13333333333333
 21
80.2999999999996
 31
-0.49999999999999145
  0
LINE
  5
24919
330
4F
100
AcDbEntity
  8
0
100
AcDbLine
 10
189.1333333333333
 20
80.2999999999996
 30
-0.49999999999999023
 11
198.8666666666667
 21
80.2999999999996
 31
-0.4999999999999927
  0
LINE
  5
2491A
330
4F
100
AcDbEntity
  8
0
100
AcDbLine
 10
198.86666666666673
 20
89.7666666666663
 30
-0.49999999999999856
 11
198.86666666666673
 21
80.2999999999996
 31
-0.49999999999999856
  0
LINE
  5
2491B
330
4F
100
AcDbEntity
  8
0
100
AcDbLine
 10
170.8
 20
75.133333333333
 30
-0.49999999999999
 11
182.5333333333333
 21
75.133333333333
 31
-0.4999999999999929
  0
LINE
  5
2491C
330
4F
100
AcDbEntity
  8
0
100
AcDbLine
 10
170.8
 20
75.13333333333301
 30
-0.49999999999999145
 11
170.8
 21
70.333333333333
 31
-0.49999999999999145
  0
LINE
  5
2491D
330
4F
100
AcDbEntity
  8
0
100
AcDbLine
 10
170.8
 20
70.333333333333
 30
-0.49999999999999
 11
182.5333333333333
 21
70.333333333333
 31
-0.4999999999999929
  0
LINE
  5
2491E
330
4F
100
AcDbEntity
  8
0
100
AcDbLine
 10
182.5333333333333
 20
75.13333333333301
 30
-0.49999999999999145
 11
182.5333333333333
 21
70.333333333333
 31
-0.49999999999999145
  0
LINE
  5
2491F
330
4F
100
AcDbEntity
  8
0
100
AcDbLine
 10
108.2
 20
71.76666666666631
 30
-0.49999999999998435
 11
98.4666666666667
 21
71.76666666666631
 31
-0.49999999999998435
  0
LINE
  5
24920
330
4F
100
AcDbEntity
  8
0
100
AcDbLine
 10
98.4666666666667
 20
71.76666666666631
 30
-0.49999999999998435
 11
98.4666666666667
 21
62.2999999999996
 31
-0.49999999999998435
  0
LINE
  5
24921
330
4F
100
AcDbEntity
  8
0
100
AcDbLine
 10
108.2
 20
62.2999999999996
 30
-0.49999999999998435
 11
98.4666666666667
 21
62.2999999999996
 31
-0.49999999999998435
  0
LINE
  5
24922
330
4F
100
AcDbEntity
  8
0
100
AcDbLine
 10
108.2
 20
71.76666666666631
 30
-0.49999999999998435
 11
108.2
 21
62.2999999999996
 31
-0.49999999999998435
  0
LINE
  5
24923
330
4F
100
AcDbEntity
  8
0
100
AcDbLine
 10
53.20000000000002
 20
75.133333333333
 30
-0.49999999999997724
 11
41.466666666666725
 21
75.133333333333
 31
-0.49999999999997724
  0
LINE
  5
24924
330
4F
100
AcDbEntity
  8
0
100
AcDbLine
 10
41.466666666666725
 20
75.13333333333301
 30
-0.49999999999997724
 11
41.466666666666725
 21
70.333333333333
 31
-0.49999999999997724
  0
LINE
  5
24925
330
4F
100
AcDbEntity
  8
0
100
AcDbLine
 10
53.20000000000002
 20
70.333333333333
 30
-0.49999999999997724
 11
41.466666666666725
 21
70.333333333333
 31
-0.49999999999997724
  0
LINE
  5
24926
330
4F
100
AcDbEntity
  8
0
100
AcDbLine
 10
53.2
 20
75.13333333333301
 30
-0.49999999999997724
 11
53.2
 21
70.333333333333
 31
-0.49999999999997724
  0
LINE
  5
24927
330
4F
100
AcDbEntity
  8
0
100
AcDbLine
 10
69.5333333333333
 20
71.76666666666631
 30
-0.49999999999997724
 11
59.8
 21
71.76666666666631
 31
-0.49999999999997724
  0
LINE
  5
24928
330
4F
100
AcDbEntity
  8
0
100
AcDbLine
 10
59.8
 20
71.76666666666631
 30
-0.49999999999997724
 11
59.8
 21
62.2999999999996
 31
-0.49999999999997724
  0
LINE
  5
24929
330
4F
100
AcDbEntity
  8
0
100
AcDbLine
 10
69.5333333333333
 20
62.2999999999996
 30
-0.49999999999997724
 11
59.8
 21
62.2999999999996
 31
-0.49999999999997724
  0
LINE
  5
2492A
330
4F
100
AcDbEntity
  8
0
100
AcDbLine
 10
69.5333333333333
 20
71.76666666666631
 30
-0.49999999999997724
 11
69.5333333333333
 21
62.2999999999996
 31
-0.49999999999997724
  0
LINE
  5
2492B
330
4F
100
AcDbEntity
  8
0
100
AcDbLine
 10
34.86666666666672
 20
71.76666666666631
 30
-0.49999999999997724
 11
25.13333333333331
 21
71.76666666666631
 31
-0.49999999999997724
  0
LINE
  5
2492C
330
4F
100
AcDbEntity
  8
0
100
AcDbLine
 10
25.13333333333331
 20
71.76666666666631
 30
-0.49999999999997014
 11
25.13333333333331
 21
62.2999999999996
 31
-0.49999999999997014
  0
LINE
  5
2492D
330
4F
100
AcDbEntity
  8
0
100
AcDbLine
 10
34.86666666666672
 20
62.2999999999996
 30
-0.49999999999997724
 11
25.13333333333331
 21
62.2999999999996
 31
-0.49999999999997724
  0
LINE
  5
2492E
330
4F
100
AcDbEntity
  8
0
100
AcDbLine
 10
34.86666666666672
 20
71.76666666666631
 30
-0.49999999999997724
 11
34.86666666666672
 21
62.2999999999996
 31
-0.49999999999997724
  0
LINE
  5
2492F
330
4F
100
AcDbEntity
  8
0
100
AcDbLine
 10
115.8
 20
71.76666666666631
 30
-0.4999999999999831
 11
125.5333333333333
 21
71.76666666666631
 31
-0.49999999999998557
  0
LINE
  5
24930
330
4F
100
AcDbEntity
  8
0
100
AcDbLine
 10
115.80000000000001
 20
71.76666666666631
 30
-0.49999999999998435
 11
115.80000000000001
 21
62.2999999999996
 31
-0.49999999999998435
  0
LINE
  5
24931
330
4F
100
AcDbEntity
  8
0
100
AcDbLine
 10
115.8
 20
62.2999999999996
 30
-0.4999999999999831
 11
125.5333333333333
 21
62.2999999999996
 31
-0.49999999999998557
  0
LINE
  5
24932
330
4F
100
AcDbEntity
  8
0
100
AcDbLine
 10
125.5333333333333
 20
71.76666666666631
 30
-0.49999999999998435
 11
125.5333333333333
 21
62.2999999999996
 31
-0.49999999999998435
  0
LINE
  5
24933
330
4F
100
AcDbEntity
  8
0
100
AcDbLine
 10
154.46666666666673
 20
71.76666666666631
 30
-0.49999999999999023
 11
164.20000000000002
 21
71.76666666666631
 31
-0.4999999999999927
  0
LINE
  5
24934
330
4F
100
AcDbEntity
  8
0
100
AcDbLine
 10
154.4666666666667
 20
71.76666666666631
 30
-0.49999999999999145
 11
154.4666666666667
 21
62.2999999999996
 31
-0.49999999999999145
  0
LINE
  5
24935
330
4F
100
AcDbEntity
  8
0
100
AcDbLine
 10
154.46666666666673
 20
62.2999999999996
 30
-0.49999999999999023
 11
164.20000000000002
 21
62.2999999999996
 31
-0.4999999999999927
  0
LINE
  5
24936
330
4F
100
AcDbEntity
  8
0
100
AcDbLine
 10
164.2
 20
71.76666666666631
 30
-0.49999999999999145
 11
164.2
 21
62.2999999999996
 31
-0.49999999999999145
  0
LINE
  5
24937
330
4F
100
AcDbEntity
  8
0
100
AcDbLine
 10
189.1333333333333
 20
71.76666666666631
 30
-0.49999999999999023
 11
198.8666666666667
 21
71.76666666666631
 31
-0.4999999999999927
  0
LINE
  5
24938
330
4F
100
AcDbEntity
  8
0
100
AcDbLine
 10
189.13333333333333
 20
71.76666666666631
 30
-0.49999999999999145
 11
189.13333333333333
 21
62.2999999999996
 31
-0.49999999999999145
  0
LINE
  5
24939
330
4F
100
AcDbEntity
  8
0
100
AcDbLine
 10
189.1333333333333
 20
62.2999999999996
 30
-0.49999999999999023
 11
198.8666666666667
 21
62.2999999999996
 31
-0.4999999999999927
  0
LINE
  5
2493A
330
4F
100
AcDbEntity
  8
0
100
AcDbLine
 10
198.86666666666673
 20
71.76666666666631
 30
-0.49999999999999856
 11
198.86666666666673
 21
62.2999999999996
 31
-0.49999999999999856
  0
LINE
  5
2493B
330
4F
100
AcDbEntity
  8
0
100
AcDbLine
 10
170.8
 20
57.133333333333
 30
-0.49999999999999
 11
182.5333333333333
 21
57.133333333333
 31
-0.4999999999999929
  0
LINE
  5
2493C
330
4F
100
AcDbEntity
  8
0
100
AcDbLine
 10
170.8
 20
57.133333333333
 30
-0.49999999999999145
 11
170.8
 21
52.333333333333
 31
-0.49999999999999145
  0
LINE
  5
2493D
330
4F
100
AcDbEntity
  8
0
100
AcDbLine
 10
170.8
 20
52.333333333333
 30
-0.49999999999999
 11
182.5333333333333
 21
52.333333333333
 31
-0.4999999999999929
  0
LINE
  5
2493E
330
4F
100
AcDbEntity
  8
0
100
AcDbLine
 10
182.5333333333333
 20
57.133333333333
 30
-0.49999999999999145
 11
182.5333333333333
 21
52.333333333333
 31
-0.49999999999999145
  0
LINE
  5
2493F
330
4F
100
AcDbEntity
  8
0
100
AcDbLine
 10
108.2
 20
53.7666666666663
 30
-0.49999999999998435
 11
98.4666666666667
 21
53.7666666666663
 31
-0.49999999999998435
  0
LINE
  5
24940
330
4F
100
AcDbEntity
  8
0
100
AcDbLine
 10
98.4666666666667
 20
53.7666666666663
 30
-0.49999999999998435
 11
98.4666666666667
 21
44.299999999999706
 31
-0.49999999999998435
  0
LINE
  5
24941
330
4F
100
AcDbEntity
  8
0
100
AcDbLine
 10
108.2
 20
44.299999999999706
 30
-0.49999999999998435
 11
98.4666666666667
 21
44.299999999999706
 31
-0.49999999999998435
  0
LINE
  5
24942
330
4F
100
AcDbEntity
  8
0
100
AcDbLine
 10
108.2
 20
53.7666666666663
 30
-0.49999999999998435
 11
108.2
 21
44.299999999999706
 31
-0.49999999999998435
  0
LINE
  5
24943
330
4F
100
AcDbEntity
  8
0
100
AcDbLine
 10
53.20000000000002
 20
57.133333333333
 30
-0.49999999999997724
 11
41.466666666666725
 21
57.133333333333
 31
-0.49999999999997724
  0
LINE
  5
24944
330
4F
100
AcDbEntity
  8
0
100
AcDbLine
 10
41.466666666666725
 20
57.133333333333
 30
-0.49999999999997724
 11
41.466666666666725
 21
52.333333333333
 31
-0.49999999999997724
  0
LINE
  5
24945
330
4F
100
AcDbEntity
  8
0
100
AcDbLine
 10
53.20000000000002
 20
52.333333333333
 30
-0.49999999999997724
 11
41.466666666666725
 21
52.333333333333
 31
-0.49999999999997724
  0
LINE
  5
24946
330
4F
100
AcDbEntity
  8
0
100
AcDbLine
 10
53.2
 20
57.133333333333
 30
-0.49999999999997724
 11
53.2
 21
52.333333333333
 31
-0.49999999999997724
  0
LINE
  5
24947
330
4F
100
AcDbEntity
  8
0
100
AcDbLine
 10
69.5333333333333
 20
53.7666666666663
 30
-0.49999999999997724
 11
59.8
 21
53.7666666666663
 31
-0.49999999999997724
  0
LINE
  5
24948
330
4F
100
AcDbEntity
  8
0
100
AcDbLine
 10
59.8
 20
53.7666666666663
 30
-0.49999999999997724
 11
59.8
 21
44.299999999999706
 31
-0.49999999999997724
  0
LINE
  5
24949
330
4F
100
AcDbEntity
  8
0
100
AcDbLine
 10
69.5333333333333
 20
44.299999999999706
 30
-0.49999999999997724
 11
59.8
 21
44.299999999999706
 31
-0.49999999999997724
  0
LINE
  5
2494A
330
4F
100
AcDbEntity
  8
0
100
AcDbLine
 10
69.5333333333333
 20
53.7666666666663
 30
-0.49999999999997724
 11
69.5333333333333
 21
44.299999999999706
 31
-0.49999999999997724
  0
LINE
  5
2494B
330
4F
100
AcDbEntity
  8
0
100
AcDbLine
 10
34.86666666666672
 20
53.7666666666663
 30
-0.49999999999997724
 11
25.13333333333331
 21
53.7666666666663
 31
-0.49999999999997724
  0
LINE
  5
2494C
330
4F
100
AcDbEntity
  8
0
100
AcDbLine
 10
25.13333333333331
 20
53.7666666666663
 30
-0.49999999999997014
 11
25.13333333333331
 21
44.299999999999706
 31
-0.49999999999997014
  0
LINE
  5
2494D
330
4F
100
AcDbEntity
  8
0
100
AcDbLine
 10
34.86666666666672
 20
44.299999999999706
 30
-0.49999999999997724
 11
25.13333333333331
 21
44.299999999999706
 31
-0.49999999999997724
  0
LINE
  5
2494E
330
4F
100
AcDbEntity
  8
0
100
AcDbLine
 10
34.86666666666672
 20
53.7666666666663
 30
-0.49999999999997724
 11
34.86666666666672
 21
44.299999999999706
 31
-0.49999999999997724
  0
LINE
  5
2494F
330
4F
100
AcDbEntity
  8
0
100
AcDbLine
 10
115.8
 20
53.7666666666663
 30
-0.4999999999999831
 11
125.5333333333333
 21
53.7666666666663
 31
-0.49999999999998557
  0
LINE
  5
24950
330
4F
100
AcDbEntity
  8
0
100
AcDbLine
 10
115.80000000000001
 20
53.7666666666663
 30
-0.49999999999998435
 11
115.80000000000001
 21
44.299999999999706
 31
-0.49999999999998435
  0
LINE
  5
24951
330
4F
100
AcDbEntity
  8
0
100
AcDbLine
 10
115.8
 20
44.299999999999706
 30
-0.4999999999999831
 11
125.5333333333333
 21
44.299999999999706
 31
-0.49999999999998557
  0
LINE
  5
24952
330
4F
100
AcDbEntity
  8
0
100
AcDbLine
 10
125.5333333333333
 20
53.7666666666663
 30
-0.49999999999998435
 11
125.5333333333333
 21
44.299999999999706
 31
-0.49999999999998435
  0
LINE
  5
24953
330
4F
100
AcDbEntity
  8
0
100
AcDbLine
 10
154.46666666666673
 20
53.7666666666663
 30
-0.49999999999999023
 11
164.20000000000002
 21
53.7666666666663
 31
-0.4999999999999927
  0
LINE
  5
24954
330
4F
100
AcDbEntity
  8
0
100
AcDbLine
 10
154.4666666666667
 20
53.7666666666663
 30
-0.49999999999999145
 11
154.4666666666667
 21
44.299999999999706
 31
-0.49999999999999145
  0
LINE
  5
24955
330
4F
100
AcDbEntity
  8
0
100
AcDbLine
 10
154.46666666666673
 20
44.299999999999706
 30
-0.49999999999999023
 11
164.20000000000002
 21
44.299999999999706
 31
-0.4999999999999927
  0
LINE
  5
24956
330
4F
100
AcDbEntity
  8
0
100
AcDbLine
 10
164.2
 20
53.7666666666663
 30
-0.49999999999999145
 11
164.2
 21
44.299999999999706
 31
-0.49999999999999145
  0
LINE
  5
24957
330
4F
100
AcDbEntity
  8
0
100
AcDbLine
 10
189.1333333333333
 20
53.7666666666663
 30
-0.49999999999999023
 11
198.8666666666667
 21
53.7666666666663
 31
-0.4999999999999927
  0
LINE
  5
24958
330
4F
100
AcDbEntity
  8
0
100
AcDbLine
 10
189.13333333333333
 20
53.7666666666663
 30
-0.49999999999999145
 11
189.13333333333333
 21
44.299999999999706
 31
-0.49999999999999145
  0
LINE
  5
24959
330
4F
100
AcDbEntity
  8
0
100
AcDbLine
 10
189.1333333333333
 20
44.299999999999706
 30
-0.49999999999999023
 11
198.8666666666667
 21
44.299999999999706
 31
-0.4999999999999927
  0
LINE
  5
2495A
330
4F
100
AcDbEntity
  8
0
100
AcDbLine
 10
198.86666666666673
 20
53.7666666666663
 30
-0.49999999999999856
 11
198.86666666666673
 21
44.299999999999706
 31
-0.49999999999999856
  0
LINE
  5
2495B
330
4F
100
AcDbEntity
  8
0
100
AcDbLine
 10
170.8
 20
39.133333333333006
 30
-0.49999999999999
 11
182.5333333333333
 21
39.133333333333006
 31
-0.4999999999999929
  0
LINE
  5
2495C
330
4F
100
AcDbEntity
  8
0
100
AcDbLine
 10
170.8
 20
39.133333333333006
 30
-0.49999999999999145
 11
170.8
 21
34.333333333333
 31
-0.49999999999999145
  0
LINE
  5
2495D
330
4F
100
AcDbEntity
  8
0
100
AcDbLine
 10
170.8
 20
34.333333333333
 30
-0.49999999999999
 11
182.5333333333333
 21
34.333333333333
 31
-0.4999999999999929
  0
LINE
  5
2495E
330
4F
100
AcDbEntity
  8
0
100
AcDbLine
 10
182.5333333333333
 20
39.133333333333006
 30
-0.49999999999999145
 11
182.5333333333333
 21
34.333333333333
 31
-0.49999999999999145
  0
LINE
  5
2495F
330
4F
100
AcDbEntity
  8
0
100
AcDbLine
 10
108.2
 20
35.766666666666296
 30
-0.49999999999998435
 11
98.46666666666671
 21
35.766666666666296
 31
-0.49999999999998435
  0
LINE
  5
24960
330
4F
100
AcDbEntity
  8
0
100
AcDbLine
 10
98.4666666666667
 20
35.766666666666296
 30
-0.49999999999998435
 11
98.4666666666667
 21
26.2999999999997
 31
-0.49999999999998435
  0
LINE
  5
24961
330
4F
100
AcDbEntity
  8
0
100
AcDbLine
 10
108.2
 20
26.2999999999997
 30
-0.49999999999998435
 11
98.46666666666671
 21
26.2999999999997
 31
-0.49999999999998435
  0
LINE
  5
24962
330
4F
100
AcDbEntity
  8
0
100
AcDbLine
 10
108.2
 20
35.766666666666296
 30
-0.49999999999998435
 11
108.2
 21
26.2999999999997
 31
-0.49999999999998435
  0
LINE
  5
24963
330
4F
100
AcDbEntity
  8
0
100
AcDbLine
 10
53.20000000000002
 20
39.133333333333006
 30
-0.49999999999997724
 11
41.46666666666661
 21
39.133333333333006
 31
-0.49999999999997724
  0
LINE
  5
24964
330
4F
100
AcDbEntity
  8
0
100
AcDbLine
 10
41.46666666666661
 20
39.133333333333006
 30
-0.49999999999997724
 11
41.46666666666661
 21
34.333333333333
 31
-0.49999999999997724
  0
LINE
  5
24965
330
4F
100
AcDbEntity
  8
0
100
AcDbLine
 10
53.20000000000002
 20
34.333333333333
 30
-0.49999999999997724
 11
41.46666666666661
 21
34.333333333333
 31
-0.49999999999997724
  0
LINE
  5
24966
330
4F
100
AcDbEntity
  8
0
100
AcDbLine
 10
53.2
 20
39.133333333333006
 30
-0.49999999999997724
 11
53.2
 21
34.333333333333
 31
-0.49999999999997724
  0
LINE
  5
24967
330
4F
100
AcDbEntity
  8
0
100
AcDbLine
 10
69.5333333333333
 20
35.766666666666296
 30
-0.49999999999997724
 11
59.8
 21
35.766666666666296
 31
-0.49999999999997724
  0
LINE
  5
24968
330
4F
100
AcDbEntity
  8
0
100
AcDbLine
 10
59.8
 20
35.766666666666296
 30
-0.49999999999997724
 11
59.8
 21
26.2999999999997
 31
-0.49999999999997724
  0
LINE
  5
24969
330
4F
100
AcDbEntity
  8
0
100
AcDbLine
 10
69.5333333333333
 20
26.2999999999997
 30
-0.49999999999997724
 11
59.8
 21
26.2999999999997
 31
-0.49999999999997724
  0
LINE
  5
2496A
330
4F
100
AcDbEntity
  8
0
100
AcDbLine
 10
69.5333333333333
 20
35.766666666666296
 30
-0.49999999999997724
 11
69.5333333333333
 21
26.2999999999997
 31
-0.49999999999997724
  0
LINE
  5
2496B
330
4F
100
AcDbEntity
  8
0
100
AcDbLine
 10
34.86666666666662
 20
35.766666666666296
 30
-0.49999999999997724
 11
25.13333333333331
 21
35.766666666666296
 31
-0.49999999999997724
  0
LINE
  5
2496C
330
4F
100
AcDbEntity
  8
0
100
AcDbLine
 10
25.13333333333331
 20
35.766666666666296
 30
-0.49999999999997014
 11
25.13333333333331
 21
26.2999999999997
 31
-0.49999999999997014
  0
LINE
  5
2496D
330
4F
100
AcDbEntity
  8
0
100
AcDbLine
 10
34.86666666666662
 20
26.2999999999997
 30
-0.49999999999997724
 11
25.13333333333331
 21
26.2999999999997
 31
-0.49999999999997724
  0
LINE
  5
2496E
330
4F
100
AcDbEntity
  8
0
100
AcDbLine
 10
34.86666666666662
 20
35.766666666666296
 30
-0.49999999999997724
 11
34.86666666666662
 21
26.2999999999997
 31
-0.49999999999997724
  0
LINE
  5
2496F
330
4F
100
AcDbEntity
  8
0
100
AcDbLine
 10
115.80000000000001
 20
35.766666666666296
 30
-0.4999999999999831
 11
125.5333333333333
 21
35.766666666666296
 31
-0.49999999999998557
  0
LINE
  5
24970
330
4F
100
AcDbEntity
  8
0
100
AcDbLine
 10
115.80000000000001
 20
35.766666666666296
 30
-0.49999999999998435
 11
115.80000000000001
 21
26.2999999999997
 31
-0.49999999999998435
  0
LINE
  5
24971
330
4F
100
AcDbEntity
  8
0
100
AcDbLine
 10
115.80000000000001
 20
26.2999999999997
 30
-0.4999999999999831
 11
125.5333333333333
 21
26.2999999999997
 31
-0.49999999999998557
  0
LINE
  5
24972
330
4F
100
AcDbEntity
  8
0
100
AcDbLine
 10
125.5333333333333
 20
35.766666666666296
 30
-0.49999999999998435
 11
125.5333333333333
 21
26.2999999999997
 31
-0.49999999999998435
  0
LINE
  5
24973
330
4F
100
AcDbEntity
  8
0
100
AcDbLine
 10
154.46666666666673
 20
35.766666666666296
 30
-0.49999999999999023
 11
164.20000000000002
 21
35.766666666666296
 31
-0.4999999999999927
  0
LINE
  5
24974
330
4F
100
AcDbEntity
  8
0
100
AcDbLine
 10
154.4666666666667
 20
35.766666666666296
 30
-0.49999999999999145
 11
154.4666666666667
 21
26.2999999999997
 31
-0.49999999999999145
  0
LINE
  5
24975
330
4F
100
AcDbEntity
  8
0
100
AcDbLine
 10
154.46666666666673
 20
26.2999999999997
 30
-0.49999999999999023
 11
164.20000000000002
 21
26.2999999999997
 31
-0.4999999999999927
  0
LINE
  5
24976
330
4F
100
AcDbEntity
  8
0
100
AcDbLine
 10
164.2
 20
35.766666666666296
 30
-0.49999999999999145
 11
164.2
 21
26.2999999999997
 31
-0.49999999999999145
  0
LINE
  5
24977
330
4F
100
AcDbEntity
  8
0
100
AcDbLine
 10
189.1333333333333
 20
35.766666666666296
 30
-0.49999999999999023
 11
198.8666666666667
 21
35.766666666666296
 31
-0.4999999999999927
  0
LINE
  5
24978
330
4F
100
AcDbEntity
  8
0
100
AcDbLine
 10
189.13333333333333
 20
35.766666666666296
 30
-0.49999999999999145
 11
189.13333333333333
 21
26.2999999999997
 31
-0.49999999999999145
  0
LINE
  5
24979
330
4F
100
AcDbEntity
  8
0
100
AcDbLine
 10
189.1333333333333
 20
26.2999999999997
 30
-0.49999999999999023
 11
198.8666666666667
 21
26.2999999999997
 31
-0.4999999999999927
  0
LINE
  5
2497A
330
4F
100
AcDbEntity
  8
0
100
AcDbLine
 10
198.86666666666673
 20
35.766666666666296
 30
-0.49999999999999856
 11
198.86666666666673
 21
26.2999999999997
 31
-0.49999999999999856
  0
LINE
  5
2497B
330
4F
100
AcDbEntity
  8
0
100
AcDbLine
 10
170.8
 20
21.133333333333013
 30
-0.49999999999999
 11
182.5333333333333
 21
21.133333333333013
 31
-0.4999999999999929
  0
LINE
  5
2497C
330
4F
100
AcDbEntity
  8
0
100
AcDbLine
 10
170.8
 20
21.133333333333013
 30
-0.49999999999999145
 11
170.8
 21
16.333333333333
 31
-0.49999999999999145
  0
LINE
  5
2497D
330
4F
100
AcDbEntity
  8
0
100
AcDbLine
 10
170.8
 20
16.333333333333
 30
-0.49999999999999
 11
182.5333333333333
 21
16.333333333333
 31
-0.4999999999999929
  0
LINE
  5
2497E
330
4F
100
AcDbEntity
  8
0
100
AcDbLine
 10
182.5333333333333
 20
21.133333333333013
 30
-0.49999999999999145
 11
182.5333333333333
 21
16.333333333333
 31
-0.49999999999999145
  0
LINE
  5
2497F
330
4F
100
AcDbEntity
  8
0
100
AcDbLine
 10
108.2
 20
17.766666666666296
 30
-0.49999999999998435
 11
98.46666666666671
 21
17.766666666666296
 31
-0.49999999999998435
  0
LINE
  5
24980
330
4F
100
AcDbEntity
  8
0
100
AcDbLine
 10
98.4666666666667
 20
17.766666666666296
 30
-0.49999999999998435
 11
98.4666666666667
 21
8.299999999999699
 31
-0.49999999999998435
  0
LINE
  5
24981
330
4F
100
AcDbEntity
  8
0
100
AcDbLine
 10
108.2
 20
8.299999999999699
 30
-0.49999999999998435
 11
98.46666666666671
 21
8.299999999999699
 31
-0.49999999999998435
  0
LINE
  5
24982
330
4F
100
AcDbEntity
  8
0
100
AcDbLine
 10
108.2
 20
17.766666666666296
 30
-0.49999999999998435
 11
108.2
 21
8.299999999999699
 31
-0.49999999999998435
  0
LINE
  5
24983
330
4F
100
AcDbEntity
  8
0
100
AcDbLine
 10
53.20000000000002
 20
21.133333333333013
 30
-0.49999999999997724
 11
41.46666666666661
 21
21.133333333333013
 31
-0.49999999999997724
  0
LINE
  5
24984
330
4F
100
AcDbEntity
  8
0
100
AcDbLine
 10
41.46666666666661
 20
21.133333333333013
 30
-0.49999999999997724
 11
41.46666666666661
 21
16.333333333333
 31
-0.49999999999997724
  0
LINE
  5
24985
330
4F
100
AcDbEntity
  8
0
100
AcDbLine
 10
53.20000000000002
 20
16.333333333333
 30
-0.49999999999997724
 11
41.46666666666661
 21
16.333333333333
 31
-0.49999999999997724
  0
LINE
  5
24986
330
4F
100
AcDbEntity
  8
0
100
AcDbLine
 10
53.2
 20
21.133333333333013
 30
-0.49999999999997724
 11
53.2
 21
16.333333333333
 31
-0.49999999999997724
  0
LINE
  5
24987
330
4F
100
AcDbEntity
  8
0
100
AcDbLine
 10
69.5333333333333
 20
17.766666666666296
 30
-0.49999999999997724
 11
59.8
 21
17.766666666666296
 31
-0.49999999999997724
  0
LINE
  5
24988
330
4F
100
AcDbEntity
  8
0
100
AcDbLine
 10
59.8
 20
17.766666666666296
 30
-0.49999999999997724
 11
59.8
 21
8.299999999999699
 31
-0.49999999999997724
  0
LINE
  5
24989
330
4F
100
AcDbEntity
  8
0
100
AcDbLine
 10
69.5333333333333
 20
8.299999999999699
 30
-0.49999999999997724
 11
59.8
 21
8.299999999999699
 31
-0.49999999999997724
  0
LINE
  5
2498A
330
4F
100
AcDbEntity
  8
0
100
AcDbLine
 10
69.5333333333333
 20
17.766666666666296
 30
-0.49999999999997724
 11
69.5333333333333
 21
8.299999999999699
 31
-0.49999999999997724
  0
LINE
  5
2498B
330
4F
100
AcDbEntity
  8
0
100
AcDbLine
 10
34.86666666666662
 20
17.766666666666296
 30
-0.49999999999997724
 11
25.13333333333331
 21
17.766666666666296
 31
-0.49999999999997724
  0
LINE
  5
2498C
330
4F
100
AcDbEntity
  8
0
100
AcDbLine
 10
25.13333333333331
 20
17.766666666666296
 30
-0.49999999999997014
 11
25.13333333333331
 21
8.299999999999699
 31
-0.49999999999997014
  0
LINE
  5
2498D
330
4F
100
AcDbEntity
  8
0
100
AcDbLine
 10
34.86666666666662
 20
8.299999999999699
 30
-0.49999999999997724
 11
25.13333333333331
 21
8.299999999999699
 31
-0.49999999999997724
  0
LINE
  5
2498E
330
4F
100
AcDbEntity
  8
0
100
AcDbLine
 10
34.86666666666662
 20
17.766666666666296
 30
-0.49999999999997724
 11
34.86666666666662
 21
8.299999999999699
 31
-0.49999999999997724
  0
LINE
  5
2498F
330
4F
100
AcDbEntity
  8
0
100
AcDbLine
 10
115.80000000000001
 20
17.766666666666296
 30
-0.4999999999999831
 11
125.5333333333333
 21
17.766666666666296
 31
-0.49999999999998557
  0
LINE
  5
24990
330
4F
100
AcDbEntity
  8
0
100
AcDbLine
 10
115.80000000000001
 20
17.766666666666296
 30
-0.49999999999998435
 11
115.80000000000001
 21
8.299999999999699
 31
-0.49999999999998435
  0
LINE
  5
24991
330
4F
100
AcDbEntity
  8
0
100
AcDbLine
 10
115.80000000000001
 20
8.299999999999699
 30
-0.4999999999999831
 11
125.5333333333333
 21
8.299999999999699
 31
-0.49999999999998557
  0
LINE
  5
24992
330
4F
100
AcDbEntity
  8
0
100
AcDbLine
 10
125.5333333333333
 20
17.766666666666296
 30
-0.49999999999998435
 11
125.5333333333333
 21
8.299999999999699
 31
-0.49999999999998435
  0
LINE
  5
24993
330
4F
100
AcDbEntity
  8
0
100
AcDbLine
 10
154.46666666666673
 20
17.766666666666296
 30
-0.49999999999999023
 11
164.20000000000002
 21
17.766666666666296
 31
-0.4999999999999927
  0
LINE
  5
24994
330
4F
100
AcDbEntity
  8
0
100
AcDbLine
 10
154.4666666666667
 20
17.766666666666296
 30
-0.49999999999999145
 11
154.4666666666667
 21
8.299999999999699
 31
-0.49999999999999145
  0
LINE
  5
24995
330
4F
100
AcDbEntity
  8
0
100
AcDbLine
 10
154.46666666666673
 20
8.299999999999699
 30
-0.49999999999999023
 11
164.20000000000002
 21
8.299999999999699
 31
-0.4999999999999927
  0
LINE
  5
24996
330
4F
100
AcDbEntity
  8
0
100
AcDbLine
 10
164.2
 20
17.766666666666296
 30
-0.49999999999999145
 11
164.2
 21
8.299999999999699
 31
-0.49999999999999145
  0
LINE
  5
24997
330
4F
100
AcDbEntity
  8
0
100
AcDbLine
 10
189.1333333333333
 20
17.766666666666296
 30
-0.49999999999999023
 11
198.8666666666667
 21
17.766666666666296
 31
-0.4999999999999927
  0
LINE
  5
24998
330
4F
100
AcDbEntity
  8
0
100
AcDbLine
 10
189.13333333333333
 20
17.766666666666296
 30
-0.49999999999999145
 11
189.13333333333333
 21
8.299999999999699
 31
-0.49999999999999145
  0
LINE
  5
24999
330
4F
100
AcDbEntity
  8
0
100
AcDbLine
 10
189.1333333333333
 20
8.299999999999699
 30
-0.49999999999999023
 11
198.8666666666667
 21
8.299999999999699
 31
-0.4999999999999927
  0
LINE
  5
2499A
330
4F
100
AcDbEntity
  8
0
100
AcDbLine
 10
198.86666666666673
 20
17.766666666666296
 30
-0.49999999999999856
 11
198.86666666666673
 21
8.299999999999699
 31
-0.49999999999999856
  0
LINE
  5
2499B
330
4F
100
AcDbEntity
  8
0
100
AcDbLine
 10
219.20000000000002
 20
93.26666666666634
 30
-0.49999999999999856
 11
219.20000000000002
 21
80.2999999999996
 31
-0.49999999999999856
  0
LINE
  5
2499C
330
4F
100
AcDbEntity
  8
0
100
AcDbLine
 10
219.20000000000002
 20
93.26666666666634
 30
-0.4999999999999991
 11
214.938888888889
 21
93.26666666666634
 31
-0.499999999999998
  0
LINE
  5
2499D
330
4F
100
AcDbEntity
  8
0
100
AcDbLine
 10
214.938888888889
 20
93.26666666666634
 30
-0.49999999999999856
 11
214.938888888889
 21
89.7666666666663
 31
-0.49999999999999856
  0
LINE
  5
2499E
330
4F
100
AcDbEntity
  8
0
100
AcDbLine
 10
207.46666666666673
 20
89.76666666666631
 30
-0.4999999999999976
 11
214.93888888888904
 21
89.76666666666631
 31
-0.4999999999999995
  0
LINE
  5
2499F
330
4F
100
AcDbEntity
  8
0
100
AcDbLine
 10
207.4666666666667
 20
89.7666666666663
 30
-0.49999999999999856
 11
207.4666666666667
 21
80.2999999999996
 31
-0.49999999999999856
  0
LINE
  5
249A0
330
4F
100
AcDbEntity
  8
0
100
AcDbLine
 10
207.46666666666673
 20
80.2999999999996
 30
-0.4999999999999971
 11
219.20000000000005
 21
80.2999999999996
 31
-0.5
  0
LINE
  5
249A1
330
4F
100
AcDbEntity
  8
0
100
AcDbLine
 10
219.20000000000002
 20
39.2666666666663
 30
-0.49999999999999856
 11
219.20000000000002
 21
26.2999999999997
 31
-0.49999999999999856
  0
LINE
  5
249A2
330
4F
100
AcDbEntity
  8
0
100
AcDbLine
 10
219.20000000000002
 20
39.2666666666663
 30
-0.4999999999999991
 11
214.938888888889
 21
39.2666666666663
 31
-0.499999999999998
  0
LINE
  5
249A3
330
4F
100
AcDbEntity
  8
0
100
AcDbLine
 10
214.938888888889
 20
39.2666666666663
 30
-0.49999999999999856
 11
214.938888888889
 21
35.766666666666296
 31
-0.49999999999999856
  0
LINE
  5
249A4
330
4F
100
AcDbEntity
  8
0
100
AcDbLine
 10
207.46666666666673
 20
35.766666666666296
 30
-0.4999999999999976
 11
214.93888888888904
 21
35.766666666666296
 31
-0.4999999999999995
  0
LINE
  5
249A5
330
4F
100
AcDbEntity
  8
0
100
AcDbLine
 10
207.4666666666667
 20
35.766666666666296
 30
-0.49999999999999856
 11
207.4666666666667
 21
26.2999999999997
 31
-0.49999999999999856
  0
LINE
  5
249A6
330
4F
100
AcDbEntity
  8
0
100
AcDbLine
 10
207.46666666666673
 20
26.2999999999997
 30
-0.4999999999999971
 11
219.20000000000005
 21
26.2999999999997
 31
-0.5
  0
LINE
  5
249A7
330
4F
100
AcDbEntity
  8
0
100
AcDbLine
 10
219.20000000000002
 20
57.2666666666664
 30
-0.49999999999999856
 11
219.20000000000002
 21
44.299999999999706
 31
-0.49999999999999856
  0
LINE
  5
249A8
330
4F
100
AcDbEntity
  8
0
100
AcDbLine
 10
219.20000000000002
 20
57.2666666666664
 30
-0.4999999999999991
 11
214.938888888889
 21
57.2666666666664
 31
-0.499999999999998
  0
LINE
  5
249A9
330
4F
100
AcDbEntity
  8
0
100
AcDbLine
 10
214.938888888889
 20
57.2666666666664
 30
-0.49999999999999856
 11
214.938888888889
 21
53.7666666666663
 31
-0.49999999999999856
  0
LINE
  5
249AA
330
4F
100
AcDbEntity
  8
0
100
AcDbLine
 10
207.46666666666673
 20
53.7666666666663
 30
-0.4999999999999976
 11
214.93888888888904
 21
53.7666666666663
 31
-0.4999999999999995
  0
LINE
  5
249AB
330
4F
100
AcDbEntity
  8
0
100
AcDbLine
 10
207.4666666666667
 20
53.7666666666663
 30
-0.49999999999999856
 11
207.4666666666667
 21
44.299999999999706
 31
-0.49999999999999856
  0
LINE
  5
249AC
330
4F
100
AcDbEntity
  8
0
100
AcDbLine
 10
207.46666666666673
 20
44.299999999999706
 30
-0.4999999999999971
 11
219.20000000000005
 21
44.299999999999706
 31
-0.5
  0
LINE
  5
249AD
330
4F
100
AcDbEntity
  8
0
100
AcDbLine
 10
219.20000000000002
 20
75.26666666666631
 30
-0.49999999999999856
 11
219.20000000000002
 21
62.2999999999996
 31
-0.49999999999999856
  0
LINE
  5
249AE
330
4F
100
AcDbEntity
  8
0
100
AcDbLine
 10
219.20000000000002
 20
75.26666666666631
 30
-0.4999999999999991
 11
214.938888888889
 21
75.26666666666631
 31
-0.499999999999998
  0
LINE
  5
249AF
330
4F
100
AcDbEntity
  8
0
100
AcDbLine
 10
214.938888888889
 20
75.2666666666663
 30
-0.49999999999999856
 11
214.938888888889
 21
71.7666666666663
 31
-0.49999999999999856
  0
LINE
  5
249B0
330
4F
100
AcDbEntity
  8
0
100
AcDbLine
 10
207.46666666666673
 20
71.76666666666631
 30
-0.4999999999999976
 11
214.93888888888904
 21
71.76666666666631
 31
-0.4999999999999995
  0
LINE
  5
249B1
330
4F
100
AcDbEntity
  8
0
100
AcDbLine
 10
207.4666666666667
 20
71.76666666666631
 30
-0.49999999999999856
 11
207.4666666666667
 21
62.2999999999996
 31
-0.49999999999999856
  0
LINE
  5
249B2
330
4F
100
AcDbEntity
  8
0
100
AcDbLine
 10
207.46666666666673
 20
62.2999999999996
 30
-0.4999999999999971
 11
219.20000000000005
 21
62.2999999999996
 31
-0.5
  0
LINE
  5
249B3
330
4F
100
AcDbEntity
  8
0
100
AcDbLine
 10
4.800000000000011
 20
93.26666666666634
 30
-0.49999999999997014
 11
4.800000000000011
 21
80.2999999999996
 31
-0.49999999999997014
  0
LINE
  5
249B4
330
4F
100
AcDbEntity
  8
0
100
AcDbLine
 10
16.533333333333317
 20
80.2999999999996
 30
-0.49999999999997014
 11
4.800000000000011
 21
80.2999999999996
 31
-0.49999999999997014
  0
LINE
  5
249B5
330
4F
100
AcDbEntity
  8
0
100
AcDbLine
 10
16.533333333333317
 20
89.7666666666663
 30
-0.49999999999997014
 11
16.533333333333317
 21
80.2999999999996
 31
-0.49999999999997014
  0
LINE
  5
249B6
330
4F
100
AcDbEntity
  8
0
100
AcDbLine
 10
16.533333333333317
 20
89.76666666666631
 30
-0.49999999999997014
 11
9.061111111111018
 21
89.76666666666631
 31
-0.49999999999997014
  0
LINE
  5
249B7
330
4F
100
AcDbEntity
  8
0
100
AcDbLine
 10
9.061111111111018
 20
93.26666666666634
 30
-0.49999999999997014
 11
9.061111111111018
 21
89.7666666666663
 31
-0.49999999999997014
  0
LINE
  5
249B8
330
4F
100
AcDbEntity
  8
0
100
AcDbLine
 10
4.800000000000011
 20
93.26666666666634
 30
-0.49999999999997014
 11
9.061111111111018
 21
93.26666666666634
 31
-0.49999999999997014
  0
LINE
  5
249B9
330
4F
100
AcDbEntity
  8
0
100
AcDbLine
 10
4.800000000000011
 20
75.26666666666631
 30
-0.49999999999997014
 11
4.800000000000011
 21
62.2999999999996
 31
-0.49999999999997014
  0
LINE
  5
249BA
330
4F
100
AcDbEntity
  8
0
100
AcDbLine
 10
16.533333333333317
 20
62.2999999999996
 30
-0.49999999999997014
 11
4.800000000000011
 21
62.2999999999996
 31
-0.49999999999997014
  0
LINE
  5
249BB
330
4F
100
AcDbEntity
  8
0
100
AcDbLine
 10
16.533333333333317
 20
71.76666666666631
 30
-0.49999999999997014
 11
16.533333333333317
 21
62.2999999999996
 31
-0.49999999999997014
  0
LINE
  5
249BC
330
4F
100
AcDbEntity
  8
0
100
AcDbLine
 10
16.533333333333317
 20
71.76666666666631
 30
-0.49999999999997014
 11
9.061111111111018
 21
71.76666666666631
 31
-0.49999999999997014
  0
LINE
  5
249BD
330
4F
100
AcDbEntity
  8
0
100
AcDbLine
 10
9.061111111111018
 20
75.2666666666663
 30
-0.49999999999997014
 11
9.061111111111018
 21
71.7666666666663
 31
-0.49999999999997014
  0
LINE
  5
249BE
330
4F
100
AcDbEntity
  8
0
100
AcDbLine
 10
4.800000000000011
 20
75.26666666666631
 30
-0.49999999999997014
 11
9.061111111111018
 21
75.26666666666631
 31
-0.49999999999997014
  0
LINE
  5
249BF
330
4F
100
AcDbEntity
  8
0
100
AcDbLine
 10
4.800000000000011
 20
57.2666666666664
 30
-0.49999999999997014
 11
4.800000000000011
 21
44.299999999999706
 31
-0.49999999999997014
  0
LINE
  5
249C0
330
4F
100
AcDbEntity
  8
0
100
AcDbLine
 10
16.533333333333317
 20
44.299999999999706
 30
-0.49999999999997014
 11
4.800000000000011
 21
44.299999999999706
 31
-0.49999999999997014
  0
LINE
  5
249C1
330
4F
100
AcDbEntity
  8
0
100
AcDbLine
 10
16.533333333333317
 20
53.7666666666663
 30
-0.49999999999997014
 11
16.533333333333317
 21
44.299999999999706
 31
-0.49999999999997014
  0
LINE
  5
249C2
330
4F
100
AcDbEntity
  8
0
100
AcDbLine
 10
16.533333333333317
 20
53.7666666666663
 30
-0.49999999999997014
 11
9.061111111111018
 21
53.7666666666663
 31
-0.49999999999997014
  0
LINE
  5
249C3
330
4F
100
AcDbEntity
  8
0
100
AcDbLine
 10
9.061111111111018
 20
57.2666666666664
 30
-0.49999999999997014
 11
9.061111111111018
 21
53.7666666666663
 31
-0.49999999999997014
  0
LINE
  5
249C4
330
4F
100
AcDbEntity
  8
0
100
AcDbLine
 10
4.800000000000011
 20
57.2666666666664
 30
-0.49999999999997014
 11
9.061111111111018
 21
57.2666666666664
 31
-0.49999999999997014
  0
LINE
  5
249C5
330
4F
100
AcDbEntity
  8
0
100
AcDbLine
 10
4.800000000000011
 20
39.2666666666663
 30
-0.49999999999997014
 11
4.800000000000011
 21
26.2999999999997
 31
-0.49999999999997014
  0
LINE
  5
249C6
330
4F
100
AcDbEntity
  8
0
100
AcDbLine
 10
16.533333333333317
 20
26.2999999999997
 30
-0.49999999999997014
 11
4.800000000000011
 21
26.2999999999997
 31
-0.49999999999997014
  0
LINE
  5
249C7
330
4F
100
AcDbEntity
  8
0
100
AcDbLine
 10
16.533333333333317
 20
35.766666666666296
 30
-0.49999999999997014
 11
16.533333333333317
 21
26.2999999999997
 31
-0.49999999999997014
  0
LINE
  5
249C8
330
4F
100
AcDbEntity
  8
0
100
AcDbLine
 10
16.533333333333317
 20
35.766666666666296
 30
-0.49999999999997014
 11
9.061111111111018
 21
35.766666666666296
 31
-0.49999999999997014
  0
LINE
  5
249C9
330
4F
100
AcDbEntity
  8
0
100
AcDbLine
 10
9.061111111111018
 20
39.2666666666663
 30
-0.49999999999997014
 11
9.061111111111018
 21
35.766666666666296
 31
-0.49999999999997014
  0
LINE
  5
249CA
330
4F
100
AcDbEntity
  8
0
100
AcDbLine
 10
4.800000000000011
 20
39.2666666666663
 30
-0.49999999999997014
 11
9.061111111111018
 21
39.2666666666663
 31
-0.49999999999997014
  0
LINE
  5
249CB
330
4F
100
AcDbEntity
  8
0
100
AcDbLine
 10
4.800000000000011
 20
21.266666666666296
 30
-0.49999999999997014
 11
4.800000000000011
 21
8.299999999999699
 31
-0.49999999999997014
  0
LINE
  5
249CC
330
4F
100
AcDbEntity
  8
0
100
AcDbLine
 10
16.533333333333317
 20
8.299999999999699
 30
-0.49999999999997014
 11
4.800000000000011
 21
8.299999999999699
 31
-0.49999999999997014
  0
LINE
  5
249CD
330
4F
100
AcDbEntity
  8
0
100
AcDbLine
 10
16.533333333333317
 20
17.766666666666296
 30
-0.49999999999997014
 11
16.533333333333317
 21
8.299999999999699
 31
-0.49999999999997014
  0
LINE
  5
249CE
330
4F
100
AcDbEntity
  8
0
100
AcDbLine
 10
16.533333333333317
 20
17.766666666666296
 30
-0.49999999999997014
 11
9.061111111111018
 21
17.766666666666296
 31
-0.49999999999997014
  0
LINE
  5
249CF
330
4F
100
AcDbEntity
  8
0
100
AcDbLine
 10
9.061111111111018
 20
21.266666666666296
 30
-0.49999999999997014
 11
9.061111111111018
 21
17.766666666666296
 31
-0.49999999999997014
  0
LINE
  5
249D0
330
4F
100
AcDbEntity
  8
0
100
AcDbLine
 10
4.800000000000011
 20
21.266666666666296
 30
-0.49999999999997014
 11
9.061111111111018
 21
21.266666666666296
 31
-0.49999999999997014
  0
LINE
  5
249D1
330
4F
100
AcDbEntity
  8
0
100
AcDbLine
 10
78.1333333333334
 20
93.26666666666634
 30
-0.49999999999997724
 11
78.1333333333334
 21
80.2999999999996
 31
-0.49999999999997724
  0
LINE
  5
249D2
330
4F
100
AcDbEntity
  8
0
100
AcDbLine
 10
89.8666666666667
 20
80.2999999999996
 30
-0.49999999999998435
 11
78.1333333333334
 21
80.2999999999996
 31
-0.49999999999998435
  0
LINE
  5
249D3
330
4F
100
AcDbEntity
  8
0
100
AcDbLine
 10
89.8666666666667
 20
89.7666666666663
 30
-0.49999999999998435
 11
89.8666666666667
 21
80.2999999999996
 31
-0.49999999999998435
  0
LINE
  5
249D4
330
4F
100
AcDbEntity
  8
0
100
AcDbLine
 10
89.8666666666667
 20
89.76666666666631
 30
-0.49999999999998435
 11
82.3944444444445
 21
89.76666666666631
 31
-0.49999999999998435
  0
LINE
  5
249D5
330
4F
100
AcDbEntity
  8
0
100
AcDbLine
 10
82.3944444444445
 20
93.26666666666634
 30
-0.49999999999997724
 11
82.3944444444445
 21
89.7666666666663
 31
-0.49999999999997724
  0
LINE
  5
249D6
330
4F
100
AcDbEntity
  8
0
100
AcDbLine
 10
78.13333333333341
 20
93.26666666666634
 30
-0.49999999999997724
 11
82.3944444444445
 21
93.26666666666634
 31
-0.49999999999997724
  0
LINE
  5
249D7
330
4F
100
AcDbEntity
  8
0
100
AcDbLine
 10
78.1333333333333
 20
21.266666666666296
 30
-0.49999999999997724
 11
78.1333333333333
 21
8.299999999999699
 31
-0.49999999999997724
  0
LINE
  5
249D8
330
4F
100
AcDbEntity
  8
0
100
AcDbLine
 10
89.8666666666667
 20
8.299999999999699
 30
-0.49999999999998435
 11
78.1333333333333
 21
8.299999999999699
 31
-0.49999999999998435
  0
LINE
  5
249D9
330
4F
100
AcDbEntity
  8
0
100
AcDbLine
 10
89.8666666666667
 20
17.766666666666296
 30
-0.49999999999998435
 11
89.8666666666667
 21
8.299999999999699
 31
-0.49999999999998435
  0
LINE
  5
249DA
330
4F
100
AcDbEntity
  8
0
100
AcDbLine
 10
89.8666666666667
 20
17.766666666666296
 30
-0.49999999999998435
 11
82.3944444444445
 21
17.766666666666296
 31
-0.49999999999998435
  0
LINE
  5
249DB
330
4F
100
AcDbEntity
  8
0
100
AcDbLine
 10
82.3944444444445
 20
21.266666666666296
 30
-0.49999999999997724
 11
82.3944444444445
 21
17.766666666666296
 31
-0.49999999999997724
  0
LINE
  5
249DC
330
4F
100
AcDbEntity
  8
0
100
AcDbLine
 10
78.13333333333341
 20
21.266666666666296
 30
-0.49999999999997724
 11
82.3944444444445
 21
21.266666666666296
 31
-0.49999999999997724
  0
LINE
  5
249DD
330
4F
100
AcDbEntity
  8
0
100
AcDbLine
 10
78.1333333333334
 20
75.26666666666631
 30
-0.49999999999997724
 11
78.1333333333334
 21
62.2999999999996
 31
-0.49999999999997724
  0
LINE
  5
249DE
330
4F
100
AcDbEntity
  8
0
100
AcDbLine
 10
89.8666666666667
 20
62.2999999999996
 30
-0.49999999999998435
 11
78.1333333333334
 21
62.2999999999996
 31
-0.49999999999998435
  0
LINE
  5
249DF
330
4F
100
AcDbEntity
  8
0
100
AcDbLine
 10
89.8666666666667
 20
71.76666666666631
 30
-0.49999999999998435
 11
89.8666666666667
 21
62.2999999999996
 31
-0.49999999999998435
  0
LINE
  5
249E0
330
4F
100
AcDbEntity
  8
0
100
AcDbLine
 10
89.8666666666667
 20
71.76666666666631
 30
-0.49999999999998435
 11
82.3944444444445
 21
71.76666666666631
 31
-0.49999999999998435
  0
LINE
  5
249E1
330
4F
100
AcDbEntity
  8
0
100
AcDbLine
 10
82.3944444444445
 20
75.2666666666663
 30
-0.49999999999997724
 11
82.3944444444445
 21
71.7666666666663
 31
-0.49999999999997724
  0
LINE
  5
249E2
330
4F
100
AcDbEntity
  8
0
100
AcDbLine
 10
78.13333333333341
 20
75.26666666666631
 30
-0.49999999999997724
 11
82.3944444444445
 21
75.26666666666631
 31
-0.49999999999997724
  0
LINE
  5
249E3
330
4F
100
AcDbEntity
  8
0
100
AcDbLine
 10
78.1333333333334
 20
57.2666666666664
 30
-0.49999999999997724
 11
78.1333333333334
 21
44.299999999999706
 31
-0.49999999999997724
  0
LINE
  5
249E4
330
4F
100
AcDbEntity
  8
0
100
AcDbLine
 10
89.8666666666667
 20
44.299999999999706
 30
-0.49999999999998435
 11
78.1333333333334
 21
44.299999999999706
 31
-0.49999999999998435
  0
LINE
  5
249E5
330
4F
100
AcDbEntity
  8
0
100
AcDbLine
 10
89.8666666666667
 20
53.7666666666663
 30
-0.49999999999998435
 11
89.8666666666667
 21
44.299999999999706
 31
-0.49999999999998435
  0
LINE
  5
249E6
330
4F
100
AcDbEntity
  8
0
100
AcDbLine
 10
89.8666666666667
 20
53.7666666666663
 30
-0.49999999999998435
 11
82.3944444444445
 21
53.7666666666663
 31
-0.49999999999998435
  0
LINE
  5
249E7
330
4F
100
AcDbEntity
  8
0
100
AcDbLine
 10
82.3944444444445
 20
57.2666666666664
 30
-0.49999999999997724
 11
82.3944444444445
 21
53.7666666666663
 31
-0.49999999999997724
  0
LINE
  5
249E8
330
4F
100
AcDbEntity
  8
0
100
AcDbLine
 10
78.13333333333341
 20
57.2666666666664
 30
-0.49999999999997724
 11
82.3944444444445
 21
57.2666666666664
 31
-0.49999999999997724
  0
LINE
  5
249E9
330
4F
100
AcDbEntity
  8
0
100
AcDbLine
 10
78.1333333333333
 20
39.2666666666663
 30
-0.49999999999997724
 11
78.1333333333333
 21
26.2999999999997
 31
-0.49999999999997724
  0
LINE
  5
249EA
330
4F
100
AcDbEntity
  8
0
100
AcDbLine
 10
89.8666666666667
 20
26.2999999999997
 30
-0.49999999999998435
 11
78.1333333333333
 21
26.2999999999997
 31
-0.49999999999998435
  0
LINE
  5
249EB
330
4F
100
AcDbEntity
  8
0
100
AcDbLine
 10
89.8666666666667
 20
35.766666666666296
 30
-0.49999999999998435
 11
89.8666666666667
 21
26.2999999999997
 31
-0.49999999999998435
  0
LINE
  5
249EC
330
4F
100
AcDbEntity
  8
0
100
AcDbLine
 10
89.8666666666667
 20
35.766666666666296
 30
-0.49999999999998435
 11
82.3944444444445
 21
35.766666666666296
 31
-0.49999999999998435
  0
LINE
  5
249ED
330
4F
100
AcDbEntity
  8
0
100
AcDbLine
 10
82.3944444444445
 20
39.2666666666663
 30
-0.49999999999997724
 11
82.3944444444445
 21
35.766666666666296
 31
-0.49999999999997724
  0
LINE
  5
249EE
330
4F
100
AcDbEntity
  8
0
100
AcDbLine
 10
78.13333333333341
 20
39.2666666666663
 30
-0.49999999999997724
 11
82.3944444444445
 21
39.2666666666663
 31
-0.49999999999997724
  0
LINE
  5
249EF
330
4F
100
AcDbEntity
  8
0
100
AcDbLine
 10
145.86666666666662
 20
21.266666666666296
 30
-0.49999999999999145
 11
145.86666666666662
 21
8.299999999999699
 31
-0.49999999999999145
  0
LINE
  5
249F0
330
4F
100
AcDbEntity
  8
0
100
AcDbLine
 10
145.86666666666662
 20
21.266666666666296
 30
-0.499999999999992
 11
141.60555555555553
 21
21.266666666666296
 31
-0.4999999999999909
  0
LINE
  5
249F1
330
4F
100
AcDbEntity
  8
0
100
AcDbLine
 10
141.6055555555555
 20
21.266666666666296
 30
-0.49999999999999145
 11
141.6055555555555
 21
17.766666666666296
 31
-0.49999999999999145
  0
LINE
  5
249F2
330
4F
100
AcDbEntity
  8
0
100
AcDbLine
 10
134.1333333333333
 20
17.766666666666296
 30
-0.4999999999999834
 11
141.6055555555555
 21
17.766666666666296
 31
-0.4999999999999853
  0
LINE
  5
249F3
330
4F
100
AcDbEntity
  8
0
100
AcDbLine
 10
134.1333333333333
 20
17.766666666666296
 30
-0.49999999999998435
 11
134.1333333333333
 21
8.299999999999699
 31
-0.49999999999998435
  0
LINE
  5
249F4
330
4F
100
AcDbEntity
  8
0
100
AcDbLine
 10
134.1333333333333
 20
8.299999999999699
 30
-0.4999999999999829
 11
145.86666666666662
 21
8.299999999999699
 31
-0.4999999999999858
  0
LINE
  5
249F5
330
4F
100
AcDbEntity
  8
0
100
AcDbLine
 10
145.86666666666662
 20
39.2666666666663
 30
-0.49999999999999145
 11
145.86666666666662
 21
26.2999999999997
 31
-0.49999999999999145
  0
LINE
  5
249F6
330
4F
100
AcDbEntity
  8
0
100
AcDbLine
 10
145.86666666666662
 20
39.2666666666663
 30
-0.499999999999992
 11
141.60555555555553
 21
39.2666666666663
 31
-0.4999999999999909
  0
LINE
  5
249F7
330
4F
100
AcDbEntity
  8
0
100
AcDbLine
 10
141.6055555555555
 20
39.2666666666663
 30
-0.49999999999999145
 11
141.6055555555555
 21
35.766666666666296
 31
-0.49999999999999145
  0
LINE
  5
249F8
330
4F
100
AcDbEntity
  8
0
100
AcDbLine
 10
134.1333333333333
 20
35.766666666666296
 30
-0.4999999999999834
 11
141.6055555555555
 21
35.766666666666296
 31
-0.4999999999999853
  0
LINE
  5
249F9
330
4F
100
AcDbEntity
  8
0
100
AcDbLine
 10
134.1333333333333
 20
35.766666666666296
 30
-0.49999999999998435
 11
134.1333333333333
 21
26.2999999999997
 31
-0.49999999999998435
  0
LINE
  5
249FA
330
4F
100
AcDbEntity
  8
0
100
AcDbLine
 10
134.1333333333333
 20
26.2999999999997
 30
-0.4999999999999829
 11
145.86666666666662
 21
26.2999999999997
 31
-0.4999999999999858
  0
LINE
  5
249FB
330
4F
100
AcDbEntity
  8
0
100
AcDbLine
 10
145.86666666666662
 20
57.2666666666664
 30
-0.49999999999999145
 11
145.86666666666662
 21
44.299999999999706
 31
-0.49999999999999145
  0
LINE
  5
249FC
330
4F
100
AcDbEntity
  8
0
100
AcDbLine
 10
145.86666666666662
 20
57.2666666666664
 30
-0.499999999999992
 11
141.60555555555553
 21
57.2666666666664
 31
-0.4999999999999909
  0
LINE
  5
249FD
330
4F
100
AcDbEntity
  8
0
100
AcDbLine
 10
141.6055555555555
 20
57.2666666666664
 30
-0.49999999999999145
 11
141.6055555555555
 21
53.7666666666663
 31
-0.49999999999999145
  0
LINE
  5
249FE
330
4F
100
AcDbEntity
  8
0
100
AcDbLine
 10
134.1333333333333
 20
53.7666666666663
 30
-0.4999999999999834
 11
141.6055555555555
 21
53.7666666666663
 31
-0.4999999999999853
  0
LINE
  5
249FF
330
4F
100
AcDbEntity
  8
0
100
AcDbLine
 10
134.1333333333333
 20
53.7666666666663
 30
-0.49999999999998435
 11
134.1333333333333
 21
44.299999999999706
 31
-0.49999999999998435
  0
LINE
  5
24A00
330
4F
100
AcDbEntity
  8
0
100
AcDbLine
 10
134.1333333333333
 20
44.299999999999706
 30
-0.4999999999999829
 11
145.86666666666662
 21
44.299999999999706
 31
-0.4999999999999858
  0
LINE
  5
24A01
330
4F
100
AcDbEntity
  8
0
100
AcDbLine
 10
145.86666666666662
 20
75.26666666666631
 30
-0.49999999999999145
 11
145.86666666666662
 21
62.2999999999996
 31
-0.49999999999999145
  0
LINE
  5
24A02
330
4F
100
AcDbEntity
  8
0
100
AcDbLine
 10
145.86666666666662
 20
75.26666666666631
 30
-0.499999999999992
 11
141.60555555555553
 21
75.26666666666631
 31
-0.4999999999999909
  0
LINE
  5
24A03
330
4F
100
AcDbEntity
  8
0
100
AcDbLine
 10
141.6055555555555
 20
75.2666666666663
 30
-0.49999999999999145
 11
141.6055555555555
 21
71.7666666666663
 31
-0.49999999999999145
  0
LINE
  5
24A04
330
4F
100
AcDbEntity
  8
0
100
AcDbLine
 10
134.1333333333333
 20
71.76666666666631
 30
-0.4999999999999834
 11
141.6055555555555
 21
71.76666666666631
 31
-0.4999999999999853
  0
LINE
  5
24A05
330
4F
100
AcDbEntity
  8
0
100
AcDbLine
 10
134.1333333333333
 20
71.76666666666631
 30
-0.49999999999998435
 11
134.1333333333333
 21
62.2999999999996
 31
-0.49999999999998435
  0
LINE
  5
24A06
330
4F
100
AcDbEntity
  8
0
100
AcDbLine
 10
134.1333333333333
 20
62.2999999999996
 30
-0.4999999999999829
 11
145.86666666666662
 21
62.2999999999996
 31
-0.4999999999999858
  0
LINE
  5
24A07
330
4F
100
AcDbEntity
  8
0
100
AcDbLine
 10
145.86666666666662
 20
93.26666666666634
 30
-0.49999999999999145
 11
145.86666666666662
 21
80.2999999999996
 31
-0.49999999999999145
  0
LINE
  5
24A08
330
4F
100
AcDbEntity
  8
0
100
AcDbLine
 10
145.86666666666662
 20
93.26666666666634
 30
-0.499999999999992
 11
141.60555555555553
 21
93.26666666666634
 31
-0.4999999999999909
  0
LINE
  5
24A09
330
4F
100
AcDbEntity
  8
0
100
AcDbLine
 10
141.6055555555555
 20
93.26666666666634
 30
-0.49999999999999145
 11
141.6055555555555
 21
89.7666666666663
 31
-0.49999999999999145
  0
LINE
  5
24A0A
330
4F
100
AcDbEntity
  8
0
100
AcDbLine
 10
134.1333333333333
 20
89.76666666666631
 30
-0.4999999999999834
 11
141.6055555555555
 21
89.76666666666631
 31
-0.4999999999999853
  0
LINE
  5
24A0B
330
4F
100
AcDbEntity
  8
0
100
AcDbLine
 10
134.1333333333333
 20
89.7666666666663
 30
-0.49999999999998435
 11
134.1333333333333
 21
80.2999999999996
 31
-0.49999999999998435
  0
LINE
  5
24A0C
330
4F
100
AcDbEntity
  8
0
100
AcDbLine
 10
134.1333333333333
 20
80.2999999999996
 30
-0.4999999999999829
 11
145.86666666666662
 21
80.2999999999996
 31
-0.4999999999999858
  0
ENDBLK
  5
51
330
4F
100
AcDbEntity
  8
0
100
AcDbBlockEnd
  0
ENDSEC
  0
SECTION
  2
ENTITIES
  0
INSERT
  5
26E
330
1F
100
AcDbEntity
  8
0
  6
ByLayer
100
AcDbBlockReference
  2
BASE_GEOMETRY
 10
0.0
 20
0.0
 30
0.0
 43
0.0
  0
LINE
  5
26F
330
1F
100
AcDbEntity
  8
engraving
  6
ByLayer
100
AcDbLine
 10
1.4210854715202e-14
 20
78.56706281753365
 30
0.0
 11
224.0001545883465
 21
78.5670628175336
 31
0.0
  0
ENDSEC
  0
SECTION
  2
OBJECTS
  0
DICTIONARY
  5
C
330
0
100
AcDbDictionary
281
1
  3
ACAD_GROUP
350
D
  3
ACAD_COLOR
350
20001
  3
ACAD_LAYOUT
350
20002
  3
ACAD_MATERIAL
350
20003
  3
ACAD_MLEADERSTYLE
350
20004
  3
ACAD_MLINESTYLE
350
20005
  3
ACAD_PLOTSETTINGS
350
20006
  3
ACAD_PLOTSTYLENAME
350
20007
  3
ACAD_SCALELIST
350
20009
  3
ACAD_TABLESTYLE
350
2000A
  3
ACAD_VISUALSTYLE
350
2000B
  3
EZDXF_META
350
20231
  0
DICTIONARY
  5
D
330
C
100
AcDbDictionary
281
1
  0
PLOTSETTINGS
  5
270
330
0
100
AcDbPlotSettings
  1

  4
A3
  6
1x1
 40
0.0
 41
0.0
 42
0.0
 43
0.0
 44
420.0
 45
297.0
 46
0.0
 47
0.0
 48
0.0
 49
0.0
140
0.0
141
0.0
142
1.0
143
1.0
 70
688
 72
1
 73
0
 74
5
  7

 75
16
 76
0
 77
2
 78
300
147
1.0
148
0.0
149
0.0
  0
DICTIONARY
  5
20001
330
C
100
AcDbDictionary
281
1
  0
DICTIONARY
  5
20002
330
C
100
AcDbDictionary
281
1
  3
Model
350
2000C
  3
Layout1
350
2000D
  0
DICTIONARY
  5
20003
330
C
100
AcDbDictionary
281
1
  3
ByBlock
350
2000E
  3
ByLayer
350
2000F
  3
Global
350
20010
  0
DICTIONARY
  5
20004
330
C
100
AcDbDictionary
281
1
  3
Standard
350
20012
  0
DICTIONARY
  5
20005
330
C
100
AcDbDictionary
281
1
  3
Standard
350
20011
  0
DICTIONARY
  5
20006
330
C
100
AcDbDictionary
281
1
  0
ACDBDICTIONARYWDFLT
  5
20007
330
C
100
AcDbDictionary
281
1
  3
Normal
350
20008
100
AcDbDictionaryWithDefault
340
20008
  0
ACDBPLACEHOLDER
  5
20008
330
20007
  0
DICTIONARY
  5
20009
330
C
100
AcDbDictionary
281
1
  0
DICTIONARY
  5
2000A
330
C
100
AcDbDictionary
281
1
  0
DICTIONARY
  5
2000B
330
C
100
AcDbDictionary
281
1
  0
LAYOUT
  5
2000C
330
20002
100
AcDbPlotSettings
  1

  4
A3
  6

 40
7.5
 41
20.0
 42
7.5
 43
20.0
 44
420.0
 45
297.0
 46
0.0
 47
0.0
 48
0.0
 49
0.0
140
0.0
141
0.0
142
1.0
143
1.0
 70
1024
 72
1
 73
0
 74
5
  7

 75
16
 76
0
 77
2
 78
300
147
1.0
148
0.0
149
0.0
100
AcDbLayout
  1
Model
 70
1
 71
0
 10
0.0
 20
0.0
 11
420.0
 21
297.0
 12
0.0
 22
0.0
 32
0.0
 14
1e+20
 24
1e+20
 34
1e+20
 15
-1e+20
 25
-1e+20
 35
-1e+20
146
0.0
 13
0.0
 23
0.0
 33
0.0
 16
1.0
 26
0.0
 36
0.0
 17
0.0
 27
1.0
 37
0.0
 76
1
330
1F
  0
LAYOUT
  5
2000D
330
20002
100
AcDbPlotSettings
  1

  4
A3
  6

 40
7.5
 41
20.0
 42
7.5
 43
20.0
 44
420.0
 45
297.0
 46
0.0
 47
0.0
 48
0.0
 49
0.0
140
0.0
141
0.0
142
1.0
143
1.0
 70
0
 72
1
 73
0
 74
5
  7

 75
16
 76
0
 77
2
 78
300
147
1.0
148
0.0
149
0.0
100
AcDbLayout
  1
Layout1
 70
1
 71
1
 10
0.0
 20
0.0
 11
420.0
 21
297.0
 12
0.0
 22
0.0
 32
0.0
 14
1e+20
 24
1e+20
 34
1e+20
 15
-1e+20
 25
-1e+20
 35
-1e+20
146
0.0
 13
0.0
 23
0.0
 33
0.0
 16
1.0
 26
0.0
 36
0.0
 17
0.0
 27
1.0
 37
0.0
 76
1
330
1E
  0
MATERIAL
  5
2000E
102
{ACAD_REACTORS
330
20003
102
}
330
20003
100
AcDbMaterial
  1
ByBlock
  2

 70
0
 40
1.0
 71
1
 41
1.0
 91
-1023410177
 42
1.0
 72
1
  3

 73
1
 74
1
 75
1
 44
0.5
 73
0
 45
1.0
 46
1.0
 77
1
  4

 78
1
 79
1
170
1
 48
1.0
171
1
  6

172
1
173
1
174
1
140
1.0
141
1.0
175
1
  7

176
1
177
1
178
1
143
1.0
179
1
  8

270
1
271
1
272
1
145
1.0
146
1.0
273
1
  9

274
1
275
1
276
1
 42
1.0
 72
1
  3

 73
1
 74
1
 75
1
 94
63
  0
MATERIAL
  5
2000F
102
{ACAD_REACTORS
330
20003
102
}
330
20003
100
AcDbMaterial
  1
ByLayer
  2

 70
0
 40
1.0
 71
1
 41
1.0
 91
-1023410177
 42
1.0
 72
1
  3

 73
1
 74
1
 75
1
 44
0.5
 73
0
 45
1.0
 46
1.0
 77
1
  4

 78
1
 79
1
170
1
 48
1.0
171
1
  6

172
1
173
1
174
1
140
1.0
141
1.0
175
1
  7

176
1
177
1
178
1
143
1.0
179
1
  8

270
1
271
1
272
1
145
1.0
146
1.0
273
1
  9

274
1
275
1
276
1
 42
1.0
 72
1
  3

 73
1
 74
1
 75
1
 94
63
  0
MATERIAL
  5
20010
102
{ACAD_REACTORS
330
20003
102
}
330
20003
100
AcDbMaterial
  1
Global
  2

 70
0
 40
1.0
 71
1
 41
1.0
 91
-1023410177
 42
1.0
 72
1
  3

 73
1
 74
1
 75
1
 44
0.5
 73
0
 45
1.0
 46
1.0
 77
1
  4

 78
1
 79
1
170
1
 48
1.0
171
1
  6

172
1
173
1
174
1
140
1.0
141
1.0
175
1
  7

176
1
177
1
178
1
143
1.0
179
1
  8

270
1
271
1
272
1
145
1.0
146
1.0
273
1
  9

274
1
275
1
276
1
 42
1.0
 72
1
  3

 73
1
 74
1
 75
1
 94
63
  0
MLINESTYLE
  5
20011
102
{ACAD_REACTORS
330
20005
102
}
330
20005
100
AcDbMlineStyle
  2
Standard
 70
0
  3

 62
256
 51
90.0
 52
90.0
 71
2
 49
0.5
 62
256
  6
BYLAYER
 49
-0.5
 62
256
  6
BYLAYER
  0
MLEADERSTYLE
  5
20012
102
{ACAD_REACTORS
330
20004
102
}
330
20004
100
AcDbMLeaderStyle
179
2
170
2
171
1
172
0
 90
2
 40
0.0
 41
0.0
173
1
 91
-1056964608
 92
-2
290
1
 42
2.0
291
1
 43
8.0
  3
Standard
 44
4.0
300

342
4C
174
1
175
1
176
0
178
1
 93
-1056964608
 45
4.0
292
0
297
0
 46
4.0
 94
-1056964608
 47
1.0
 49
1.0
140
1.0
294
1
141
0.0
177
0
142
1.0
295
0
296
0
143
3.75
271
0
272
9
273
9
  0
DICTIONARY
  5
20231
330
C
100
AcDbDictionary
280
1
281
1
  3
WRITTEN_BY_EZDXF
350
20232
  0
DICTIONARYVAR
  5
20232
330
20231
100
DictionaryVariables
280
0
  1
1.4.3 @ 2026-05-03T15:42:15.010030+00:00
  0
ENDSEC
  0
EOF
