  0
SECTION
  2
HEADER
  9
$ACADVER
  1
AC1021
  9
$ACADMAINTVER
 70
25
  9
$DWGCODEPAGE
  3
ANSI_1252
  9
$INSBASE
 10
0.0
 20
0.0
 30
0.0
  9
$EXTMIN
 10
1e+20
 20
1e+20
 30
1e+20
  9
$EXTMAX
 10
-1e+20
 20
-1e+20
 30
-1e+20
  9
$LIMMIN
 10
0.0
 20
0.0
  9
$LIMMAX
 10
420.0
 20
297.0
  9
$ORTHOMODE
 70
0
  9
$REGENMODE
 70
1
  9
$FILLMODE
 70
1
  9
$QTEXTMODE
 70
0
  9
$MIRRTEXT
 70
1
  9
$LTSCALE
 40
1.0
  9
$ATTMODE
 70
1
  9
$TEXTSIZE
 40
2.5
  9
$TRACEWID
 40
1.0
  9
$TEXTSTYLE
  7
Standard
  9
$CLAYER
  8
engraving
  9
$CELTYPE
  6
ByLayer
  9
$CECOLOR
 62
256
  9
$CELTSCALE
 40
1.0
  9
$DISPSILH
 70
0
  9
$DIMSCALE
 40
1.0
  9
$DIMASZ
 40
2.5
  9
$DIMEXO
 40
0.625
  9
$DIMDLI
 40
3.75
  9
$DIMRND
 40
0.0
  9
$DIMDLE
 40
0.0
  9
$DIMEXE
 40
1.25
  9
$DIMTP
 40
0.0
  9
$DIMTM
 40
0.0
  9
$DIMTXT
 40
2.5
  9
$DIMCEN
 40
2.5
  9
$DIMTSZ
 40
0.0
  9
$DIMTOL
 70
0
  9
$DIMLIM
 70
0
  9
$DIMTIH
 70
0
  9
$DIMTOH
 70
0
  9
$DIMSE1
 70
0
  9
$DIMSE2
 70
0
  9
$DIMTAD
 70
1
  9
$DIMZIN
 70
8
  9
$DIMBLK
  1

  9
$DIMASO
 70
1
  9
$DIMSHO
 70
1
  9
$DIMPOST
  1

  9
$DIMAPOST
  1

  9
$DIMALT
 70
0
  9
$DIMALTD
 70
3
  9
$DIMALTF
 40
0.03937007874
  9
$DIMLFAC
 40
1.0
  9
$DIMTOFL
 70
1
  9
$DIMTVP
 40
0.0
  9
$DIMTIX
 70
0
  9
$DIMSOXD
 70
0
  9
$DIMSAH
 70
0
  9
$DIMBLK1
  1

  9
$DIMBLK2
  1

  9
$DIMSTYLE
  2
ISO-25
  9
$DIMCLRD
 70
0
  9
$DIMCLRE
 70
0
  9
$DIMCLRT
 70
0
  9
$DIMTFAC
 40
1.0
  9
$DIMGAP
 40
0.625
  9
$DIMJUST
 70
0
  9
$DIMSD1
 70
0
  9
$DIMSD2
 70
0
  9
$DIMTOLJ
 70
0
  9
$DIMTZIN
 70
8
  9
$DIMALTZ
 70
0
  9
$DIMALTTZ
 70
0
  9
$DIMUPT
 70
0
  9
$DIMDEC
 70
2
  9
$DIMTDEC
 70
2
  9
$DIMALTU
 70
2
  9
$DIMALTTD
 70
3
  9
$DIMTXSTY
  7
Standard
  9
$DIMAUNIT
 70
0
  9
$DIMADEC
 70
0
  9
$DIMALTRND
 40
0.0
  9
$DIMAZIN
 70
0
  9
$DIMDSEP
 70
44
  9
$DIMATFIT
 70
3
  9
$DIMFRAC
 70
0
  9
$DIMLDRBLK
  1

  9
$DIMLUNIT
 70
2
  9
$DIMLWD
 70
-2
  9
$DIMLWE
 70
-2
  9
$DIMTMOVE
 70
0
  9
$DIMFXL
 40
1.0
  9
$DIMFXLON
 70
0
  9
$DIMJOGANG
 40
0.785398163397
  9
$DIMTFILL
 70
0
  9
$DIMTFILLCLR
 70
0
  9
$DIMARCSYM
 70
0
  9
$DIMLTYPE
  6

  9
$DIMLTEX1
  6

  9
$DIMLTEX2
  6

  9
$LUNITS
 70
2
  9
$LUPREC
 70
4
  9
$SKETCHINC
 40
1.0
  9
$FILLETRAD
 40
10.0
  9
$AUNITS
 70
0
  9
$AUPREC
 70
2
  9
$MENU
  1
.
  9
$ELEVATION
 40
0.0
  9
$PELEVATION
 40
0.0
  9
$THICKNESS
 40
0.0
  9
$LIMCHECK
 70
0
  9
$CHAMFERA
 40
0.0
  9
$CHAMFERB
 40
0.0
  9
$CHAMFERC
 40
0.0
  9
$CHAMFERD
 40
0.0
  9
$SKPOLY
 70
0
  9
$TDCREATE
 40
2461164.6294328705
  9
$TDUPDATE
 40
2461164.6294328705
  9
$USRTIMER
 70
1
  9
$ANGBASE
 50
0.0
  9
$ANGDIR
 70
0
  9
$PDMODE
 70
0
  9
$PDSIZE
 40
0.0
  9
$PLINEWID
 40
0.0
  9
$SPLFRAME
 70
0
  9
$SPLINETYPE
 70
6
  9
$SPLINESEGS
 70
8
  9
$HANDSEED
  5
2088A
  9
$SURFTAB1
 70
6
  9
$SURFTAB2
 70
6
  9
$SURFTYPE
 70
6
  9
$SURFU
 70
6
  9
$SURFV
 70
6
  9
$UCSBASE
  2

  9
$UCSNAME
  2

  9
$UCSORG
 10
0.0
 20
0.0
 30
0.0
  9
$UCSXDIR
 10
1.0
 20
0.0
 30
0.0
  9
$UCSYDIR
 10
0.0
 20
1.0
 30
0.0
  9
$UCSORTHOREF
  2

  9
$UCSORTHOVIEW
 70
0
  9
$UCSORGTOP
 10
0.0
 20
0.0
 30
0.0
  9
$UCSORGBOTTOM
 10
0.0
 20
0.0
 30
0.0
  9
$UCSORGLEFT
 10
0.0
 20
0.0
 30
0.0
  9
$UCSORGRIGHT
 10
0.0
 20
0.0
 30
0.0
  9
$UCSORGFRONT
 10
0.0
 20
0.0
 30
0.0
  9
$UCSORGBACK
 10
0.0
 20
0.0
 30
0.0
  9
$PUCSBASE
  2

  9
$PUCSNAME
  2

  9
$PUCSORG
 10
0.0
 20
0.0
 30
0.0
  9
$PUCSXDIR
 10
1.0
 20
0.0
 30
0.0
  9
$PUCSYDIR
 10
0.0
 20
1.0
 30
0.0
  9
$PUCSORTHOREF
  2

  9
$PUCSORTHOVIEW
 70
0
  9
$PUCSORGTOP
 10
0.0
 20
0.0
 30
0.0
  9
$PUCSORGBOTTOM
 10
0.0
 20
0.0
 30
0.0
  9
$PUCSORGLEFT
 10
0.0
 20
0.0
 30
0.0
  9
$PUCSORGRIGHT
 10
0.0
 20
0.0
 30
0.0
  9
$PUCSORGFRONT
 10
0.0
 20
0.0
 30
0.0
  9
$PUCSORGBACK
 10
0.0
 20
0.0
 30
0.0
  9
$USERI1
 70
0
  9
$USERI2
 70
0
  9
$USERI3
 70
0
  9
$USERI4
 70
0
  9
$USERI5
 70
0
  9
$USERR1
 40
0.0
  9
$USERR2
 40
0.0
  9
$USERR3
 40
0.0
  9
$USERR4
 40
0.0
  9
$USERR5
 40
0.0
  9
$WORLDVIEW
 70
1
  9
$SHADEDGE
 70
3
  9
$SHADEDIF
 70
70
  9
$TILEMODE
 70
1
  9
$MAXACTVP
 70
64
  9
$PINSBASE
 10
0.0
 20
0.0
 30
0.0
  9
$PLIMCHECK
 70
0
  9
$PEXTMIN
 10
1e+20
 20
1e+20
 30
1e+20
  9
$PEXTMAX
 10
-1e+20
 20
-1e+20
 30
-1e+20
  9
$PLIMMIN
 10
0.0
 20
0.0
  9
$PLIMMAX
 10
420.0
 20
297.0
  9
$UNITMODE
 70
0
  9
$VISRETAIN
 70
1
  9
$PLINEGEN
 70
0
  9
$PSLTSCALE
 70
1
  9
$TREEDEPTH
 70
3020
  9
$CMLSTYLE
  2
Standard
  9
$CMLJUST
 70
0
  9
$CMLSCALE
 40
20.0
  9
$PROXYGRAPHICS
 70
1
  9
$MEASUREMENT
 70
1
  9
$CELWEIGHT
370
-1
  9
$ENDCAPS
280
0
  9
$JOINSTYLE
280
0
  9
$LWDISPLAY
290
0
  9
$INSUNITS
 70
6
  9
$HYPERLINKBASE
  1

  9
$STYLESHEET
  1

  9
$XEDIT
290
1
  9
$CEPSNTYPE
380
0
  9
$PSTYLEMODE
290
1
  9
$FINGERPRINTGUID
  2
{348CCA9D-C673-450F-BE33-908A08BBFF0A}
  9
$VERSIONGUID
  2
{AE26F158-87C6-46CD-92F9-DA26B97804B4}
  9
$EXTNAMES
290
1
  9
$PSVPSCALE
 40
0.0
  9
$OLESTARTUP
290
0
  9
$SORTENTS
280
127
  9
$INDEXCTL
280
0
  9
$HIDETEXT
280
1
  9
$XCLIPFRAME
290
1
  9
$HALOGAP
280
0
  9
$OBSCOLOR
 70
257
  9
$OBSLTYPE
280
0
  9
$INTERSECTIONDISPLAY
280
0
  9
$INTERSECTIONCOLOR
 70
257
  9
$DIMASSOC
280
2
  9
$PROJECTNAME
  1

  9
$CAMERADISPLAY
290
0
  9
$LENSLENGTH
 40
50.0
  9
$CAMERAHEIGHT
 40
0.0
  9
$STEPSPERSEC
 40
24.0
  9
$STEPSIZE
 40
100.0
  9
$3DDWFPREC
 40
2.0
  9
$PSOLWIDTH
 40
0.005
  9
$PSOLHEIGHT
 40
0.08
  9
$LOFTANG1
 40
1.570796326795
  9
$LOFTANG2
 40
1.570796326795
  9
$LOFTMAG1
 40
0.0
  9
$LOFTMAG2
 40
0.0
  9
$LOFTPARAM
 70
7
  9
$LOFTNORMALS
280
1
  9
$LATITUDE
 40
37.795
  9
$LONGITUDE
 40
-122.394
  9
$NORTHDIRECTION
 40
0.0
  9
$TIMEZONE
 70
-8000
  9
$LIGHTGLYPHDISPLAY
280
1
  9
$TILEMODELIGHTSYNCH
280
1
  9
$CMATERIAL
347
2000F
  9
$SOLIDHIST
280
0
  9
$SHOWHIST
280
1
  9
$DWFFRAME
280
2
  9
$DGNFRAME
280
2
  9
$REALWORLDSCALE
290
1
  9
$INTERFERECOLOR
 62
256
  9
$CSHADOW
280
0
  9
$SHADOWPLANELOCATION
 40
0.0
  0
ENDSEC
  0
SECTION
  2
CLASSES
  0
CLASS
  1
ACDBDICTIONARYWDFLT
  2
AcDbDictionaryWithDefault
  3
ObjectDBX Classes
 90
0
 91
0
280
0
281
0
  0
CLASS
  1
SUN
  2
AcDbSun
  3
SCENEOE
 90
1153
 91
0
280
0
281
0
  0
CLASS
  1
VISUALSTYLE
  2
AcDbVisualStyle
  3
ObjectDBX Classes
 90
4095
 91
0
280
0
281
0
  0
CLASS
  1
MATERIAL
  2
AcDbMaterial
  3
ObjectDBX Classes
 90
1153
 91
0
280
0
281
0
  0
CLASS
  1
SCALE
  2
AcDbScale
  3
ObjectDBX Classes
 90
1153
 91
0
280
0
281
0
  0
CLASS
  1
TABLESTYLE
  2
AcDbTableStyle
  3
ObjectDBX Classes
 90
4095
 91
0
280
0
281
0
  0
CLASS
  1
MLEADERSTYLE
  2
AcDbMLeaderStyle
  3
ACDB_MLEADERSTYLE_CLASS
 90
4095
 91
0
280
0
281
0
  0
CLASS
  1
DICTIONARYVAR
  2
AcDbDictionaryVar
  3
ObjectDBX Classes
 90
0
 91
0
280
0
281
0
  0
CLASS
  1
CELLSTYLEMAP
  2
AcDbCellStyleMap
  3
ObjectDBX Classes
 90
1152
 91
0
280
0
281
0
  0
CLASS
  1
MENTALRAYRENDERSETTINGS
  2
AcDbMentalRayRenderSettings
  3
SCENEOE
 90
1024
 91
0
280
0
281
0
  0
CLASS
  1
ACDBDETAILVIEWSTYLE
  2
AcDbDetailViewStyle
  3
ObjectDBX Classes
 90
1025
 91
0
280
0
281
0
  0
CLASS
  1
ACDBSECTIONVIEWSTYLE
  2
AcDbSectionViewStyle
  3
ObjectDBX Classes
 90
1025
 91
0
280
0
281
0
  0
CLASS
  1
RASTERVARIABLES
  2
AcDbRasterVariables
  3
ISM
 90
0
 91
0
280
0
281
0
  0
CLASS
  1
LAYOUT
  2
AcDbLayout
  3
ObjectDBX Classes
 90
0
 91
0
280
0
281
0
  0
CLASS
  1
ACDBPLACEHOLDER
  2
AcDbPlaceHolder
  3
ObjectDBX Classes
 90
0
 91
0
280
0
281
0
  0
ENDSEC
  0
SECTION
  2
TABLES
  0
TABLE
  2
VPORT
  5
8
330
0
100
AcDbSymbolTable
 70
1
  0
VPORT
  5
31
330
8
100
AcDbSymbolTableRecord
100
AcDbViewportTableRecord
  2
*ACTIVE
 70
0
 10
0.0
 20
0.0
 11
1.0
 21
1.0
 12
142.7816412443661
 22
67.26956282090245
 13
0.0
 23
0.0
 14
10.0
 24
10.0
 15
10.0
 25
10.0
 16
0.0
 26
0.0
 36
1.0
 17
0.0
 27
0.0
 37
0.0
 40
139.4580462433333
 41
1.387988560533842
 42
50.0
 43
0.0
 44
0.0
 50
0.0
 51
0.0
 71
0
 72
100
 73
1
 74
3
 75
0
 76
0
 77
0
 78
0
281
0
 65
1
110
0.0
120
0.0
130
0.0
111
1.0
121
0.0
131
0.0
112
0.0
122
1.0
132
0.0
 79
0
146
0.0
 60
7
 61
5
348
10020
292
1
282
1
141
0.0
142
0.0
 63
250
421
3358443
  0
ENDTAB
  0
TABLE
  2
LTYPE
  5
5
330
0
100
AcDbSymbolTable
 70
27
  0
LTYPE
  5
14
330
5
100
AcDbSymbolTableRecord
100
AcDbLinetypeTableRecord
  2
ByBlock
 70
0
  3

 72
65
 73
0
 40
0.0
  0
LTYPE
  5
15
330
5
100
AcDbSymbolTableRecord
100
AcDbLinetypeTableRecord
  2
ByLayer
 70
0
  3

 72
65
 73
0
 40
0.0
  0
LTYPE
  5
16
330
5
100
AcDbSymbolTableRecord
100
AcDbLinetypeTableRecord
  2
Continuous
 70
0
  3
Solid line
 72
65
 73
0
 40
0.0
  0
LTYPE
  5
32
330
5
100
AcDbSymbolTableRecord
100
AcDbLinetypeTableRecord
  2
DOT
 70
0
  3
Dot . . . . . . . . . . . . . . . . . . . . . .
 72
65
 73
2
 40
6.35
 49
0.0
 74
0
 49
-6.35
 74
0
  0
LTYPE
  5
33
330
5
100
AcDbSymbolTableRecord
100
AcDbLinetypeTableRecord
  2
DOTTINY
 70
0
  3
Dot (.15x) .....................................
 72
65
 73
2
 40
0.9525
 49
0.0
 74
0
 49
-0.9525
 74
0
  0
LTYPE
  5
34
330
5
100
AcDbSymbolTableRecord
100
AcDbLinetypeTableRecord
  2
DOT2
 70
0
  3
Dot (.5x) .....................................
 72
65
 73
2
 40
3.175
 49
0.0
 74
0
 49
-3.175
 74
0
  0
LTYPE
  5
35
330
5
100
AcDbSymbolTableRecord
100
AcDbLinetypeTableRecord
  2
DOTX2
 70
0
  3
Dot (2x) .  .  .  .  .  .  .  .  .  .  .  .  .
 72
65
 73
2
 40
12.7
 49
0.0
 74
0
 49
-12.7
 74
0
  0
LTYPE
  5
36
330
5
100
AcDbSymbolTableRecord
100
AcDbLinetypeTableRecord
  2
DASHED
 70
0
  3
Dashed _ _ _ _ _ _ _ _ _ _ _ _ _ _ _ _ _
 72
65
 73
2
 40
19.05
 49
12.7
 74
0
 49
-6.35
 74
0
  0
LTYPE
  5
37
330
5
100
AcDbSymbolTableRecord
100
AcDbLinetypeTableRecord
  2
DASHEDTINY
 70
0
  3
Dashed (.15x) _ _ _ _ _ _ _ _ _ _ _ _ _ _ _ _ _
 72
65
 73
2
 40
2.8575
 49
1.905
 74
0
 49
-0.9525
 74
0
  0
LTYPE
  5
38
330
5
100
AcDbSymbolTableRecord
100
AcDbLinetypeTableRecord
  2
DASHED2
 70
0
  3
Dashed (.5x) _ _ _ _ _ _ _ _ _ _ _ _ _ _ _ _ _
 72
65
 73
2
 40
9.524999999999999
 49
6.35
 74
0
 49
-3.175
 74
0
  0
LTYPE
  5
39
330
5
100
AcDbSymbolTableRecord
100
AcDbLinetypeTableRecord
  2
DASHEDX2
 70
0
  3
Dashed (2x) ____  ____  ____  ____  ____  ___
 72
65
 73
2
 40
38.09999999999999
 49
25.4
 74
0
 49
-12.7
 74
0
  0
LTYPE
  5
3A
330
5
100
AcDbSymbolTableRecord
100
AcDbLinetypeTableRecord
  2
DASHDOT
 70
0
  3
Dash dot __ . __ . __ . __ . __ . __ . __ . __
 72
65
 73
4
 40
25.4
 49
12.7
 74
0
 49
-6.35
 74
0
 49
0.0
 74
0
 49
-6.35
 74
0
  0
LTYPE
  5
3B
330
5
100
AcDbSymbolTableRecord
100
AcDbLinetypeTableRecord
  2
DASHDOTTINY
 70
0
  3
Dash dot (.15x) _._._._._._._._._._._._._._._.
 72
65
 73
4
 40
3.81
 49
1.905
 74
0
 49
-0.9525
 74
0
 49
0.0
 74
0
 49
-0.9525
 74
0
  0
LTYPE
  5
3C
330
5
100
AcDbSymbolTableRecord
100
AcDbLinetypeTableRecord
  2
DASHDOT2
 70
0
  3
Dash dot (.5x) _._._._._._._._._._._._._._._.
 72
65
 73
4
 40
12.7
 49
6.35
 74
0
 49
-3.175
 74
0
 49
0.0
 74
0
 49
-3.175
 74
0
  0
LTYPE
  5
3D
330
5
100
AcDbSymbolTableRecord
100
AcDbLinetypeTableRecord
  2
DASHDOTX2
 70
0
  3
Dash dot (2x) ____  .  ____  .  ____  .  ___
 72
65
 73
4
 40
50.8
 49
25.4
 74
0
 49
-12.7
 74
0
 49
0.0
 74
0
 49
-12.7
 74
0
  0
LTYPE
  5
3E
330
5
100
AcDbSymbolTableRecord
100
AcDbLinetypeTableRecord
  2
DIVIDE
 70
0
  3
Divide ____ . . ____ . . ____ . . ____ . . ____
 72
65
 73
6
 40
31.75
 49
12.7
 74
0
 49
-6.35
 74
0
 49
0.0
 74
0
 49
-6.35
 74
0
 49
0.0
 74
0
 49
-6.35
 74
0
  0
LTYPE
  5
3F
330
5
100
AcDbSymbolTableRecord
100
AcDbLinetypeTableRecord
  2
DIVIDETINY
 70
0
  3
Divide (.15x) __..__..__..__..__..__..__..__.._
 72
65
 73
6
 40
4.7625
 49
1.905
 74
0
 49
-0.9525
 74
0
 49
0.0
 74
0
 49
-0.9525
 74
0
 49
0.0
 74
0
 49
-0.9525
 74
0
  0
LTYPE
  5
40
330
5
100
AcDbSymbolTableRecord
100
AcDbLinetypeTableRecord
  2
DIVIDE2
 70
0
  3
Divide (.5x) __..__..__..__..__..__..__..__.._
 72
65
 73
6
 40
15.875
 49
6.35
 74
0
 49
-3.175
 74
0
 49
0.0
 74
0
 49
-3.175
 74
0
 49
0.0
 74
0
 49
-3.175
 74
0
  0
LTYPE
  5
41
330
5
100
AcDbSymbolTableRecord
100
AcDbLinetypeTableRecord
  2
DIVIDEX2
 70
0
  3
Divide (2x) ________  .  .  ________  .  .  _
 72
65
 73
6
 40
63.5
 49
25.4
 74
0
 49
-12.7
 74
0
 49
0.0
 74
0
 49
-12.7
 74
0
 49
0.0
 74
0
 49
-12.7
 74
0
  0
LTYPE
  5
42
330
5
100
AcDbSymbolTableRecord
100
AcDbLinetypeTableRecord
  2
BORDER
 70
0
  3
Border __ __ . __ __ . __ __ . __ __ . __ __ .
 72
65
 73
6
 40
44.45
 49
12.7
 74
0
 49
-6.35
 74
0
 49
12.7
 74
0
 49
-6.35
 74
0
 49
0.0
 74
0
 49
-6.35
 74
0
  0
LTYPE
  5
43
330
5
100
AcDbSymbolTableRecord
100
AcDbLinetypeTableRecord
  2
BORDERTINY
 70
0
  3
Border (.15x) __.__.__.__.__.__.__.__.__.__.__.
 72
65
 73
6
 40
6.6675
 49
1.905
 74
0
 49
-0.9525
 74
0
 49
1.905
 74
0
 49
-0.9525
 74
0
 49
0.0
 74
0
 49
-0.9525
 74
0
  0
LTYPE
  5
44
330
5
100
AcDbSymbolTableRecord
100
AcDbLinetypeTableRecord
  2
BORDER2
 70
0
  3
Border (.5x) __.__.__.__.__.__.__.__.__.__.__.
 72
65
 73
6
 40
22.225
 49
6.35
 74
0
 49
-3.175
 74
0
 49
6.35
 74
0
 49
-3.175
 74
0
 49
0.0
 74
0
 49
-3.175
 74
0
  0
LTYPE
  5
45
330
5
100
AcDbSymbolTableRecord
100
AcDbLinetypeTableRecord
  2
BORDERX2
 70
0
  3
Border (2x) ____  ____  .  ____  ____  .  ___
 72
65
 73
6
 40
88.89999999999999
 49
25.4
 74
0
 49
-12.7
 74
0
 49
25.4
 74
0
 49
-12.7
 74
0
 49
0.0
 74
0
 49
-12.7
 74
0
  0
LTYPE
  5
46
330
5
100
AcDbSymbolTableRecord
100
AcDbLinetypeTableRecord
  2
CENTER
 70
0
  3
Center ____ _ ____ _ ____ _ ____ _ ____ _ ____
 72
65
 73
4
 40
50.8
 49
31.75
 74
0
 49
-6.35
 74
0
 49
6.35
 74
0
 49
-6.35
 74
0
  0
LTYPE
  5
47
330
5
100
AcDbSymbolTableRecord
100
AcDbLinetypeTableRecord
  2
CENTERTINY
 70
0
  3
Center (.15x) ___ _ ___ _ ___ _ ___ _ ___ _ ___
 72
65
 73
4
 40
7.619999999999999
 49
4.7625
 74
0
 49
-0.9525
 74
0
 49
0.9525
 74
0
 49
-0.9525
 74
0
  0
LTYPE
  5
48
330
5
100
AcDbSymbolTableRecord
100
AcDbLinetypeTableRecord
  2
CENTER2
 70
0
  3
Center (.5x) ___ _ ___ _ ___ _ ___ _ ___ _ ___
 72
65
 73
4
 40
28.575
 49
19.05
 74
0
 49
-3.175
 74
0
 49
3.175
 74
0
 49
-3.175
 74
0
  0
LTYPE
  5
49
330
5
100
AcDbSymbolTableRecord
100
AcDbLinetypeTableRecord
  2
CENTERX2
 70
0
  3
Center (2x) ________  __  ________  __  _____
 72
65
 73
4
 40
101.6
 49
63.5
 74
0
 49
-12.7
 74
0
 49
12.7
 74
0
 49
-12.7
 74
0
  0
ENDTAB
  0
TABLE
  2
LAYER
  5
2
330
0
100
AcDbSymbolTable
 70
3
  0
LAYER
  5
10
330
2
100
AcDbSymbolTableRecord
100
AcDbLayerTableRecord
  2
0
 70
0
 62
7
  6
CONTINUOUS
370
-3
390
F
347
20010
  0
LAYER
  5
4A
330
2
100
AcDbSymbolTableRecord
100
AcDbLayerTableRecord
  2
Defpoints
 70
0
 62
7
  6
CONTINUOUS
290
0
370
-3
390
F
347
20010
  0
LAYER
  5
4B
330
2
100
AcDbSymbolTableRecord
100
AcDbLayerTableRecord
  2
engraving
 70
0
 62
1
  6
CONTINUOUS
370
-3
390
F
347
20010
  0
ENDTAB
  0
TABLE
  2
STYLE
  5
3
330
0
100
AcDbSymbolTable
 70
1
  0
STYLE
  5
4C
330
3
100
AcDbSymbolTableRecord
100
AcDbTextStyleTableRecord
  2
Standard
 70
0
 40
0.0
 41
1.0
 50
0.0
 71
0
 42
1.0
  3
txt
  4

  0
ENDTAB
  0
TABLE
  2
VIEW
  5
6
330
0
100
AcDbSymbolTable
 70
0
  0
ENDTAB
  0
TABLE
  2
UCS
  5
7
330
0
100
AcDbSymbolTable
 70
0
  0
ENDTAB
  0
TABLE
  2
APPID
  5
9
330
0
100
AcDbSymbolTable
 70
4
  0
APPID
  5
12
330
9
100
AcDbSymbolTableRecord
100
AcDbRegAppTableRecord
  2
ACAD
 70
0
  0
APPID
  5
4D
330
9
100
AcDbSymbolTableRecord
100
AcDbRegAppTableRecord
  2
LibreCad
 70
0
  0
APPID
  5
2022F
330
9
100
AcDbSymbolTableRecord
100
AcDbRegAppTableRecord
  2
HATCHBACKGROUNDCOLOR
 70
0
  0
APPID
  5
20230
330
9
100
AcDbSymbolTableRecord
100
AcDbRegAppTableRecord
  2
EZDXF
 70
0
  0
ENDTAB
  0
TABLE
  2
DIMSTYLE
  5
A
330
0
100
AcDbSymbolTable
 70
1
100
AcDbDimStyleTable
  0
DIMSTYLE
105
4E
330
A
100
AcDbSymbolTableRecord
100
AcDbDimStyleTableRecord
  2
Standard
 70
0
 40
1.0
 41
2.5
 42
0.625
 43
0.38
 44
1.25
 45
0.0
 46
0.0
 47
0.0
 48
0.0
 49
1.0
140
2.5
141
0.09
142
0.0
143
25.4
144
1.0
145
0.0
146
1.0
147
0.625
148
0.0
 69
0
 70
0
 71
0
 72
0
 73
0
 74
1
 75
0
 76
0
 77
0
 78
8
 79
0
170
0
171
2
172
0
173
0
174
0
175
0
176
0
177
0
178
0
179
0
271
2
272
4
273
2
274
2
275
0
276
0
277
2
278
44
279
0
280
0
281
0
282
0
283
1
284
0
285
0
286
0
288
0
289
3
290
0
340
4C
371
-2
372
-2
  0
ENDTAB
  0
TABLE
  2
BLOCK_RECORD
  5
1
330
0
100
AcDbSymbolTable
 70
3
  0
BLOCK_RECORD
  5
1F
330
1
100
AcDbSymbolTableRecord
100
AcDbBlockTableRecord
  2
*Model_Space
340
2000C
 70
0
280
1
281
0
  0
BLOCK_RECORD
  5
1E
330
1
100
AcDbSymbolTableRecord
100
AcDbBlockTableRecord
  2
*Paper_Space
340
2000D
 70
0
280
1
281
0
  0
BLOCK_RECORD
  5
4F
330
1
100
AcDbSymbolTableRecord
100
AcDbBlockTableRecord
  2
BASE_GEOMETRY
340
0
 70
0
280
1
281
0
  0
ENDTAB
  0
ENDSEC
  0
SECTION
  2
BLOCKS
  0
BLOCK
  5
20
330
1F
100
AcDbEntity
  8
0
100
AcDbBlockBegin
  2
*Model_Space
 70
0
 10
0.0
 20
0.0
 30
0.0
  3
*Model_Space
  1

  0
ENDBLK
  5
21
330
1F
100
AcDbEntity
  8
0
100
AcDbBlockEnd
  0
BLOCK
  5
1C
330
1E
100
AcDbEntity
  8
0
100
AcDbBlockBegin
  2
*Paper_Space
 70
0
 10
0.0
 20
0.0
 30
0.0
  3
*Paper_Space
  1

  0
ENDBLK
  5
1D
330
1E
100
AcDbEntity
  8
0
100
AcDbBlockEnd
  0
BLOCK
  5
50
330
4F
100
AcDbEntity
  8
0
100
AcDbBlockBegin
  2
BASE_GEOMETRY
 70
0
 10
0.0
 20
0.0
 30
0.0
  3
BASE_GEOMETRY
  1

  0
LINE
  5
2066E
330
4F
100
AcDbEntity
  8
0
100
AcDbLine
 10
150.16666666666669
 20
93.833333333333
 30
8.548717289613705e-15
 11
149.66666666666669
 21
93.833333333333
 31
8.61067169947002e-15
  0
LINE
  5
2066F
330
4F
100
AcDbEntity
  8
0
100
AcDbLine
 10
149.66666666666669
 20
93.833333333333
 30
8.548717289613705e-15
 11
149.66666666666669
 21
89.833333333333
 31
8.548717289613705e-15
  0
LINE
  5
20670
330
4F
100
AcDbEntity
  8
0
100
AcDbLine
 10
150.16666666666669
 20
89.833333333333
 30
8.548717289613705e-15
 11
149.66666666666669
 21
89.833333333333
 31
8.61067169947002e-15
  0
LINE
  5
20671
330
4F
100
AcDbEntity
  8
0
100
AcDbLine
 10
150.16666666666669
 20
93.833333333333
 30
8.548717289613705e-15
 11
150.16666666666669
 21
89.833333333333
 31
8.548717289613705e-15
  0
LINE
  5
20672
330
4F
100
AcDbEntity
  8
0
100
AcDbLine
 10
149.66649999999998
 20
77.333333333333
 30
8.548717289613705e-15
 11
149.66649999999998
 21
76.833333333333
 31
8.548717289613705e-15
  0
LINE
  5
20673
330
4F
100
AcDbEntity
  8
0
100
AcDbLine
 10
149.6665
 20
77.333333333333
 30
1.5654144647214707e-14
 11
130.33350000000002
 21
77.333333333333
 31
1.5654144647214707e-14
  0
LINE
  5
20674
330
4F
100
AcDbEntity
  8
0
100
AcDbLine
 10
130.33350000000002
 20
77.333333333333
 30
1.5654144647214707e-14
 11
130.33350000000002
 21
76.833333333333
 31
1.5654144647214707e-14
  0
LINE
  5
20675
330
4F
100
AcDbEntity
  8
0
100
AcDbLine
 10
149.6665
 20
76.833333333333
 30
1.5654144647214707e-14
 11
130.33350000000002
 21
76.833333333333
 31
1.5654144647214707e-14
  0
LINE
  5
20676
330
4F
100
AcDbEntity
  8
0
100
AcDbLine
 10
150.16666666666669
 20
75.833333333333
 30
8.548717289613705e-15
 11
149.66666666666669
 21
75.833333333333
 31
8.61067169947002e-15
  0
LINE
  5
20677
330
4F
100
AcDbEntity
  8
0
100
AcDbLine
 10
149.66666666666669
 20
75.833333333333
 30
8.548717289613705e-15
 11
149.66666666666669
 21
71.833333333333
 31
8.548717289613705e-15
  0
LINE
  5
20678
330
4F
100
AcDbEntity
  8
0
100
AcDbLine
 10
150.16666666666669
 20
71.833333333333
 30
8.548717289613705e-15
 11
149.66666666666669
 21
71.833333333333
 31
8.61067169947002e-15
  0
LINE
  5
20679
330
4F
100
AcDbEntity
  8
0
100
AcDbLine
 10
150.16666666666669
 20
75.833333333333
 30
8.548717289613705e-15
 11
150.16666666666669
 21
71.833333333333
 31
8.548717289613705e-15
  0
LINE
  5
2067A
330
4F
100
AcDbEntity
  8
0
100
AcDbLine
 10
149.66649999999998
 20
59.333333333333
 30
8.548717289613705e-15
 11
149.66649999999998
 21
58.833333333333
 31
8.548717289613705e-15
  0
LINE
  5
2067B
330
4F
100
AcDbEntity
  8
0
100
AcDbLine
 10
149.6665
 20
59.333333333333
 30
1.5654144647214707e-14
 11
130.33350000000002
 21
59.333333333333
 31
1.5654144647214707e-14
  0
LINE
  5
2067C
330
4F
100
AcDbEntity
  8
0
100
AcDbLine
 10
130.33350000000002
 20
59.333333333333
 30
1.5654144647214707e-14
 11
130.33350000000002
 21
58.833333333333
 31
1.5654144647214707e-14
  0
LINE
  5
2067D
330
4F
100
AcDbEntity
  8
0
100
AcDbLine
 10
149.6665
 20
58.833333333333
 30
1.5654144647214707e-14
 11
130.33350000000002
 21
58.833333333333
 31
1.5654144647214707e-14
  0
LINE
  5
2067E
330
4F
100
AcDbEntity
  8
0
100
AcDbLine
 10
150.16666666666669
 20
57.833333333333
 30
8.548717289613705e-15
 11
149.66666666666669
 21
57.833333333333
 31
8.61067169947002e-15
  0
LINE
  5
2067F
330
4F
100
AcDbEntity
  8
0
100
AcDbLine
 10
149.66666666666669
 20
57.833333333333
 30
8.548717289613705e-15
 11
149.66666666666669
 21
53.833333333333
 31
8.548717289613705e-15
  0
LINE
  5
20680
330
4F
100
AcDbEntity
  8
0
100
AcDbLine
 10
150.16666666666669
 20
53.833333333333
 30
8.548717289613705e-15
 11
149.66666666666669
 21
53.833333333333
 31
8.61067169947002e-15
  0
LINE
  5
20681
330
4F
100
AcDbEntity
  8
0
100
AcDbLine
 10
150.16666666666669
 20
57.833333333333
 30
8.548717289613705e-15
 11
150.16666666666669
 21
53.833333333333
 31
8.548717289613705e-15
  0
LINE
  5
20682
330
4F
100
AcDbEntity
  8
0
100
AcDbLine
 10
149.66649999999998
 20
41.333333333333
 30
8.548717289613705e-15
 11
149.66649999999998
 21
40.833333333333
 31
8.548717289613705e-15
  0
LINE
  5
20683
330
4F
100
AcDbEntity
  8
0
100
AcDbLine
 10
149.6665
 20
41.333333333333
 30
1.5654144647214707e-14
 11
130.33350000000002
 21
41.333333333333
 31
1.5654144647214707e-14
  0
LINE
  5
20684
330
4F
100
AcDbEntity
  8
0
100
AcDbLine
 10
130.33350000000002
 20
41.333333333333
 30
1.5654144647214707e-14
 11
130.33350000000002
 21
40.833333333333
 31
1.5654144647214707e-14
  0
LINE
  5
20685
330
4F
100
AcDbEntity
  8
0
100
AcDbLine
 10
149.6665
 20
40.833333333333
 30
1.5654144647214707e-14
 11
130.33350000000002
 21
40.833333333333
 31
1.5654144647214707e-14
  0
LINE
  5
20686
330
4F
100
AcDbEntity
  8
0
100
AcDbLine
 10
150.16666666666669
 20
39.833333333333
 30
8.548717289613705e-15
 11
149.66666666666669
 21
39.833333333333
 31
8.61067169947002e-15
  0
LINE
  5
20687
330
4F
100
AcDbEntity
  8
0
100
AcDbLine
 10
149.66666666666669
 20
39.833333333333
 30
8.548717289613705e-15
 11
149.66666666666669
 21
35.833333333333
 31
8.548717289613705e-15
  0
LINE
  5
20688
330
4F
100
AcDbEntity
  8
0
100
AcDbLine
 10
150.16666666666669
 20
35.833333333333
 30
8.548717289613705e-15
 11
149.66666666666669
 21
35.833333333333
 31
8.61067169947002e-15
  0
LINE
  5
20689
330
4F
100
AcDbEntity
  8
0
100
AcDbLine
 10
150.16666666666669
 20
39.833333333333
 30
8.548717289613705e-15
 11
150.16666666666669
 21
35.833333333333
 31
8.548717289613705e-15
  0
LINE
  5
2068A
330
4F
100
AcDbEntity
  8
0
100
AcDbLine
 10
149.66649999999998
 20
23.333333333333
 30
8.548717289613705e-15
 11
149.66649999999998
 21
22.833333333333
 31
8.548717289613705e-15
  0
LINE
  5
2068B
330
4F
100
AcDbEntity
  8
0
100
AcDbLine
 10
149.6665
 20
23.333333333333
 30
1.5654144647214707e-14
 11
130.33350000000002
 21
23.333333333333
 31
1.5654144647214707e-14
  0
LINE
  5
2068C
330
4F
100
AcDbEntity
  8
0
100
AcDbLine
 10
130.33350000000002
 20
23.333333333333
 30
1.5654144647214707e-14
 11
130.33350000000002
 21
22.833333333333
 31
1.5654144647214707e-14
  0
LINE
  5
2068D
330
4F
100
AcDbEntity
  8
0
100
AcDbLine
 10
149.6665
 20
22.833333333333
 30
1.5654144647214707e-14
 11
130.33350000000002
 21
22.833333333333
 31
1.5654144647214707e-14
  0
LINE
  5
2068E
330
4F
100
AcDbEntity
  8
0
100
AcDbLine
 10
150.16666666666669
 20
21.833333333333
 30
8.548717289613705e-15
 11
149.66666666666669
 21
21.833333333333
 31
8.61067169947002e-15
  0
LINE
  5
2068F
330
4F
100
AcDbEntity
  8
0
100
AcDbLine
 10
149.66666666666669
 20
21.833333333333
 30
8.548717289613705e-15
 11
149.66666666666669
 21
17.833333333333
 31
8.548717289613705e-15
  0
LINE
  5
20690
330
4F
100
AcDbEntity
  8
0
100
AcDbLine
 10
150.16666666666669
 20
17.833333333333
 30
8.548717289613705e-15
 11
149.66666666666669
 21
17.833333333333
 31
8.61067169947002e-15
  0
LINE
  5
20691
330
4F
100
AcDbEntity
  8
0
100
AcDbLine
 10
150.16666666666669
 20
21.833333333333
 30
8.548717289613705e-15
 11
150.16666666666669
 21
17.833333333333
 31
8.548717289613705e-15
  0
LINE
  5
20692
330
4F
100
AcDbEntity
  8
0
100
AcDbLine
 10
145.0
 20
5.333333333333002
 30
1.5654144647214707e-14
 11
135.0
 21
5.333333333333002
 31
1.5654144647214707e-14
  0
LINE
  5
20693
330
4F
100
AcDbEntity
  8
0
100
AcDbLine
 10
145.0
 20
5.333333333333002
 30
8.548717289613705e-15
 11
145.0
 21
5.833333333333002
 31
8.672626109326335e-15
  0
LINE
  5
20694
330
4F
100
AcDbEntity
  8
0
100
AcDbLine
 10
135.0
 20
5.833333333333002
 30
1.5654144647214707e-14
 11
145.0
 21
5.833333333333002
 31
1.5654144647214707e-14
  0
LINE
  5
20695
330
4F
100
AcDbEntity
  8
0
100
AcDbLine
 10
135.0
 20
5.333333333333002
 30
1.5654144647214707e-14
 11
135.0
 21
5.833333333333002
 31
1.5778053466927335e-14
  0
LINE
  5
20696
330
4F
100
AcDbEntity
  8
0
100
AcDbLine
 10
135.0
 20
94.833333333333
 30
1.5654144647214707e-14
 11
135.0
 21
95.333333333333
 31
1.5778053466927335e-14
  0
LINE
  5
20697
330
4F
100
AcDbEntity
  8
0
100
AcDbLine
 10
135.0
 20
94.833333333333
 30
1.5654144647214707e-14
 11
145.0
 21
94.833333333333
 31
1.5654144647214707e-14
  0
LINE
  5
20698
330
4F
100
AcDbEntity
  8
0
100
AcDbLine
 10
145.0
 20
94.833333333333
 30
8.548717289613705e-15
 11
145.0
 21
95.333333333333
 31
8.672626109326335e-15
  0
LINE
  5
20699
330
4F
100
AcDbEntity
  8
0
100
AcDbLine
 10
145.0
 20
95.333333333333
 30
1.4432899320127035e-15
 11
208.33333333333331
 21
95.333333333333
 31
1.4432899320127035e-15
  0
LINE
  5
2069A
330
4F
100
AcDbEntity
  8
0
100
AcDbLine
 10
208.33333333333331
 20
94.833333333333
 30
1.4432899320127035e-15
 11
208.33333333333331
 21
95.333333333333
 31
1.5671987517253324e-15
  0
LINE
  5
2069B
330
4F
100
AcDbEntity
  8
0
100
AcDbLine
 10
208.33333333333331
 20
94.833333333333
 30
1.5654144647214707e-14
 11
218.33333333333303
 21
94.833333333333
 31
1.5654144647214707e-14
  0
LINE
  5
2069C
330
4F
100
AcDbEntity
  8
0
100
AcDbLine
 10
218.33333333333303
 20
94.833333333333
 30
1.4432899320127035e-15
 11
218.33333333333303
 21
95.333333333333
 31
1.5671987517253324e-15
  0
LINE
  5
2069D
330
4F
100
AcDbEntity
  8
0
100
AcDbLine
 10
218.333333333333
 20
95.333333333333
 30
1.4432899320127035e-15
 11
224.0
 21
95.333333333333
 31
1.4432899320127035e-15
  0
LINE
  5
2069E
330
4F
100
AcDbEntity
  8
0
100
AcDbLine
 10
224.0
 20
95.333333333333
 30
1.4432899320127035e-15
 11
224.0
 21
0.0
 31
1.4432899320127035e-15
  0
LINE
  5
2069F
330
4F
100
AcDbEntity
  8
0
100
AcDbLine
 10
0.0
 20
0.0
 30
1.5654144647214707e-14
 11
224.0
 21
0.0
 31
1.5654144647214707e-14
  0
LINE
  5
206A0
330
4F
100
AcDbEntity
  8
0
100
AcDbLine
 10
1.4210854715202004e-14
 20
95.333333333333
 30
2.986499936241671e-14
 11
1.4210854715202004e-14
 21
0.0
 31
2.986499936241671e-14
  0
LINE
  5
206A1
330
4F
100
AcDbEntity
  8
0
100
AcDbLine
 10
0.0
 20
95.333333333333
 30
1.4432899320127035e-15
 11
5.666666666666998
 21
95.333333333333
 31
1.4432899320127035e-15
  0
LINE
  5
206A2
330
4F
100
AcDbEntity
  8
0
100
AcDbLine
 10
5.6666666666670125
 20
94.833333333333
 30
2.986499936241671e-14
 11
5.6666666666670125
 21
95.333333333333
 31
2.998890818212934e-14
  0
LINE
  5
206A3
330
4F
100
AcDbEntity
  8
0
100
AcDbLine
 10
5.6666666666670125
 20
94.833333333333
 30
1.5654144647214707e-14
 11
15.666666666666714
 21
94.833333333333
 31
1.5654144647214707e-14
  0
LINE
  5
206A4
330
4F
100
AcDbEntity
  8
0
100
AcDbLine
 10
15.666666666666714
 20
94.833333333333
 30
2.986499936241671e-14
 11
15.666666666666714
 21
95.333333333333
 31
2.998890818212934e-14
  0
LINE
  5
206A5
330
4F
100
AcDbEntity
  8
0
100
AcDbLine
 10
15.666666666666686
 20
95.333333333333
 30
1.4432899320127035e-15
 11
79.0
 21
95.333333333333
 31
1.4432899320127035e-15
  0
LINE
  5
206A6
330
4F
100
AcDbEntity
  8
0
100
AcDbLine
 10
79.0
 20
94.833333333333
 30
2.275957200481571e-14
 11
79.0
 21
95.333333333333
 31
2.2883480824528337e-14
  0
LINE
  5
206A7
330
4F
100
AcDbEntity
  8
0
100
AcDbLine
 10
79.0
 20
94.833333333333
 30
1.5654144647214707e-14
 11
89.00000000000001
 21
94.833333333333
 31
1.5654144647214707e-14
  0
LINE
  5
206A8
330
4F
100
AcDbEntity
  8
0
100
AcDbLine
 10
89.0
 20
94.833333333333
 30
1.5654144647214707e-14
 11
89.0
 21
95.333333333333
 31
1.5778053466927335e-14
  0
LINE
  5
206A9
330
4F
100
AcDbEntity
  8
0
100
AcDbLine
 10
89.0
 20
95.333333333333
 30
1.4432899320127035e-15
 11
135.0
 21
95.333333333333
 31
1.4432899320127035e-15
  0
LINE
  5
206AA
330
4F
100
AcDbEntity
  8
0
100
AcDbLine
 10
130.3333333333334
 20
93.833333333333
 30
1.5654144647214707e-14
 11
130.3333333333334
 21
89.833333333333
 31
1.5654144647214707e-14
  0
LINE
  5
206AB
330
4F
100
AcDbEntity
  8
0
100
AcDbLine
 10
130.3333333333334
 20
93.833333333333
 30
1.5654144647214707e-14
 11
129.8333333333334
 21
93.833333333333
 31
1.5716099057071023e-14
  0
LINE
  5
206AC
330
4F
100
AcDbEntity
  8
0
100
AcDbLine
 10
129.8333333333334
 20
93.833333333333
 30
1.5654144647214707e-14
 11
129.8333333333334
 21
89.833333333333
 31
1.5654144647214707e-14
  0
LINE
  5
206AD
330
4F
100
AcDbEntity
  8
0
100
AcDbLine
 10
130.3333333333334
 20
89.833333333333
 30
1.5654144647214707e-14
 11
129.8333333333334
 21
89.833333333333
 31
1.5716099057071023e-14
  0
LINE
  5
206AE
330
4F
100
AcDbEntity
  8
0
100
AcDbLine
 10
130.3333333333334
 20
75.833333333333
 30
1.5654144647214707e-14
 11
130.3333333333334
 21
71.833333333333
 31
1.5654144647214707e-14
  0
LINE
  5
206AF
330
4F
100
AcDbEntity
  8
0
100
AcDbLine
 10
130.3333333333334
 20
75.833333333333
 30
1.5654144647214707e-14
 11
129.8333333333334
 21
75.833333333333
 31
1.5716099057071023e-14
  0
LINE
  5
206B0
330
4F
100
AcDbEntity
  8
0
100
AcDbLine
 10
129.8333333333334
 20
75.833333333333
 30
1.5654144647214707e-14
 11
129.8333333333334
 21
71.833333333333
 31
1.5654144647214707e-14
  0
LINE
  5
206B1
330
4F
100
AcDbEntity
  8
0
100
AcDbLine
 10
130.3333333333334
 20
71.833333333333
 30
1.5654144647214707e-14
 11
129.8333333333334
 21
71.833333333333
 31
1.5716099057071023e-14
  0
LINE
  5
206B2
330
4F
100
AcDbEntity
  8
0
100
AcDbLine
 10
130.3333333333334
 20
57.833333333333
 30
1.5654144647214707e-14
 11
130.3333333333334
 21
53.833333333333
 31
1.5654144647214707e-14
  0
LINE
  5
206B3
330
4F
100
AcDbEntity
  8
0
100
AcDbLine
 10
130.3333333333334
 20
57.833333333333
 30
1.5654144647214707e-14
 11
129.8333333333334
 21
57.833333333333
 31
1.5716099057071023e-14
  0
LINE
  5
206B4
330
4F
100
AcDbEntity
  8
0
100
AcDbLine
 10
129.8333333333334
 20
57.833333333333
 30
1.5654144647214707e-14
 11
129.8333333333334
 21
53.833333333333
 31
1.5654144647214707e-14
  0
LINE
  5
206B5
330
4F
100
AcDbEntity
  8
0
100
AcDbLine
 10
130.3333333333334
 20
53.833333333333
 30
1.5654144647214707e-14
 11
129.8333333333334
 21
53.833333333333
 31
1.5716099057071023e-14
  0
LINE
  5
206B6
330
4F
100
AcDbEntity
  8
0
100
AcDbLine
 10
130.3333333333334
 20
39.833333333333
 30
1.5654144647214707e-14
 11
130.3333333333334
 21
35.833333333333
 31
1.5654144647214707e-14
  0
LINE
  5
206B7
330
4F
100
AcDbEntity
  8
0
100
AcDbLine
 10
130.3333333333334
 20
39.833333333333
 30
1.5654144647214707e-14
 11
129.8333333333334
 21
39.833333333333
 31
1.5716099057071023e-14
  0
LINE
  5
206B8
330
4F
100
AcDbEntity
  8
0
100
AcDbLine
 10
129.8333333333334
 20
39.833333333333
 30
1.5654144647214707e-14
 11
129.8333333333334
 21
35.833333333333
 31
1.5654144647214707e-14
  0
LINE
  5
206B9
330
4F
100
AcDbEntity
  8
0
100
AcDbLine
 10
130.3333333333334
 20
35.833333333333
 30
1.5654144647214707e-14
 11
129.8333333333334
 21
35.833333333333
 31
1.5716099057071023e-14
  0
LINE
  5
206BA
330
4F
100
AcDbEntity
  8
0
100
AcDbLine
 10
130.3333333333334
 20
21.833333333333
 30
1.5654144647214707e-14
 11
130.3333333333334
 21
17.833333333333
 31
1.5654144647214707e-14
  0
LINE
  5
206BB
330
4F
100
AcDbEntity
  8
0
100
AcDbLine
 10
130.3333333333334
 20
21.833333333333
 30
1.5654144647214707e-14
 11
129.8333333333334
 21
21.833333333333
 31
1.5716099057071023e-14
  0
LINE
  5
206BC
330
4F
100
AcDbEntity
  8
0
100
AcDbLine
 10
129.8333333333334
 20
21.833333333333
 30
1.5654144647214707e-14
 11
129.8333333333334
 21
17.833333333333
 31
1.5654144647214707e-14
  0
LINE
  5
206BD
330
4F
100
AcDbEntity
  8
0
100
AcDbLine
 10
130.3333333333334
 20
17.833333333333
 30
1.5654144647214707e-14
 11
129.8333333333334
 21
17.833333333333
 31
1.5716099057071023e-14
  0
LINE
  5
206BE
330
4F
100
AcDbEntity
  8
0
100
AcDbLine
 10
93.6666666666666
 20
17.833333333333
 30
1.5654144647214707e-14
 11
93.6666666666666
 21
21.833333333333
 31
1.5654144647214707e-14
  0
LINE
  5
206BF
330
4F
100
AcDbEntity
  8
0
100
AcDbLine
 10
93.6666666666666
 20
17.833333333333
 30
1.5654144647214707e-14
 11
94.1666666666666
 21
17.833333333333
 31
1.5592190237358392e-14
  0
LINE
  5
206C0
330
4F
100
AcDbEntity
  8
0
100
AcDbLine
 10
94.1666666666666
 20
17.833333333333
 30
1.5654144647214707e-14
 11
94.1666666666666
 21
21.833333333333
 31
1.5654144647214707e-14
  0
LINE
  5
206C1
330
4F
100
AcDbEntity
  8
0
100
AcDbLine
 10
93.6666666666666
 20
21.833333333333
 30
1.5654144647214707e-14
 11
94.1666666666666
 21
21.833333333333
 31
1.5592190237358392e-14
  0
LINE
  5
206C2
330
4F
100
AcDbEntity
  8
0
100
AcDbLine
 10
93.66650000000001
 20
22.833333333333
 30
1.5654144647214707e-14
 11
74.33350000000002
 21
22.833333333333
 31
1.5654144647214707e-14
  0
LINE
  5
206C3
330
4F
100
AcDbEntity
  8
0
100
AcDbLine
 10
93.66650000000001
 20
23.333333333333
 30
1.5654144647214707e-14
 11
93.66650000000001
 21
22.833333333333
 31
1.5654144647214707e-14
  0
LINE
  5
206C4
330
4F
100
AcDbEntity
  8
0
100
AcDbLine
 10
93.66650000000001
 20
23.333333333333
 30
1.5654144647214707e-14
 11
74.33350000000002
 21
23.333333333333
 31
1.5654144647214707e-14
  0
LINE
  5
206C5
330
4F
100
AcDbEntity
  8
0
100
AcDbLine
 10
74.3335
 20
23.333333333333
 30
2.275957200481571e-14
 11
74.3335
 21
22.833333333333
 31
2.275957200481571e-14
  0
LINE
  5
206C6
330
4F
100
AcDbEntity
  8
0
100
AcDbLine
 10
93.6666666666666
 20
35.833333333333
 30
1.5654144647214707e-14
 11
93.6666666666666
 21
39.833333333333
 31
1.5654144647214707e-14
  0
LINE
  5
206C7
330
4F
100
AcDbEntity
  8
0
100
AcDbLine
 10
93.6666666666666
 20
35.833333333333
 30
1.5654144647214707e-14
 11
94.1666666666666
 21
35.833333333333
 31
1.5592190237358392e-14
  0
LINE
  5
206C8
330
4F
100
AcDbEntity
  8
0
100
AcDbLine
 10
94.1666666666666
 20
35.833333333333
 30
1.5654144647214707e-14
 11
94.1666666666666
 21
39.833333333333
 31
1.5654144647214707e-14
  0
LINE
  5
206C9
330
4F
100
AcDbEntity
  8
0
100
AcDbLine
 10
93.6666666666666
 20
39.833333333333
 30
1.5654144647214707e-14
 11
94.1666666666666
 21
39.833333333333
 31
1.5592190237358392e-14
  0
LINE
  5
206CA
330
4F
100
AcDbEntity
  8
0
100
AcDbLine
 10
93.66650000000001
 20
40.833333333333
 30
1.5654144647214707e-14
 11
74.33350000000002
 21
40.833333333333
 31
1.5654144647214707e-14
  0
LINE
  5
206CB
330
4F
100
AcDbEntity
  8
0
100
AcDbLine
 10
93.66650000000001
 20
41.333333333333
 30
1.5654144647214707e-14
 11
93.66650000000001
 21
40.833333333333
 31
1.5654144647214707e-14
  0
LINE
  5
206CC
330
4F
100
AcDbEntity
  8
0
100
AcDbLine
 10
93.66650000000001
 20
41.333333333333
 30
1.5654144647214707e-14
 11
74.33350000000002
 21
41.333333333333
 31
1.5654144647214707e-14
  0
LINE
  5
206CD
330
4F
100
AcDbEntity
  8
0
100
AcDbLine
 10
74.3335
 20
41.333333333333
 30
2.275957200481571e-14
 11
74.3335
 21
40.833333333333
 31
2.275957200481571e-14
  0
LINE
  5
206CE
330
4F
100
AcDbEntity
  8
0
100
AcDbLine
 10
93.6666666666666
 20
53.833333333333
 30
1.5654144647214707e-14
 11
93.6666666666666
 21
57.833333333333
 31
1.5654144647214707e-14
  0
LINE
  5
206CF
330
4F
100
AcDbEntity
  8
0
100
AcDbLine
 10
93.6666666666666
 20
53.833333333333
 30
1.5654144647214707e-14
 11
94.1666666666666
 21
53.833333333333
 31
1.5592190237358392e-14
  0
LINE
  5
206D0
330
4F
100
AcDbEntity
  8
0
100
AcDbLine
 10
94.1666666666666
 20
53.833333333333
 30
1.5654144647214707e-14
 11
94.1666666666666
 21
57.833333333333
 31
1.5654144647214707e-14
  0
LINE
  5
206D1
330
4F
100
AcDbEntity
  8
0
100
AcDbLine
 10
93.6666666666666
 20
57.833333333333
 30
1.5654144647214707e-14
 11
94.1666666666666
 21
57.833333333333
 31
1.5592190237358392e-14
  0
LINE
  5
206D2
330
4F
100
AcDbEntity
  8
0
100
AcDbLine
 10
93.66650000000001
 20
58.833333333333
 30
1.5654144647214707e-14
 11
74.33350000000002
 21
58.833333333333
 31
1.5654144647214707e-14
  0
LINE
  5
206D3
330
4F
100
AcDbEntity
  8
0
100
AcDbLine
 10
93.66650000000001
 20
59.333333333333
 30
1.5654144647214707e-14
 11
93.66650000000001
 21
58.833333333333
 31
1.5654144647214707e-14
  0
LINE
  5
206D4
330
4F
100
AcDbEntity
  8
0
100
AcDbLine
 10
93.66650000000001
 20
59.333333333333
 30
1.5654144647214707e-14
 11
74.33350000000002
 21
59.333333333333
 31
1.5654144647214707e-14
  0
LINE
  5
206D5
330
4F
100
AcDbEntity
  8
0
100
AcDbLine
 10
74.3335
 20
59.333333333333
 30
2.275957200481571e-14
 11
74.3335
 21
58.833333333333
 31
2.275957200481571e-14
  0
LINE
  5
206D6
330
4F
100
AcDbEntity
  8
0
100
AcDbLine
 10
93.6666666666666
 20
71.833333333333
 30
1.5654144647214707e-14
 11
93.6666666666666
 21
75.833333333333
 31
1.5654144647214707e-14
  0
LINE
  5
206D7
330
4F
100
AcDbEntity
  8
0
100
AcDbLine
 10
93.6666666666666
 20
71.833333333333
 30
1.5654144647214707e-14
 11
94.1666666666666
 21
71.833333333333
 31
1.5592190237358392e-14
  0
LINE
  5
206D8
330
4F
100
AcDbEntity
  8
0
100
AcDbLine
 10
94.1666666666666
 20
71.833333333333
 30
1.5654144647214707e-14
 11
94.1666666666666
 21
75.833333333333
 31
1.5654144647214707e-14
  0
LINE
  5
206D9
330
4F
100
AcDbEntity
  8
0
100
AcDbLine
 10
93.6666666666666
 20
75.833333333333
 30
1.5654144647214707e-14
 11
94.1666666666666
 21
75.833333333333
 31
1.5592190237358392e-14
  0
LINE
  5
206DA
330
4F
100
AcDbEntity
  8
0
100
AcDbLine
 10
93.66650000000001
 20
76.833333333333
 30
1.5654144647214707e-14
 11
74.33350000000002
 21
76.833333333333
 31
1.5654144647214707e-14
  0
LINE
  5
206DB
330
4F
100
AcDbEntity
  8
0
100
AcDbLine
 10
93.66650000000001
 20
77.333333333333
 30
1.5654144647214707e-14
 11
93.66650000000001
 21
76.833333333333
 31
1.5654144647214707e-14
  0
LINE
  5
206DC
330
4F
100
AcDbEntity
  8
0
100
AcDbLine
 10
93.66650000000001
 20
77.333333333333
 30
1.5654144647214707e-14
 11
74.33350000000002
 21
77.333333333333
 31
1.5654144647214707e-14
  0
LINE
  5
206DD
330
4F
100
AcDbEntity
  8
0
100
AcDbLine
 10
74.3335
 20
77.333333333333
 30
2.275957200481571e-14
 11
74.3335
 21
76.833333333333
 31
2.275957200481571e-14
  0
LINE
  5
206DE
330
4F
100
AcDbEntity
  8
0
100
AcDbLine
 10
93.6666666666666
 20
89.833333333333
 30
1.5654144647214707e-14
 11
93.6666666666666
 21
93.833333333333
 31
1.5654144647214707e-14
  0
LINE
  5
206DF
330
4F
100
AcDbEntity
  8
0
100
AcDbLine
 10
93.6666666666666
 20
89.833333333333
 30
1.5654144647214707e-14
 11
94.1666666666666
 21
89.833333333333
 31
1.5592190237358392e-14
  0
LINE
  5
206E0
330
4F
100
AcDbEntity
  8
0
100
AcDbLine
 10
94.1666666666666
 20
89.833333333333
 30
1.5654144647214707e-14
 11
94.1666666666666
 21
93.833333333333
 31
1.5654144647214707e-14
  0
LINE
  5
206E1
330
4F
100
AcDbEntity
  8
0
100
AcDbLine
 10
93.6666666666666
 20
93.833333333333
 30
1.5654144647214707e-14
 11
94.1666666666666
 21
93.833333333333
 31
1.5592190237358392e-14
  0
LINE
  5
206E2
330
4F
100
AcDbEntity
  8
0
100
AcDbLine
 10
73.8333333333333
 20
17.833333333333
 30
2.275957200481571e-14
 11
74.3333333333333
 21
17.833333333333
 31
2.2697617594959394e-14
  0
LINE
  5
206E3
330
4F
100
AcDbEntity
  8
0
100
AcDbLine
 10
74.3333333333333
 20
17.833333333333
 30
2.275957200481571e-14
 11
74.3333333333333
 21
21.833333333333
 31
2.275957200481571e-14
  0
LINE
  5
206E4
330
4F
100
AcDbEntity
  8
0
100
AcDbLine
 10
73.8333333333333
 20
21.833333333333
 30
2.275957200481571e-14
 11
74.3333333333333
 21
21.833333333333
 31
2.2697617594959394e-14
  0
LINE
  5
206E5
330
4F
100
AcDbEntity
  8
0
100
AcDbLine
 10
73.8333333333333
 20
17.833333333333
 30
2.275957200481571e-14
 11
73.8333333333333
 21
21.833333333333
 31
2.275957200481571e-14
  0
LINE
  5
206E6
330
4F
100
AcDbEntity
  8
0
100
AcDbLine
 10
73.8333333333333
 20
35.833333333333
 30
2.275957200481571e-14
 11
74.3333333333333
 21
35.833333333333
 31
2.2697617594959394e-14
  0
LINE
  5
206E7
330
4F
100
AcDbEntity
  8
0
100
AcDbLine
 10
74.3333333333333
 20
35.833333333333
 30
2.275957200481571e-14
 11
74.3333333333333
 21
39.833333333333
 31
2.275957200481571e-14
  0
LINE
  5
206E8
330
4F
100
AcDbEntity
  8
0
100
AcDbLine
 10
73.8333333333333
 20
39.833333333333
 30
2.275957200481571e-14
 11
74.3333333333333
 21
39.833333333333
 31
2.2697617594959394e-14
  0
LINE
  5
206E9
330
4F
100
AcDbEntity
  8
0
100
AcDbLine
 10
73.8333333333333
 20
35.833333333333
 30
2.275957200481571e-14
 11
73.8333333333333
 21
39.833333333333
 31
2.275957200481571e-14
  0
LINE
  5
206EA
330
4F
100
AcDbEntity
  8
0
100
AcDbLine
 10
73.8333333333333
 20
53.833333333333
 30
2.275957200481571e-14
 11
74.3333333333333
 21
53.833333333333
 31
2.2697617594959394e-14
  0
LINE
  5
206EB
330
4F
100
AcDbEntity
  8
0
100
AcDbLine
 10
74.3333333333333
 20
53.833333333333
 30
2.275957200481571e-14
 11
74.3333333333333
 21
57.833333333333
 31
2.275957200481571e-14
  0
LINE
  5
206EC
330
4F
100
AcDbEntity
  8
0
100
AcDbLine
 10
73.8333333333333
 20
57.833333333333
 30
2.275957200481571e-14
 11
74.3333333333333
 21
57.833333333333
 31
2.2697617594959394e-14
  0
LINE
  5
206ED
330
4F
100
AcDbEntity
  8
0
100
AcDbLine
 10
73.8333333333333
 20
53.833333333333
 30
2.275957200481571e-14
 11
73.8333333333333
 21
57.833333333333
 31
2.275957200481571e-14
  0
LINE
  5
206EE
330
4F
100
AcDbEntity
  8
0
100
AcDbLine
 10
73.8333333333333
 20
71.833333333333
 30
2.275957200481571e-14
 11
74.3333333333333
 21
71.833333333333
 31
2.2697617594959394e-14
  0
LINE
  5
206EF
330
4F
100
AcDbEntity
  8
0
100
AcDbLine
 10
74.3333333333333
 20
71.833333333333
 30
2.275957200481571e-14
 11
74.3333333333333
 21
75.833333333333
 31
2.275957200481571e-14
  0
LINE
  5
206F0
330
4F
100
AcDbEntity
  8
0
100
AcDbLine
 10
73.8333333333333
 20
75.833333333333
 30
2.275957200481571e-14
 11
74.3333333333333
 21
75.833333333333
 31
2.2697617594959394e-14
  0
LINE
  5
206F1
330
4F
100
AcDbEntity
  8
0
100
AcDbLine
 10
73.8333333333333
 20
71.833333333333
 30
2.275957200481571e-14
 11
73.8333333333333
 21
75.833333333333
 31
2.275957200481571e-14
  0
LINE
  5
206F2
330
4F
100
AcDbEntity
  8
0
100
AcDbLine
 10
73.8333333333333
 20
89.833333333333
 30
2.275957200481571e-14
 11
74.3333333333333
 21
89.833333333333
 31
2.2697617594959394e-14
  0
LINE
  5
206F3
330
4F
100
AcDbEntity
  8
0
100
AcDbLine
 10
74.3333333333333
 20
89.833333333333
 30
2.275957200481571e-14
 11
74.3333333333333
 21
93.833333333333
 31
2.275957200481571e-14
  0
LINE
  5
206F4
330
4F
100
AcDbEntity
  8
0
100
AcDbLine
 10
73.8333333333333
 20
93.833333333333
 30
2.275957200481571e-14
 11
74.3333333333333
 21
93.833333333333
 31
2.2697617594959394e-14
  0
LINE
  5
206F5
330
4F
100
AcDbEntity
  8
0
100
AcDbLine
 10
73.8333333333333
 20
89.833333333333
 30
2.275957200481571e-14
 11
73.8333333333333
 21
93.833333333333
 31
2.275957200481571e-14
  0
LINE
  5
206F6
330
4F
100
AcDbEntity
  8
0
100
AcDbLine
 10
79.0
 20
5.333333333333002
 30
2.275957200481571e-14
 11
79.0
 21
5.833333333333002
 31
2.2883480824528337e-14
  0
LINE
  5
206F7
330
4F
100
AcDbEntity
  8
0
100
AcDbLine
 10
79.0
 20
5.333333333333002
 30
1.5654144647214707e-14
 11
89.00000000000001
 21
5.333333333333002
 31
1.5654144647214707e-14
  0
LINE
  5
206F8
330
4F
100
AcDbEntity
  8
0
100
AcDbLine
 10
89.0
 20
5.333333333333002
 30
1.5654144647214707e-14
 11
89.0
 21
5.833333333333002
 31
1.5778053466927335e-14
  0
LINE
  5
206F9
330
4F
100
AcDbEntity
  8
0
100
AcDbLine
 10
79.0
 20
5.833333333333002
 30
1.5654144647214707e-14
 11
89.00000000000001
 21
5.833333333333002
 31
1.5654144647214707e-14
  0
LINE
  5
206FA
330
4F
100
AcDbEntity
  8
0
100
AcDbLine
 10
5.6666666666670125
 20
5.333333333333002
 30
2.986499936241671e-14
 11
5.6666666666670125
 21
5.833333333333002
 31
2.998890818212934e-14
  0
LINE
  5
206FB
330
4F
100
AcDbEntity
  8
0
100
AcDbLine
 10
5.6666666666670125
 20
5.333333333333002
 30
1.5654144647214707e-14
 11
15.666666666666714
 21
5.333333333333002
 31
1.5654144647214707e-14
  0
LINE
  5
206FC
330
4F
100
AcDbEntity
  8
0
100
AcDbLine
 10
15.666666666666714
 20
5.333333333333002
 30
2.986499936241671e-14
 11
15.666666666666714
 21
5.833333333333002
 31
2.998890818212934e-14
  0
LINE
  5
206FD
330
4F
100
AcDbEntity
  8
0
100
AcDbLine
 10
5.6666666666670125
 20
5.833333333333002
 30
1.5654144647214707e-14
 11
15.666666666666714
 21
5.833333333333002
 31
1.5654144647214707e-14
  0
LINE
  5
206FE
330
4F
100
AcDbEntity
  8
0
100
AcDbLine
 10
0.5000000000000142
 20
17.833333333333
 30
2.986499936241671e-14
 11
1.0000000000000142
 21
17.833333333333
 31
2.9803044952560395e-14
  0
LINE
  5
206FF
330
4F
100
AcDbEntity
  8
0
100
AcDbLine
 10
1.0000000000000142
 20
17.833333333333
 30
2.986499936241671e-14
 11
1.0000000000000142
 21
21.833333333333
 31
2.986499936241671e-14
  0
LINE
  5
20700
330
4F
100
AcDbEntity
  8
0
100
AcDbLine
 10
0.5000000000000142
 20
21.833333333333
 30
2.986499936241671e-14
 11
1.0000000000000142
 21
21.833333333333
 31
2.9803044952560395e-14
  0
LINE
  5
20701
330
4F
100
AcDbEntity
  8
0
100
AcDbLine
 10
0.5000000000000142
 20
17.833333333333
 30
2.986499936241671e-14
 11
0.5000000000000142
 21
21.833333333333
 31
2.986499936241671e-14
  0
LINE
  5
20702
330
4F
100
AcDbEntity
  8
0
100
AcDbLine
 10
1.0000000000000142
 20
23.333333333333
 30
2.986499936241671e-14
 11
1.0000000000000142
 21
22.833333333333
 31
2.986499936241671e-14
  0
LINE
  5
20703
330
4F
100
AcDbEntity
  8
0
100
AcDbLine
 10
20.333333333333314
 20
22.833333333333
 30
1.5654144647214707e-14
 11
1.0000000000000142
 21
22.833333333333
 31
1.5654144647214707e-14
  0
LINE
  5
20704
330
4F
100
AcDbEntity
  8
0
100
AcDbLine
 10
20.333333333333314
 20
23.333333333333
 30
2.986499936241671e-14
 11
20.333333333333314
 21
22.833333333333
 31
2.986499936241671e-14
  0
LINE
  5
20705
330
4F
100
AcDbEntity
  8
0
100
AcDbLine
 10
20.333333333333314
 20
23.333333333333
 30
1.5654144647214707e-14
 11
1.0000000000000142
 21
23.333333333333
 31
1.5654144647214707e-14
  0
LINE
  5
20706
330
4F
100
AcDbEntity
  8
0
100
AcDbLine
 10
0.5000000000000142
 20
35.833333333333
 30
2.986499936241671e-14
 11
1.0000000000000142
 21
35.833333333333
 31
2.9803044952560395e-14
  0
LINE
  5
20707
330
4F
100
AcDbEntity
  8
0
100
AcDbLine
 10
1.0000000000000142
 20
35.833333333333
 30
2.986499936241671e-14
 11
1.0000000000000142
 21
39.833333333333
 31
2.986499936241671e-14
  0
LINE
  5
20708
330
4F
100
AcDbEntity
  8
0
100
AcDbLine
 10
0.5000000000000142
 20
39.833333333333
 30
2.986499936241671e-14
 11
1.0000000000000142
 21
39.833333333333
 31
2.9803044952560395e-14
  0
LINE
  5
20709
330
4F
100
AcDbEntity
  8
0
100
AcDbLine
 10
0.5000000000000142
 20
35.833333333333
 30
2.986499936241671e-14
 11
0.5000000000000142
 21
39.833333333333
 31
2.986499936241671e-14
  0
LINE
  5
2070A
330
4F
100
AcDbEntity
  8
0
100
AcDbLine
 10
1.0000000000000142
 20
41.333333333333
 30
2.986499936241671e-14
 11
1.0000000000000142
 21
40.833333333333
 31
2.986499936241671e-14
  0
LINE
  5
2070B
330
4F
100
AcDbEntity
  8
0
100
AcDbLine
 10
20.333333333333314
 20
40.833333333333
 30
1.5654144647214707e-14
 11
1.0000000000000142
 21
40.833333333333
 31
1.5654144647214707e-14
  0
LINE
  5
2070C
330
4F
100
AcDbEntity
  8
0
100
AcDbLine
 10
20.333333333333314
 20
41.333333333333
 30
2.986499936241671e-14
 11
20.333333333333314
 21
40.833333333333
 31
2.986499936241671e-14
  0
LINE
  5
2070D
330
4F
100
AcDbEntity
  8
0
100
AcDbLine
 10
20.333333333333314
 20
41.333333333333
 30
1.5654144647214707e-14
 11
1.0000000000000142
 21
41.333333333333
 31
1.5654144647214707e-14
  0
LINE
  5
2070E
330
4F
100
AcDbEntity
  8
0
100
AcDbLine
 10
0.5000000000000142
 20
53.833333333333
 30
2.986499936241671e-14
 11
1.0000000000000142
 21
53.833333333333
 31
2.9803044952560395e-14
  0
LINE
  5
2070F
330
4F
100
AcDbEntity
  8
0
100
AcDbLine
 10
1.0000000000000142
 20
53.833333333333
 30
2.986499936241671e-14
 11
1.0000000000000142
 21
57.833333333333
 31
2.986499936241671e-14
  0
LINE
  5
20710
330
4F
100
AcDbEntity
  8
0
100
AcDbLine
 10
0.5000000000000142
 20
57.833333333333
 30
2.986499936241671e-14
 11
1.0000000000000142
 21
57.833333333333
 31
2.9803044952560395e-14
  0
LINE
  5
20711
330
4F
100
AcDbEntity
  8
0
100
AcDbLine
 10
0.5000000000000142
 20
53.833333333333
 30
2.986499936241671e-14
 11
0.5000000000000142
 21
57.833333333333
 31
2.986499936241671e-14
  0
LINE
  5
20712
330
4F
100
AcDbEntity
  8
0
100
AcDbLine
 10
1.0000000000000142
 20
59.333333333333
 30
2.986499936241671e-14
 11
1.0000000000000142
 21
58.833333333333
 31
2.986499936241671e-14
  0
LINE
  5
20713
330
4F
100
AcDbEntity
  8
0
100
AcDbLine
 10
20.333333333333314
 20
58.833333333333
 30
1.5654144647214707e-14
 11
1.0000000000000142
 21
58.833333333333
 31
1.5654144647214707e-14
  0
LINE
  5
20714
330
4F
100
AcDbEntity
  8
0
100
AcDbLine
 10
20.333333333333314
 20
59.333333333333
 30
2.986499936241671e-14
 11
20.333333333333314
 21
58.833333333333
 31
2.986499936241671e-14
  0
LINE
  5
20715
330
4F
100
AcDbEntity
  8
0
100
AcDbLine
 10
20.333333333333314
 20
59.333333333333
 30
1.5654144647214707e-14
 11
1.0000000000000142
 21
59.333333333333
 31
1.5654144647214707e-14
  0
LINE
  5
20716
330
4F
100
AcDbEntity
  8
0
100
AcDbLine
 10
0.5000000000000142
 20
71.833333333333
 30
2.986499936241671e-14
 11
1.0000000000000142
 21
71.833333333333
 31
2.9803044952560395e-14
  0
LINE
  5
20717
330
4F
100
AcDbEntity
  8
0
100
AcDbLine
 10
1.0000000000000142
 20
71.833333333333
 30
2.986499936241671e-14
 11
1.0000000000000142
 21
75.833333333333
 31
2.986499936241671e-14
  0
LINE
  5
20718
330
4F
100
AcDbEntity
  8
0
100
AcDbLine
 10
0.5000000000000142
 20
75.833333333333
 30
2.986499936241671e-14
 11
1.0000000000000142
 21
75.833333333333
 31
2.9803044952560395e-14
  0
LINE
  5
20719
330
4F
100
AcDbEntity
  8
0
100
AcDbLine
 10
0.5000000000000142
 20
71.833333333333
 30
2.986499936241671e-14
 11
0.5000000000000142
 21
75.833333333333
 31
2.986499936241671e-14
  0
LINE
  5
2071A
330
4F
100
AcDbEntity
  8
0
100
AcDbLine
 10
1.0000000000000142
 20
77.333333333333
 30
2.986499936241671e-14
 11
1.0000000000000142
 21
76.833333333333
 31
2.986499936241671e-14
  0
LINE
  5
2071B
330
4F
100
AcDbEntity
  8
0
100
AcDbLine
 10
20.333333333333314
 20
76.833333333333
 30
1.5654144647214707e-14
 11
1.0000000000000142
 21
76.833333333333
 31
1.5654144647214707e-14
  0
LINE
  5
2071C
330
4F
100
AcDbEntity
  8
0
100
AcDbLine
 10
20.333333333333314
 20
77.333333333333
 30
2.986499936241671e-14
 11
20.333333333333314
 21
76.833333333333
 31
2.986499936241671e-14
  0
LINE
  5
2071D
330
4F
100
AcDbEntity
  8
0
100
AcDbLine
 10
20.333333333333314
 20
77.333333333333
 30
1.5654144647214707e-14
 11
1.0000000000000142
 21
77.333333333333
 31
1.5654144647214707e-14
  0
LINE
  5
2071E
330
4F
100
AcDbEntity
  8
0
100
AcDbLine
 10
0.5000000000000142
 20
89.833333333333
 30
2.986499936241671e-14
 11
1.0000000000000142
 21
89.833333333333
 31
2.9803044952560395e-14
  0
LINE
  5
2071F
330
4F
100
AcDbEntity
  8
0
100
AcDbLine
 10
1.0000000000000142
 20
89.833333333333
 30
2.986499936241671e-14
 11
1.0000000000000142
 21
93.833333333333
 31
2.986499936241671e-14
  0
LINE
  5
20720
330
4F
100
AcDbEntity
  8
0
100
AcDbLine
 10
0.5000000000000142
 20
93.833333333333
 30
2.986499936241671e-14
 11
1.0000000000000142
 21
93.833333333333
 31
2.9803044952560395e-14
  0
LINE
  5
20721
330
4F
100
AcDbEntity
  8
0
100
AcDbLine
 10
0.5000000000000142
 20
89.833333333333
 30
2.986499936241671e-14
 11
0.5000000000000142
 21
93.833333333333
 31
2.986499936241671e-14
  0
LINE
  5
20722
330
4F
100
AcDbEntity
  8
0
100
AcDbLine
 10
20.333333333333314
 20
17.833333333333
 30
2.986499936241671e-14
 11
20.333333333333314
 21
21.833333333333
 31
2.986499936241671e-14
  0
LINE
  5
20723
330
4F
100
AcDbEntity
  8
0
100
AcDbLine
 10
20.333333333333314
 20
17.833333333333
 30
2.986499936241671e-14
 11
20.833333333333314
 21
17.833333333333
 31
2.9803044952560395e-14
  0
LINE
  5
20724
330
4F
100
AcDbEntity
  8
0
100
AcDbLine
 10
20.833333333333314
 20
17.833333333333
 30
2.986499936241671e-14
 11
20.833333333333314
 21
21.833333333333
 31
2.986499936241671e-14
  0
LINE
  5
20725
330
4F
100
AcDbEntity
  8
0
100
AcDbLine
 10
20.333333333333314
 20
21.833333333333
 30
2.986499936241671e-14
 11
20.833333333333314
 21
21.833333333333
 31
2.9803044952560395e-14
  0
LINE
  5
20726
330
4F
100
AcDbEntity
  8
0
100
AcDbLine
 10
20.333333333333314
 20
35.833333333333
 30
2.986499936241671e-14
 11
20.333333333333314
 21
39.833333333333
 31
2.986499936241671e-14
  0
LINE
  5
20727
330
4F
100
AcDbEntity
  8
0
100
AcDbLine
 10
20.333333333333314
 20
35.833333333333
 30
2.986499936241671e-14
 11
20.833333333333314
 21
35.833333333333
 31
2.9803044952560395e-14
  0
LINE
  5
20728
330
4F
100
AcDbEntity
  8
0
100
AcDbLine
 10
20.833333333333314
 20
35.833333333333
 30
2.986499936241671e-14
 11
20.833333333333314
 21
39.833333333333
 31
2.986499936241671e-14
  0
LINE
  5
20729
330
4F
100
AcDbEntity
  8
0
100
AcDbLine
 10
20.333333333333314
 20
39.833333333333
 30
2.986499936241671e-14
 11
20.833333333333314
 21
39.833333333333
 31
2.9803044952560395e-14
  0
LINE
  5
2072A
330
4F
100
AcDbEntity
  8
0
100
AcDbLine
 10
20.333333333333314
 20
53.833333333333
 30
2.986499936241671e-14
 11
20.333333333333314
 21
57.833333333333
 31
2.986499936241671e-14
  0
LINE
  5
2072B
330
4F
100
AcDbEntity
  8
0
100
AcDbLine
 10
20.333333333333314
 20
53.833333333333
 30
2.986499936241671e-14
 11
20.833333333333314
 21
53.833333333333
 31
2.9803044952560395e-14
  0
LINE
  5
2072C
330
4F
100
AcDbEntity
  8
0
100
AcDbLine
 10
20.833333333333314
 20
53.833333333333
 30
2.986499936241671e-14
 11
20.833333333333314
 21
57.833333333333
 31
2.986499936241671e-14
  0
LINE
  5
2072D
330
4F
100
AcDbEntity
  8
0
100
AcDbLine
 10
20.333333333333314
 20
57.833333333333
 30
2.986499936241671e-14
 11
20.833333333333314
 21
57.833333333333
 31
2.9803044952560395e-14
  0
LINE
  5
2072E
330
4F
100
AcDbEntity
  8
0
100
AcDbLine
 10
20.333333333333314
 20
71.833333333333
 30
2.986499936241671e-14
 11
20.333333333333314
 21
75.833333333333
 31
2.986499936241671e-14
  0
LINE
  5
2072F
330
4F
100
AcDbEntity
  8
0
100
AcDbLine
 10
20.333333333333314
 20
71.833333333333
 30
2.986499936241671e-14
 11
20.833333333333314
 21
71.833333333333
 31
2.9803044952560395e-14
  0
LINE
  5
20730
330
4F
100
AcDbEntity
  8
0
100
AcDbLine
 10
20.833333333333314
 20
71.833333333333
 30
2.986499936241671e-14
 11
20.833333333333314
 21
75.833333333333
 31
2.986499936241671e-14
  0
LINE
  5
20731
330
4F
100
AcDbEntity
  8
0
100
AcDbLine
 10
20.333333333333314
 20
75.833333333333
 30
2.986499936241671e-14
 11
20.833333333333314
 21
75.833333333333
 31
2.9803044952560395e-14
  0
LINE
  5
20732
330
4F
100
AcDbEntity
  8
0
100
AcDbLine
 10
20.333333333333314
 20
89.833333333333
 30
2.986499936241671e-14
 11
20.333333333333314
 21
93.833333333333
 31
2.986499936241671e-14
  0
LINE
  5
20733
330
4F
100
AcDbEntity
  8
0
100
AcDbLine
 10
20.333333333333314
 20
89.833333333333
 30
2.986499936241671e-14
 11
20.833333333333314
 21
89.833333333333
 31
2.9803044952560395e-14
  0
LINE
  5
20734
330
4F
100
AcDbEntity
  8
0
100
AcDbLine
 10
20.833333333333314
 20
89.833333333333
 30
2.986499936241671e-14
 11
20.833333333333314
 21
93.833333333333
 31
2.986499936241671e-14
  0
LINE
  5
20735
330
4F
100
AcDbEntity
  8
0
100
AcDbLine
 10
20.333333333333314
 20
93.833333333333
 30
2.986499936241671e-14
 11
20.833333333333314
 21
93.833333333333
 31
2.9803044952560395e-14
  0
LINE
  5
20736
330
4F
100
AcDbEntity
  8
0
100
AcDbLine
 10
203.6666666666667
 20
93.833333333333
 30
1.4432899320127035e-15
 11
203.6666666666667
 21
89.833333333333
 31
1.4432899320127035e-15
  0
LINE
  5
20737
330
4F
100
AcDbEntity
  8
0
100
AcDbLine
 10
203.6666666666667
 20
93.833333333333
 30
1.4432899320127035e-15
 11
203.1666666666667
 21
93.833333333333
 31
1.505244341869018e-15
  0
LINE
  5
20738
330
4F
100
AcDbEntity
  8
0
100
AcDbLine
 10
203.1666666666667
 20
93.833333333333
 30
1.4432899320127035e-15
 11
203.1666666666667
 21
89.833333333333
 31
1.4432899320127035e-15
  0
LINE
  5
20739
330
4F
100
AcDbEntity
  8
0
100
AcDbLine
 10
203.6666666666667
 20
89.833333333333
 30
1.4432899320127035e-15
 11
203.1666666666667
 21
89.833333333333
 31
1.505244341869018e-15
  0
LINE
  5
2073A
330
4F
100
AcDbEntity
  8
0
100
AcDbLine
 10
223.0
 20
77.333333333333
 30
1.5654144647214707e-14
 11
203.6666666666667
 21
77.333333333333
 31
1.5654144647214707e-14
  0
LINE
  5
2073B
330
4F
100
AcDbEntity
  8
0
100
AcDbLine
 10
203.6666666666667
 20
77.333333333333
 30
1.4432899320127035e-15
 11
203.6666666666667
 21
76.833333333333
 31
1.4432899320127035e-15
  0
LINE
  5
2073C
330
4F
100
AcDbEntity
  8
0
100
AcDbLine
 10
223.0
 20
76.833333333333
 30
1.5654144647214707e-14
 11
203.6666666666667
 21
76.833333333333
 31
1.5654144647214707e-14
  0
LINE
  5
2073D
330
4F
100
AcDbEntity
  8
0
100
AcDbLine
 10
223.0
 20
77.333333333333
 30
1.4432899320127035e-15
 11
223.0
 21
76.833333333333
 31
1.4432899320127035e-15
  0
LINE
  5
2073E
330
4F
100
AcDbEntity
  8
0
100
AcDbLine
 10
203.6666666666667
 20
75.833333333333
 30
1.4432899320127035e-15
 11
203.6666666666667
 21
71.833333333333
 31
1.4432899320127035e-15
  0
LINE
  5
2073F
330
4F
100
AcDbEntity
  8
0
100
AcDbLine
 10
203.6666666666667
 20
75.833333333333
 30
1.4432899320127035e-15
 11
203.1666666666667
 21
75.833333333333
 31
1.505244341869018e-15
  0
LINE
  5
20740
330
4F
100
AcDbEntity
  8
0
100
AcDbLine
 10
203.1666666666667
 20
75.833333333333
 30
1.4432899320127035e-15
 11
203.1666666666667
 21
71.833333333333
 31
1.4432899320127035e-15
  0
LINE
  5
20741
330
4F
100
AcDbEntity
  8
0
100
AcDbLine
 10
203.6666666666667
 20
71.833333333333
 30
1.4432899320127035e-15
 11
203.1666666666667
 21
71.833333333333
 31
1.505244341869018e-15
  0
LINE
  5
20742
330
4F
100
AcDbEntity
  8
0
100
AcDbLine
 10
223.0
 20
59.333333333333
 30
1.5654144647214707e-14
 11
203.6666666666667
 21
59.333333333333
 31
1.5654144647214707e-14
  0
LINE
  5
20743
330
4F
100
AcDbEntity
  8
0
100
AcDbLine
 10
203.6666666666667
 20
59.333333333333
 30
1.4432899320127035e-15
 11
203.6666666666667
 21
58.833333333333
 31
1.4432899320127035e-15
  0
LINE
  5
20744
330
4F
100
AcDbEntity
  8
0
100
AcDbLine
 10
223.0
 20
58.833333333333
 30
1.5654144647214707e-14
 11
203.6666666666667
 21
58.833333333333
 31
1.5654144647214707e-14
  0
LINE
  5
20745
330
4F
100
AcDbEntity
  8
0
100
AcDbLine
 10
223.0
 20
59.333333333333
 30
1.4432899320127035e-15
 11
223.0
 21
58.833333333333
 31
1.4432899320127035e-15
  0
LINE
  5
20746
330
4F
100
AcDbEntity
  8
0
100
AcDbLine
 10
203.6666666666667
 20
57.833333333333
 30
1.4432899320127035e-15
 11
203.6666666666667
 21
53.833333333333
 31
1.4432899320127035e-15
  0
LINE
  5
20747
330
4F
100
AcDbEntity
  8
0
100
AcDbLine
 10
203.6666666666667
 20
57.833333333333
 30
1.4432899320127035e-15
 11
203.1666666666667
 21
57.833333333333
 31
1.505244341869018e-15
  0
LINE
  5
20748
330
4F
100
AcDbEntity
  8
0
100
AcDbLine
 10
203.1666666666667
 20
57.833333333333
 30
1.4432899320127035e-15
 11
203.1666666666667
 21
53.833333333333
 31
1.4432899320127035e-15
  0
LINE
  5
20749
330
4F
100
AcDbEntity
  8
0
100
AcDbLine
 10
203.6666666666667
 20
53.833333333333
 30
1.4432899320127035e-15
 11
203.1666666666667
 21
53.833333333333
 31
1.505244341869018e-15
  0
LINE
  5
2074A
330
4F
100
AcDbEntity
  8
0
100
AcDbLine
 10
223.0
 20
41.333333333333
 30
1.5654144647214707e-14
 11
203.6666666666667
 21
41.333333333333
 31
1.5654144647214707e-14
  0
LINE
  5
2074B
330
4F
100
AcDbEntity
  8
0
100
AcDbLine
 10
203.6666666666667
 20
41.333333333333
 30
1.4432899320127035e-15
 11
203.6666666666667
 21
40.833333333333
 31
1.4432899320127035e-15
  0
LINE
  5
2074C
330
4F
100
AcDbEntity
  8
0
100
AcDbLine
 10
223.0
 20
40.833333333333
 30
1.5654144647214707e-14
 11
203.6666666666667
 21
40.833333333333
 31
1.5654144647214707e-14
  0
LINE
  5
2074D
330
4F
100
AcDbEntity
  8
0
100
AcDbLine
 10
223.0
 20
41.333333333333
 30
1.4432899320127035e-15
 11
223.0
 21
40.833333333333
 31
1.4432899320127035e-15
  0
LINE
  5
2074E
330
4F
100
AcDbEntity
  8
0
100
AcDbLine
 10
203.6666666666667
 20
39.833333333333
 30
1.4432899320127035e-15
 11
203.6666666666667
 21
35.833333333333
 31
1.4432899320127035e-15
  0
LINE
  5
2074F
330
4F
100
AcDbEntity
  8
0
100
AcDbLine
 10
203.6666666666667
 20
39.833333333333
 30
1.4432899320127035e-15
 11
203.1666666666667
 21
39.833333333333
 31
1.505244341869018e-15
  0
LINE
  5
20750
330
4F
100
AcDbEntity
  8
0
100
AcDbLine
 10
203.1666666666667
 20
39.833333333333
 30
1.4432899320127035e-15
 11
203.1666666666667
 21
35.833333333333
 31
1.4432899320127035e-15
  0
LINE
  5
20751
330
4F
100
AcDbEntity
  8
0
100
AcDbLine
 10
203.6666666666667
 20
35.833333333333
 30
1.4432899320127035e-15
 11
203.1666666666667
 21
35.833333333333
 31
1.505244341869018e-15
  0
LINE
  5
20752
330
4F
100
AcDbEntity
  8
0
100
AcDbLine
 10
223.0
 20
23.333333333333
 30
1.5654144647214707e-14
 11
203.6666666666667
 21
23.333333333333
 31
1.5654144647214707e-14
  0
LINE
  5
20753
330
4F
100
AcDbEntity
  8
0
100
AcDbLine
 10
203.6666666666667
 20
23.333333333333
 30
1.4432899320127035e-15
 11
203.6666666666667
 21
22.833333333333
 31
1.4432899320127035e-15
  0
LINE
  5
20754
330
4F
100
AcDbEntity
  8
0
100
AcDbLine
 10
223.0
 20
22.833333333333
 30
1.5654144647214707e-14
 11
203.6666666666667
 21
22.833333333333
 31
1.5654144647214707e-14
  0
LINE
  5
20755
330
4F
100
AcDbEntity
  8
0
100
AcDbLine
 10
223.0
 20
23.333333333333
 30
1.4432899320127035e-15
 11
223.0
 21
22.833333333333
 31
1.4432899320127035e-15
  0
LINE
  5
20756
330
4F
100
AcDbEntity
  8
0
100
AcDbLine
 10
203.6666666666667
 20
21.833333333333
 30
1.4432899320127035e-15
 11
203.6666666666667
 21
17.833333333333
 31
1.4432899320127035e-15
  0
LINE
  5
20757
330
4F
100
AcDbEntity
  8
0
100
AcDbLine
 10
203.6666666666667
 20
21.833333333333
 30
1.4432899320127035e-15
 11
203.1666666666667
 21
21.833333333333
 31
1.505244341869018e-15
  0
LINE
  5
20758
330
4F
100
AcDbEntity
  8
0
100
AcDbLine
 10
203.1666666666667
 20
21.833333333333
 30
1.4432899320127035e-15
 11
203.1666666666667
 21
17.833333333333
 31
1.4432899320127035e-15
  0
LINE
  5
20759
330
4F
100
AcDbEntity
  8
0
100
AcDbLine
 10
203.6666666666667
 20
17.833333333333
 30
1.4432899320127035e-15
 11
203.1666666666667
 21
17.833333333333
 31
1.505244341869018e-15
  0
LINE
  5
2075A
330
4F
100
AcDbEntity
  8
0
100
AcDbLine
 10
218.33333333333303
 20
5.333333333333002
 30
1.5654144647214707e-14
 11
208.33333333333331
 21
5.333333333333002
 31
1.5654144647214707e-14
  0
LINE
  5
2075B
330
4F
100
AcDbEntity
  8
0
100
AcDbLine
 10
218.33333333333303
 20
5.333333333333002
 30
1.4432899320127035e-15
 11
218.33333333333303
 21
5.833333333333002
 31
1.5671987517253324e-15
  0
LINE
  5
2075C
330
4F
100
AcDbEntity
  8
0
100
AcDbLine
 10
208.33333333333331
 20
5.833333333333002
 30
1.5654144647214707e-14
 11
218.33333333333303
 21
5.833333333333002
 31
1.5654144647214707e-14
  0
LINE
  5
2075D
330
4F
100
AcDbEntity
  8
0
100
AcDbLine
 10
208.33333333333331
 20
5.333333333333002
 30
1.4432899320127035e-15
 11
208.33333333333331
 21
5.833333333333002
 31
1.5671987517253324e-15
  0
LINE
  5
2075E
330
4F
100
AcDbEntity
  8
0
100
AcDbLine
 10
223.5
 20
93.833333333333
 30
1.4432899320127035e-15
 11
223.0
 21
93.833333333333
 31
1.505244341869018e-15
  0
LINE
  5
2075F
330
4F
100
AcDbEntity
  8
0
100
AcDbLine
 10
223.0
 20
93.833333333333
 30
1.4432899320127035e-15
 11
223.0
 21
89.833333333333
 31
1.4432899320127035e-15
  0
LINE
  5
20760
330
4F
100
AcDbEntity
  8
0
100
AcDbLine
 10
223.5
 20
89.833333333333
 30
1.4432899320127035e-15
 11
223.0
 21
89.833333333333
 31
1.505244341869018e-15
  0
LINE
  5
20761
330
4F
100
AcDbEntity
  8
0
100
AcDbLine
 10
223.5
 20
93.833333333333
 30
1.4432899320127035e-15
 11
223.5
 21
89.833333333333
 31
1.4432899320127035e-15
  0
LINE
  5
20762
330
4F
100
AcDbEntity
  8
0
100
AcDbLine
 10
223.5
 20
75.833333333333
 30
1.4432899320127035e-15
 11
223.0
 21
75.833333333333
 31
1.505244341869018e-15
  0
LINE
  5
20763
330
4F
100
AcDbEntity
  8
0
100
AcDbLine
 10
223.0
 20
75.833333333333
 30
1.4432899320127035e-15
 11
223.0
 21
71.833333333333
 31
1.4432899320127035e-15
  0
LINE
  5
20764
330
4F
100
AcDbEntity
  8
0
100
AcDbLine
 10
223.5
 20
71.833333333333
 30
1.4432899320127035e-15
 11
223.0
 21
71.833333333333
 31
1.505244341869018e-15
  0
LINE
  5
20765
330
4F
100
AcDbEntity
  8
0
100
AcDbLine
 10
223.5
 20
75.833333333333
 30
1.4432899320127035e-15
 11
223.5
 21
71.833333333333
 31
1.4432899320127035e-15
  0
LINE
  5
20766
330
4F
100
AcDbEntity
  8
0
100
AcDbLine
 10
223.5
 20
57.833333333333
 30
1.4432899320127035e-15
 11
223.0
 21
57.833333333333
 31
1.505244341869018e-15
  0
LINE
  5
20767
330
4F
100
AcDbEntity
  8
0
100
AcDbLine
 10
223.0
 20
57.833333333333
 30
1.4432899320127035e-15
 11
223.0
 21
53.833333333333
 31
1.4432899320127035e-15
  0
LINE
  5
20768
330
4F
100
AcDbEntity
  8
0
100
AcDbLine
 10
223.5
 20
53.833333333333
 30
1.4432899320127035e-15
 11
223.0
 21
53.833333333333
 31
1.505244341869018e-15
  0
LINE
  5
20769
330
4F
100
AcDbEntity
  8
0
100
AcDbLine
 10
223.5
 20
57.833333333333
 30
1.4432899320127035e-15
 11
223.5
 21
53.833333333333
 31
1.4432899320127035e-15
  0
LINE
  5
2076A
330
4F
100
AcDbEntity
  8
0
100
AcDbLine
 10
223.5
 20
39.833333333333
 30
1.4432899320127035e-15
 11
223.0
 21
39.833333333333
 31
1.505244341869018e-15
  0
LINE
  5
2076B
330
4F
100
AcDbEntity
  8
0
100
AcDbLine
 10
223.0
 20
39.833333333333
 30
1.4432899320127035e-15
 11
223.0
 21
35.833333333333
 31
1.4432899320127035e-15
  0
LINE
  5
2076C
330
4F
100
AcDbEntity
  8
0
100
AcDbLine
 10
223.5
 20
35.833333333333
 30
1.4432899320127035e-15
 11
223.0
 21
35.833333333333
 31
1.505244341869018e-15
  0
LINE
  5
2076D
330
4F
100
AcDbEntity
  8
0
100
AcDbLine
 10
223.5
 20
39.833333333333
 30
1.4432899320127035e-15
 11
223.5
 21
35.833333333333
 31
1.4432899320127035e-15
  0
LINE
  5
2076E
330
4F
100
AcDbEntity
  8
0
100
AcDbLine
 10
223.5
 20
21.833333333333
 30
1.4432899320127035e-15
 11
223.0
 21
21.833333333333
 31
1.505244341869018e-15
  0
LINE
  5
2076F
330
4F
100
AcDbEntity
  8
0
100
AcDbLine
 10
223.0
 20
21.833333333333
 30
1.4432899320127035e-15
 11
223.0
 21
17.833333333333
 31
1.4432899320127035e-15
  0
LINE
  5
20770
330
4F
100
AcDbEntity
  8
0
100
AcDbLine
 10
223.5
 20
17.833333333333
 30
1.4432899320127035e-15
 11
223.0
 21
17.833333333333
 31
1.505244341869018e-15
  0
LINE
  5
20771
330
4F
100
AcDbEntity
  8
0
100
AcDbLine
 10
223.5
 20
21.833333333333
 30
1.4432899320127035e-15
 11
223.5
 21
17.833333333333
 31
1.4432899320127035e-15
  0
LINE
  5
20772
330
4F
100
AcDbEntity
  8
0
100
AcDbLine
 10
219.20000000000002
 20
21.266666666666296
 30
1.4432899320127035e-15
 11
219.20000000000002
 21
8.299999999999699
 31
1.4432899320127035e-15
  0
LINE
  5
20773
330
4F
100
AcDbEntity
  8
0
100
AcDbLine
 10
219.20000000000002
 20
21.266666666666296
 30
9.153006835704428e-16
 11
214.938888888889
 21
21.266666666666296
 31
1.9712791804547106e-15
  0
LINE
  5
20774
330
4F
100
AcDbEntity
  8
0
100
AcDbLine
 10
214.938888888889
 20
21.266666666666296
 30
1.4432899320127035e-15
 11
214.938888888889
 21
17.766666666666296
 31
1.4432899320127035e-15
  0
LINE
  5
20775
330
4F
100
AcDbEntity
  8
0
100
AcDbLine
 10
207.46666666666673
 20
17.766666666666296
 30
2.3691641681987376e-15
 11
214.93888888888904
 21
17.766666666666296
 31
5.174156958266517e-16
  0
LINE
  5
20776
330
4F
100
AcDbEntity
  8
0
100
AcDbLine
 10
207.4666666666667
 20
17.766666666666296
 30
1.4432899320127035e-15
 11
207.4666666666667
 21
8.299999999999699
 31
1.4432899320127035e-15
  0
LINE
  5
20777
330
4F
100
AcDbEntity
  8
0
100
AcDbLine
 10
207.46666666666673
 20
8.299999999999699
 30
2.8971534166407943e-15
 11
219.20000000000005
 21
8.299999999999699
 31
-1.0573552615559732e-17
  0
LINE
  5
20778
330
4F
100
AcDbEntity
  8
0
100
AcDbLine
 10
52.33333333333331
 20
83.833333333333
 30
1.5654144647214707e-14
 11
42.333333333333314
 21
83.833333333333
 31
1.5654144647214707e-14
  0
LINE
  5
20779
330
4F
100
AcDbEntity
  8
0
100
AcDbLine
 10
52.3333333333333
 20
83.833333333333
 30
2.275957200481571e-14
 11
52.3333333333333
 21
84.333333333333
 31
2.275957200481571e-14
  0
LINE
  5
2077A
330
4F
100
AcDbEntity
  8
0
100
AcDbLine
 10
52.33333333333331
 20
84.333333333333
 30
1.5654144647214707e-14
 11
42.333333333333314
 21
84.333333333333
 31
1.5654144647214707e-14
  0
LINE
  5
2077B
330
4F
100
AcDbEntity
  8
0
100
AcDbLine
 10
42.333333333333314
 20
83.833333333333
 30
2.275957200481571e-14
 11
42.333333333333314
 21
84.333333333333
 31
2.275957200481571e-14
  0
LINE
  5
2077C
330
4F
100
AcDbEntity
  8
0
100
AcDbLine
 10
181.6666666666667
 20
83.833333333333
 30
1.5654144647214707e-14
 11
171.6666666666667
 21
83.833333333333
 31
1.5654144647214707e-14
  0
LINE
  5
2077D
330
4F
100
AcDbEntity
  8
0
100
AcDbLine
 10
181.6666666666667
 20
83.833333333333
 30
8.548717289613705e-15
 11
181.6666666666667
 21
84.333333333333
 31
8.548717289613705e-15
  0
LINE
  5
2077E
330
4F
100
AcDbEntity
  8
0
100
AcDbLine
 10
181.6666666666667
 20
84.333333333333
 30
1.5654144647214707e-14
 11
171.6666666666667
 21
84.333333333333
 31
1.5654144647214707e-14
  0
LINE
  5
2077F
330
4F
100
AcDbEntity
  8
0
100
AcDbLine
 10
171.66666666666669
 20
83.833333333333
 30
8.548717289613705e-15
 11
171.66666666666669
 21
84.333333333333
 31
8.548717289613705e-15
  0
LINE
  5
20780
330
4F
100
AcDbEntity
  8
0
100
AcDbLine
 10
115.8
 20
89.76666666666631
 30
1.686019049241763e-14
 11
125.5333333333333
 21
89.76666666666631
 31
1.4448098802011793e-14
  0
LINE
  5
20781
330
4F
100
AcDbEntity
  8
0
100
AcDbLine
 10
115.80000000000001
 20
89.7666666666663
 30
1.5654144647214707e-14
 11
115.80000000000001
 21
80.2999999999996
 31
1.5654144647214707e-14
  0
LINE
  5
20782
330
4F
100
AcDbEntity
  8
0
100
AcDbLine
 10
115.8
 20
80.2999999999996
 30
1.6860190492417627e-14
 11
125.5333333333333
 21
80.2999999999996
 31
1.444809880201179e-14
  0
LINE
  5
20783
330
4F
100
AcDbEntity
  8
0
100
AcDbLine
 10
125.5333333333333
 20
89.7666666666663
 30
1.5654144647214707e-14
 11
125.5333333333333
 21
80.2999999999996
 31
1.5654144647214707e-14
  0
LINE
  5
20784
330
4F
100
AcDbEntity
  8
0
100
AcDbLine
 10
154.46666666666673
 20
89.76666666666631
 30
9.75476313481661e-15
 11
164.20000000000002
 21
89.76666666666631
 31
7.342671444410774e-15
  0
LINE
  5
20785
330
4F
100
AcDbEntity
  8
0
100
AcDbLine
 10
154.4666666666667
 20
89.7666666666663
 30
8.548717289613705e-15
 11
154.4666666666667
 21
80.2999999999996
 31
8.548717289613705e-15
  0
LINE
  5
20786
330
4F
100
AcDbEntity
  8
0
100
AcDbLine
 10
154.46666666666673
 20
80.2999999999996
 30
9.75476313481661e-15
 11
164.20000000000002
 21
80.2999999999996
 31
7.342671444410774e-15
  0
LINE
  5
20787
330
4F
100
AcDbEntity
  8
0
100
AcDbLine
 10
164.2
 20
89.7666666666663
 30
8.548717289613705e-15
 11
164.2
 21
80.2999999999996
 31
8.548717289613705e-15
  0
LINE
  5
20788
330
4F
100
AcDbEntity
  8
0
100
AcDbLine
 10
34.86666666666672
 20
89.76666666666631
 30
2.275957200481571e-14
 11
25.13333333333331
 21
89.76666666666631
 31
2.275957200481571e-14
  0
LINE
  5
20789
330
4F
100
AcDbEntity
  8
0
100
AcDbLine
 10
25.13333333333331
 20
89.7666666666663
 30
2.986499936241671e-14
 11
25.13333333333331
 21
80.2999999999996
 31
2.986499936241671e-14
  0
LINE
  5
2078A
330
4F
100
AcDbEntity
  8
0
100
AcDbLine
 10
34.86666666666672
 20
80.2999999999996
 30
2.275957200481571e-14
 11
25.13333333333331
 21
80.2999999999996
 31
2.275957200481571e-14
  0
LINE
  5
2078B
330
4F
100
AcDbEntity
  8
0
100
AcDbLine
 10
34.86666666666672
 20
89.7666666666663
 30
2.275957200481571e-14
 11
34.86666666666672
 21
80.2999999999996
 31
2.275957200481571e-14
  0
LINE
  5
2078C
330
4F
100
AcDbEntity
  8
0
100
AcDbLine
 10
69.5333333333333
 20
89.76666666666631
 30
2.275957200481571e-14
 11
59.8
 21
89.76666666666631
 31
2.275957200481571e-14
  0
LINE
  5
2078D
330
4F
100
AcDbEntity
  8
0
100
AcDbLine
 10
59.8
 20
89.7666666666663
 30
2.275957200481571e-14
 11
59.8
 21
80.2999999999996
 31
2.275957200481571e-14
  0
LINE
  5
2078E
330
4F
100
AcDbEntity
  8
0
100
AcDbLine
 10
69.5333333333333
 20
80.2999999999996
 30
2.275957200481571e-14
 11
59.8
 21
80.2999999999996
 31
2.275957200481571e-14
  0
LINE
  5
2078F
330
4F
100
AcDbEntity
  8
0
100
AcDbLine
 10
69.5333333333333
 20
89.7666666666663
 30
2.275957200481571e-14
 11
69.5333333333333
 21
80.2999999999996
 31
2.275957200481571e-14
  0
LINE
  5
20790
330
4F
100
AcDbEntity
  8
0
100
AcDbLine
 10
108.2
 20
89.76666666666631
 30
1.5654144647214707e-14
 11
98.4666666666667
 21
89.76666666666631
 31
1.5654144647214707e-14
  0
LINE
  5
20791
330
4F
100
AcDbEntity
  8
0
100
AcDbLine
 10
98.4666666666667
 20
89.7666666666663
 30
1.5654144647214707e-14
 11
98.4666666666667
 21
80.2999999999996
 31
1.5654144647214707e-14
  0
LINE
  5
20792
330
4F
100
AcDbEntity
  8
0
100
AcDbLine
 10
108.2
 20
80.2999999999996
 30
1.5654144647214707e-14
 11
98.4666666666667
 21
80.2999999999996
 31
1.5654144647214707e-14
  0
LINE
  5
20793
330
4F
100
AcDbEntity
  8
0
100
AcDbLine
 10
108.2
 20
89.7666666666663
 30
1.5654144647214707e-14
 11
108.2
 21
80.2999999999996
 31
1.5654144647214707e-14
  0
LINE
  5
20794
330
4F
100
AcDbEntity
  8
0
100
AcDbLine
 10
189.1333333333333
 20
89.76666666666631
 30
9.754763134816637e-15
 11
198.8666666666667
 21
89.76666666666631
 31
7.342671444410774e-15
  0
LINE
  5
20795
330
4F
100
AcDbEntity
  8
0
100
AcDbLine
 10
189.13333333333333
 20
89.7666666666663
 30
8.548717289613705e-15
 11
189.13333333333333
 21
80.2999999999996
 31
8.548717289613705e-15
  0
LINE
  5
20796
330
4F
100
AcDbEntity
  8
0
100
AcDbLine
 10
189.1333333333333
 20
80.2999999999996
 30
9.754763134816637e-15
 11
198.8666666666667
 21
80.2999999999996
 31
7.342671444410774e-15
  0
LINE
  5
20797
330
4F
100
AcDbEntity
  8
0
100
AcDbLine
 10
198.86666666666673
 20
89.7666666666663
 30
1.4432899320127035e-15
 11
198.86666666666673
 21
80.2999999999996
 31
1.4432899320127035e-15
  0
LINE
  5
20798
330
4F
100
AcDbEntity
  8
0
100
AcDbLine
 10
170.8
 20
75.133333333333
 30
1.0002580774241895e-14
 11
182.5333333333333
 21
75.133333333333
 31
7.094853804985544e-15
  0
LINE
  5
20799
330
4F
100
AcDbEntity
  8
0
100
AcDbLine
 10
170.8
 20
75.13333333333301
 30
8.548717289613705e-15
 11
170.8
 21
70.333333333333
 31
8.548717289613705e-15
  0
LINE
  5
2079A
330
4F
100
AcDbEntity
  8
0
100
AcDbLine
 10
170.8
 20
70.333333333333
 30
1.0002580774241895e-14
 11
182.5333333333333
 21
70.333333333333
 31
7.094853804985544e-15
  0
LINE
  5
2079B
330
4F
100
AcDbEntity
  8
0
100
AcDbLine
 10
182.5333333333333
 20
75.13333333333301
 30
8.548717289613705e-15
 11
182.5333333333333
 21
70.333333333333
 31
8.548717289613705e-15
  0
LINE
  5
2079C
330
4F
100
AcDbEntity
  8
0
100
AcDbLine
 10
108.2
 20
71.76666666666631
 30
1.5654144647214707e-14
 11
98.4666666666667
 21
71.76666666666631
 31
1.5654144647214707e-14
  0
LINE
  5
2079D
330
4F
100
AcDbEntity
  8
0
100
AcDbLine
 10
98.4666666666667
 20
71.76666666666631
 30
1.5654144647214707e-14
 11
98.4666666666667
 21
62.2999999999996
 31
1.5654144647214707e-14
  0
LINE
  5
2079E
330
4F
100
AcDbEntity
  8
0
100
AcDbLine
 10
108.2
 20
62.2999999999996
 30
1.5654144647214707e-14
 11
98.4666666666667
 21
62.2999999999996
 31
1.5654144647214707e-14
  0
LINE
  5
2079F
330
4F
100
AcDbEntity
  8
0
100
AcDbLine
 10
108.2
 20
71.76666666666631
 30
1.5654144647214707e-14
 11
108.2
 21
62.2999999999996
 31
1.5654144647214707e-14
  0
LINE
  5
207A0
330
4F
100
AcDbEntity
  8
0
100
AcDbLine
 10
53.20000000000002
 20
75.133333333333
 30
2.275957200481571e-14
 11
41.466666666666725
 21
75.133333333333
 31
2.275957200481571e-14
  0
LINE
  5
207A1
330
4F
100
AcDbEntity
  8
0
100
AcDbLine
 10
41.466666666666725
 20
75.13333333333301
 30
2.275957200481571e-14
 11
41.466666666666725
 21
70.333333333333
 31
2.275957200481571e-14
  0
LINE
  5
207A2
330
4F
100
AcDbEntity
  8
0
100
AcDbLine
 10
53.20000000000002
 20
70.333333333333
 30
2.275957200481571e-14
 11
41.466666666666725
 21
70.333333333333
 31
2.275957200481571e-14
  0
LINE
  5
207A3
330
4F
100
AcDbEntity
  8
0
100
AcDbLine
 10
53.2
 20
75.13333333333301
 30
2.275957200481571e-14
 11
53.2
 21
70.333333333333
 31
2.275957200481571e-14
  0
LINE
  5
207A4
330
4F
100
AcDbEntity
  8
0
100
AcDbLine
 10
69.5333333333333
 20
71.76666666666631
 30
2.275957200481571e-14
 11
59.8
 21
71.76666666666631
 31
2.275957200481571e-14
  0
LINE
  5
207A5
330
4F
100
AcDbEntity
  8
0
100
AcDbLine
 10
59.8
 20
71.76666666666631
 30
2.275957200481571e-14
 11
59.8
 21
62.2999999999996
 31
2.275957200481571e-14
  0
LINE
  5
207A6
330
4F
100
AcDbEntity
  8
0
100
AcDbLine
 10
69.5333333333333
 20
62.2999999999996
 30
2.275957200481571e-14
 11
59.8
 21
62.2999999999996
 31
2.275957200481571e-14
  0
LINE
  5
207A7
330
4F
100
AcDbEntity
  8
0
100
AcDbLine
 10
69.5333333333333
 20
71.76666666666631
 30
2.275957200481571e-14
 11
69.5333333333333
 21
62.2999999999996
 31
2.275957200481571e-14
  0
LINE
  5
207A8
330
4F
100
AcDbEntity
  8
0
100
AcDbLine
 10
34.86666666666672
 20
71.76666666666631
 30
2.275957200481571e-14
 11
25.13333333333331
 21
71.76666666666631
 31
2.275957200481571e-14
  0
LINE
  5
207A9
330
4F
100
AcDbEntity
  8
0
100
AcDbLine
 10
25.13333333333331
 20
71.76666666666631
 30
2.986499936241671e-14
 11
25.13333333333331
 21
62.2999999999996
 31
2.986499936241671e-14
  0
LINE
  5
207AA
330
4F
100
AcDbEntity
  8
0
100
AcDbLine
 10
34.86666666666672
 20
62.2999999999996
 30
2.275957200481571e-14
 11
25.13333333333331
 21
62.2999999999996
 31
2.275957200481571e-14
  0
LINE
  5
207AB
330
4F
100
AcDbEntity
  8
0
100
AcDbLine
 10
34.86666666666672
 20
71.76666666666631
 30
2.275957200481571e-14
 11
34.86666666666672
 21
62.2999999999996
 31
2.275957200481571e-14
  0
LINE
  5
207AC
330
4F
100
AcDbEntity
  8
0
100
AcDbLine
 10
115.8
 20
71.76666666666631
 30
1.686019049241763e-14
 11
125.5333333333333
 21
71.76666666666631
 31
1.4448098802011793e-14
  0
LINE
  5
207AD
330
4F
100
AcDbEntity
  8
0
100
AcDbLine
 10
115.80000000000001
 20
71.76666666666631
 30
1.5654144647214707e-14
 11
115.80000000000001
 21
62.2999999999996
 31
1.5654144647214707e-14
  0
LINE
  5
207AE
330
4F
100
AcDbEntity
  8
0
100
AcDbLine
 10
115.8
 20
62.2999999999996
 30
1.6860190492417627e-14
 11
125.5333333333333
 21
62.2999999999996
 31
1.444809880201179e-14
  0
LINE
  5
207AF
330
4F
100
AcDbEntity
  8
0
100
AcDbLine
 10
125.5333333333333
 20
71.76666666666631
 30
1.5654144647214707e-14
 11
125.5333333333333
 21
62.2999999999996
 31
1.5654144647214707e-14
  0
LINE
  5
207B0
330
4F
100
AcDbEntity
  8
0
100
AcDbLine
 10
154.46666666666673
 20
71.76666666666631
 30
9.75476313481661e-15
 11
164.20000000000002
 21
71.76666666666631
 31
7.342671444410774e-15
  0
LINE
  5
207B1
330
4F
100
AcDbEntity
  8
0
100
AcDbLine
 10
154.4666666666667
 20
71.76666666666631
 30
8.548717289613705e-15
 11
154.4666666666667
 21
62.2999999999996
 31
8.548717289613705e-15
  0
LINE
  5
207B2
330
4F
100
AcDbEntity
  8
0
100
AcDbLine
 10
154.46666666666673
 20
62.2999999999996
 30
9.75476313481661e-15
 11
164.20000000000002
 21
62.2999999999996
 31
7.342671444410774e-15
  0
LINE
  5
207B3
330
4F
100
AcDbEntity
  8
0
100
AcDbLine
 10
164.2
 20
71.76666666666631
 30
8.548717289613705e-15
 11
164.2
 21
62.2999999999996
 31
8.548717289613705e-15
  0
LINE
  5
207B4
330
4F
100
AcDbEntity
  8
0
100
AcDbLine
 10
189.1333333333333
 20
71.76666666666631
 30
9.754763134816637e-15
 11
198.8666666666667
 21
71.76666666666631
 31
7.342671444410774e-15
  0
LINE
  5
207B5
330
4F
100
AcDbEntity
  8
0
100
AcDbLine
 10
189.13333333333333
 20
71.76666666666631
 30
8.548717289613705e-15
 11
189.13333333333333
 21
62.2999999999996
 31
8.548717289613705e-15
  0
LINE
  5
207B6
330
4F
100
AcDbEntity
  8
0
100
AcDbLine
 10
189.1333333333333
 20
62.2999999999996
 30
9.754763134816637e-15
 11
198.8666666666667
 21
62.2999999999996
 31
7.342671444410774e-15
  0
LINE
  5
207B7
330
4F
100
AcDbEntity
  8
0
100
AcDbLine
 10
198.86666666666673
 20
71.76666666666631
 30
1.4432899320127035e-15
 11
198.86666666666673
 21
62.2999999999996
 31
1.4432899320127035e-15
  0
LINE
  5
207B8
330
4F
100
AcDbEntity
  8
0
100
AcDbLine
 10
170.8
 20
57.133333333333
 30
1.0002580774241895e-14
 11
182.5333333333333
 21
57.133333333333
 31
7.094853804985544e-15
  0
LINE
  5
207B9
330
4F
100
AcDbEntity
  8
0
100
AcDbLine
 10
170.8
 20
57.133333333333
 30
8.548717289613705e-15
 11
170.8
 21
52.333333333333
 31
8.548717289613705e-15
  0
LINE
  5
207BA
330
4F
100
AcDbEntity
  8
0
100
AcDbLine
 10
170.8
 20
52.333333333333
 30
1.0002580774241895e-14
 11
182.5333333333333
 21
52.333333333333
 31
7.094853804985544e-15
  0
LINE
  5
207BB
330
4F
100
AcDbEntity
  8
0
100
AcDbLine
 10
182.5333333333333
 20
57.133333333333
 30
8.548717289613705e-15
 11
182.5333333333333
 21
52.333333333333
 31
8.548717289613705e-15
  0
LINE
  5
207BC
330
4F
100
AcDbEntity
  8
0
100
AcDbLine
 10
108.2
 20
53.7666666666663
 30
1.5654144647214707e-14
 11
98.4666666666667
 21
53.7666666666663
 31
1.5654144647214707e-14
  0
LINE
  5
207BD
330
4F
100
AcDbEntity
  8
0
100
AcDbLine
 10
98.4666666666667
 20
53.7666666666663
 30
1.5654144647214707e-14
 11
98.4666666666667
 21
44.299999999999706
 31
1.5654144647214707e-14
  0
LINE
  5
207BE
330
4F
100
AcDbEntity
  8
0
100
AcDbLine
 10
108.2
 20
44.299999999999706
 30
1.5654144647214707e-14
 11
98.4666666666667
 21
44.299999999999706
 31
1.5654144647214707e-14
  0
LINE
  5
207BF
330
4F
100
AcDbEntity
  8
0
100
AcDbLine
 10
108.2
 20
53.7666666666663
 30
1.5654144647214707e-14
 11
108.2
 21
44.299999999999706
 31
1.5654144647214707e-14
  0
LINE
  5
207C0
330
4F
100
AcDbEntity
  8
0
100
AcDbLine
 10
53.20000000000002
 20
57.133333333333
 30
2.275957200481571e-14
 11
41.466666666666725
 21
57.133333333333
 31
2.275957200481571e-14
  0
LINE
  5
207C1
330
4F
100
AcDbEntity
  8
0
100
AcDbLine
 10
41.466666666666725
 20
57.133333333333
 30
2.275957200481571e-14
 11
41.466666666666725
 21
52.333333333333
 31
2.275957200481571e-14
  0
LINE
  5
207C2
330
4F
100
AcDbEntity
  8
0
100
AcDbLine
 10
53.20000000000002
 20
52.333333333333
 30
2.275957200481571e-14
 11
41.466666666666725
 21
52.333333333333
 31
2.275957200481571e-14
  0
LINE
  5
207C3
330
4F
100
AcDbEntity
  8
0
100
AcDbLine
 10
53.2
 20
57.133333333333
 30
2.275957200481571e-14
 11
53.2
 21
52.333333333333
 31
2.275957200481571e-14
  0
LINE
  5
207C4
330
4F
100
AcDbEntity
  8
0
100
AcDbLine
 10
69.5333333333333
 20
53.7666666666663
 30
2.275957200481571e-14
 11
59.8
 21
53.7666666666663
 31
2.275957200481571e-14
  0
LINE
  5
207C5
330
4F
100
AcDbEntity
  8
0
100
AcDbLine
 10
59.8
 20
53.7666666666663
 30
2.275957200481571e-14
 11
59.8
 21
44.299999999999706
 31
2.275957200481571e-14
  0
LINE
  5
207C6
330
4F
100
AcDbEntity
  8
0
100
AcDbLine
 10
69.5333333333333
 20
44.299999999999706
 30
2.275957200481571e-14
 11
59.8
 21
44.299999999999706
 31
2.275957200481571e-14
  0
LINE
  5
207C7
330
4F
100
AcDbEntity
  8
0
100
AcDbLine
 10
69.5333333333333
 20
53.7666666666663
 30
2.275957200481571e-14
 11
69.5333333333333
 21
44.299999999999706
 31
2.275957200481571e-14
  0
LINE
  5
207C8
330
4F
100
AcDbEntity
  8
0
100
AcDbLine
 10
34.86666666666672
 20
53.7666666666663
 30
2.275957200481571e-14
 11
25.13333333333331
 21
53.7666666666663
 31
2.275957200481571e-14
  0
LINE
  5
207C9
330
4F
100
AcDbEntity
  8
0
100
AcDbLine
 10
25.13333333333331
 20
53.7666666666663
 30
2.986499936241671e-14
 11
25.13333333333331
 21
44.299999999999706
 31
2.986499936241671e-14
  0
LINE
  5
207CA
330
4F
100
AcDbEntity
  8
0
100
AcDbLine
 10
34.86666666666672
 20
44.299999999999706
 30
2.275957200481571e-14
 11
25.13333333333331
 21
44.299999999999706
 31
2.275957200481571e-14
  0
LINE
  5
207CB
330
4F
100
AcDbEntity
  8
0
100
AcDbLine
 10
34.86666666666672
 20
53.7666666666663
 30
2.275957200481571e-14
 11
34.86666666666672
 21
44.299999999999706
 31
2.275957200481571e-14
  0
LINE
  5
207CC
330
4F
100
AcDbEntity
  8
0
100
AcDbLine
 10
115.8
 20
53.7666666666663
 30
1.6860190492417627e-14
 11
125.5333333333333
 21
53.7666666666663
 31
1.444809880201179e-14
  0
LINE
  5
207CD
330
4F
100
AcDbEntity
  8
0
100
AcDbLine
 10
115.80000000000001
 20
53.7666666666663
 30
1.5654144647214707e-14
 11
115.80000000000001
 21
44.299999999999706
 31
1.5654144647214707e-14
  0
LINE
  5
207CE
330
4F
100
AcDbEntity
  8
0
100
AcDbLine
 10
115.8
 20
44.299999999999706
 30
1.6860190492417627e-14
 11
125.5333333333333
 21
44.299999999999706
 31
1.444809880201179e-14
  0
LINE
  5
207CF
330
4F
100
AcDbEntity
  8
0
100
AcDbLine
 10
125.5333333333333
 20
53.7666666666663
 30
1.5654144647214707e-14
 11
125.5333333333333
 21
44.299999999999706
 31
1.5654144647214707e-14
  0
LINE
  5
207D0
330
4F
100
AcDbEntity
  8
0
100
AcDbLine
 10
154.46666666666673
 20
53.7666666666663
 30
9.75476313481661e-15
 11
164.20000000000002
 21
53.7666666666663
 31
7.342671444410774e-15
  0
LINE
  5
207D1
330
4F
100
AcDbEntity
  8
0
100
AcDbLine
 10
154.4666666666667
 20
53.7666666666663
 30
8.548717289613705e-15
 11
154.4666666666667
 21
44.299999999999706
 31
8.548717289613705e-15
  0
LINE
  5
207D2
330
4F
100
AcDbEntity
  8
0
100
AcDbLine
 10
154.46666666666673
 20
44.299999999999706
 30
9.75476313481661e-15
 11
164.20000000000002
 21
44.299999999999706
 31
7.342671444410774e-15
  0
LINE
  5
207D3
330
4F
100
AcDbEntity
  8
0
100
AcDbLine
 10
164.2
 20
53.7666666666663
 30
8.548717289613705e-15
 11
164.2
 21
44.299999999999706
 31
8.548717289613705e-15
  0
LINE
  5
207D4
330
4F
100
AcDbEntity
  8
0
100
AcDbLine
 10
189.1333333333333
 20
53.7666666666663
 30
9.754763134816637e-15
 11
198.8666666666667
 21
53.7666666666663
 31
7.342671444410774e-15
  0
LINE
  5
207D5
330
4F
100
AcDbEntity
  8
0
100
AcDbLine
 10
189.13333333333333
 20
53.7666666666663
 30
8.548717289613705e-15
 11
189.13333333333333
 21
44.299999999999706
 31
8.548717289613705e-15
  0
LINE
  5
207D6
330
4F
100
AcDbEntity
  8
0
100
AcDbLine
 10
189.1333333333333
 20
44.299999999999706
 30
9.754763134816637e-15
 11
198.8666666666667
 21
44.299999999999706
 31
7.342671444410774e-15
  0
LINE
  5
207D7
330
4F
100
AcDbEntity
  8
0
100
AcDbLine
 10
198.86666666666673
 20
53.7666666666663
 30
1.4432899320127035e-15
 11
198.86666666666673
 21
44.299999999999706
 31
1.4432899320127035e-15
  0
LINE
  5
207D8
330
4F
100
AcDbEntity
  8
0
100
AcDbLine
 10
170.8
 20
39.133333333333006
 30
1.0002580774241895e-14
 11
182.5333333333333
 21
39.133333333333006
 31
7.094853804985544e-15
  0
LINE
  5
207D9
330
4F
100
AcDbEntity
  8
0
100
AcDbLine
 10
170.8
 20
39.133333333333006
 30
8.548717289613705e-15
 11
170.8
 21
34.333333333333
 31
8.548717289613705e-15
  0
LINE
  5
207DA
330
4F
100
AcDbEntity
  8
0
100
AcDbLine
 10
170.8
 20
34.333333333333
 30
1.0002580774241895e-14
 11
182.5333333333333
 21
34.333333333333
 31
7.094853804985544e-15
  0
LINE
  5
207DB
330
4F
100
AcDbEntity
  8
0
100
AcDbLine
 10
182.5333333333333
 20
39.133333333333006
 30
8.548717289613705e-15
 11
182.5333333333333
 21
34.333333333333
 31
8.548717289613705e-15
  0
LINE
  5
207DC
330
4F
100
AcDbEntity
  8
0
100
AcDbLine
 10
108.2
 20
35.766666666666296
 30
1.5654144647214707e-14
 11
98.46666666666671
 21
35.766666666666296
 31
1.5654144647214707e-14
  0
LINE
  5
207DD
330
4F
100
AcDbEntity
  8
0
100
AcDbLine
 10
98.4666666666667
 20
35.766666666666296
 30
1.5654144647214707e-14
 11
98.4666666666667
 21
26.2999999999997
 31
1.5654144647214707e-14
  0
LINE
  5
207DE
330
4F
100
AcDbEntity
  8
0
100
AcDbLine
 10
108.2
 20
26.2999999999997
 30
1.5654144647214707e-14
 11
98.46666666666671
 21
26.2999999999997
 31
1.5654144647214707e-14
  0
LINE
  5
207DF
330
4F
100
AcDbEntity
  8
0
100
AcDbLine
 10
108.2
 20
35.766666666666296
 30
1.5654144647214707e-14
 11
108.2
 21
26.2999999999997
 31
1.5654144647214707e-14
  0
LINE
  5
207E0
330
4F
100
AcDbEntity
  8
0
100
AcDbLine
 10
53.20000000000002
 20
39.133333333333006
 30
2.275957200481571e-14
 11
41.46666666666661
 21
39.133333333333006
 31
2.275957200481571e-14
  0
LINE
  5
207E1
330
4F
100
AcDbEntity
  8
0
100
AcDbLine
 10
41.46666666666661
 20
39.133333333333006
 30
2.275957200481571e-14
 11
41.46666666666661
 21
34.333333333333
 31
2.275957200481571e-14
  0
LINE
  5
207E2
330
4F
100
AcDbEntity
  8
0
100
AcDbLine
 10
53.20000000000002
 20
34.333333333333
 30
2.275957200481571e-14
 11
41.46666666666661
 21
34.333333333333
 31
2.275957200481571e-14
  0
LINE
  5
207E3
330
4F
100
AcDbEntity
  8
0
100
AcDbLine
 10
53.2
 20
39.133333333333006
 30
2.275957200481571e-14
 11
53.2
 21
34.333333333333
 31
2.275957200481571e-14
  0
LINE
  5
207E4
330
4F
100
AcDbEntity
  8
0
100
AcDbLine
 10
69.5333333333333
 20
35.766666666666296
 30
2.275957200481571e-14
 11
59.8
 21
35.766666666666296
 31
2.275957200481571e-14
  0
LINE
  5
207E5
330
4F
100
AcDbEntity
  8
0
100
AcDbLine
 10
59.8
 20
35.766666666666296
 30
2.275957200481571e-14
 11
59.8
 21
26.2999999999997
 31
2.275957200481571e-14
  0
LINE
  5
207E6
330
4F
100
AcDbEntity
  8
0
100
AcDbLine
 10
69.5333333333333
 20
26.2999999999997
 30
2.275957200481571e-14
 11
59.8
 21
26.2999999999997
 31
2.275957200481571e-14
  0
LINE
  5
207E7
330
4F
100
AcDbEntity
  8
0
100
AcDbLine
 10
69.5333333333333
 20
35.766666666666296
 30
2.275957200481571e-14
 11
69.5333333333333
 21
26.2999999999997
 31
2.275957200481571e-14
  0
LINE
  5
207E8
330
4F
100
AcDbEntity
  8
0
100
AcDbLine
 10
34.86666666666662
 20
35.766666666666296
 30
2.275957200481571e-14
 11
25.13333333333331
 21
35.766666666666296
 31
2.275957200481571e-14
  0
LINE
  5
207E9
330
4F
100
AcDbEntity
  8
0
100
AcDbLine
 10
25.13333333333331
 20
35.766666666666296
 30
2.986499936241671e-14
 11
25.13333333333331
 21
26.2999999999997
 31
2.986499936241671e-14
  0
LINE
  5
207EA
330
4F
100
AcDbEntity
  8
0
100
AcDbLine
 10
34.86666666666662
 20
26.2999999999997
 30
2.275957200481571e-14
 11
25.13333333333331
 21
26.2999999999997
 31
2.275957200481571e-14
  0
LINE
  5
207EB
330
4F
100
AcDbEntity
  8
0
100
AcDbLine
 10
34.86666666666662
 20
35.766666666666296
 30
2.275957200481571e-14
 11
34.86666666666662
 21
26.2999999999997
 31
2.275957200481571e-14
  0
LINE
  5
207EC
330
4F
100
AcDbEntity
  8
0
100
AcDbLine
 10
115.80000000000001
 20
35.766666666666296
 30
1.6860190492417624e-14
 11
125.5333333333333
 21
35.766666666666296
 31
1.444809880201179e-14
  0
LINE
  5
207ED
330
4F
100
AcDbEntity
  8
0
100
AcDbLine
 10
115.80000000000001
 20
35.766666666666296
 30
1.5654144647214707e-14
 11
115.80000000000001
 21
26.2999999999997
 31
1.5654144647214707e-14
  0
LINE
  5
207EE
330
4F
100
AcDbEntity
  8
0
100
AcDbLine
 10
115.80000000000001
 20
26.2999999999997
 30
1.6860190492417624e-14
 11
125.5333333333333
 21
26.2999999999997
 31
1.444809880201179e-14
  0
LINE
  5
207EF
330
4F
100
AcDbEntity
  8
0
100
AcDbLine
 10
125.5333333333333
 20
35.766666666666296
 30
1.5654144647214707e-14
 11
125.5333333333333
 21
26.2999999999997
 31
1.5654144647214707e-14
  0
LINE
  5
207F0
330
4F
100
AcDbEntity
  8
0
100
AcDbLine
 10
154.46666666666673
 20
35.766666666666296
 30
9.75476313481661e-15
 11
164.20000000000002
 21
35.766666666666296
 31
7.342671444410774e-15
  0
LINE
  5
207F1
330
4F
100
AcDbEntity
  8
0
100
AcDbLine
 10
154.4666666666667
 20
35.766666666666296
 30
8.548717289613705e-15
 11
154.4666666666667
 21
26.2999999999997
 31
8.548717289613705e-15
  0
LINE
  5
207F2
330
4F
100
AcDbEntity
  8
0
100
AcDbLine
 10
154.46666666666673
 20
26.2999999999997
 30
9.75476313481661e-15
 11
164.20000000000002
 21
26.2999999999997
 31
7.342671444410774e-15
  0
LINE
  5
207F3
330
4F
100
AcDbEntity
  8
0
100
AcDbLine
 10
164.2
 20
35.766666666666296
 30
8.548717289613705e-15
 11
164.2
 21
26.2999999999997
 31
8.548717289613705e-15
  0
LINE
  5
207F4
330
4F
100
AcDbEntity
  8
0
100
AcDbLine
 10
189.1333333333333
 20
35.766666666666296
 30
9.754763134816637e-15
 11
198.8666666666667
 21
35.766666666666296
 31
7.342671444410774e-15
  0
LINE
  5
207F5
330
4F
100
AcDbEntity
  8
0
100
AcDbLine
 10
189.13333333333333
 20
35.766666666666296
 30
8.548717289613705e-15
 11
189.13333333333333
 21
26.2999999999997
 31
8.548717289613705e-15
  0
LINE
  5
207F6
330
4F
100
AcDbEntity
  8
0
100
AcDbLine
 10
189.1333333333333
 20
26.2999999999997
 30
9.754763134816637e-15
 11
198.8666666666667
 21
26.2999999999997
 31
7.342671444410774e-15
  0
LINE
  5
207F7
330
4F
100
AcDbEntity
  8
0
100
AcDbLine
 10
198.86666666666673
 20
35.766666666666296
 30
1.4432899320127035e-15
 11
198.86666666666673
 21
26.2999999999997
 31
1.4432899320127035e-15
  0
LINE
  5
207F8
330
4F
100
AcDbEntity
  8
0
100
AcDbLine
 10
170.8
 20
21.133333333333013
 30
1.0002580774241895e-14
 11
182.5333333333333
 21
21.133333333333013
 31
7.094853804985544e-15
  0
LINE
  5
207F9
330
4F
100
AcDbEntity
  8
0
100
AcDbLine
 10
170.8
 20
21.133333333333013
 30
8.548717289613705e-15
 11
170.8
 21
16.333333333333
 31
8.548717289613705e-15
  0
LINE
  5
207FA
330
4F
100
AcDbEntity
  8
0
100
AcDbLine
 10
170.8
 20
16.333333333333
 30
1.0002580774241895e-14
 11
182.5333333333333
 21
16.333333333333
 31
7.094853804985544e-15
  0
LINE
  5
207FB
330
4F
100
AcDbEntity
  8
0
100
AcDbLine
 10
182.5333333333333
 20
21.133333333333013
 30
8.548717289613705e-15
 11
182.5333333333333
 21
16.333333333333
 31
8.548717289613705e-15
  0
LINE
  5
207FC
330
4F
100
AcDbEntity
  8
0
100
AcDbLine
 10
108.2
 20
17.766666666666296
 30
1.5654144647214707e-14
 11
98.46666666666671
 21
17.766666666666296
 31
1.5654144647214707e-14
  0
LINE
  5
207FD
330
4F
100
AcDbEntity
  8
0
100
AcDbLine
 10
98.4666666666667
 20
17.766666666666296
 30
1.5654144647214707e-14
 11
98.4666666666667
 21
8.299999999999699
 31
1.5654144647214707e-14
  0
LINE
  5
207FE
330
4F
100
AcDbEntity
  8
0
100
AcDbLine
 10
108.2
 20
8.299999999999699
 30
1.5654144647214707e-14
 11
98.46666666666671
 21
8.299999999999699
 31
1.5654144647214707e-14
  0
LINE
  5
207FF
330
4F
100
AcDbEntity
  8
0
100
AcDbLine
 10
108.2
 20
17.766666666666296
 30
1.5654144647214707e-14
 11
108.2
 21
8.299999999999699
 31
1.5654144647214707e-14
  0
LINE
  5
20800
330
4F
100
AcDbEntity
  8
0
100
AcDbLine
 10
53.20000000000002
 20
21.133333333333013
 30
2.275957200481571e-14
 11
41.46666666666661
 21
21.133333333333013
 31
2.275957200481571e-14
  0
LINE
  5
20801
330
4F
100
AcDbEntity
  8
0
100
AcDbLine
 10
41.46666666666661
 20
21.133333333333013
 30
2.275957200481571e-14
 11
41.46666666666661
 21
16.333333333333
 31
2.275957200481571e-14
  0
LINE
  5
20802
330
4F
100
AcDbEntity
  8
0
100
AcDbLine
 10
53.20000000000002
 20
16.333333333333
 30
2.275957200481571e-14
 11
41.46666666666661
 21
16.333333333333
 31
2.275957200481571e-14
  0
LINE
  5
20803
330
4F
100
AcDbEntity
  8
0
100
AcDbLine
 10
53.2
 20
21.133333333333013
 30
2.275957200481571e-14
 11
53.2
 21
16.333333333333
 31
2.275957200481571e-14
  0
LINE
  5
20804
330
4F
100
AcDbEntity
  8
0
100
AcDbLine
 10
69.5333333333333
 20
17.766666666666296
 30
2.275957200481571e-14
 11
59.8
 21
17.766666666666296
 31
2.275957200481571e-14
  0
LINE
  5
20805
330
4F
100
AcDbEntity
  8
0
100
AcDbLine
 10
59.8
 20
17.766666666666296
 30
2.275957200481571e-14
 11
59.8
 21
8.299999999999699
 31
2.275957200481571e-14
  0
LINE
  5
20806
330
4F
100
AcDbEntity
  8
0
100
AcDbLine
 10
69.5333333333333
 20
8.299999999999699
 30
2.275957200481571e-14
 11
59.8
 21
8.299999999999699
 31
2.275957200481571e-14
  0
LINE
  5
20807
330
4F
100
AcDbEntity
  8
0
100
AcDbLine
 10
69.5333333333333
 20
17.766666666666296
 30
2.275957200481571e-14
 11
69.5333333333333
 21
8.299999999999699
 31
2.275957200481571e-14
  0
LINE
  5
20808
330
4F
100
AcDbEntity
  8
0
100
AcDbLine
 10
34.86666666666662
 20
17.766666666666296
 30
2.275957200481571e-14
 11
25.13333333333331
 21
17.766666666666296
 31
2.275957200481571e-14
  0
LINE
  5
20809
330
4F
100
AcDbEntity
  8
0
100
AcDbLine
 10
25.13333333333331
 20
17.766666666666296
 30
2.986499936241671e-14
 11
25.13333333333331
 21
8.299999999999699
 31
2.986499936241671e-14
  0
LINE
  5
2080A
330
4F
100
AcDbEntity
  8
0
100
AcDbLine
 10
34.86666666666662
 20
8.299999999999699
 30
2.275957200481571e-14
 11
25.13333333333331
 21
8.299999999999699
 31
2.275957200481571e-14
  0
LINE
  5
2080B
330
4F
100
AcDbEntity
  8
0
100
AcDbLine
 10
34.86666666666662
 20
17.766666666666296
 30
2.275957200481571e-14
 11
34.86666666666662
 21
8.299999999999699
 31
2.275957200481571e-14
  0
LINE
  5
2080C
330
4F
100
AcDbEntity
  8
0
100
AcDbLine
 10
115.80000000000001
 20
17.766666666666296
 30
1.6860190492417624e-14
 11
125.5333333333333
 21
17.766666666666296
 31
1.444809880201179e-14
  0
LINE
  5
2080D
330
4F
100
AcDbEntity
  8
0
100
AcDbLine
 10
115.80000000000001
 20
17.766666666666296
 30
1.5654144647214707e-14
 11
115.80000000000001
 21
8.299999999999699
 31
1.5654144647214707e-14
  0
LINE
  5
2080E
330
4F
100
AcDbEntity
  8
0
100
AcDbLine
 10
115.80000000000001
 20
8.299999999999699
 30
1.6860190492417624e-14
 11
125.5333333333333
 21
8.299999999999699
 31
1.444809880201179e-14
  0
LINE
  5
2080F
330
4F
100
AcDbEntity
  8
0
100
AcDbLine
 10
125.5333333333333
 20
17.766666666666296
 30
1.5654144647214707e-14
 11
125.5333333333333
 21
8.299999999999699
 31
1.5654144647214707e-14
  0
LINE
  5
20810
330
4F
100
AcDbEntity
  8
0
100
AcDbLine
 10
154.46666666666673
 20
17.766666666666296
 30
9.75476313481661e-15
 11
164.20000000000002
 21
17.766666666666296
 31
7.342671444410774e-15
  0
LINE
  5
20811
330
4F
100
AcDbEntity
  8
0
100
AcDbLine
 10
154.4666666666667
 20
17.766666666666296
 30
8.548717289613705e-15
 11
154.4666666666667
 21
8.299999999999699
 31
8.548717289613705e-15
  0
LINE
  5
20812
330
4F
100
AcDbEntity
  8
0
100
AcDbLine
 10
154.46666666666673
 20
8.299999999999699
 30
9.75476313481661e-15
 11
164.20000000000002
 21
8.299999999999699
 31
7.342671444410774e-15
  0
LINE
  5
20813
330
4F
100
AcDbEntity
  8
0
100
AcDbLine
 10
164.2
 20
17.766666666666296
 30
8.548717289613705e-15
 11
164.2
 21
8.299999999999699
 31
8.548717289613705e-15
  0
LINE
  5
20814
330
4F
100
AcDbEntity
  8
0
100
AcDbLine
 10
189.1333333333333
 20
17.766666666666296
 30
9.754763134816637e-15
 11
198.8666666666667
 21
17.766666666666296
 31
7.342671444410774e-15
  0
LINE
  5
20815
330
4F
100
AcDbEntity
  8
0
100
AcDbLine
 10
189.13333333333333
 20
17.766666666666296
 30
8.548717289613705e-15
 11
189.13333333333333
 21
8.299999999999699
 31
8.548717289613705e-15
  0
LINE
  5
20816
330
4F
100
AcDbEntity
  8
0
100
AcDbLine
 10
189.1333333333333
 20
8.299999999999699
 30
9.754763134816637e-15
 11
198.8666666666667
 21
8.299999999999699
 31
7.342671444410774e-15
  0
LINE
  5
20817
330
4F
100
AcDbEntity
  8
0
100
AcDbLine
 10
198.86666666666673
 20
17.766666666666296
 30
1.4432899320127035e-15
 11
198.86666666666673
 21
8.299999999999699
 31
1.4432899320127035e-15
  0
LINE
  5
20818
330
4F
100
AcDbEntity
  8
0
100
AcDbLine
 10
219.20000000000002
 20
93.26666666666634
 30
1.4432899320127035e-15
 11
219.20000000000002
 21
80.2999999999996
 31
1.4432899320127035e-15
  0
LINE
  5
20819
330
4F
100
AcDbEntity
  8
0
100
AcDbLine
 10
219.20000000000002
 20
93.26666666666634
 30
9.153006835704428e-16
 11
214.938888888889
 21
93.26666666666634
 31
1.9712791804547106e-15
  0
LINE
  5
2081A
330
4F
100
AcDbEntity
  8
0
100
AcDbLine
 10
214.938888888889
 20
93.26666666666634
 30
1.4432899320127035e-15
 11
214.938888888889
 21
89.7666666666663
 31
1.4432899320127035e-15
  0
LINE
  5
2081B
330
4F
100
AcDbEntity
  8
0
100
AcDbLine
 10
207.46666666666673
 20
89.76666666666631
 30
2.3691641681987376e-15
 11
214.93888888888904
 21
89.76666666666631
 31
5.174156958266517e-16
  0
LINE
  5
2081C
330
4F
100
AcDbEntity
  8
0
100
AcDbLine
 10
207.4666666666667
 20
89.7666666666663
 30
1.4432899320127035e-15
 11
207.4666666666667
 21
80.2999999999996
 31
1.4432899320127035e-15
  0
LINE
  5
2081D
330
4F
100
AcDbEntity
  8
0
100
AcDbLine
 10
207.46666666666673
 20
80.2999999999996
 30
2.8971534166407943e-15
 11
219.20000000000005
 21
80.2999999999996
 31
-1.0573552615559732e-17
  0
LINE
  5
2081E
330
4F
100
AcDbEntity
  8
0
100
AcDbLine
 10
219.20000000000002
 20
39.2666666666663
 30
1.4432899320127035e-15
 11
219.20000000000002
 21
26.2999999999997
 31
1.4432899320127035e-15
  0
LINE
  5
2081F
330
4F
100
AcDbEntity
  8
0
100
AcDbLine
 10
219.20000000000002
 20
39.2666666666663
 30
9.153006835704428e-16
 11
214.938888888889
 21
39.2666666666663
 31
1.9712791804547106e-15
  0
LINE
  5
20820
330
4F
100
AcDbEntity
  8
0
100
AcDbLine
 10
214.938888888889
 20
39.2666666666663
 30
1.4432899320127035e-15
 11
214.938888888889
 21
35.766666666666296
 31
1.4432899320127035e-15
  0
LINE
  5
20821
330
4F
100
AcDbEntity
  8
0
100
AcDbLine
 10
207.46666666666673
 20
35.766666666666296
 30
2.3691641681987376e-15
 11
214.93888888888904
 21
35.766666666666296
 31
5.174156958266517e-16
  0
LINE
  5
20822
330
4F
100
AcDbEntity
  8
0
100
AcDbLine
 10
207.4666666666667
 20
35.766666666666296
 30
1.4432899320127035e-15
 11
207.4666666666667
 21
26.2999999999997
 31
1.4432899320127035e-15
  0
LINE
  5
20823
330
4F
100
AcDbEntity
  8
0
100
AcDbLine
 10
207.46666666666673
 20
26.2999999999997
 30
2.8971534166407943e-15
 11
219.20000000000005
 21
26.2999999999997
 31
-1.0573552615559732e-17
  0
LINE
  5
20824
330
4F
100
AcDbEntity
  8
0
100
AcDbLine
 10
219.20000000000002
 20
57.2666666666664
 30
1.4432899320127035e-15
 11
219.20000000000002
 21
44.299999999999706
 31
1.4432899320127035e-15
  0
LINE
  5
20825
330
4F
100
AcDbEntity
  8
0
100
AcDbLine
 10
219.20000000000002
 20
57.2666666666664
 30
9.153006835704428e-16
 11
214.938888888889
 21
57.2666666666664
 31
1.9712791804547106e-15
  0
LINE
  5
20826
330
4F
100
AcDbEntity
  8
0
100
AcDbLine
 10
214.938888888889
 20
57.2666666666664
 30
1.4432899320127035e-15
 11
214.938888888889
 21
53.7666666666663
 31
1.4432899320127035e-15
  0
LINE
  5
20827
330
4F
100
AcDbEntity
  8
0
100
AcDbLine
 10
207.46666666666673
 20
53.7666666666663
 30
2.3691641681987376e-15
 11
214.93888888888904
 21
53.7666666666663
 31
5.174156958266517e-16
  0
LINE
  5
20828
330
4F
100
AcDbEntity
  8
0
100
AcDbLine
 10
207.4666666666667
 20
53.7666666666663
 30
1.4432899320127035e-15
 11
207.4666666666667
 21
44.299999999999706
 31
1.4432899320127035e-15
  0
LINE
  5
20829
330
4F
100
AcDbEntity
  8
0
100
AcDbLine
 10
207.46666666666673
 20
44.299999999999706
 30
2.8971534166407943e-15
 11
219.20000000000005
 21
44.299999999999706
 31
-1.0573552615559732e-17
  0
LINE
  5
2082A
330
4F
100
AcDbEntity
  8
0
100
AcDbLine
 10
219.20000000000002
 20
75.26666666666631
 30
1.4432899320127035e-15
 11
219.20000000000002
 21
62.2999999999996
 31
1.4432899320127035e-15
  0
LINE
  5
2082B
330
4F
100
AcDbEntity
  8
0
100
AcDbLine
 10
219.20000000000002
 20
75.26666666666631
 30
9.153006835704428e-16
 11
214.938888888889
 21
75.26666666666631
 31
1.9712791804547106e-15
  0
LINE
  5
2082C
330
4F
100
AcDbEntity
  8
0
100
AcDbLine
 10
214.938888888889
 20
75.2666666666663
 30
1.4432899320127035e-15
 11
214.938888888889
 21
71.7666666666663
 31
1.4432899320127035e-15
  0
LINE
  5
2082D
330
4F
100
AcDbEntity
  8
0
100
AcDbLine
 10
207.46666666666673
 20
71.76666666666631
 30
2.3691641681987376e-15
 11
214.93888888888904
 21
71.76666666666631
 31
5.174156958266517e-16
  0
LINE
  5
2082E
330
4F
100
AcDbEntity
  8
0
100
AcDbLine
 10
207.4666666666667
 20
71.76666666666631
 30
1.4432899320127035e-15
 11
207.4666666666667
 21
62.2999999999996
 31
1.4432899320127035e-15
  0
LINE
  5
2082F
330
4F
100
AcDbEntity
  8
0
100
AcDbLine
 10
207.46666666666673
 20
62.2999999999996
 30
2.8971534166407943e-15
 11
219.20000000000005
 21
62.2999999999996
 31
-1.0573552615559732e-17
  0
LINE
  5
20830
330
4F
100
AcDbEntity
  8
0
100
AcDbLine
 10
4.800000000000011
 20
93.26666666666634
 30
2.986499936241671e-14
 11
4.800000000000011
 21
80.2999999999996
 31
2.986499936241671e-14
  0
LINE
  5
20831
330
4F
100
AcDbEntity
  8
0
100
AcDbLine
 10
16.533333333333317
 20
80.2999999999996
 30
2.986499936241671e-14
 11
4.800000000000011
 21
80.2999999999996
 31
2.986499936241671e-14
  0
LINE
  5
20832
330
4F
100
AcDbEntity
  8
0
100
AcDbLine
 10
16.533333333333317
 20
89.7666666666663
 30
2.986499936241671e-14
 11
16.533333333333317
 21
80.2999999999996
 31
2.986499936241671e-14
  0
LINE
  5
20833
330
4F
100
AcDbEntity
  8
0
100
AcDbLine
 10
16.533333333333317
 20
89.76666666666631
 30
2.986499936241671e-14
 11
9.061111111111018
 21
89.76666666666631
 31
2.986499936241671e-14
  0
LINE
  5
20834
330
4F
100
AcDbEntity
  8
0
100
AcDbLine
 10
9.061111111111018
 20
93.26666666666634
 30
2.986499936241671e-14
 11
9.061111111111018
 21
89.7666666666663
 31
2.986499936241671e-14
  0
LINE
  5
20835
330
4F
100
AcDbEntity
  8
0
100
AcDbLine
 10
4.800000000000011
 20
93.26666666666634
 30
2.986499936241671e-14
 11
9.061111111111018
 21
93.26666666666634
 31
2.986499936241671e-14
  0
LINE
  5
20836
330
4F
100
AcDbEntity
  8
0
100
AcDbLine
 10
4.800000000000011
 20
75.26666666666631
 30
2.986499936241671e-14
 11
4.800000000000011
 21
62.2999999999996
 31
2.986499936241671e-14
  0
LINE
  5
20837
330
4F
100
AcDbEntity
  8
0
100
AcDbLine
 10
16.533333333333317
 20
62.2999999999996
 30
2.986499936241671e-14
 11
4.800000000000011
 21
62.2999999999996
 31
2.986499936241671e-14
  0
LINE
  5
20838
330
4F
100
AcDbEntity
  8
0
100
AcDbLine
 10
16.533333333333317
 20
71.76666666666631
 30
2.986499936241671e-14
 11
16.533333333333317
 21
62.2999999999996
 31
2.986499936241671e-14
  0
LINE
  5
20839
330
4F
100
AcDbEntity
  8
0
100
AcDbLine
 10
16.533333333333317
 20
71.76666666666631
 30
2.986499936241671e-14
 11
9.061111111111018
 21
71.76666666666631
 31
2.986499936241671e-14
  0
LINE
  5
2083A
330
4F
100
AcDbEntity
  8
0
100
AcDbLine
 10
9.061111111111018
 20
75.2666666666663
 30
2.986499936241671e-14
 11
9.061111111111018
 21
71.7666666666663
 31
2.986499936241671e-14
  0
LINE
  5
2083B
330
4F
100
AcDbEntity
  8
0
100
AcDbLine
 10
4.800000000000011
 20
75.26666666666631
 30
2.986499936241671e-14
 11
9.061111111111018
 21
75.26666666666631
 31
2.986499936241671e-14
  0
LINE
  5
2083C
330
4F
100
AcDbEntity
  8
0
100
AcDbLine
 10
4.800000000000011
 20
57.2666666666664
 30
2.986499936241671e-14
 11
4.800000000000011
 21
44.299999999999706
 31
2.986499936241671e-14
  0
LINE
  5
2083D
330
4F
100
AcDbEntity
  8
0
100
AcDbLine
 10
16.533333333333317
 20
44.299999999999706
 30
2.986499936241671e-14
 11
4.800000000000011
 21
44.299999999999706
 31
2.986499936241671e-14
  0
LINE
  5
2083E
330
4F
100
AcDbEntity
  8
0
100
AcDbLine
 10
16.533333333333317
 20
53.7666666666663
 30
2.986499936241671e-14
 11
16.533333333333317
 21
44.299999999999706
 31
2.986499936241671e-14
  0
LINE
  5
2083F
330
4F
100
AcDbEntity
  8
0
100
AcDbLine
 10
16.533333333333317
 20
53.7666666666663
 30
2.986499936241671e-14
 11
9.061111111111018
 21
53.7666666666663
 31
2.986499936241671e-14
  0
LINE
  5
20840
330
4F
100
AcDbEntity
  8
0
100
AcDbLine
 10
9.061111111111018
 20
57.2666666666664
 30
2.986499936241671e-14
 11
9.061111111111018
 21
53.7666666666663
 31
2.986499936241671e-14
  0
LINE
  5
20841
330
4F
100
AcDbEntity
  8
0
100
AcDbLine
 10
4.800000000000011
 20
57.2666666666664
 30
2.986499936241671e-14
 11
9.061111111111018
 21
57.2666666666664
 31
2.986499936241671e-14
  0
LINE
  5
20842
330
4F
100
AcDbEntity
  8
0
100
AcDbLine
 10
4.800000000000011
 20
39.2666666666663
 30
2.986499936241671e-14
 11
4.800000000000011
 21
26.2999999999997
 31
2.986499936241671e-14
  0
LINE
  5
20843
330
4F
100
AcDbEntity
  8
0
100
AcDbLine
 10
16.533333333333317
 20
26.2999999999997
 30
2.986499936241671e-14
 11
4.800000000000011
 21
26.2999999999997
 31
2.986499936241671e-14
  0
LINE
  5
20844
330
4F
100
AcDbEntity
  8
0
100
AcDbLine
 10
16.533333333333317
 20
35.766666666666296
 30
2.986499936241671e-14
 11
16.533333333333317
 21
26.2999999999997
 31
2.986499936241671e-14
  0
LINE
  5
20845
330
4F
100
AcDbEntity
  8
0
100
AcDbLine
 10
16.533333333333317
 20
35.766666666666296
 30
2.986499936241671e-14
 11
9.061111111111018
 21
35.766666666666296
 31
2.986499936241671e-14
  0
LINE
  5
20846
330
4F
100
AcDbEntity
  8
0
100
AcDbLine
 10
9.061111111111018
 20
39.2666666666663
 30
2.986499936241671e-14
 11
9.061111111111018
 21
35.766666666666296
 31
2.986499936241671e-14
  0
LINE
  5
20847
330
4F
100
AcDbEntity
  8
0
100
AcDbLine
 10
4.800000000000011
 20
39.2666666666663
 30
2.986499936241671e-14
 11
9.061111111111018
 21
39.2666666666663
 31
2.986499936241671e-14
  0
LINE
  5
20848
330
4F
100
AcDbEntity
  8
0
100
AcDbLine
 10
4.800000000000011
 20
21.266666666666296
 30
2.986499936241671e-14
 11
4.800000000000011
 21
8.299999999999699
 31
2.986499936241671e-14
  0
LINE
  5
20849
330
4F
100
AcDbEntity
  8
0
100
AcDbLine
 10
16.533333333333317
 20
8.299999999999699
 30
2.986499936241671e-14
 11
4.800000000000011
 21
8.299999999999699
 31
2.986499936241671e-14
  0
LINE
  5
2084A
330
4F
100
AcDbEntity
  8
0
100
AcDbLine
 10
16.533333333333317
 20
17.766666666666296
 30
2.986499936241671e-14
 11
16.533333333333317
 21
8.299999999999699
 31
2.986499936241671e-14
  0
LINE
  5
2084B
330
4F
100
AcDbEntity
  8
0
100
AcDbLine
 10
16.533333333333317
 20
17.766666666666296
 30
2.986499936241671e-14
 11
9.061111111111018
 21
17.766666666666296
 31
2.986499936241671e-14
  0
LINE
  5
2084C
330
4F
100
AcDbEntity
  8
0
100
AcDbLine
 10
9.061111111111018
 20
21.266666666666296
 30
2.986499936241671e-14
 11
9.061111111111018
 21
17.766666666666296
 31
2.986499936241671e-14
  0
LINE
  5
2084D
330
4F
100
AcDbEntity
  8
0
100
AcDbLine
 10
4.800000000000011
 20
21.266666666666296
 30
2.986499936241671e-14
 11
9.061111111111018
 21
21.266666666666296
 31
2.986499936241671e-14
  0
LINE
  5
2084E
330
4F
100
AcDbEntity
  8
0
100
AcDbLine
 10
78.1333333333334
 20
93.26666666666634
 30
2.275957200481571e-14
 11
78.1333333333334
 21
80.2999999999996
 31
2.275957200481571e-14
  0
LINE
  5
2084F
330
4F
100
AcDbEntity
  8
0
100
AcDbLine
 10
89.8666666666667
 20
80.2999999999996
 30
1.5654144647214707e-14
 11
78.1333333333334
 21
80.2999999999996
 31
1.5654144647214707e-14
  0
LINE
  5
20850
330
4F
100
AcDbEntity
  8
0
100
AcDbLine
 10
89.8666666666667
 20
89.7666666666663
 30
1.5654144647214707e-14
 11
89.8666666666667
 21
80.2999999999996
 31
1.5654144647214707e-14
  0
LINE
  5
20851
330
4F
100
AcDbEntity
  8
0
100
AcDbLine
 10
89.8666666666667
 20
89.76666666666631
 30
1.5654144647214707e-14
 11
82.3944444444445
 21
89.76666666666631
 31
1.5654144647214707e-14
  0
LINE
  5
20852
330
4F
100
AcDbEntity
  8
0
100
AcDbLine
 10
82.3944444444445
 20
93.26666666666634
 30
2.275957200481571e-14
 11
82.3944444444445
 21
89.7666666666663
 31
2.275957200481571e-14
  0
LINE
  5
20853
330
4F
100
AcDbEntity
  8
0
100
AcDbLine
 10
78.13333333333341
 20
93.26666666666634
 30
2.275957200481571e-14
 11
82.3944444444445
 21
93.26666666666634
 31
2.275957200481571e-14
  0
LINE
  5
20854
330
4F
100
AcDbEntity
  8
0
100
AcDbLine
 10
78.1333333333333
 20
21.266666666666296
 30
2.275957200481571e-14
 11
78.1333333333333
 21
8.299999999999699
 31
2.275957200481571e-14
  0
LINE
  5
20855
330
4F
100
AcDbEntity
  8
0
100
AcDbLine
 10
89.8666666666667
 20
8.299999999999699
 30
1.5654144647214707e-14
 11
78.1333333333333
 21
8.299999999999699
 31
1.5654144647214707e-14
  0
LINE
  5
20856
330
4F
100
AcDbEntity
  8
0
100
AcDbLine
 10
89.8666666666667
 20
17.766666666666296
 30
1.5654144647214707e-14
 11
89.8666666666667
 21
8.299999999999699
 31
1.5654144647214707e-14
  0
LINE
  5
20857
330
4F
100
AcDbEntity
  8
0
100
AcDbLine
 10
89.8666666666667
 20
17.766666666666296
 30
1.5654144647214707e-14
 11
82.3944444444445
 21
17.766666666666296
 31
1.5654144647214707e-14
  0
LINE
  5
20858
330
4F
100
AcDbEntity
  8
0
100
AcDbLine
 10
82.3944444444445
 20
21.266666666666296
 30
2.275957200481571e-14
 11
82.3944444444445
 21
17.766666666666296
 31
2.275957200481571e-14
  0
LINE
  5
20859
330
4F
100
AcDbEntity
  8
0
100
AcDbLine
 10
78.13333333333341
 20
21.266666666666296
 30
2.275957200481571e-14
 11
82.3944444444445
 21
21.266666666666296
 31
2.275957200481571e-14
  0
LINE
  5
2085A
330
4F
100
AcDbEntity
  8
0
100
AcDbLine
 10
78.1333333333334
 20
75.26666666666631
 30
2.275957200481571e-14
 11
78.1333333333334
 21
62.2999999999996
 31
2.275957200481571e-14
  0
LINE
  5
2085B
330
4F
100
AcDbEntity
  8
0
100
AcDbLine
 10
89.8666666666667
 20
62.2999999999996
 30
1.5654144647214707e-14
 11
78.1333333333334
 21
62.2999999999996
 31
1.5654144647214707e-14
  0
LINE
  5
2085C
330
4F
100
AcDbEntity
  8
0
100
AcDbLine
 10
89.8666666666667
 20
71.76666666666631
 30
1.5654144647214707e-14
 11
89.8666666666667
 21
62.2999999999996
 31
1.5654144647214707e-14
  0
LINE
  5
2085D
330
4F
100
AcDbEntity
  8
0
100
AcDbLine
 10
89.8666666666667
 20
71.76666666666631
 30
1.5654144647214707e-14
 11
82.3944444444445
 21
71.76666666666631
 31
1.5654144647214707e-14
  0
LINE
  5
2085E
330
4F
100
AcDbEntity
  8
0
100
AcDbLine
 10
82.3944444444445
 20
75.2666666666663
 30
2.275957200481571e-14
 11
82.3944444444445
 21
71.7666666666663
 31
2.275957200481571e-14
  0
LINE
  5
2085F
330
4F
100
AcDbEntity
  8
0
100
AcDbLine
 10
78.13333333333341
 20
75.26666666666631
 30
2.275957200481571e-14
 11
82.3944444444445
 21
75.26666666666631
 31
2.275957200481571e-14
  0
LINE
  5
20860
330
4F
100
AcDbEntity
  8
0
100
AcDbLine
 10
78.1333333333334
 20
57.2666666666664
 30
2.275957200481571e-14
 11
78.1333333333334
 21
44.299999999999706
 31
2.275957200481571e-14
  0
LINE
  5
20861
330
4F
100
AcDbEntity
  8
0
100
AcDbLine
 10
89.8666666666667
 20
44.299999999999706
 30
1.5654144647214707e-14
 11
78.1333333333334
 21
44.299999999999706
 31
1.5654144647214707e-14
  0
LINE
  5
20862
330
4F
100
AcDbEntity
  8
0
100
AcDbLine
 10
89.8666666666667
 20
53.7666666666663
 30
1.5654144647214707e-14
 11
89.8666666666667
 21
44.299999999999706
 31
1.5654144647214707e-14
  0
LINE
  5
20863
330
4F
100
AcDbEntity
  8
0
100
AcDbLine
 10
89.8666666666667
 20
53.7666666666663
 30
1.5654144647214707e-14
 11
82.3944444444445
 21
53.7666666666663
 31
1.5654144647214707e-14
  0
LINE
  5
20864
330
4F
100
AcDbEntity
  8
0
100
AcDbLine
 10
82.3944444444445
 20
57.2666666666664
 30
2.275957200481571e-14
 11
82.3944444444445
 21
53.7666666666663
 31
2.275957200481571e-14
  0
LINE
  5
20865
330
4F
100
AcDbEntity
  8
0
100
AcDbLine
 10
78.13333333333341
 20
57.2666666666664
 30
2.275957200481571e-14
 11
82.3944444444445
 21
57.2666666666664
 31
2.275957200481571e-14
  0
LINE
  5
20866
330
4F
100
AcDbEntity
  8
0
100
AcDbLine
 10
78.1333333333333
 20
39.2666666666663
 30
2.275957200481571e-14
 11
78.1333333333333
 21
26.2999999999997
 31
2.275957200481571e-14
  0
LINE
  5
20867
330
4F
100
AcDbEntity
  8
0
100
AcDbLine
 10
89.8666666666667
 20
26.2999999999997
 30
1.5654144647214707e-14
 11
78.1333333333333
 21
26.2999999999997
 31
1.5654144647214707e-14
  0
LINE
  5
20868
330
4F
100
AcDbEntity
  8
0
100
AcDbLine
 10
89.8666666666667
 20
35.766666666666296
 30
1.5654144647214707e-14
 11
89.8666666666667
 21
26.2999999999997
 31
1.5654144647214707e-14
  0
LINE
  5
20869
330
4F
100
AcDbEntity
  8
0
100
AcDbLine
 10
89.8666666666667
 20
35.766666666666296
 30
1.5654144647214707e-14
 11
82.3944444444445
 21
35.766666666666296
 31
1.5654144647214707e-14
  0
LINE
  5
2086A
330
4F
100
AcDbEntity
  8
0
100
AcDbLine
 10
82.3944444444445
 20
39.2666666666663
 30
2.275957200481571e-14
 11
82.3944444444445
 21
35.766666666666296
 31
2.275957200481571e-14
  0
LINE
  5
2086B
330
4F
100
AcDbEntity
  8
0
100
AcDbLine
 10
78.13333333333341
 20
39.2666666666663
 30
2.275957200481571e-14
 11
82.3944444444445
 21
39.2666666666663
 31
2.275957200481571e-14
  0
LINE
  5
2086C
330
4F
100
AcDbEntity
  8
0
100
AcDbLine
 10
145.86666666666662
 20
21.266666666666296
 30
8.548717289613705e-15
 11
145.86666666666662
 21
8.299999999999699
 31
8.548717289613705e-15
  0
LINE
  5
2086D
330
4F
100
AcDbEntity
  8
0
100
AcDbLine
 10
145.86666666666662
 20
21.266666666666296
 30
8.02072804117157e-15
 11
141.60555555555553
 21
21.266666666666296
 31
9.076706538055862e-15
  0
LINE
  5
2086E
330
4F
100
AcDbEntity
  8
0
100
AcDbLine
 10
141.6055555555555
 20
21.266666666666296
 30
8.548717289613705e-15
 11
141.6055555555555
 21
17.766666666666296
 31
8.548717289613705e-15
  0
LINE
  5
2086F
330
4F
100
AcDbEntity
  8
0
100
AcDbLine
 10
134.1333333333333
 20
17.766666666666296
 30
1.6580018883400764e-14
 11
141.6055555555555
 21
17.766666666666296
 31
1.47282704110287e-14
  0
LINE
  5
20870
330
4F
100
AcDbEntity
  8
0
100
AcDbLine
 10
134.1333333333333
 20
17.766666666666296
 30
1.5654144647214707e-14
 11
134.1333333333333
 21
8.299999999999699
 31
1.5654144647214707e-14
  0
LINE
  5
20871
330
4F
100
AcDbEntity
  8
0
100
AcDbLine
 10
134.1333333333333
 20
8.299999999999699
 30
1.7108008131842895e-14
 11
145.86666666666662
 21
8.299999999999699
 31
1.4200281162586543e-14
  0
LINE
  5
20872
330
4F
100
AcDbEntity
  8
0
100
AcDbLine
 10
145.86666666666662
 20
39.2666666666663
 30
8.548717289613705e-15
 11
145.86666666666662
 21
26.2999999999997
 31
8.548717289613705e-15
  0
LINE
  5
20873
330
4F
100
AcDbEntity
  8
0
100
AcDbLine
 10
145.86666666666662
 20
39.2666666666663
 30
8.02072804117157e-15
 11
141.60555555555553
 21
39.2666666666663
 31
9.076706538055862e-15
  0
LINE
  5
20874
330
4F
100
AcDbEntity
  8
0
100
AcDbLine
 10
141.6055555555555
 20
39.2666666666663
 30
8.548717289613705e-15
 11
141.6055555555555
 21
35.766666666666296
 31
8.548717289613705e-15
  0
LINE
  5
20875
330
4F
100
AcDbEntity
  8
0
100
AcDbLine
 10
134.1333333333333
 20
35.766666666666296
 30
1.6580018883400764e-14
 11
141.6055555555555
 21
35.766666666666296
 31
1.47282704110287e-14
  0
LINE
  5
20876
330
4F
100
AcDbEntity
  8
0
100
AcDbLine
 10
134.1333333333333
 20
35.766666666666296
 30
1.5654144647214707e-14
 11
134.1333333333333
 21
26.2999999999997
 31
1.5654144647214707e-14
  0
LINE
  5
20877
330
4F
100
AcDbEntity
  8
0
100
AcDbLine
 10
134.1333333333333
 20
26.2999999999997
 30
1.7108008131842895e-14
 11
145.86666666666662
 21
26.2999999999997
 31
1.4200281162586543e-14
  0
LINE
  5
20878
330
4F
100
AcDbEntity
  8
0
100
AcDbLine
 10
145.86666666666662
 20
57.2666666666664
 30
8.548717289613705e-15
 11
145.86666666666662
 21
44.299999999999706
 31
8.548717289613705e-15
  0
LINE
  5
20879
330
4F
100
AcDbEntity
  8
0
100
AcDbLine
 10
145.86666666666662
 20
57.2666666666664
 30
8.02072804117157e-15
 11
141.60555555555553
 21
57.2666666666664
 31
9.076706538055862e-15
  0
LINE
  5
2087A
330
4F
100
AcDbEntity
  8
0
100
AcDbLine
 10
141.6055555555555
 20
57.2666666666664
 30
8.548717289613705e-15
 11
141.6055555555555
 21
53.7666666666663
 31
8.548717289613705e-15
  0
LINE
  5
2087B
330
4F
100
AcDbEntity
  8
0
100
AcDbLine
 10
134.1333333333333
 20
53.7666666666663
 30
1.6580018883400764e-14
 11
141.6055555555555
 21
53.7666666666663
 31
1.47282704110287e-14
  0
LINE
  5
2087C
330
4F
100
AcDbEntity
  8
0
100
AcDbLine
 10
134.1333333333333
 20
53.7666666666663
 30
1.5654144647214707e-14
 11
134.1333333333333
 21
44.299999999999706
 31
1.5654144647214707e-14
  0
LINE
  5
2087D
330
4F
100
AcDbEntity
  8
0
100
AcDbLine
 10
134.1333333333333
 20
44.299999999999706
 30
1.7108008131842895e-14
 11
145.86666666666662
 21
44.299999999999706
 31
1.4200281162586543e-14
  0
LINE
  5
2087E
330
4F
100
AcDbEntity
  8
0
100
AcDbLine
 10
145.86666666666662
 20
75.26666666666631
 30
8.548717289613705e-15
 11
145.86666666666662
 21
62.2999999999996
 31
8.548717289613705e-15
  0
LINE
  5
2087F
330
4F
100
AcDbEntity
  8
0
100
AcDbLine
 10
145.86666666666662
 20
75.26666666666631
 30
8.02072804117157e-15
 11
141.60555555555553
 21
75.26666666666631
 31
9.076706538055862e-15
  0
LINE
  5
20880
330
4F
100
AcDbEntity
  8
0
100
AcDbLine
 10
141.6055555555555
 20
75.2666666666663
 30
8.548717289613705e-15
 11
141.6055555555555
 21
71.7666666666663
 31
8.548717289613705e-15
  0
LINE
  5
20881
330
4F
100
AcDbEntity
  8
0
100
AcDbLine
 10
134.1333333333333
 20
71.76666666666631
 30
1.6580018883400764e-14
 11
141.6055555555555
 21
71.76666666666631
 31
1.47282704110287e-14
  0
LINE
  5
20882
330
4F
100
AcDbEntity
  8
0
100
AcDbLine
 10
134.1333333333333
 20
71.76666666666631
 30
1.5654144647214707e-14
 11
134.1333333333333
 21
62.2999999999996
 31
1.5654144647214707e-14
  0
LINE
  5
20883
330
4F
100
AcDbEntity
  8
0
100
AcDbLine
 10
134.1333333333333
 20
62.2999999999996
 30
1.7108008131842895e-14
 11
145.86666666666662
 21
62.2999999999996
 31
1.4200281162586543e-14
  0
LINE
  5
20884
330
4F
100
AcDbEntity
  8
0
100
AcDbLine
 10
145.86666666666662
 20
93.26666666666634
 30
8.548717289613705e-15
 11
145.86666666666662
 21
80.2999999999996
 31
8.548717289613705e-15
  0
LINE
  5
20885
330
4F
100
AcDbEntity
  8
0
100
AcDbLine
 10
145.86666666666662
 20
93.26666666666634
 30
8.02072804117157e-15
 11
141.60555555555553
 21
93.26666666666634
 31
9.076706538055862e-15
  0
LINE
  5
20886
330
4F
100
AcDbEntity
  8
0
100
AcDbLine
 10
141.6055555555555
 20
93.26666666666634
 30
8.548717289613705e-15
 11
141.6055555555555
 21
89.7666666666663
 31
8.548717289613705e-15
  0
LINE
  5
20887
330
4F
100
AcDbEntity
  8
0
100
AcDbLine
 10
134.1333333333333
 20
89.76666666666631
 30
1.6580018883400764e-14
 11
141.6055555555555
 21
89.76666666666631
 31
1.47282704110287e-14
  0
LINE
  5
20888
330
4F
100
AcDbEntity
  8
0
100
AcDbLine
 10
134.1333333333333
 20
89.7666666666663
 30
1.5654144647214707e-14
 11
134.1333333333333
 21
80.2999999999996
 31
1.5654144647214707e-14
  0
LINE
  5
20889
330
4F
100
AcDbEntity
  8
0
100
AcDbLine
 10
134.1333333333333
 20
80.2999999999996
 30
1.7108008131842895e-14
 11
145.86666666666662
 21
80.2999999999996
 31
1.4200281162586543e-14
  0
ENDBLK
  5
51
330
4F
100
AcDbEntity
  8
0
100
AcDbBlockEnd
  0
ENDSEC
  0
SECTION
  2
ENTITIES
  0
INSERT
  5
26E
330
1F
100
AcDbEntity
  8
0
  6
ByLayer
100
AcDbBlockReference
  2
BASE_GEOMETRY
 10
0.0
 20
0.0
 30
0.0
 43
0.0
  0
LINE
  5
26F
330
1F
100
AcDbEntity
  8
engraving
  6
ByLayer
100
AcDbLine
 10
1.4210854715202e-14
 20
78.56706281753365
 30
0.0
 11
224.0001545883465
 21
78.5670628175336
 31
0.0
  0
ENDSEC
  0
SECTION
  2
OBJECTS
  0
DICTIONARY
  5
C
330
0
100
AcDbDictionary
281
1
  3
ACAD_GROUP
350
D
  3
ACAD_COLOR
350
20001
  3
ACAD_LAYOUT
350
20002
  3
ACAD_MATERIAL
350
20003
  3
ACAD_MLEADERSTYLE
350
20004
  3
ACAD_MLINESTYLE
350
20005
  3
ACAD_PLOTSETTINGS
350
20006
  3
ACAD_PLOTSTYLENAME
350
20007
  3
ACAD_SCALELIST
350
20009
  3
ACAD_TABLESTYLE
350
2000A
  3
ACAD_VISUALSTYLE
350
2000B
  3
EZDXF_META
350
20231
  0
DICTIONARY
  5
D
330
C
100
AcDbDictionary
281
1
  0
PLOTSETTINGS
  5
270
330
0
100
AcDbPlotSettings
  1

  4
A3
  6
1x1
 40
0.0
 41
0.0
 42
0.0
 43
0.0
 44
420.0
 45
297.0
 46
0.0
 47
0.0
 48
0.0
 49
0.0
140
0.0
141
0.0
142
1.0
143
1.0
 70
688
 72
1
 73
0
 74
5
  7

 75
16
 76
0
 77
2
 78
300
147
1.0
148
0.0
149
0.0
  0
DICTIONARY
  5
20001
330
C
100
AcDbDictionary
281
1
  0
DICTIONARY
  5
20002
330
C
100
AcDbDictionary
281
1
  3
Model
350
2000C
  3
Layout1
350
2000D
  0
DICTIONARY
  5
20003
330
C
100
AcDbDictionary
281
1
  3
ByBlock
350
2000E
  3
ByLayer
350
2000F
  3
Global
350
20010
  0
DICTIONARY
  5
20004
330
C
100
AcDbDictionary
281
1
  3
Standard
350
20012
  0
DICTIONARY
  5
20005
330
C
100
AcDbDictionary
281
1
  3
Standard
350
20011
  0
DICTIONARY
  5
20006
330
C
100
AcDbDictionary
281
1
  0
ACDBDICTIONARYWDFLT
  5
20007
330
C
100
AcDbDictionary
281
1
  3
Normal
350
20008
100
AcDbDictionaryWithDefault
340
20008
  0
ACDBPLACEHOLDER
  5
20008
330
20007
  0
DICTIONARY
  5
20009
330
C
100
AcDbDictionary
281
1
  0
DICTIONARY
  5
2000A
330
C
100
AcDbDictionary
281
1
  0
DICTIONARY
  5
2000B
330
C
100
AcDbDictionary
281
1
  0
LAYOUT
  5
2000C
330
20002
100
AcDbPlotSettings
  1

  4
A3
  6

 40
7.5
 41
20.0
 42
7.5
 43
20.0
 44
420.0
 45
297.0
 46
0.0
 47
0.0
 48
0.0
 49
0.0
140
0.0
141
0.0
142
1.0
143
1.0
 70
1024
 72
1
 73
0
 74
5
  7

 75
16
 76
0
 77
2
 78
300
147
1.0
148
0.0
149
0.0
100
AcDbLayout
  1
Model
 70
1
 71
0
 10
0.0
 20
0.0
 11
420.0
 21
297.0
 12
0.0
 22
0.0
 32
0.0
 14
1e+20
 24
1e+20
 34
1e+20
 15
-1e+20
 25
-1e+20
 35
-1e+20
146
0.0
 13
0.0
 23
0.0
 33
0.0
 16
1.0
 26
0.0
 36
0.0
 17
0.0
 27
1.0
 37
0.0
 76
1
330
1F
  0
LAYOUT
  5
2000D
330
20002
100
AcDbPlotSettings
  1

  4
A3
  6

 40
7.5
 41
20.0
 42
7.5
 43
20.0
 44
420.0
 45
297.0
 46
0.0
 47
0.0
 48
0.0
 49
0.0
140
0.0
141
0.0
142
1.0
143
1.0
 70
0
 72
1
 73
0
 74
5
  7

 75
16
 76
0
 77
2
 78
300
147
1.0
148
0.0
149
0.0
100
AcDbLayout
  1
Layout1
 70
1
 71
1
 10
0.0
 20
0.0
 11
420.0
 21
297.0
 12
0.0
 22
0.0
 32
0.0
 14
1e+20
 24
1e+20
 34
1e+20
 15
-1e+20
 25
-1e+20
 35
-1e+20
146
0.0
 13
0.0
 23
0.0
 33
0.0
 16
1.0
 26
0.0
 36
0.0
 17
0.0
 27
1.0
 37
0.0
 76
1
330
1E
  0
MATERIAL
  5
2000E
102
{ACAD_REACTORS
330
20003
102
}
330
20003
100
AcDbMaterial
  1
ByBlock
  2

 70
0
 40
1.0
 71
1
 41
1.0
 91
-1023410177
 42
1.0
 72
1
  3

 73
1
 74
1
 75
1
 44
0.5
 73
0
 45
1.0
 46
1.0
 77
1
  4

 78
1
 79
1
170
1
 48
1.0
171
1
  6

172
1
173
1
174
1
140
1.0
141
1.0
175
1
  7

176
1
177
1
178
1
143
1.0
179
1
  8

270
1
271
1
272
1
145
1.0
146
1.0
273
1
  9

274
1
275
1
276
1
 42
1.0
 72
1
  3

 73
1
 74
1
 75
1
 94
63
  0
MATERIAL
  5
2000F
102
{ACAD_REACTORS
330
20003
102
}
330
20003
100
AcDbMaterial
  1
ByLayer
  2

 70
0
 40
1.0
 71
1
 41
1.0
 91
-1023410177
 42
1.0
 72
1
  3

 73
1
 74
1
 75
1
 44
0.5
 73
0
 45
1.0
 46
1.0
 77
1
  4

 78
1
 79
1
170
1
 48
1.0
171
1
  6

172
1
173
1
174
1
140
1.0
141
1.0
175
1
  7

176
1
177
1
178
1
143
1.0
179
1
  8

270
1
271
1
272
1
145
1.0
146
1.0
273
1
  9

274
1
275
1
276
1
 42
1.0
 72
1
  3

 73
1
 74
1
 75
1
 94
63
  0
MATERIAL
  5
20010
102
{ACAD_REACTORS
330
20003
102
}
330
20003
100
AcDbMaterial
  1
Global
  2

 70
0
 40
1.0
 71
1
 41
1.0
 91
-1023410177
 42
1.0
 72
1
  3

 73
1
 74
1
 75
1
 44
0.5
 73
0
 45
1.0
 46
1.0
 77
1
  4

 78
1
 79
1
170
1
 48
1.0
171
1
  6

172
1
173
1
174
1
140
1.0
141
1.0
175
1
  7

176
1
177
1
178
1
143
1.0
179
1
  8

270
1
271
1
272
1
145
1.0
146
1.0
273
1
  9

274
1
275
1
276
1
 42
1.0
 72
1
  3

 73
1
 74
1
 75
1
 94
63
  0
MLINESTYLE
  5
20011
102
{ACAD_REACTORS
330
20005
102
}
330
20005
100
AcDbMlineStyle
  2
Standard
 70
0
  3

 62
256
 51
90.0
 52
90.0
 71
2
 49
0.5
 62
256
  6
BYLAYER
 49
-0.5
 62
256
  6
BYLAYER
  0
MLEADERSTYLE
  5
20012
102
{ACAD_REACTORS
330
20004
102
}
330
20004
100
AcDbMLeaderStyle
179
2
170
2
171
1
172
0
 90
2
 40
0.0
 41
0.0
173
1
 91
-1056964608
 92
-2
290
1
 42
2.0
291
1
 43
8.0
  3
Standard
 44
4.0
300

342
4C
174
1
175
1
176
0
178
1
 93
-1056964608
 45
4.0
292
0
297
0
 46
4.0
 94
-1056964608
 47
1.0
 49
1.0
140
1.0
294
1
141
0.0
177
0
142
1.0
295
0
296
0
143
3.75
271
0
272
9
273
9
  0
DICTIONARY
  5
20231
330
C
100
AcDbDictionary
280
1
281
1
  3
WRITTEN_BY_EZDXF
350
20232
  0
DICTIONARYVAR
  5
20232
330
20231
100
DictionaryVariables
280
0
  1
1.4.3 @ 2026-05-03T14:06:23.578538+00:00
  0
ENDSEC
  0
EOF
