  0
SECTION
  2
HEADER
  9
$ACADVER
  1
AC1021
  9
$ACADMAINTVER
 70
25
  9
$DWGCODEPAGE
  3
ANSI_1252
  9
$INSBASE
 10
0.0
 20
0.0
 30
0.0
  9
$EXTMIN
 10
1e+20
 20
1e+20
 30
1e+20
  9
$EXTMAX
 10
-1e+20
 20
-1e+20
 30
-1e+20
  9
$LIMMIN
 10
0.0
 20
0.0
  9
$LIMMAX
 10
420.0
 20
297.0
  9
$ORTHOMODE
 70
0
  9
$REGENMODE
 70
1
  9
$FILLMODE
 70
1
  9
$QTEXTMODE
 70
0
  9
$MIRRTEXT
 70
1
  9
$LTSCALE
 40
1.0
  9
$ATTMODE
 70
1
  9
$TEXTSIZE
 40
2.5
  9
$TRACEWID
 40
1.0
  9
$TEXTSTYLE
  7
Standard
  9
$CLAYER
  8
engraving
  9
$CELTYPE
  6
ByLayer
  9
$CECOLOR
 62
256
  9
$CELTSCALE
 40
1.0
  9
$DISPSILH
 70
0
  9
$DIMSCALE
 40
1.0
  9
$DIMASZ
 40
2.5
  9
$DIMEXO
 40
0.625
  9
$DIMDLI
 40
3.75
  9
$DIMRND
 40
0.0
  9
$DIMDLE
 40
0.0
  9
$DIMEXE
 40
1.25
  9
$DIMTP
 40
0.0
  9
$DIMTM
 40
0.0
  9
$DIMTXT
 40
2.5
  9
$DIMCEN
 40
2.5
  9
$DIMTSZ
 40
0.0
  9
$DIMTOL
 70
0
  9
$DIMLIM
 70
0
  9
$DIMTIH
 70
0
  9
$DIMTOH
 70
0
  9
$DIMSE1
 70
0
  9
$DIMSE2
 70
0
  9
$DIMTAD
 70
1
  9
$DIMZIN
 70
8
  9
$DIMBLK
  1

  9
$DIMASO
 70
1
  9
$DIMSHO
 70
1
  9
$DIMPOST
  1

  9
$DIMAPOST
  1

  9
$DIMALT
 70
0
  9
$DIMALTD
 70
3
  9
$DIMALTF
 40
0.03937007874
  9
$DIMLFAC
 40
1.0
  9
$DIMTOFL
 70
1
  9
$DIMTVP
 40
0.0
  9
$DIMTIX
 70
0
  9
$DIMSOXD
 70
0
  9
$DIMSAH
 70
0
  9
$DIMBLK1
  1

  9
$DIMBLK2
  1

  9
$DIMSTYLE
  2
ISO-25
  9
$DIMCLRD
 70
0
  9
$DIMCLRE
 70
0
  9
$DIMCLRT
 70
0
  9
$DIMTFAC
 40
1.0
  9
$DIMGAP
 40
0.625
  9
$DIMJUST
 70
0
  9
$DIMSD1
 70
0
  9
$DIMSD2
 70
0
  9
$DIMTOLJ
 70
0
  9
$DIMTZIN
 70
8
  9
$DIMALTZ
 70
0
  9
$DIMALTTZ
 70
0
  9
$DIMUPT
 70
0
  9
$DIMDEC
 70
2
  9
$DIMTDEC
 70
2
  9
$DIMALTU
 70
2
  9
$DIMALTTD
 70
3
  9
$DIMTXSTY
  7
Standard
  9
$DIMAUNIT
 70
0
  9
$DIMADEC
 70
0
  9
$DIMALTRND
 40
0.0
  9
$DIMAZIN
 70
0
  9
$DIMDSEP
 70
44
  9
$DIMATFIT
 70
3
  9
$DIMFRAC
 70
0
  9
$DIMLDRBLK
  1

  9
$DIMLUNIT
 70
2
  9
$DIMLWD
 70
-2
  9
$DIMLWE
 70
-2
  9
$DIMTMOVE
 70
0
  9
$DIMFXL
 40
1.0
  9
$DIMFXLON
 70
0
  9
$DIMJOGANG
 40
0.785398163397
  9
$DIMTFILL
 70
0
  9
$DIMTFILLCLR
 70
0
  9
$DIMARCSYM
 70
0
  9
$DIMLTYPE
  6

  9
$DIMLTEX1
  6

  9
$DIMLTEX2
  6

  9
$LUNITS
 70
2
  9
$LUPREC
 70
4
  9
$SKETCHINC
 40
1.0
  9
$FILLETRAD
 40
10.0
  9
$AUNITS
 70
0
  9
$AUPREC
 70
2
  9
$MENU
  1
.
  9
$ELEVATION
 40
0.0
  9
$PELEVATION
 40
0.0
  9
$THICKNESS
 40
0.0
  9
$LIMCHECK
 70
0
  9
$CHAMFERA
 40
0.0
  9
$CHAMFERB
 40
0.0
  9
$CHAMFERC
 40
0.0
  9
$CHAMFERD
 40
0.0
  9
$SKPOLY
 70
0
  9
$TDCREATE
 40
2461164.8858449073
  9
$TDUPDATE
 40
2461164.8858449073
  9
$USRTIMER
 70
1
  9
$ANGBASE
 50
0.0
  9
$ANGDIR
 70
0
  9
$PDMODE
 70
0
  9
$PDSIZE
 40
0.0
  9
$PLINEWID
 40
0.0
  9
$SPLFRAME
 70
0
  9
$SPLINETYPE
 70
6
  9
$SPLINESEGS
 70
8
  9
$HANDSEED
  5
20233
  9
$SURFTAB1
 70
6
  9
$SURFTAB2
 70
6
  9
$SURFTYPE
 70
6
  9
$SURFU
 70
6
  9
$SURFV
 70
6
  9
$UCSBASE
  2

  9
$UCSNAME
  2

  9
$UCSORG
 10
0.0
 20
0.0
 30
0.0
  9
$UCSXDIR
 10
1.0
 20
0.0
 30
0.0
  9
$UCSYDIR
 10
0.0
 20
1.0
 30
0.0
  9
$UCSORTHOREF
  2

  9
$UCSORTHOVIEW
 70
0
  9
$UCSORGTOP
 10
0.0
 20
0.0
 30
0.0
  9
$UCSORGBOTTOM
 10
0.0
 20
0.0
 30
0.0
  9
$UCSORGLEFT
 10
0.0
 20
0.0
 30
0.0
  9
$UCSORGRIGHT
 10
0.0
 20
0.0
 30
0.0
  9
$UCSORGFRONT
 10
0.0
 20
0.0
 30
0.0
  9
$UCSORGBACK
 10
0.0
 20
0.0
 30
0.0
  9
$PUCSBASE
  2

  9
$PUCSNAME
  2

  9
$PUCSORG
 10
0.0
 20
0.0
 30
0.0
  9
$PUCSXDIR
 10
1.0
 20
0.0
 30
0.0
  9
$PUCSYDIR
 10
0.0
 20
1.0
 30
0.0
  9
$PUCSORTHOREF
  2

  9
$PUCSORTHOVIEW
 70
0
  9
$PUCSORGTOP
 10
0.0
 20
0.0
 30
0.0
  9
$PUCSORGBOTTOM
 10
0.0
 20
0.0
 30
0.0
  9
$PUCSORGLEFT
 10
0.0
 20
0.0
 30
0.0
  9
$PUCSORGRIGHT
 10
0.0
 20
0.0
 30
0.0
  9
$PUCSORGFRONT
 10
0.0
 20
0.0
 30
0.0
  9
$PUCSORGBACK
 10
0.0
 20
0.0
 30
0.0
  9
$USERI1
 70
0
  9
$USERI2
 70
0
  9
$USERI3
 70
0
  9
$USERI4
 70
0
  9
$USERI5
 70
0
  9
$USERR1
 40
0.0
  9
$USERR2
 40
0.0
  9
$USERR3
 40
0.0
  9
$USERR4
 40
0.0
  9
$USERR5
 40
0.0
  9
$WORLDVIEW
 70
1
  9
$SHADEDGE
 70
3
  9
$SHADEDIF
 70
70
  9
$TILEMODE
 70
1
  9
$MAXACTVP
 70
64
  9
$PINSBASE
 10
0.0
 20
0.0
 30
0.0
  9
$PLIMCHECK
 70
0
  9
$PEXTMIN
 10
1e+20
 20
1e+20
 30
1e+20
  9
$PEXTMAX
 10
-1e+20
 20
-1e+20
 30
-1e+20
  9
$PLIMMIN
 10
0.0
 20
0.0
  9
$PLIMMAX
 10
420.0
 20
297.0
  9
$UNITMODE
 70
0
  9
$VISRETAIN
 70
1
  9
$PLINEGEN
 70
0
  9
$PSLTSCALE
 70
1
  9
$TREEDEPTH
 70
3020
  9
$CMLSTYLE
  2
Standard
  9
$CMLJUST
 70
0
  9
$CMLSCALE
 40
20.0
  9
$PROXYGRAPHICS
 70
1
  9
$MEASUREMENT
 70
1
  9
$CELWEIGHT
370
-1
  9
$ENDCAPS
280
0
  9
$JOINSTYLE
280
0
  9
$LWDISPLAY
290
0
  9
$INSUNITS
 70
6
  9
$HYPERLINKBASE
  1

  9
$STYLESHEET
  1

  9
$XEDIT
290
1
  9
$CEPSNTYPE
380
0
  9
$PSTYLEMODE
290
1
  9
$FINGERPRINTGUID
  2
{3181C4A9-6A97-4AA8-8A46-AFE5608839E0}
  9
$VERSIONGUID
  2
{3C27870C-BDC6-4704-A947-2D07582D59A4}
  9
$EXTNAMES
290
1
  9
$PSVPSCALE
 40
0.0
  9
$OLESTARTUP
290
0
  9
$SORTENTS
280
127
  9
$INDEXCTL
280
0
  9
$HIDETEXT
280
1
  9
$XCLIPFRAME
290
1
  9
$HALOGAP
280
0
  9
$OBSCOLOR
 70
257
  9
$OBSLTYPE
280
0
  9
$INTERSECTIONDISPLAY
280
0
  9
$INTERSECTIONCOLOR
 70
257
  9
$DIMASSOC
280
2
  9
$PROJECTNAME
  1

  9
$CAMERADISPLAY
290
0
  9
$LENSLENGTH
 40
50.0
  9
$CAMERAHEIGHT
 40
0.0
  9
$STEPSPERSEC
 40
24.0
  9
$STEPSIZE
 40
100.0
  9
$3DDWFPREC
 40
2.0
  9
$PSOLWIDTH
 40
0.005
  9
$PSOLHEIGHT
 40
0.08
  9
$LOFTANG1
 40
1.570796326795
  9
$LOFTANG2
 40
1.570796326795
  9
$LOFTMAG1
 40
0.0
  9
$LOFTMAG2
 40
0.0
  9
$LOFTPARAM
 70
7
  9
$LOFTNORMALS
280
1
  9
$LATITUDE
 40
37.795
  9
$LONGITUDE
 40
-122.394
  9
$NORTHDIRECTION
 40
0.0
  9
$TIMEZONE
 70
-8000
  9
$LIGHTGLYPHDISPLAY
280
1
  9
$TILEMODELIGHTSYNCH
280
1
  9
$CMATERIAL
347
2000F
  9
$SOLIDHIST
280
0
  9
$SHOWHIST
280
1
  9
$DWFFRAME
280
2
  9
$DGNFRAME
280
2
  9
$REALWORLDSCALE
290
1
  9
$INTERFERECOLOR
 62
256
  9
$CSHADOW
280
0
  9
$SHADOWPLANELOCATION
 40
0.0
  0
ENDSEC
  0
SECTION
  2
CLASSES
  0
CLASS
  1
ACDBDICTIONARYWDFLT
  2
AcDbDictionaryWithDefault
  3
ObjectDBX Classes
 90
0
 91
0
280
0
281
0
  0
CLASS
  1
SUN
  2
AcDbSun
  3
SCENEOE
 90
1153
 91
0
280
0
281
0
  0
CLASS
  1
VISUALSTYLE
  2
AcDbVisualStyle
  3
ObjectDBX Classes
 90
4095
 91
0
280
0
281
0
  0
CLASS
  1
MATERIAL
  2
AcDbMaterial
  3
ObjectDBX Classes
 90
1153
 91
0
280
0
281
0
  0
CLASS
  1
SCALE
  2
AcDbScale
  3
ObjectDBX Classes
 90
1153
 91
0
280
0
281
0
  0
CLASS
  1
TABLESTYLE
  2
AcDbTableStyle
  3
ObjectDBX Classes
 90
4095
 91
0
280
0
281
0
  0
CLASS
  1
MLEADERSTYLE
  2
AcDbMLeaderStyle
  3
ACDB_MLEADERSTYLE_CLASS
 90
4095
 91
0
280
0
281
0
  0
CLASS
  1
DICTIONARYVAR
  2
AcDbDictionaryVar
  3
ObjectDBX Classes
 90
0
 91
0
280
0
281
0
  0
CLASS
  1
CELLSTYLEMAP
  2
AcDbCellStyleMap
  3
ObjectDBX Classes
 90
1152
 91
0
280
0
281
0
  0
CLASS
  1
MENTALRAYRENDERSETTINGS
  2
AcDbMentalRayRenderSettings
  3
SCENEOE
 90
1024
 91
0
280
0
281
0
  0
CLASS
  1
ACDBDETAILVIEWSTYLE
  2
AcDbDetailViewStyle
  3
ObjectDBX Classes
 90
1025
 91
0
280
0
281
0
  0
CLASS
  1
ACDBSECTIONVIEWSTYLE
  2
AcDbSectionViewStyle
  3
ObjectDBX Classes
 90
1025
 91
0
280
0
281
0
  0
CLASS
  1
RASTERVARIABLES
  2
AcDbRasterVariables
  3
ISM
 90
0
 91
0
280
0
281
0
  0
CLASS
  1
LAYOUT
  2
AcDbLayout
  3
ObjectDBX Classes
 90
0
 91
0
280
0
281
0
  0
CLASS
  1
ACDBPLACEHOLDER
  2
AcDbPlaceHolder
  3
ObjectDBX Classes
 90
0
 91
0
280
0
281
0
  0
ENDSEC
  0
SECTION
  2
TABLES
  0
TABLE
  2
VPORT
  5
8
330
0
100
AcDbSymbolTable
 70
1
  0
VPORT
  5
31
330
8
100
AcDbSymbolTableRecord
100
AcDbViewportTableRecord
  2
*ACTIVE
 70
0
 10
0.0
 20
0.0
 11
1.0
 21
1.0
 12
121.2178975430076
 22
71.51996742374897
 13
0.0
 23
0.0
 14
10.0
 24
10.0
 15
10.0
 25
10.0
 16
0.0
 26
0.0
 36
1.0
 17
0.0
 27
0.0
 37
0.0
 40
204.9863633247608
 41
1.71978021978022
 42
50.0
 43
0.0
 44
0.0
 50
0.0
 51
0.0
 71
0
 72
100
 73
1
 74
3
 75
0
 76
0
 77
0
 78
0
281
0
 65
1
110
0.0
120
0.0
130
0.0
111
1.0
121
0.0
131
0.0
112
0.0
122
1.0
132
0.0
 79
0
146
0.0
 60
7
 61
5
348
10020
292
1
282
1
141
0.0
142
0.0
 63
250
421
3358443
  0
ENDTAB
  0
TABLE
  2
LTYPE
  5
5
330
0
100
AcDbSymbolTable
 70
27
  0
LTYPE
  5
14
330
5
100
AcDbSymbolTableRecord
100
AcDbLinetypeTableRecord
  2
ByBlock
 70
0
  3

 72
65
 73
0
 40
0.0
  0
LTYPE
  5
15
330
5
100
AcDbSymbolTableRecord
100
AcDbLinetypeTableRecord
  2
ByLayer
 70
0
  3

 72
65
 73
0
 40
0.0
  0
LTYPE
  5
16
330
5
100
AcDbSymbolTableRecord
100
AcDbLinetypeTableRecord
  2
Continuous
 70
0
  3
Solid line
 72
65
 73
0
 40
0.0
  0
LTYPE
  5
32
330
5
100
AcDbSymbolTableRecord
100
AcDbLinetypeTableRecord
  2
DOT
 70
0
  3
Dot . . . . . . . . . . . . . . . . . . . . . .
 72
65
 73
2
 40
6.35
 49
0.0
 74
0
 49
-6.35
 74
0
  0
LTYPE
  5
33
330
5
100
AcDbSymbolTableRecord
100
AcDbLinetypeTableRecord
  2
DOTTINY
 70
0
  3
Dot (.15x) .....................................
 72
65
 73
2
 40
0.9525
 49
0.0
 74
0
 49
-0.9525
 74
0
  0
LTYPE
  5
34
330
5
100
AcDbSymbolTableRecord
100
AcDbLinetypeTableRecord
  2
DOT2
 70
0
  3
Dot (.5x) .....................................
 72
65
 73
2
 40
3.175
 49
0.0
 74
0
 49
-3.175
 74
0
  0
LTYPE
  5
35
330
5
100
AcDbSymbolTableRecord
100
AcDbLinetypeTableRecord
  2
DOTX2
 70
0
  3
Dot (2x) .  .  .  .  .  .  .  .  .  .  .  .  .
 72
65
 73
2
 40
12.7
 49
0.0
 74
0
 49
-12.7
 74
0
  0
LTYPE
  5
36
330
5
100
AcDbSymbolTableRecord
100
AcDbLinetypeTableRecord
  2
DASHED
 70
0
  3
Dashed _ _ _ _ _ _ _ _ _ _ _ _ _ _ _ _ _
 72
65
 73
2
 40
19.05
 49
12.7
 74
0
 49
-6.35
 74
0
  0
LTYPE
  5
37
330
5
100
AcDbSymbolTableRecord
100
AcDbLinetypeTableRecord
  2
DASHEDTINY
 70
0
  3
Dashed (.15x) _ _ _ _ _ _ _ _ _ _ _ _ _ _ _ _ _
 72
65
 73
2
 40
2.8575
 49
1.905
 74
0
 49
-0.9525
 74
0
  0
LTYPE
  5
38
330
5
100
AcDbSymbolTableRecord
100
AcDbLinetypeTableRecord
  2
DASHED2
 70
0
  3
Dashed (.5x) _ _ _ _ _ _ _ _ _ _ _ _ _ _ _ _ _
 72
65
 73
2
 40
9.524999999999999
 49
6.35
 74
0
 49
-3.175
 74
0
  0
LTYPE
  5
39
330
5
100
AcDbSymbolTableRecord
100
AcDbLinetypeTableRecord
  2
DASHEDX2
 70
0
  3
Dashed (2x) ____  ____  ____  ____  ____  ___
 72
65
 73
2
 40
38.09999999999999
 49
25.4
 74
0
 49
-12.7
 74
0
  0
LTYPE
  5
3A
330
5
100
AcDbSymbolTableRecord
100
AcDbLinetypeTableRecord
  2
DASHDOT
 70
0
  3
Dash dot __ . __ . __ . __ . __ . __ . __ . __
 72
65
 73
4
 40
25.4
 49
12.7
 74
0
 49
-6.35
 74
0
 49
0.0
 74
0
 49
-6.35
 74
0
  0
LTYPE
  5
3B
330
5
100
AcDbSymbolTableRecord
100
AcDbLinetypeTableRecord
  2
DASHDOTTINY
 70
0
  3
Dash dot (.15x) _._._._._._._._._._._._._._._.
 72
65
 73
4
 40
3.81
 49
1.905
 74
0
 49
-0.9525
 74
0
 49
0.0
 74
0
 49
-0.9525
 74
0
  0
LTYPE
  5
3C
330
5
100
AcDbSymbolTableRecord
100
AcDbLinetypeTableRecord
  2
DASHDOT2
 70
0
  3
Dash dot (.5x) _._._._._._._._._._._._._._._.
 72
65
 73
4
 40
12.7
 49
6.35
 74
0
 49
-3.175
 74
0
 49
0.0
 74
0
 49
-3.175
 74
0
  0
LTYPE
  5
3D
330
5
100
AcDbSymbolTableRecord
100
AcDbLinetypeTableRecord
  2
DASHDOTX2
 70
0
  3
Dash dot (2x) ____  .  ____  .  ____  .  ___
 72
65
 73
4
 40
50.8
 49
25.4
 74
0
 49
-12.7
 74
0
 49
0.0
 74
0
 49
-12.7
 74
0
  0
LTYPE
  5
3E
330
5
100
AcDbSymbolTableRecord
100
AcDbLinetypeTableRecord
  2
DIVIDE
 70
0
  3
Divide ____ . . ____ . . ____ . . ____ . . ____
 72
65
 73
6
 40
31.75
 49
12.7
 74
0
 49
-6.35
 74
0
 49
0.0
 74
0
 49
-6.35
 74
0
 49
0.0
 74
0
 49
-6.35
 74
0
  0
LTYPE
  5
3F
330
5
100
AcDbSymbolTableRecord
100
AcDbLinetypeTableRecord
  2
DIVIDETINY
 70
0
  3
Divide (.15x) __..__..__..__..__..__..__..__.._
 72
65
 73
6
 40
4.7625
 49
1.905
 74
0
 49
-0.9525
 74
0
 49
0.0
 74
0
 49
-0.9525
 74
0
 49
0.0
 74
0
 49
-0.9525
 74
0
  0
LTYPE
  5
40
330
5
100
AcDbSymbolTableRecord
100
AcDbLinetypeTableRecord
  2
DIVIDE2
 70
0
  3
Divide (.5x) __..__..__..__..__..__..__..__.._
 72
65
 73
6
 40
15.875
 49
6.35
 74
0
 49
-3.175
 74
0
 49
0.0
 74
0
 49
-3.175
 74
0
 49
0.0
 74
0
 49
-3.175
 74
0
  0
LTYPE
  5
41
330
5
100
AcDbSymbolTableRecord
100
AcDbLinetypeTableRecord
  2
DIVIDEX2
 70
0
  3
Divide (2x) ________  .  .  ________  .  .  _
 72
65
 73
6
 40
63.5
 49
25.4
 74
0
 49
-12.7
 74
0
 49
0.0
 74
0
 49
-12.7
 74
0
 49
0.0
 74
0
 49
-12.7
 74
0
  0
LTYPE
  5
42
330
5
100
AcDbSymbolTableRecord
100
AcDbLinetypeTableRecord
  2
BORDER
 70
0
  3
Border __ __ . __ __ . __ __ . __ __ . __ __ .
 72
65
 73
6
 40
44.45
 49
12.7
 74
0
 49
-6.35
 74
0
 49
12.7
 74
0
 49
-6.35
 74
0
 49
0.0
 74
0
 49
-6.35
 74
0
  0
LTYPE
  5
43
330
5
100
AcDbSymbolTableRecord
100
AcDbLinetypeTableRecord
  2
BORDERTINY
 70
0
  3
Border (.15x) __.__.__.__.__.__.__.__.__.__.__.
 72
65
 73
6
 40
6.6675
 49
1.905
 74
0
 49
-0.9525
 74
0
 49
1.905
 74
0
 49
-0.9525
 74
0
 49
0.0
 74
0
 49
-0.9525
 74
0
  0
LTYPE
  5
44
330
5
100
AcDbSymbolTableRecord
100
AcDbLinetypeTableRecord
  2
BORDER2
 70
0
  3
Border (.5x) __.__.__.__.__.__.__.__.__.__.__.
 72
65
 73
6
 40
22.225
 49
6.35
 74
0
 49
-3.175
 74
0
 49
6.35
 74
0
 49
-3.175
 74
0
 49
0.0
 74
0
 49
-3.175
 74
0
  0
LTYPE
  5
45
330
5
100
AcDbSymbolTableRecord
100
AcDbLinetypeTableRecord
  2
BORDERX2
 70
0
  3
Border (2x) ____  ____  .  ____  ____  .  ___
 72
65
 73
6
 40
88.89999999999999
 49
25.4
 74
0
 49
-12.7
 74
0
 49
25.4
 74
0
 49
-12.7
 74
0
 49
0.0
 74
0
 49
-12.7
 74
0
  0
LTYPE
  5
46
330
5
100
AcDbSymbolTableRecord
100
AcDbLinetypeTableRecord
  2
CENTER
 70
0
  3
Center ____ _ ____ _ ____ _ ____ _ ____ _ ____
 72
65
 73
4
 40
50.8
 49
31.75
 74
0
 49
-6.35
 74
0
 49
6.35
 74
0
 49
-6.35
 74
0
  0
LTYPE
  5
47
330
5
100
AcDbSymbolTableRecord
100
AcDbLinetypeTableRecord
  2
CENTERTINY
 70
0
  3
Center (.15x) ___ _ ___ _ ___ _ ___ _ ___ _ ___
 72
65
 73
4
 40
7.619999999999999
 49
4.7625
 74
0
 49
-0.9525
 74
0
 49
0.9525
 74
0
 49
-0.9525
 74
0
  0
LTYPE
  5
48
330
5
100
AcDbSymbolTableRecord
100
AcDbLinetypeTableRecord
  2
CENTER2
 70
0
  3
Center (.5x) ___ _ ___ _ ___ _ ___ _ ___ _ ___
 72
65
 73
4
 40
28.575
 49
19.05
 74
0
 49
-3.175
 74
0
 49
3.175
 74
0
 49
-3.175
 74
0
  0
LTYPE
  5
49
330
5
100
AcDbSymbolTableRecord
100
AcDbLinetypeTableRecord
  2
CENTERX2
 70
0
  3
Center (2x) ________  __  ________  __  _____
 72
65
 73
4
 40
101.6
 49
63.5
 74
0
 49
-12.7
 74
0
 49
12.7
 74
0
 49
-12.7
 74
0
  0
ENDTAB
  0
TABLE
  2
LAYER
  5
2
330
0
100
AcDbSymbolTable
 70
3
  0
LAYER
  5
10
330
2
100
AcDbSymbolTableRecord
100
AcDbLayerTableRecord
  2
0
 70
0
 62
7
  6
CONTINUOUS
370
-3
390
F
347
20010
  0
LAYER
  5
4A
330
2
100
AcDbSymbolTableRecord
100
AcDbLayerTableRecord
  2
Defpoints
 70
0
 62
7
  6
CONTINUOUS
290
0
370
-3
390
F
347
20010
  0
LAYER
  5
4B
330
2
100
AcDbSymbolTableRecord
100
AcDbLayerTableRecord
  2
engraving
 70
0
 62
1
  6
CONTINUOUS
370
-3
390
F
347
20010
  0
ENDTAB
  0
TABLE
  2
STYLE
  5
3
330
0
100
AcDbSymbolTable
 70
1
  0
STYLE
  5
4C
330
3
100
AcDbSymbolTableRecord
100
AcDbTextStyleTableRecord
  2
Standard
 70
0
 40
0.0
 41
1.0
 50
0.0
 71
0
 42
1.0
  3
txt
  4

  0
ENDTAB
  0
TABLE
  2
VIEW
  5
6
330
0
100
AcDbSymbolTable
 70
0
  0
ENDTAB
  0
TABLE
  2
UCS
  5
7
330
0
100
AcDbSymbolTable
 70
0
  0
ENDTAB
  0
TABLE
  2
APPID
  5
9
330
0
100
AcDbSymbolTable
 70
4
  0
APPID
  5
12
330
9
100
AcDbSymbolTableRecord
100
AcDbRegAppTableRecord
  2
ACAD
 70
0
  0
APPID
  5
4D
330
9
100
AcDbSymbolTableRecord
100
AcDbRegAppTableRecord
  2
LibreCad
 70
0
  0
APPID
  5
2022F
330
9
100
AcDbSymbolTableRecord
100
AcDbRegAppTableRecord
  2
HATCHBACKGROUNDCOLOR
 70
0
  0
APPID
  5
20230
330
9
100
AcDbSymbolTableRecord
100
AcDbRegAppTableRecord
  2
EZDXF
 70
0
  0
ENDTAB
  0
TABLE
  2
DIMSTYLE
  5
A
330
0
100
AcDbSymbolTable
 70
1
100
AcDbDimStyleTable
  0
DIMSTYLE
105
4E
330
A
100
AcDbSymbolTableRecord
100
AcDbDimStyleTableRecord
  2
Standard
 70
0
 40
1.0
 41
2.5
 42
0.625
 43
0.38
 44
1.25
 45
0.0
 46
0.0
 47
0.0
 48
0.0
 49
1.0
140
2.5
141
0.09
142
0.0
143
25.4
144
1.0
145
0.0
146
1.0
147
0.625
148
0.0
 69
0
 70
0
 71
0
 72
0
 73
0
 74
1
 75
0
 76
0
 77
0
 78
8
 79
0
170
0
171
2
172
0
173
0
174
0
175
0
176
0
177
0
178
0
179
0
271
2
272
4
273
2
274
2
275
0
276
0
277
2
278
44
279
0
280
0
281
0
282
0
283
1
284
0
285
0
286
0
288
0
289
3
290
0
340
4C
371
-2
372
-2
  0
ENDTAB
  0
TABLE
  2
BLOCK_RECORD
  5
1
330
0
100
AcDbSymbolTable
 70
3
  0
BLOCK_RECORD
  5
1F
330
1
100
AcDbSymbolTableRecord
100
AcDbBlockTableRecord
  2
*Model_Space
340
2000C
 70
0
280
1
281
0
  0
BLOCK_RECORD
  5
1E
330
1
100
AcDbSymbolTableRecord
100
AcDbBlockTableRecord
  2
*Paper_Space
340
2000D
 70
0
280
1
281
0
  0
BLOCK_RECORD
  5
4F
330
1
100
AcDbSymbolTableRecord
100
AcDbBlockTableRecord
  2
BASE_GEOMETRY
340
0
 70
0
280
1
281
0
  0
ENDTAB
  0
ENDSEC
  0
SECTION
  2
BLOCKS
  0
BLOCK
  5
20
330
1F
100
AcDbEntity
  8
0
100
AcDbBlockBegin
  2
*Model_Space
 70
0
 10
0.0
 20
0.0
 30
0.0
  3
*Model_Space
  1

  0
ENDBLK
  5
21
330
1F
100
AcDbEntity
  8
0
100
AcDbBlockEnd
  0
BLOCK
  5
1C
330
1E
100
AcDbEntity
  8
0
100
AcDbBlockBegin
  2
*Paper_Space
 70
0
 10
0.0
 20
0.0
 30
0.0
  3
*Paper_Space
  1

  0
ENDBLK
  5
1D
330
1E
100
AcDbEntity
  8
0
100
AcDbBlockEnd
  0
BLOCK
  5
50
330
4F
100
AcDbEntity
  8
0
100
AcDbBlockBegin
  2
BASE_GEOMETRY
 70
0
 10
0.0
 20
0.0
 30
0.0
  3
BASE_GEOMETRY
  1

  0
LINE
  5
20013
330
4F
100
AcDbEntity
  8
0
100
AcDbLine
 10
150.16666666666669
 20
93.833333333333
 30
-0.49999999999999145
 11
149.66666666666669
 21
93.833333333333
 31
-0.4999999999999914
  0
LINE
  5
20014
330
4F
100
AcDbEntity
  8
0
100
AcDbLine
 10
149.66666666666669
 20
93.833333333333
 30
-0.49999999999999145
 11
149.66666666666669
 21
89.833333333333
 31
-0.49999999999999145
  0
LINE
  5
20015
330
4F
100
AcDbEntity
  8
0
100
AcDbLine
 10
150.16666666666669
 20
89.833333333333
 30
-0.49999999999999145
 11
149.66666666666669
 21
89.833333333333
 31
-0.4999999999999914
  0
LINE
  5
20016
330
4F
100
AcDbEntity
  8
0
100
AcDbLine
 10
150.16666666666669
 20
93.833333333333
 30
-0.49999999999999145
 11
150.16666666666669
 21
89.833333333333
 31
-0.49999999999999145
  0
LINE
  5
20017
330
4F
100
AcDbEntity
  8
0
100
AcDbLine
 10
149.66649999999998
 20
77.333333333333
 30
-0.49999999999999145
 11
149.66649999999998
 21
76.833333333333
 31
-0.49999999999999145
  0
LINE
  5
20018
330
4F
100
AcDbEntity
  8
0
100
AcDbLine
 10
149.6665
 20
77.333333333333
 30
-0.49999999999998435
 11
130.33350000000002
 21
77.333333333333
 31
-0.49999999999998435
  0
LINE
  5
20019
330
4F
100
AcDbEntity
  8
0
100
AcDbLine
 10
130.33350000000002
 20
77.333333333333
 30
-0.49999999999998435
 11
130.33350000000002
 21
76.833333333333
 31
-0.49999999999998435
  0
LINE
  5
2001A
330
4F
100
AcDbEntity
  8
0
100
AcDbLine
 10
149.6665
 20
76.833333333333
 30
-0.49999999999998435
 11
130.33350000000002
 21
76.833333333333
 31
-0.49999999999998435
  0
LINE
  5
2001B
330
4F
100
AcDbEntity
  8
0
100
AcDbLine
 10
150.16666666666669
 20
75.833333333333
 30
-0.49999999999999145
 11
149.66666666666669
 21
75.833333333333
 31
-0.4999999999999914
  0
LINE
  5
2001C
330
4F
100
AcDbEntity
  8
0
100
AcDbLine
 10
149.66666666666669
 20
75.833333333333
 30
-0.49999999999999145
 11
149.66666666666669
 21
71.833333333333
 31
-0.49999999999999145
  0
LINE
  5
2001D
330
4F
100
AcDbEntity
  8
0
100
AcDbLine
 10
150.16666666666669
 20
71.833333333333
 30
-0.49999999999999145
 11
149.66666666666669
 21
71.833333333333
 31
-0.4999999999999914
  0
LINE
  5
2001E
330
4F
100
AcDbEntity
  8
0
100
AcDbLine
 10
150.16666666666669
 20
75.833333333333
 30
-0.49999999999999145
 11
150.16666666666669
 21
71.833333333333
 31
-0.49999999999999145
  0
LINE
  5
2001F
330
4F
100
AcDbEntity
  8
0
100
AcDbLine
 10
149.66649999999998
 20
59.333333333333
 30
-0.49999999999999145
 11
149.66649999999998
 21
58.833333333333
 31
-0.49999999999999145
  0
LINE
  5
20020
330
4F
100
AcDbEntity
  8
0
100
AcDbLine
 10
149.6665
 20
59.333333333333
 30
-0.49999999999998435
 11
130.33350000000002
 21
59.333333333333
 31
-0.49999999999998435
  0
LINE
  5
20021
330
4F
100
AcDbEntity
  8
0
100
AcDbLine
 10
130.33350000000002
 20
59.333333333333
 30
-0.49999999999998435
 11
130.33350000000002
 21
58.833333333333
 31
-0.49999999999998435
  0
LINE
  5
20022
330
4F
100
AcDbEntity
  8
0
100
AcDbLine
 10
149.6665
 20
58.833333333333
 30
-0.49999999999998435
 11
130.33350000000002
 21
58.833333333333
 31
-0.49999999999998435
  0
LINE
  5
20023
330
4F
100
AcDbEntity
  8
0
100
AcDbLine
 10
150.16666666666669
 20
57.833333333333
 30
-0.49999999999999145
 11
149.66666666666669
 21
57.833333333333
 31
-0.4999999999999914
  0
LINE
  5
20024
330
4F
100
AcDbEntity
  8
0
100
AcDbLine
 10
149.66666666666669
 20
57.833333333333
 30
-0.49999999999999145
 11
149.66666666666669
 21
53.833333333333
 31
-0.49999999999999145
  0
LINE
  5
20025
330
4F
100
AcDbEntity
  8
0
100
AcDbLine
 10
150.16666666666669
 20
53.833333333333
 30
-0.49999999999999145
 11
149.66666666666669
 21
53.833333333333
 31
-0.4999999999999914
  0
LINE
  5
20026
330
4F
100
AcDbEntity
  8
0
100
AcDbLine
 10
150.16666666666669
 20
57.833333333333
 30
-0.49999999999999145
 11
150.16666666666669
 21
53.833333333333
 31
-0.49999999999999145
  0
LINE
  5
20027
330
4F
100
AcDbEntity
  8
0
100
AcDbLine
 10
149.66649999999998
 20
41.333333333333
 30
-0.49999999999999145
 11
149.66649999999998
 21
40.833333333333
 31
-0.49999999999999145
  0
LINE
  5
20028
330
4F
100
AcDbEntity
  8
0
100
AcDbLine
 10
149.6665
 20
41.333333333333
 30
-0.49999999999998435
 11
130.33350000000002
 21
41.333333333333
 31
-0.49999999999998435
  0
LINE
  5
20029
330
4F
100
AcDbEntity
  8
0
100
AcDbLine
 10
130.33350000000002
 20
41.333333333333
 30
-0.49999999999998435
 11
130.33350000000002
 21
40.833333333333
 31
-0.49999999999998435
  0
LINE
  5
2002A
330
4F
100
AcDbEntity
  8
0
100
AcDbLine
 10
149.6665
 20
40.833333333333
 30
-0.49999999999998435
 11
130.33350000000002
 21
40.833333333333
 31
-0.49999999999998435
  0
LINE
  5
2002B
330
4F
100
AcDbEntity
  8
0
100
AcDbLine
 10
150.16666666666669
 20
39.833333333333
 30
-0.49999999999999145
 11
149.66666666666669
 21
39.833333333333
 31
-0.4999999999999914
  0
LINE
  5
2002C
330
4F
100
AcDbEntity
  8
0
100
AcDbLine
 10
149.66666666666669
 20
39.833333333333
 30
-0.49999999999999145
 11
149.66666666666669
 21
35.833333333333
 31
-0.49999999999999145
  0
LINE
  5
2002D
330
4F
100
AcDbEntity
  8
0
100
AcDbLine
 10
150.16666666666669
 20
35.833333333333
 30
-0.49999999999999145
 11
149.66666666666669
 21
35.833333333333
 31
-0.4999999999999914
  0
LINE
  5
2002E
330
4F
100
AcDbEntity
  8
0
100
AcDbLine
 10
150.16666666666669
 20
39.833333333333
 30
-0.49999999999999145
 11
150.16666666666669
 21
35.833333333333
 31
-0.49999999999999145
  0
LINE
  5
2002F
330
4F
100
AcDbEntity
  8
0
100
AcDbLine
 10
149.66649999999998
 20
23.333333333333
 30
-0.49999999999999145
 11
149.66649999999998
 21
22.833333333333
 31
-0.49999999999999145
  0
LINE
  5
20030
330
4F
100
AcDbEntity
  8
0
100
AcDbLine
 10
149.6665
 20
23.333333333333
 30
-0.49999999999998435
 11
130.33350000000002
 21
23.333333333333
 31
-0.49999999999998435
  0
LINE
  5
20031
330
4F
100
AcDbEntity
  8
0
100
AcDbLine
 10
130.33350000000002
 20
23.333333333333
 30
-0.49999999999998435
 11
130.33350000000002
 21
22.833333333333
 31
-0.49999999999998435
  0
LINE
  5
20032
330
4F
100
AcDbEntity
  8
0
100
AcDbLine
 10
149.6665
 20
22.833333333333
 30
-0.49999999999998435
 11
130.33350000000002
 21
22.833333333333
 31
-0.49999999999998435
  0
LINE
  5
20033
330
4F
100
AcDbEntity
  8
0
100
AcDbLine
 10
150.16666666666669
 20
21.833333333333
 30
-0.49999999999999145
 11
149.66666666666669
 21
21.833333333333
 31
-0.4999999999999914
  0
LINE
  5
20034
330
4F
100
AcDbEntity
  8
0
100
AcDbLine
 10
149.66666666666669
 20
21.833333333333
 30
-0.49999999999999145
 11
149.66666666666669
 21
17.833333333333
 31
-0.49999999999999145
  0
LINE
  5
20035
330
4F
100
AcDbEntity
  8
0
100
AcDbLine
 10
150.16666666666669
 20
17.833333333333
 30
-0.49999999999999145
 11
149.66666666666669
 21
17.833333333333
 31
-0.4999999999999914
  0
LINE
  5
20036
330
4F
100
AcDbEntity
  8
0
100
AcDbLine
 10
150.16666666666669
 20
21.833333333333
 30
-0.49999999999999145
 11
150.16666666666669
 21
17.833333333333
 31
-0.49999999999999145
  0
LINE
  5
20037
330
4F
100
AcDbEntity
  8
0
100
AcDbLine
 10
145.0
 20
5.333333333333002
 30
-0.49999999999998435
 11
135.0
 21
5.333333333333002
 31
-0.49999999999998435
  0
LINE
  5
20038
330
4F
100
AcDbEntity
  8
0
100
AcDbLine
 10
145.0
 20
5.333333333333002
 30
-0.49999999999999145
 11
145.0
 21
5.833333333333002
 31
-0.49999999999999134
  0
LINE
  5
20039
330
4F
100
AcDbEntity
  8
0
100
AcDbLine
 10
135.0
 20
5.833333333333002
 30
-0.49999999999998435
 11
145.0
 21
5.833333333333002
 31
-0.49999999999998435
  0
LINE
  5
2003A
330
4F
100
AcDbEntity
  8
0
100
AcDbLine
 10
135.0
 20
5.333333333333002
 30
-0.49999999999998435
 11
135.0
 21
5.833333333333002
 31
-0.49999999999998423
  0
LINE
  5
2003B
330
4F
100
AcDbEntity
  8
0
100
AcDbLine
 10
135.0
 20
94.833333333333
 30
-0.49999999999998435
 11
135.0
 21
95.333333333333
 31
-0.49999999999998423
  0
LINE
  5
2003C
330
4F
100
AcDbEntity
  8
0
100
AcDbLine
 10
135.0
 20
94.833333333333
 30
-0.49999999999998435
 11
145.0
 21
94.833333333333
 31
-0.49999999999998435
  0
LINE
  5
2003D
330
4F
100
AcDbEntity
  8
0
100
AcDbLine
 10
145.0
 20
94.833333333333
 30
-0.49999999999999145
 11
145.0
 21
95.333333333333
 31
-0.49999999999999134
  0
LINE
  5
2003E
330
4F
100
AcDbEntity
  8
0
100
AcDbLine
 10
145.0
 20
95.333333333333
 30
-0.49999999999999856
 11
208.33333333333331
 21
95.333333333333
 31
-0.49999999999999856
  0
LINE
  5
2003F
330
4F
100
AcDbEntity
  8
0
100
AcDbLine
 10
208.33333333333331
 20
94.833333333333
 30
-0.49999999999999856
 11
208.33333333333331
 21
95.333333333333
 31
-0.49999999999999845
  0
LINE
  5
20040
330
4F
100
AcDbEntity
  8
0
100
AcDbLine
 10
208.33333333333331
 20
94.833333333333
 30
-0.49999999999998435
 11
218.33333333333303
 21
94.833333333333
 31
-0.49999999999998435
  0
LINE
  5
20041
330
4F
100
AcDbEntity
  8
0
100
AcDbLine
 10
218.33333333333303
 20
94.833333333333
 30
-0.49999999999999856
 11
218.33333333333303
 21
95.333333333333
 31
-0.49999999999999845
  0
LINE
  5
20042
330
4F
100
AcDbEntity
  8
0
100
AcDbLine
 10
218.333333333333
 20
95.333333333333
 30
-0.49999999999999856
 11
224.0
 21
95.333333333333
 31
-0.49999999999999856
  0
LINE
  5
20043
330
4F
100
AcDbEntity
  8
0
100
AcDbLine
 10
224.0
 20
95.333333333333
 30
-0.49999999999999856
 11
224.0
 21
0.0
 31
-0.49999999999999856
  0
LINE
  5
20044
330
4F
100
AcDbEntity
  8
0
100
AcDbLine
 10
0.0
 20
0.0
 30
-0.49999999999998435
 11
224.0
 21
0.0
 31
-0.49999999999998435
  0
LINE
  5
20045
330
4F
100
AcDbEntity
  8
0
100
AcDbLine
 10
1.4210854715202004e-14
 20
95.333333333333
 30
-0.49999999999997014
 11
1.4210854715202004e-14
 21
0.0
 31
-0.49999999999997014
  0
LINE
  5
20046
330
4F
100
AcDbEntity
  8
0
100
AcDbLine
 10
0.0
 20
95.333333333333
 30
-0.49999999999999856
 11
5.666666666666998
 21
95.333333333333
 31
-0.49999999999999856
  0
LINE
  5
20047
330
4F
100
AcDbEntity
  8
0
100
AcDbLine
 10
5.6666666666670125
 20
94.833333333333
 30
-0.49999999999997014
 11
5.6666666666670125
 21
95.333333333333
 31
-0.49999999999997
  0
LINE
  5
20048
330
4F
100
AcDbEntity
  8
0
100
AcDbLine
 10
5.6666666666670125
 20
94.833333333333
 30
-0.49999999999998435
 11
15.666666666666714
 21
94.833333333333
 31
-0.49999999999998435
  0
LINE
  5
20049
330
4F
100
AcDbEntity
  8
0
100
AcDbLine
 10
15.666666666666714
 20
94.833333333333
 30
-0.49999999999997014
 11
15.666666666666714
 21
95.333333333333
 31
-0.49999999999997
  0
LINE
  5
2004A
330
4F
100
AcDbEntity
  8
0
100
AcDbLine
 10
15.666666666666686
 20
95.333333333333
 30
-0.49999999999999856
 11
79.0
 21
95.333333333333
 31
-0.49999999999999856
  0
LINE
  5
2004B
330
4F
100
AcDbEntity
  8
0
100
AcDbLine
 10
79.0
 20
94.833333333333
 30
-0.49999999999997724
 11
79.0
 21
95.333333333333
 31
-0.49999999999997713
  0
LINE
  5
2004C
330
4F
100
AcDbEntity
  8
0
100
AcDbLine
 10
79.0
 20
94.833333333333
 30
-0.49999999999998435
 11
89.00000000000001
 21
94.833333333333
 31
-0.49999999999998435
  0
LINE
  5
2004D
330
4F
100
AcDbEntity
  8
0
100
AcDbLine
 10
89.0
 20
94.833333333333
 30
-0.49999999999998435
 11
89.0
 21
95.333333333333
 31
-0.49999999999998423
  0
LINE
  5
2004E
330
4F
100
AcDbEntity
  8
0
100
AcDbLine
 10
89.0
 20
95.333333333333
 30
-0.49999999999999856
 11
135.0
 21
95.333333333333
 31
-0.49999999999999856
  0
LINE
  5
2004F
330
4F
100
AcDbEntity
  8
0
100
AcDbLine
 10
130.3333333333334
 20
93.833333333333
 30
-0.49999999999998435
 11
130.3333333333334
 21
89.833333333333
 31
-0.49999999999998435
  0
LINE
  5
20050
330
4F
100
AcDbEntity
  8
0
100
AcDbLine
 10
130.3333333333334
 20
93.833333333333
 30
-0.49999999999998435
 11
129.8333333333334
 21
93.833333333333
 31
-0.4999999999999843
  0
LINE
  5
20051
330
4F
100
AcDbEntity
  8
0
100
AcDbLine
 10
129.8333333333334
 20
93.833333333333
 30
-0.49999999999998435
 11
129.8333333333334
 21
89.833333333333
 31
-0.49999999999998435
  0
LINE
  5
20052
330
4F
100
AcDbEntity
  8
0
100
AcDbLine
 10
130.3333333333334
 20
89.833333333333
 30
-0.49999999999998435
 11
129.8333333333334
 21
89.833333333333
 31
-0.4999999999999843
  0
LINE
  5
20053
330
4F
100
AcDbEntity
  8
0
100
AcDbLine
 10
130.3333333333334
 20
75.833333333333
 30
-0.49999999999998435
 11
130.3333333333334
 21
71.833333333333
 31
-0.49999999999998435
  0
LINE
  5
20054
330
4F
100
AcDbEntity
  8
0
100
AcDbLine
 10
130.3333333333334
 20
75.833333333333
 30
-0.49999999999998435
 11
129.8333333333334
 21
75.833333333333
 31
-0.4999999999999843
  0
LINE
  5
20055
330
4F
100
AcDbEntity
  8
0
100
AcDbLine
 10
129.8333333333334
 20
75.833333333333
 30
-0.49999999999998435
 11
129.8333333333334
 21
71.833333333333
 31
-0.49999999999998435
  0
LINE
  5
20056
330
4F
100
AcDbEntity
  8
0
100
AcDbLine
 10
130.3333333333334
 20
71.833333333333
 30
-0.49999999999998435
 11
129.8333333333334
 21
71.833333333333
 31
-0.4999999999999843
  0
LINE
  5
20057
330
4F
100
AcDbEntity
  8
0
100
AcDbLine
 10
130.3333333333334
 20
57.833333333333
 30
-0.49999999999998435
 11
130.3333333333334
 21
53.833333333333
 31
-0.49999999999998435
  0
LINE
  5
20058
330
4F
100
AcDbEntity
  8
0
100
AcDbLine
 10
130.3333333333334
 20
57.833333333333
 30
-0.49999999999998435
 11
129.8333333333334
 21
57.833333333333
 31
-0.4999999999999843
  0
LINE
  5
20059
330
4F
100
AcDbEntity
  8
0
100
AcDbLine
 10
129.8333333333334
 20
57.833333333333
 30
-0.49999999999998435
 11
129.8333333333334
 21
53.833333333333
 31
-0.49999999999998435
  0
LINE
  5
2005A
330
4F
100
AcDbEntity
  8
0
100
AcDbLine
 10
130.3333333333334
 20
53.833333333333
 30
-0.49999999999998435
 11
129.8333333333334
 21
53.833333333333
 31
-0.4999999999999843
  0
LINE
  5
2005B
330
4F
100
AcDbEntity
  8
0
100
AcDbLine
 10
130.3333333333334
 20
39.833333333333
 30
-0.49999999999998435
 11
130.3333333333334
 21
35.833333333333
 31
-0.49999999999998435
  0
LINE
  5
2005C
330
4F
100
AcDbEntity
  8
0
100
AcDbLine
 10
130.3333333333334
 20
39.833333333333
 30
-0.49999999999998435
 11
129.8333333333334
 21
39.833333333333
 31
-0.4999999999999843
  0
LINE
  5
2005D
330
4F
100
AcDbEntity
  8
0
100
AcDbLine
 10
129.8333333333334
 20
39.833333333333
 30
-0.49999999999998435
 11
129.8333333333334
 21
35.833333333333
 31
-0.49999999999998435
  0
LINE
  5
2005E
330
4F
100
AcDbEntity
  8
0
100
AcDbLine
 10
130.3333333333334
 20
35.833333333333
 30
-0.49999999999998435
 11
129.8333333333334
 21
35.833333333333
 31
-0.4999999999999843
  0
LINE
  5
2005F
330
4F
100
AcDbEntity
  8
0
100
AcDbLine
 10
130.3333333333334
 20
21.833333333333
 30
-0.49999999999998435
 11
130.3333333333334
 21
17.833333333333
 31
-0.49999999999998435
  0
LINE
  5
20060
330
4F
100
AcDbEntity
  8
0
100
AcDbLine
 10
130.3333333333334
 20
21.833333333333
 30
-0.49999999999998435
 11
129.8333333333334
 21
21.833333333333
 31
-0.4999999999999843
  0
LINE
  5
20061
330
4F
100
AcDbEntity
  8
0
100
AcDbLine
 10
129.8333333333334
 20
21.833333333333
 30
-0.49999999999998435
 11
129.8333333333334
 21
17.833333333333
 31
-0.49999999999998435
  0
LINE
  5
20062
330
4F
100
AcDbEntity
  8
0
100
AcDbLine
 10
130.3333333333334
 20
17.833333333333
 30
-0.49999999999998435
 11
129.8333333333334
 21
17.833333333333
 31
-0.4999999999999843
  0
LINE
  5
20063
330
4F
100
AcDbEntity
  8
0
100
AcDbLine
 10
93.6666666666666
 20
17.833333333333
 30
-0.49999999999998435
 11
93.6666666666666
 21
21.833333333333
 31
-0.49999999999998435
  0
LINE
  5
20064
330
4F
100
AcDbEntity
  8
0
100
AcDbLine
 10
93.6666666666666
 20
17.833333333333
 30
-0.49999999999998435
 11
94.1666666666666
 21
17.833333333333
 31
-0.4999999999999844
  0
LINE
  5
20065
330
4F
100
AcDbEntity
  8
0
100
AcDbLine
 10
94.1666666666666
 20
17.833333333333
 30
-0.49999999999998435
 11
94.1666666666666
 21
21.833333333333
 31
-0.49999999999998435
  0
LINE
  5
20066
330
4F
100
AcDbEntity
  8
0
100
AcDbLine
 10
93.6666666666666
 20
21.833333333333
 30
-0.49999999999998435
 11
94.1666666666666
 21
21.833333333333
 31
-0.4999999999999844
  0
LINE
  5
20067
330
4F
100
AcDbEntity
  8
0
100
AcDbLine
 10
93.66650000000001
 20
22.833333333333
 30
-0.49999999999998435
 11
74.33350000000002
 21
22.833333333333
 31
-0.49999999999998435
  0
LINE
  5
20068
330
4F
100
AcDbEntity
  8
0
100
AcDbLine
 10
93.66650000000001
 20
23.333333333333
 30
-0.49999999999998435
 11
93.66650000000001
 21
22.833333333333
 31
-0.49999999999998435
  0
LINE
  5
20069
330
4F
100
AcDbEntity
  8
0
100
AcDbLine
 10
93.66650000000001
 20
23.333333333333
 30
-0.49999999999998435
 11
74.33350000000002
 21
23.333333333333
 31
-0.49999999999998435
  0
LINE
  5
2006A
330
4F
100
AcDbEntity
  8
0
100
AcDbLine
 10
74.3335
 20
23.333333333333
 30
-0.49999999999997724
 11
74.3335
 21
22.833333333333
 31
-0.49999999999997724
  0
LINE
  5
2006B
330
4F
100
AcDbEntity
  8
0
100
AcDbLine
 10
93.6666666666666
 20
35.833333333333
 30
-0.49999999999998435
 11
93.6666666666666
 21
39.833333333333
 31
-0.49999999999998435
  0
LINE
  5
2006C
330
4F
100
AcDbEntity
  8
0
100
AcDbLine
 10
93.6666666666666
 20
35.833333333333
 30
-0.49999999999998435
 11
94.1666666666666
 21
35.833333333333
 31
-0.4999999999999844
  0
LINE
  5
2006D
330
4F
100
AcDbEntity
  8
0
100
AcDbLine
 10
94.1666666666666
 20
35.833333333333
 30
-0.49999999999998435
 11
94.1666666666666
 21
39.833333333333
 31
-0.49999999999998435
  0
LINE
  5
2006E
330
4F
100
AcDbEntity
  8
0
100
AcDbLine
 10
93.6666666666666
 20
39.833333333333
 30
-0.49999999999998435
 11
94.1666666666666
 21
39.833333333333
 31
-0.4999999999999844
  0
LINE
  5
2006F
330
4F
100
AcDbEntity
  8
0
100
AcDbLine
 10
93.66650000000001
 20
40.833333333333
 30
-0.49999999999998435
 11
74.33350000000002
 21
40.833333333333
 31
-0.49999999999998435
  0
LINE
  5
20070
330
4F
100
AcDbEntity
  8
0
100
AcDbLine
 10
93.66650000000001
 20
41.333333333333
 30
-0.49999999999998435
 11
93.66650000000001
 21
40.833333333333
 31
-0.49999999999998435
  0
LINE
  5
20071
330
4F
100
AcDbEntity
  8
0
100
AcDbLine
 10
93.66650000000001
 20
41.333333333333
 30
-0.49999999999998435
 11
74.33350000000002
 21
41.333333333333
 31
-0.49999999999998435
  0
LINE
  5
20072
330
4F
100
AcDbEntity
  8
0
100
AcDbLine
 10
74.3335
 20
41.333333333333
 30
-0.49999999999997724
 11
74.3335
 21
40.833333333333
 31
-0.49999999999997724
  0
LINE
  5
20073
330
4F
100
AcDbEntity
  8
0
100
AcDbLine
 10
93.6666666666666
 20
53.833333333333
 30
-0.49999999999998435
 11
93.6666666666666
 21
57.833333333333
 31
-0.49999999999998435
  0
LINE
  5
20074
330
4F
100
AcDbEntity
  8
0
100
AcDbLine
 10
93.6666666666666
 20
53.833333333333
 30
-0.49999999999998435
 11
94.1666666666666
 21
53.833333333333
 31
-0.4999999999999844
  0
LINE
  5
20075
330
4F
100
AcDbEntity
  8
0
100
AcDbLine
 10
94.1666666666666
 20
53.833333333333
 30
-0.49999999999998435
 11
94.1666666666666
 21
57.833333333333
 31
-0.49999999999998435
  0
LINE
  5
20076
330
4F
100
AcDbEntity
  8
0
100
AcDbLine
 10
93.6666666666666
 20
57.833333333333
 30
-0.49999999999998435
 11
94.1666666666666
 21
57.833333333333
 31
-0.4999999999999844
  0
LINE
  5
20077
330
4F
100
AcDbEntity
  8
0
100
AcDbLine
 10
93.66650000000001
 20
58.833333333333
 30
-0.49999999999998435
 11
74.33350000000002
 21
58.833333333333
 31
-0.49999999999998435
  0
LINE
  5
20078
330
4F
100
AcDbEntity
  8
0
100
AcDbLine
 10
93.66650000000001
 20
59.333333333333
 30
-0.49999999999998435
 11
93.66650000000001
 21
58.833333333333
 31
-0.49999999999998435
  0
LINE
  5
20079
330
4F
100
AcDbEntity
  8
0
100
AcDbLine
 10
93.66650000000001
 20
59.333333333333
 30
-0.49999999999998435
 11
74.33350000000002
 21
59.333333333333
 31
-0.49999999999998435
  0
LINE
  5
2007A
330
4F
100
AcDbEntity
  8
0
100
AcDbLine
 10
74.3335
 20
59.333333333333
 30
-0.49999999999997724
 11
74.3335
 21
58.833333333333
 31
-0.49999999999997724
  0
LINE
  5
2007B
330
4F
100
AcDbEntity
  8
0
100
AcDbLine
 10
93.6666666666666
 20
71.833333333333
 30
-0.49999999999998435
 11
93.6666666666666
 21
75.833333333333
 31
-0.49999999999998435
  0
LINE
  5
2007C
330
4F
100
AcDbEntity
  8
0
100
AcDbLine
 10
93.6666666666666
 20
71.833333333333
 30
-0.49999999999998435
 11
94.1666666666666
 21
71.833333333333
 31
-0.4999999999999844
  0
LINE
  5
2007D
330
4F
100
AcDbEntity
  8
0
100
AcDbLine
 10
94.1666666666666
 20
71.833333333333
 30
-0.49999999999998435
 11
94.1666666666666
 21
75.833333333333
 31
-0.49999999999998435
  0
LINE
  5
2007E
330
4F
100
AcDbEntity
  8
0
100
AcDbLine
 10
93.6666666666666
 20
75.833333333333
 30
-0.49999999999998435
 11
94.1666666666666
 21
75.833333333333
 31
-0.4999999999999844
  0
LINE
  5
2007F
330
4F
100
AcDbEntity
  8
0
100
AcDbLine
 10
93.66650000000001
 20
76.833333333333
 30
-0.49999999999998435
 11
74.33350000000002
 21
76.833333333333
 31
-0.49999999999998435
  0
LINE
  5
20080
330
4F
100
AcDbEntity
  8
0
100
AcDbLine
 10
93.66650000000001
 20
77.333333333333
 30
-0.49999999999998435
 11
93.66650000000001
 21
76.833333333333
 31
-0.49999999999998435
  0
LINE
  5
20081
330
4F
100
AcDbEntity
  8
0
100
AcDbLine
 10
93.66650000000001
 20
77.333333333333
 30
-0.49999999999998435
 11
74.33350000000002
 21
77.333333333333
 31
-0.49999999999998435
  0
LINE
  5
20082
330
4F
100
AcDbEntity
  8
0
100
AcDbLine
 10
74.3335
 20
77.333333333333
 30
-0.49999999999997724
 11
74.3335
 21
76.833333333333
 31
-0.49999999999997724
  0
LINE
  5
20083
330
4F
100
AcDbEntity
  8
0
100
AcDbLine
 10
93.6666666666666
 20
89.833333333333
 30
-0.49999999999998435
 11
93.6666666666666
 21
93.833333333333
 31
-0.49999999999998435
  0
LINE
  5
20084
330
4F
100
AcDbEntity
  8
0
100
AcDbLine
 10
93.6666666666666
 20
89.833333333333
 30
-0.49999999999998435
 11
94.1666666666666
 21
89.833333333333
 31
-0.4999999999999844
  0
LINE
  5
20085
330
4F
100
AcDbEntity
  8
0
100
AcDbLine
 10
94.1666666666666
 20
89.833333333333
 30
-0.49999999999998435
 11
94.1666666666666
 21
93.833333333333
 31
-0.49999999999998435
  0
LINE
  5
20086
330
4F
100
AcDbEntity
  8
0
100
AcDbLine
 10
93.6666666666666
 20
93.833333333333
 30
-0.49999999999998435
 11
94.1666666666666
 21
93.833333333333
 31
-0.4999999999999844
  0
LINE
  5
20087
330
4F
100
AcDbEntity
  8
0
100
AcDbLine
 10
73.8333333333333
 20
17.833333333333
 30
-0.49999999999997724
 11
74.3333333333333
 21
17.833333333333
 31
-0.4999999999999773
  0
LINE
  5
20088
330
4F
100
AcDbEntity
  8
0
100
AcDbLine
 10
74.3333333333333
 20
17.833333333333
 30
-0.49999999999997724
 11
74.3333333333333
 21
21.833333333333
 31
-0.49999999999997724
  0
LINE
  5
20089
330
4F
100
AcDbEntity
  8
0
100
AcDbLine
 10
73.8333333333333
 20
21.833333333333
 30
-0.49999999999997724
 11
74.3333333333333
 21
21.833333333333
 31
-0.4999999999999773
  0
LINE
  5
2008A
330
4F
100
AcDbEntity
  8
0
100
AcDbLine
 10
73.8333333333333
 20
17.833333333333
 30
-0.49999999999997724
 11
73.8333333333333
 21
21.833333333333
 31
-0.49999999999997724
  0
LINE
  5
2008B
330
4F
100
AcDbEntity
  8
0
100
AcDbLine
 10
73.8333333333333
 20
35.833333333333
 30
-0.49999999999997724
 11
74.3333333333333
 21
35.833333333333
 31
-0.4999999999999773
  0
LINE
  5
2008C
330
4F
100
AcDbEntity
  8
0
100
AcDbLine
 10
74.3333333333333
 20
35.833333333333
 30
-0.49999999999997724
 11
74.3333333333333
 21
39.833333333333
 31
-0.49999999999997724
  0
LINE
  5
2008D
330
4F
100
AcDbEntity
  8
0
100
AcDbLine
 10
73.8333333333333
 20
39.833333333333
 30
-0.49999999999997724
 11
74.3333333333333
 21
39.833333333333
 31
-0.4999999999999773
  0
LINE
  5
2008E
330
4F
100
AcDbEntity
  8
0
100
AcDbLine
 10
73.8333333333333
 20
35.833333333333
 30
-0.49999999999997724
 11
73.8333333333333
 21
39.833333333333
 31
-0.49999999999997724
  0
LINE
  5
2008F
330
4F
100
AcDbEntity
  8
0
100
AcDbLine
 10
73.8333333333333
 20
53.833333333333
 30
-0.49999999999997724
 11
74.3333333333333
 21
53.833333333333
 31
-0.4999999999999773
  0
LINE
  5
20090
330
4F
100
AcDbEntity
  8
0
100
AcDbLine
 10
74.3333333333333
 20
53.833333333333
 30
-0.49999999999997724
 11
74.3333333333333
 21
57.833333333333
 31
-0.49999999999997724
  0
LINE
  5
20091
330
4F
100
AcDbEntity
  8
0
100
AcDbLine
 10
73.8333333333333
 20
57.833333333333
 30
-0.49999999999997724
 11
74.3333333333333
 21
57.833333333333
 31
-0.4999999999999773
  0
LINE
  5
20092
330
4F
100
AcDbEntity
  8
0
100
AcDbLine
 10
73.8333333333333
 20
53.833333333333
 30
-0.49999999999997724
 11
73.8333333333333
 21
57.833333333333
 31
-0.49999999999997724
  0
LINE
  5
20093
330
4F
100
AcDbEntity
  8
0
100
AcDbLine
 10
73.8333333333333
 20
71.833333333333
 30
-0.49999999999997724
 11
74.3333333333333
 21
71.833333333333
 31
-0.4999999999999773
  0
LINE
  5
20094
330
4F
100
AcDbEntity
  8
0
100
AcDbLine
 10
74.3333333333333
 20
71.833333333333
 30
-0.49999999999997724
 11
74.3333333333333
 21
75.833333333333
 31
-0.49999999999997724
  0
LINE
  5
20095
330
4F
100
AcDbEntity
  8
0
100
AcDbLine
 10
73.8333333333333
 20
75.833333333333
 30
-0.49999999999997724
 11
74.3333333333333
 21
75.833333333333
 31
-0.4999999999999773
  0
LINE
  5
20096
330
4F
100
AcDbEntity
  8
0
100
AcDbLine
 10
73.8333333333333
 20
71.833333333333
 30
-0.49999999999997724
 11
73.8333333333333
 21
75.833333333333
 31
-0.49999999999997724
  0
LINE
  5
20097
330
4F
100
AcDbEntity
  8
0
100
AcDbLine
 10
73.8333333333333
 20
89.833333333333
 30
-0.49999999999997724
 11
74.3333333333333
 21
89.833333333333
 31
-0.4999999999999773
  0
LINE
  5
20098
330
4F
100
AcDbEntity
  8
0
100
AcDbLine
 10
74.3333333333333
 20
89.833333333333
 30
-0.49999999999997724
 11
74.3333333333333
 21
93.833333333333
 31
-0.49999999999997724
  0
LINE
  5
20099
330
4F
100
AcDbEntity
  8
0
100
AcDbLine
 10
73.8333333333333
 20
93.833333333333
 30
-0.49999999999997724
 11
74.3333333333333
 21
93.833333333333
 31
-0.4999999999999773
  0
LINE
  5
2009A
330
4F
100
AcDbEntity
  8
0
100
AcDbLine
 10
73.8333333333333
 20
89.833333333333
 30
-0.49999999999997724
 11
73.8333333333333
 21
93.833333333333
 31
-0.49999999999997724
  0
LINE
  5
2009B
330
4F
100
AcDbEntity
  8
0
100
AcDbLine
 10
79.0
 20
5.333333333333002
 30
-0.49999999999997724
 11
79.0
 21
5.833333333333002
 31
-0.49999999999997713
  0
LINE
  5
2009C
330
4F
100
AcDbEntity
  8
0
100
AcDbLine
 10
79.0
 20
5.333333333333002
 30
-0.49999999999998435
 11
89.00000000000001
 21
5.333333333333002
 31
-0.49999999999998435
  0
LINE
  5
2009D
330
4F
100
AcDbEntity
  8
0
100
AcDbLine
 10
89.0
 20
5.333333333333002
 30
-0.49999999999998435
 11
89.0
 21
5.833333333333002
 31
-0.49999999999998423
  0
LINE
  5
2009E
330
4F
100
AcDbEntity
  8
0
100
AcDbLine
 10
79.0
 20
5.833333333333002
 30
-0.49999999999998435
 11
89.00000000000001
 21
5.833333333333002
 31
-0.49999999999998435
  0
LINE
  5
2009F
330
4F
100
AcDbEntity
  8
0
100
AcDbLine
 10
5.6666666666670125
 20
5.333333333333002
 30
-0.49999999999997014
 11
5.6666666666670125
 21
5.833333333333002
 31
-0.49999999999997
  0
LINE
  5
200A0
330
4F
100
AcDbEntity
  8
0
100
AcDbLine
 10
5.6666666666670125
 20
5.333333333333002
 30
-0.49999999999998435
 11
15.666666666666714
 21
5.333333333333002
 31
-0.49999999999998435
  0
LINE
  5
200A1
330
4F
100
AcDbEntity
  8
0
100
AcDbLine
 10
15.666666666666714
 20
5.333333333333002
 30
-0.49999999999997014
 11
15.666666666666714
 21
5.833333333333002
 31
-0.49999999999997
  0
LINE
  5
200A2
330
4F
100
AcDbEntity
  8
0
100
AcDbLine
 10
5.6666666666670125
 20
5.833333333333002
 30
-0.49999999999998435
 11
15.666666666666714
 21
5.833333333333002
 31
-0.49999999999998435
  0
LINE
  5
200A3
330
4F
100
AcDbEntity
  8
0
100
AcDbLine
 10
0.5000000000000142
 20
17.833333333333
 30
-0.49999999999997014
 11
1.0000000000000142
 21
17.833333333333
 31
-0.4999999999999702
  0
LINE
  5
200A4
330
4F
100
AcDbEntity
  8
0
100
AcDbLine
 10
1.0000000000000142
 20
17.833333333333
 30
-0.49999999999997014
 11
1.0000000000000142
 21
21.833333333333
 31
-0.49999999999997014
  0
LINE
  5
200A5
330
4F
100
AcDbEntity
  8
0
100
AcDbLine
 10
0.5000000000000142
 20
21.833333333333
 30
-0.49999999999997014
 11
1.0000000000000142
 21
21.833333333333
 31
-0.4999999999999702
  0
LINE
  5
200A6
330
4F
100
AcDbEntity
  8
0
100
AcDbLine
 10
0.5000000000000142
 20
17.833333333333
 30
-0.49999999999997014
 11
0.5000000000000142
 21
21.833333333333
 31
-0.49999999999997014
  0
LINE
  5
200A7
330
4F
100
AcDbEntity
  8
0
100
AcDbLine
 10
1.0000000000000142
 20
23.333333333333
 30
-0.49999999999997014
 11
1.0000000000000142
 21
22.833333333333
 31
-0.49999999999997014
  0
LINE
  5
200A8
330
4F
100
AcDbEntity
  8
0
100
AcDbLine
 10
20.333333333333314
 20
22.833333333333
 30
-0.49999999999998435
 11
1.0000000000000142
 21
22.833333333333
 31
-0.49999999999998435
  0
LINE
  5
200A9
330
4F
100
AcDbEntity
  8
0
100
AcDbLine
 10
20.333333333333314
 20
23.333333333333
 30
-0.49999999999997014
 11
20.333333333333314
 21
22.833333333333
 31
-0.49999999999997014
  0
LINE
  5
200AA
330
4F
100
AcDbEntity
  8
0
100
AcDbLine
 10
20.333333333333314
 20
23.333333333333
 30
-0.49999999999998435
 11
1.0000000000000142
 21
23.333333333333
 31
-0.49999999999998435
  0
LINE
  5
200AB
330
4F
100
AcDbEntity
  8
0
100
AcDbLine
 10
0.5000000000000142
 20
35.833333333333
 30
-0.49999999999997014
 11
1.0000000000000142
 21
35.833333333333
 31
-0.4999999999999702
  0
LINE
  5
200AC
330
4F
100
AcDbEntity
  8
0
100
AcDbLine
 10
1.0000000000000142
 20
35.833333333333
 30
-0.49999999999997014
 11
1.0000000000000142
 21
39.833333333333
 31
-0.49999999999997014
  0
LINE
  5
200AD
330
4F
100
AcDbEntity
  8
0
100
AcDbLine
 10
0.5000000000000142
 20
39.833333333333
 30
-0.49999999999997014
 11
1.0000000000000142
 21
39.833333333333
 31
-0.4999999999999702
  0
LINE
  5
200AE
330
4F
100
AcDbEntity
  8
0
100
AcDbLine
 10
0.5000000000000142
 20
35.833333333333
 30
-0.49999999999997014
 11
0.5000000000000142
 21
39.833333333333
 31
-0.49999999999997014
  0
LINE
  5
200AF
330
4F
100
AcDbEntity
  8
0
100
AcDbLine
 10
1.0000000000000142
 20
41.333333333333
 30
-0.49999999999997014
 11
1.0000000000000142
 21
40.833333333333
 31
-0.49999999999997014
  0
LINE
  5
200B0
330
4F
100
AcDbEntity
  8
0
100
AcDbLine
 10
20.333333333333314
 20
40.833333333333
 30
-0.49999999999998435
 11
1.0000000000000142
 21
40.833333333333
 31
-0.49999999999998435
  0
LINE
  5
200B1
330
4F
100
AcDbEntity
  8
0
100
AcDbLine
 10
20.333333333333314
 20
41.333333333333
 30
-0.49999999999997014
 11
20.333333333333314
 21
40.833333333333
 31
-0.49999999999997014
  0
LINE
  5
200B2
330
4F
100
AcDbEntity
  8
0
100
AcDbLine
 10
20.333333333333314
 20
41.333333333333
 30
-0.49999999999998435
 11
1.0000000000000142
 21
41.333333333333
 31
-0.49999999999998435
  0
LINE
  5
200B3
330
4F
100
AcDbEntity
  8
0
100
AcDbLine
 10
0.5000000000000142
 20
53.833333333333
 30
-0.49999999999997014
 11
1.0000000000000142
 21
53.833333333333
 31
-0.4999999999999702
  0
LINE
  5
200B4
330
4F
100
AcDbEntity
  8
0
100
AcDbLine
 10
1.0000000000000142
 20
53.833333333333
 30
-0.49999999999997014
 11
1.0000000000000142
 21
57.833333333333
 31
-0.49999999999997014
  0
LINE
  5
200B5
330
4F
100
AcDbEntity
  8
0
100
AcDbLine
 10
0.5000000000000142
 20
57.833333333333
 30
-0.49999999999997014
 11
1.0000000000000142
 21
57.833333333333
 31
-0.4999999999999702
  0
LINE
  5
200B6
330
4F
100
AcDbEntity
  8
0
100
AcDbLine
 10
0.5000000000000142
 20
53.833333333333
 30
-0.49999999999997014
 11
0.5000000000000142
 21
57.833333333333
 31
-0.49999999999997014
  0
LINE
  5
200B7
330
4F
100
AcDbEntity
  8
0
100
AcDbLine
 10
1.0000000000000142
 20
59.333333333333
 30
-0.49999999999997014
 11
1.0000000000000142
 21
58.833333333333
 31
-0.49999999999997014
  0
LINE
  5
200B8
330
4F
100
AcDbEntity
  8
0
100
AcDbLine
 10
20.333333333333314
 20
58.833333333333
 30
-0.49999999999998435
 11
1.0000000000000142
 21
58.833333333333
 31
-0.49999999999998435
  0
LINE
  5
200B9
330
4F
100
AcDbEntity
  8
0
100
AcDbLine
 10
20.333333333333314
 20
59.333333333333
 30
-0.49999999999997014
 11
20.333333333333314
 21
58.833333333333
 31
-0.49999999999997014
  0
LINE
  5
200BA
330
4F
100
AcDbEntity
  8
0
100
AcDbLine
 10
20.333333333333314
 20
59.333333333333
 30
-0.49999999999998435
 11
1.0000000000000142
 21
59.333333333333
 31
-0.49999999999998435
  0
LINE
  5
200BB
330
4F
100
AcDbEntity
  8
0
100
AcDbLine
 10
0.5000000000000142
 20
71.833333333333
 30
-0.49999999999997014
 11
1.0000000000000142
 21
71.833333333333
 31
-0.4999999999999702
  0
LINE
  5
200BC
330
4F
100
AcDbEntity
  8
0
100
AcDbLine
 10
1.0000000000000142
 20
71.833333333333
 30
-0.49999999999997014
 11
1.0000000000000142
 21
75.833333333333
 31
-0.49999999999997014
  0
LINE
  5
200BD
330
4F
100
AcDbEntity
  8
0
100
AcDbLine
 10
0.5000000000000142
 20
75.833333333333
 30
-0.49999999999997014
 11
1.0000000000000142
 21
75.833333333333
 31
-0.4999999999999702
  0
LINE
  5
200BE
330
4F
100
AcDbEntity
  8
0
100
AcDbLine
 10
0.5000000000000142
 20
71.833333333333
 30
-0.49999999999997014
 11
0.5000000000000142
 21
75.833333333333
 31
-0.49999999999997014
  0
LINE
  5
200BF
330
4F
100
AcDbEntity
  8
0
100
AcDbLine
 10
1.0000000000000142
 20
77.333333333333
 30
-0.49999999999997014
 11
1.0000000000000142
 21
76.833333333333
 31
-0.49999999999997014
  0
LINE
  5
200C0
330
4F
100
AcDbEntity
  8
0
100
AcDbLine
 10
20.333333333333314
 20
76.833333333333
 30
-0.49999999999998435
 11
1.0000000000000142
 21
76.833333333333
 31
-0.49999999999998435
  0
LINE
  5
200C1
330
4F
100
AcDbEntity
  8
0
100
AcDbLine
 10
20.333333333333314
 20
77.333333333333
 30
-0.49999999999997014
 11
20.333333333333314
 21
76.833333333333
 31
-0.49999999999997014
  0
LINE
  5
200C2
330
4F
100
AcDbEntity
  8
0
100
AcDbLine
 10
20.333333333333314
 20
77.333333333333
 30
-0.49999999999998435
 11
1.0000000000000142
 21
77.333333333333
 31
-0.49999999999998435
  0
LINE
  5
200C3
330
4F
100
AcDbEntity
  8
0
100
AcDbLine
 10
0.5000000000000142
 20
89.833333333333
 30
-0.49999999999997014
 11
1.0000000000000142
 21
89.833333333333
 31
-0.4999999999999702
  0
LINE
  5
200C4
330
4F
100
AcDbEntity
  8
0
100
AcDbLine
 10
1.0000000000000142
 20
89.833333333333
 30
-0.49999999999997014
 11
1.0000000000000142
 21
93.833333333333
 31
-0.49999999999997014
  0
LINE
  5
200C5
330
4F
100
AcDbEntity
  8
0
100
AcDbLine
 10
0.5000000000000142
 20
93.833333333333
 30
-0.49999999999997014
 11
1.0000000000000142
 21
93.833333333333
 31
-0.4999999999999702
  0
LINE
  5
200C6
330
4F
100
AcDbEntity
  8
0
100
AcDbLine
 10
0.5000000000000142
 20
89.833333333333
 30
-0.49999999999997014
 11
0.5000000000000142
 21
93.833333333333
 31
-0.49999999999997014
  0
LINE
  5
200C7
330
4F
100
AcDbEntity
  8
0
100
AcDbLine
 10
20.333333333333314
 20
17.833333333333
 30
-0.49999999999997014
 11
20.333333333333314
 21
21.833333333333
 31
-0.49999999999997014
  0
LINE
  5
200C8
330
4F
100
AcDbEntity
  8
0
100
AcDbLine
 10
20.333333333333314
 20
17.833333333333
 30
-0.49999999999997014
 11
20.833333333333314
 21
17.833333333333
 31
-0.4999999999999702
  0
LINE
  5
200C9
330
4F
100
AcDbEntity
  8
0
100
AcDbLine
 10
20.833333333333314
 20
17.833333333333
 30
-0.49999999999997014
 11
20.833333333333314
 21
21.833333333333
 31
-0.49999999999997014
  0
LINE
  5
200CA
330
4F
100
AcDbEntity
  8
0
100
AcDbLine
 10
20.333333333333314
 20
21.833333333333
 30
-0.49999999999997014
 11
20.833333333333314
 21
21.833333333333
 31
-0.4999999999999702
  0
LINE
  5
200CB
330
4F
100
AcDbEntity
  8
0
100
AcDbLine
 10
20.333333333333314
 20
35.833333333333
 30
-0.49999999999997014
 11
20.333333333333314
 21
39.833333333333
 31
-0.49999999999997014
  0
LINE
  5
200CC
330
4F
100
AcDbEntity
  8
0
100
AcDbLine
 10
20.333333333333314
 20
35.833333333333
 30
-0.49999999999997014
 11
20.833333333333314
 21
35.833333333333
 31
-0.4999999999999702
  0
LINE
  5
200CD
330
4F
100
AcDbEntity
  8
0
100
AcDbLine
 10
20.833333333333314
 20
35.833333333333
 30
-0.49999999999997014
 11
20.833333333333314
 21
39.833333333333
 31
-0.49999999999997014
  0
LINE
  5
200CE
330
4F
100
AcDbEntity
  8
0
100
AcDbLine
 10
20.333333333333314
 20
39.833333333333
 30
-0.49999999999997014
 11
20.833333333333314
 21
39.833333333333
 31
-0.4999999999999702
  0
LINE
  5
200CF
330
4F
100
AcDbEntity
  8
0
100
AcDbLine
 10
20.333333333333314
 20
53.833333333333
 30
-0.49999999999997014
 11
20.333333333333314
 21
57.833333333333
 31
-0.49999999999997014
  0
LINE
  5
200D0
330
4F
100
AcDbEntity
  8
0
100
AcDbLine
 10
20.333333333333314
 20
53.833333333333
 30
-0.49999999999997014
 11
20.833333333333314
 21
53.833333333333
 31
-0.4999999999999702
  0
LINE
  5
200D1
330
4F
100
AcDbEntity
  8
0
100
AcDbLine
 10
20.833333333333314
 20
53.833333333333
 30
-0.49999999999997014
 11
20.833333333333314
 21
57.833333333333
 31
-0.49999999999997014
  0
LINE
  5
200D2
330
4F
100
AcDbEntity
  8
0
100
AcDbLine
 10
20.333333333333314
 20
57.833333333333
 30
-0.49999999999997014
 11
20.833333333333314
 21
57.833333333333
 31
-0.4999999999999702
  0
LINE
  5
200D3
330
4F
100
AcDbEntity
  8
0
100
AcDbLine
 10
20.333333333333314
 20
71.833333333333
 30
-0.49999999999997014
 11
20.333333333333314
 21
75.833333333333
 31
-0.49999999999997014
  0
LINE
  5
200D4
330
4F
100
AcDbEntity
  8
0
100
AcDbLine
 10
20.333333333333314
 20
71.833333333333
 30
-0.49999999999997014
 11
20.833333333333314
 21
71.833333333333
 31
-0.4999999999999702
  0
LINE
  5
200D5
330
4F
100
AcDbEntity
  8
0
100
AcDbLine
 10
20.833333333333314
 20
71.833333333333
 30
-0.49999999999997014
 11
20.833333333333314
 21
75.833333333333
 31
-0.49999999999997014
  0
LINE
  5
200D6
330
4F
100
AcDbEntity
  8
0
100
AcDbLine
 10
20.333333333333314
 20
75.833333333333
 30
-0.49999999999997014
 11
20.833333333333314
 21
75.833333333333
 31
-0.4999999999999702
  0
LINE
  5
200D7
330
4F
100
AcDbEntity
  8
0
100
AcDbLine
 10
20.333333333333314
 20
89.833333333333
 30
-0.49999999999997014
 11
20.333333333333314
 21
93.833333333333
 31
-0.49999999999997014
  0
LINE
  5
200D8
330
4F
100
AcDbEntity
  8
0
100
AcDbLine
 10
20.333333333333314
 20
89.833333333333
 30
-0.49999999999997014
 11
20.833333333333314
 21
89.833333333333
 31
-0.4999999999999702
  0
LINE
  5
200D9
330
4F
100
AcDbEntity
  8
0
100
AcDbLine
 10
20.833333333333314
 20
89.833333333333
 30
-0.49999999999997014
 11
20.833333333333314
 21
93.833333333333
 31
-0.49999999999997014
  0
LINE
  5
200DA
330
4F
100
AcDbEntity
  8
0
100
AcDbLine
 10
20.333333333333314
 20
93.833333333333
 30
-0.49999999999997014
 11
20.833333333333314
 21
93.833333333333
 31
-0.4999999999999702
  0
LINE
  5
200DB
330
4F
100
AcDbEntity
  8
0
100
AcDbLine
 10
203.6666666666667
 20
93.833333333333
 30
-0.49999999999999856
 11
203.6666666666667
 21
89.833333333333
 31
-0.49999999999999856
  0
LINE
  5
200DC
330
4F
100
AcDbEntity
  8
0
100
AcDbLine
 10
203.6666666666667
 20
93.833333333333
 30
-0.49999999999999856
 11
203.1666666666667
 21
93.833333333333
 31
-0.4999999999999985
  0
LINE
  5
200DD
330
4F
100
AcDbEntity
  8
0
100
AcDbLine
 10
203.1666666666667
 20
93.833333333333
 30
-0.49999999999999856
 11
203.1666666666667
 21
89.833333333333
 31
-0.49999999999999856
  0
LINE
  5
200DE
330
4F
100
AcDbEntity
  8
0
100
AcDbLine
 10
203.6666666666667
 20
89.833333333333
 30
-0.49999999999999856
 11
203.1666666666667
 21
89.833333333333
 31
-0.4999999999999985
  0
LINE
  5
200DF
330
4F
100
AcDbEntity
  8
0
100
AcDbLine
 10
223.0
 20
77.333333333333
 30
-0.49999999999998435
 11
203.6666666666667
 21
77.333333333333
 31
-0.49999999999998435
  0
LINE
  5
200E0
330
4F
100
AcDbEntity
  8
0
100
AcDbLine
 10
203.6666666666667
 20
77.333333333333
 30
-0.49999999999999856
 11
203.6666666666667
 21
76.833333333333
 31
-0.49999999999999856
  0
LINE
  5
200E1
330
4F
100
AcDbEntity
  8
0
100
AcDbLine
 10
223.0
 20
76.833333333333
 30
-0.49999999999998435
 11
203.6666666666667
 21
76.833333333333
 31
-0.49999999999998435
  0
LINE
  5
200E2
330
4F
100
AcDbEntity
  8
0
100
AcDbLine
 10
223.0
 20
77.333333333333
 30
-0.49999999999999856
 11
223.0
 21
76.833333333333
 31
-0.49999999999999856
  0
LINE
  5
200E3
330
4F
100
AcDbEntity
  8
0
100
AcDbLine
 10
203.6666666666667
 20
75.833333333333
 30
-0.49999999999999856
 11
203.6666666666667
 21
71.833333333333
 31
-0.49999999999999856
  0
LINE
  5
200E4
330
4F
100
AcDbEntity
  8
0
100
AcDbLine
 10
203.6666666666667
 20
75.833333333333
 30
-0.49999999999999856
 11
203.1666666666667
 21
75.833333333333
 31
-0.4999999999999985
  0
LINE
  5
200E5
330
4F
100
AcDbEntity
  8
0
100
AcDbLine
 10
203.1666666666667
 20
75.833333333333
 30
-0.49999999999999856
 11
203.1666666666667
 21
71.833333333333
 31
-0.49999999999999856
  0
LINE
  5
200E6
330
4F
100
AcDbEntity
  8
0
100
AcDbLine
 10
203.6666666666667
 20
71.833333333333
 30
-0.49999999999999856
 11
203.1666666666667
 21
71.833333333333
 31
-0.4999999999999985
  0
LINE
  5
200E7
330
4F
100
AcDbEntity
  8
0
100
AcDbLine
 10
223.0
 20
59.333333333333
 30
-0.49999999999998435
 11
203.6666666666667
 21
59.333333333333
 31
-0.49999999999998435
  0
LINE
  5
200E8
330
4F
100
AcDbEntity
  8
0
100
AcDbLine
 10
203.6666666666667
 20
59.333333333333
 30
-0.49999999999999856
 11
203.6666666666667
 21
58.833333333333
 31
-0.49999999999999856
  0
LINE
  5
200E9
330
4F
100
AcDbEntity
  8
0
100
AcDbLine
 10
223.0
 20
58.833333333333
 30
-0.49999999999998435
 11
203.6666666666667
 21
58.833333333333
 31
-0.49999999999998435
  0
LINE
  5
200EA
330
4F
100
AcDbEntity
  8
0
100
AcDbLine
 10
223.0
 20
59.333333333333
 30
-0.49999999999999856
 11
223.0
 21
58.833333333333
 31
-0.49999999999999856
  0
LINE
  5
200EB
330
4F
100
AcDbEntity
  8
0
100
AcDbLine
 10
203.6666666666667
 20
57.833333333333
 30
-0.49999999999999856
 11
203.6666666666667
 21
53.833333333333
 31
-0.49999999999999856
  0
LINE
  5
200EC
330
4F
100
AcDbEntity
  8
0
100
AcDbLine
 10
203.6666666666667
 20
57.833333333333
 30
-0.49999999999999856
 11
203.1666666666667
 21
57.833333333333
 31
-0.4999999999999985
  0
LINE
  5
200ED
330
4F
100
AcDbEntity
  8
0
100
AcDbLine
 10
203.1666666666667
 20
57.833333333333
 30
-0.49999999999999856
 11
203.1666666666667
 21
53.833333333333
 31
-0.49999999999999856
  0
LINE
  5
200EE
330
4F
100
AcDbEntity
  8
0
100
AcDbLine
 10
203.6666666666667
 20
53.833333333333
 30
-0.49999999999999856
 11
203.1666666666667
 21
53.833333333333
 31
-0.4999999999999985
  0
LINE
  5
200EF
330
4F
100
AcDbEntity
  8
0
100
AcDbLine
 10
223.0
 20
41.333333333333
 30
-0.49999999999998435
 11
203.6666666666667
 21
41.333333333333
 31
-0.49999999999998435
  0
LINE
  5
200F0
330
4F
100
AcDbEntity
  8
0
100
AcDbLine
 10
203.6666666666667
 20
41.333333333333
 30
-0.49999999999999856
 11
203.6666666666667
 21
40.833333333333
 31
-0.49999999999999856
  0
LINE
  5
200F1
330
4F
100
AcDbEntity
  8
0
100
AcDbLine
 10
223.0
 20
40.833333333333
 30
-0.49999999999998435
 11
203.6666666666667
 21
40.833333333333
 31
-0.49999999999998435
  0
LINE
  5
200F2
330
4F
100
AcDbEntity
  8
0
100
AcDbLine
 10
223.0
 20
41.333333333333
 30
-0.49999999999999856
 11
223.0
 21
40.833333333333
 31
-0.49999999999999856
  0
LINE
  5
200F3
330
4F
100
AcDbEntity
  8
0
100
AcDbLine
 10
203.6666666666667
 20
39.833333333333
 30
-0.49999999999999856
 11
203.6666666666667
 21
35.833333333333
 31
-0.49999999999999856
  0
LINE
  5
200F4
330
4F
100
AcDbEntity
  8
0
100
AcDbLine
 10
203.6666666666667
 20
39.833333333333
 30
-0.49999999999999856
 11
203.1666666666667
 21
39.833333333333
 31
-0.4999999999999985
  0
LINE
  5
200F5
330
4F
100
AcDbEntity
  8
0
100
AcDbLine
 10
203.1666666666667
 20
39.833333333333
 30
-0.49999999999999856
 11
203.1666666666667
 21
35.833333333333
 31
-0.49999999999999856
  0
LINE
  5
200F6
330
4F
100
AcDbEntity
  8
0
100
AcDbLine
 10
203.6666666666667
 20
35.833333333333
 30
-0.49999999999999856
 11
203.1666666666667
 21
35.833333333333
 31
-0.4999999999999985
  0
LINE
  5
200F7
330
4F
100
AcDbEntity
  8
0
100
AcDbLine
 10
223.0
 20
23.333333333333
 30
-0.49999999999998435
 11
203.6666666666667
 21
23.333333333333
 31
-0.49999999999998435
  0
LINE
  5
200F8
330
4F
100
AcDbEntity
  8
0
100
AcDbLine
 10
203.6666666666667
 20
23.333333333333
 30
-0.49999999999999856
 11
203.6666666666667
 21
22.833333333333
 31
-0.49999999999999856
  0
LINE
  5
200F9
330
4F
100
AcDbEntity
  8
0
100
AcDbLine
 10
223.0
 20
22.833333333333
 30
-0.49999999999998435
 11
203.6666666666667
 21
22.833333333333
 31
-0.49999999999998435
  0
LINE
  5
200FA
330
4F
100
AcDbEntity
  8
0
100
AcDbLine
 10
223.0
 20
23.333333333333
 30
-0.49999999999999856
 11
223.0
 21
22.833333333333
 31
-0.49999999999999856
  0
LINE
  5
200FB
330
4F
100
AcDbEntity
  8
0
100
AcDbLine
 10
203.6666666666667
 20
21.833333333333
 30
-0.49999999999999856
 11
203.6666666666667
 21
17.833333333333
 31
-0.49999999999999856
  0
LINE
  5
200FC
330
4F
100
AcDbEntity
  8
0
100
AcDbLine
 10
203.6666666666667
 20
21.833333333333
 30
-0.49999999999999856
 11
203.1666666666667
 21
21.833333333333
 31
-0.4999999999999985
  0
LINE
  5
200FD
330
4F
100
AcDbEntity
  8
0
100
AcDbLine
 10
203.1666666666667
 20
21.833333333333
 30
-0.49999999999999856
 11
203.1666666666667
 21
17.833333333333
 31
-0.49999999999999856
  0
LINE
  5
200FE
330
4F
100
AcDbEntity
  8
0
100
AcDbLine
 10
203.6666666666667
 20
17.833333333333
 30
-0.49999999999999856
 11
203.1666666666667
 21
17.833333333333
 31
-0.4999999999999985
  0
LINE
  5
200FF
330
4F
100
AcDbEntity
  8
0
100
AcDbLine
 10
218.33333333333303
 20
5.333333333333002
 30
-0.49999999999998435
 11
208.33333333333331
 21
5.333333333333002
 31
-0.49999999999998435
  0
LINE
  5
20100
330
4F
100
AcDbEntity
  8
0
100
AcDbLine
 10
218.33333333333303
 20
5.333333333333002
 30
-0.49999999999999856
 11
218.33333333333303
 21
5.833333333333002
 31
-0.49999999999999845
  0
LINE
  5
20101
330
4F
100
AcDbEntity
  8
0
100
AcDbLine
 10
208.33333333333331
 20
5.833333333333002
 30
-0.49999999999998435
 11
218.33333333333303
 21
5.833333333333002
 31
-0.49999999999998435
  0
LINE
  5
20102
330
4F
100
AcDbEntity
  8
0
100
AcDbLine
 10
208.33333333333331
 20
5.333333333333002
 30
-0.49999999999999856
 11
208.33333333333331
 21
5.833333333333002
 31
-0.49999999999999845
  0
LINE
  5
20103
330
4F
100
AcDbEntity
  8
0
100
AcDbLine
 10
223.5
 20
93.833333333333
 30
-0.49999999999999856
 11
223.0
 21
93.833333333333
 31
-0.4999999999999985
  0
LINE
  5
20104
330
4F
100
AcDbEntity
  8
0
100
AcDbLine
 10
223.0
 20
93.833333333333
 30
-0.49999999999999856
 11
223.0
 21
89.833333333333
 31
-0.49999999999999856
  0
LINE
  5
20105
330
4F
100
AcDbEntity
  8
0
100
AcDbLine
 10
223.5
 20
89.833333333333
 30
-0.49999999999999856
 11
223.0
 21
89.833333333333
 31
-0.4999999999999985
  0
LINE
  5
20106
330
4F
100
AcDbEntity
  8
0
100
AcDbLine
 10
223.5
 20
93.833333333333
 30
-0.49999999999999856
 11
223.5
 21
89.833333333333
 31
-0.49999999999999856
  0
LINE
  5
20107
330
4F
100
AcDbEntity
  8
0
100
AcDbLine
 10
223.5
 20
75.833333333333
 30
-0.49999999999999856
 11
223.0
 21
75.833333333333
 31
-0.4999999999999985
  0
LINE
  5
20108
330
4F
100
AcDbEntity
  8
0
100
AcDbLine
 10
223.0
 20
75.833333333333
 30
-0.49999999999999856
 11
223.0
 21
71.833333333333
 31
-0.49999999999999856
  0
LINE
  5
20109
330
4F
100
AcDbEntity
  8
0
100
AcDbLine
 10
223.5
 20
71.833333333333
 30
-0.49999999999999856
 11
223.0
 21
71.833333333333
 31
-0.4999999999999985
  0
LINE
  5
2010A
330
4F
100
AcDbEntity
  8
0
100
AcDbLine
 10
223.5
 20
75.833333333333
 30
-0.49999999999999856
 11
223.5
 21
71.833333333333
 31
-0.49999999999999856
  0
LINE
  5
2010B
330
4F
100
AcDbEntity
  8
0
100
AcDbLine
 10
223.5
 20
57.833333333333
 30
-0.49999999999999856
 11
223.0
 21
57.833333333333
 31
-0.4999999999999985
  0
LINE
  5
2010C
330
4F
100
AcDbEntity
  8
0
100
AcDbLine
 10
223.0
 20
57.833333333333
 30
-0.49999999999999856
 11
223.0
 21
53.833333333333
 31
-0.49999999999999856
  0
LINE
  5
2010D
330
4F
100
AcDbEntity
  8
0
100
AcDbLine
 10
223.5
 20
53.833333333333
 30
-0.49999999999999856
 11
223.0
 21
53.833333333333
 31
-0.4999999999999985
  0
LINE
  5
2010E
330
4F
100
AcDbEntity
  8
0
100
AcDbLine
 10
223.5
 20
57.833333333333
 30
-0.49999999999999856
 11
223.5
 21
53.833333333333
 31
-0.49999999999999856
  0
LINE
  5
2010F
330
4F
100
AcDbEntity
  8
0
100
AcDbLine
 10
223.5
 20
39.833333333333
 30
-0.49999999999999856
 11
223.0
 21
39.833333333333
 31
-0.4999999999999985
  0
LINE
  5
20110
330
4F
100
AcDbEntity
  8
0
100
AcDbLine
 10
223.0
 20
39.833333333333
 30
-0.49999999999999856
 11
223.0
 21
35.833333333333
 31
-0.49999999999999856
  0
LINE
  5
20111
330
4F
100
AcDbEntity
  8
0
100
AcDbLine
 10
223.5
 20
35.833333333333
 30
-0.49999999999999856
 11
223.0
 21
35.833333333333
 31
-0.4999999999999985
  0
LINE
  5
20112
330
4F
100
AcDbEntity
  8
0
100
AcDbLine
 10
223.5
 20
39.833333333333
 30
-0.49999999999999856
 11
223.5
 21
35.833333333333
 31
-0.49999999999999856
  0
LINE
  5
20113
330
4F
100
AcDbEntity
  8
0
100
AcDbLine
 10
223.5
 20
21.833333333333
 30
-0.49999999999999856
 11
223.0
 21
21.833333333333
 31
-0.4999999999999985
  0
LINE
  5
20114
330
4F
100
AcDbEntity
  8
0
100
AcDbLine
 10
223.0
 20
21.833333333333
 30
-0.49999999999999856
 11
223.0
 21
17.833333333333
 31
-0.49999999999999856
  0
LINE
  5
20115
330
4F
100
AcDbEntity
  8
0
100
AcDbLine
 10
223.5
 20
17.833333333333
 30
-0.49999999999999856
 11
223.0
 21
17.833333333333
 31
-0.4999999999999985
  0
LINE
  5
20116
330
4F
100
AcDbEntity
  8
0
100
AcDbLine
 10
223.5
 20
21.833333333333
 30
-0.49999999999999856
 11
223.5
 21
17.833333333333
 31
-0.49999999999999856
  0
LINE
  5
20117
330
4F
100
AcDbEntity
  8
0
100
AcDbLine
 10
219.20000000000002
 20
21.266666666666296
 30
-0.49999999999999856
 11
219.20000000000002
 21
8.299999999999699
 31
-0.49999999999999856
  0
LINE
  5
20118
330
4F
100
AcDbEntity
  8
0
100
AcDbLine
 10
219.20000000000002
 20
21.266666666666296
 30
-0.4999999999999991
 11
214.938888888889
 21
21.266666666666296
 31
-0.499999999999998
  0
LINE
  5
20119
330
4F
100
AcDbEntity
  8
0
100
AcDbLine
 10
214.938888888889
 20
21.266666666666296
 30
-0.49999999999999856
 11
214.938888888889
 21
17.766666666666296
 31
-0.49999999999999856
  0
LINE
  5
2011A
330
4F
100
AcDbEntity
  8
0
100
AcDbLine
 10
207.46666666666673
 20
17.766666666666296
 30
-0.4999999999999976
 11
214.93888888888904
 21
17.766666666666296
 31
-0.4999999999999995
  0
LINE
  5
2011B
330
4F
100
AcDbEntity
  8
0
100
AcDbLine
 10
207.4666666666667
 20
17.766666666666296
 30
-0.49999999999999856
 11
207.4666666666667
 21
8.299999999999699
 31
-0.49999999999999856
  0
LINE
  5
2011C
330
4F
100
AcDbEntity
  8
0
100
AcDbLine
 10
207.46666666666673
 20
8.299999999999699
 30
-0.4999999999999971
 11
219.20000000000005
 21
8.299999999999699
 31
-0.5
  0
LINE
  5
2011D
330
4F
100
AcDbEntity
  8
0
100
AcDbLine
 10
52.33333333333331
 20
83.833333333333
 30
-0.49999999999998435
 11
42.333333333333314
 21
83.833333333333
 31
-0.49999999999998435
  0
LINE
  5
2011E
330
4F
100
AcDbEntity
  8
0
100
AcDbLine
 10
52.3333333333333
 20
83.833333333333
 30
-0.49999999999997724
 11
52.3333333333333
 21
84.333333333333
 31
-0.49999999999997724
  0
LINE
  5
2011F
330
4F
100
AcDbEntity
  8
0
100
AcDbLine
 10
52.33333333333331
 20
84.333333333333
 30
-0.49999999999998435
 11
42.333333333333314
 21
84.333333333333
 31
-0.49999999999998435
  0
LINE
  5
20120
330
4F
100
AcDbEntity
  8
0
100
AcDbLine
 10
42.333333333333314
 20
83.833333333333
 30
-0.49999999999997724
 11
42.333333333333314
 21
84.333333333333
 31
-0.49999999999997724
  0
LINE
  5
20121
330
4F
100
AcDbEntity
  8
0
100
AcDbLine
 10
181.6666666666667
 20
83.833333333333
 30
-0.49999999999998435
 11
171.6666666666667
 21
83.833333333333
 31
-0.49999999999998435
  0
LINE
  5
20122
330
4F
100
AcDbEntity
  8
0
100
AcDbLine
 10
181.6666666666667
 20
83.833333333333
 30
-0.49999999999999145
 11
181.6666666666667
 21
84.333333333333
 31
-0.49999999999999145
  0
LINE
  5
20123
330
4F
100
AcDbEntity
  8
0
100
AcDbLine
 10
181.6666666666667
 20
84.333333333333
 30
-0.49999999999998435
 11
171.6666666666667
 21
84.333333333333
 31
-0.49999999999998435
  0
LINE
  5
20124
330
4F
100
AcDbEntity
  8
0
100
AcDbLine
 10
171.66666666666669
 20
83.833333333333
 30
-0.49999999999999145
 11
171.66666666666669
 21
84.333333333333
 31
-0.49999999999999145
  0
LINE
  5
20125
330
4F
100
AcDbEntity
  8
0
100
AcDbLine
 10
115.8
 20
89.76666666666631
 30
-0.4999999999999831
 11
125.5333333333333
 21
89.76666666666631
 31
-0.49999999999998557
  0
LINE
  5
20126
330
4F
100
AcDbEntity
  8
0
100
AcDbLine
 10
115.80000000000001
 20
89.7666666666663
 30
-0.49999999999998435
 11
115.80000000000001
 21
80.2999999999996
 31
-0.49999999999998435
  0
LINE
  5
20127
330
4F
100
AcDbEntity
  8
0
100
AcDbLine
 10
115.8
 20
80.2999999999996
 30
-0.4999999999999831
 11
125.5333333333333
 21
80.2999999999996
 31
-0.49999999999998557
  0
LINE
  5
20128
330
4F
100
AcDbEntity
  8
0
100
AcDbLine
 10
125.5333333333333
 20
89.7666666666663
 30
-0.49999999999998435
 11
125.5333333333333
 21
80.2999999999996
 31
-0.49999999999998435
  0
LINE
  5
20129
330
4F
100
AcDbEntity
  8
0
100
AcDbLine
 10
154.46666666666673
 20
89.76666666666631
 30
-0.49999999999999023
 11
164.20000000000002
 21
89.76666666666631
 31
-0.4999999999999927
  0
LINE
  5
2012A
330
4F
100
AcDbEntity
  8
0
100
AcDbLine
 10
154.4666666666667
 20
89.7666666666663
 30
-0.49999999999999145
 11
154.4666666666667
 21
80.2999999999996
 31
-0.49999999999999145
  0
LINE
  5
2012B
330
4F
100
AcDbEntity
  8
0
100
AcDbLine
 10
154.46666666666673
 20
80.2999999999996
 30
-0.49999999999999023
 11
164.20000000000002
 21
80.2999999999996
 31
-0.4999999999999927
  0
LINE
  5
2012C
330
4F
100
AcDbEntity
  8
0
100
AcDbLine
 10
164.2
 20
89.7666666666663
 30
-0.49999999999999145
 11
164.2
 21
80.2999999999996
 31
-0.49999999999999145
  0
LINE
  5
2012D
330
4F
100
AcDbEntity
  8
0
100
AcDbLine
 10
34.86666666666672
 20
89.76666666666631
 30
-0.49999999999997724
 11
25.13333333333331
 21
89.76666666666631
 31
-0.49999999999997724
  0
LINE
  5
2012E
330
4F
100
AcDbEntity
  8
0
100
AcDbLine
 10
25.13333333333331
 20
89.7666666666663
 30
-0.49999999999997014
 11
25.13333333333331
 21
80.2999999999996
 31
-0.49999999999997014
  0
LINE
  5
2012F
330
4F
100
AcDbEntity
  8
0
100
AcDbLine
 10
34.86666666666672
 20
80.2999999999996
 30
-0.49999999999997724
 11
25.13333333333331
 21
80.2999999999996
 31
-0.49999999999997724
  0
LINE
  5
20130
330
4F
100
AcDbEntity
  8
0
100
AcDbLine
 10
34.86666666666672
 20
89.7666666666663
 30
-0.49999999999997724
 11
34.86666666666672
 21
80.2999999999996
 31
-0.49999999999997724
  0
LINE
  5
20131
330
4F
100
AcDbEntity
  8
0
100
AcDbLine
 10
69.5333333333333
 20
89.76666666666631
 30
-0.49999999999997724
 11
59.8
 21
89.76666666666631
 31
-0.49999999999997724
  0
LINE
  5
20132
330
4F
100
AcDbEntity
  8
0
100
AcDbLine
 10
59.8
 20
89.7666666666663
 30
-0.49999999999997724
 11
59.8
 21
80.2999999999996
 31
-0.49999999999997724
  0
LINE
  5
20133
330
4F
100
AcDbEntity
  8
0
100
AcDbLine
 10
69.5333333333333
 20
80.2999999999996
 30
-0.49999999999997724
 11
59.8
 21
80.2999999999996
 31
-0.49999999999997724
  0
LINE
  5
20134
330
4F
100
AcDbEntity
  8
0
100
AcDbLine
 10
69.5333333333333
 20
89.7666666666663
 30
-0.49999999999997724
 11
69.5333333333333
 21
80.2999999999996
 31
-0.49999999999997724
  0
LINE
  5
20135
330
4F
100
AcDbEntity
  8
0
100
AcDbLine
 10
108.2
 20
89.76666666666631
 30
-0.49999999999998435
 11
98.4666666666667
 21
89.76666666666631
 31
-0.49999999999998435
  0
LINE
  5
20136
330
4F
100
AcDbEntity
  8
0
100
AcDbLine
 10
98.4666666666667
 20
89.7666666666663
 30
-0.49999999999998435
 11
98.4666666666667
 21
80.2999999999996
 31
-0.49999999999998435
  0
LINE
  5
20137
330
4F
100
AcDbEntity
  8
0
100
AcDbLine
 10
108.2
 20
80.2999999999996
 30
-0.49999999999998435
 11
98.4666666666667
 21
80.2999999999996
 31
-0.49999999999998435
  0
LINE
  5
20138
330
4F
100
AcDbEntity
  8
0
100
AcDbLine
 10
108.2
 20
89.7666666666663
 30
-0.49999999999998435
 11
108.2
 21
80.2999999999996
 31
-0.49999999999998435
  0
LINE
  5
20139
330
4F
100
AcDbEntity
  8
0
100
AcDbLine
 10
189.1333333333333
 20
89.76666666666631
 30
-0.49999999999999023
 11
198.8666666666667
 21
89.76666666666631
 31
-0.4999999999999927
  0
LINE
  5
2013A
330
4F
100
AcDbEntity
  8
0
100
AcDbLine
 10
189.13333333333333
 20
89.7666666666663
 30
-0.49999999999999145
 11
189.13333333333333
 21
80.2999999999996
 31
-0.49999999999999145
  0
LINE
  5
2013B
330
4F
100
AcDbEntity
  8
0
100
AcDbLine
 10
189.1333333333333
 20
80.2999999999996
 30
-0.49999999999999023
 11
198.8666666666667
 21
80.2999999999996
 31
-0.4999999999999927
  0
LINE
  5
2013C
330
4F
100
AcDbEntity
  8
0
100
AcDbLine
 10
198.86666666666673
 20
89.7666666666663
 30
-0.49999999999999856
 11
198.86666666666673
 21
80.2999999999996
 31
-0.49999999999999856
  0
LINE
  5
2013D
330
4F
100
AcDbEntity
  8
0
100
AcDbLine
 10
170.8
 20
75.133333333333
 30
-0.49999999999999
 11
182.5333333333333
 21
75.133333333333
 31
-0.4999999999999929
  0
LINE
  5
2013E
330
4F
100
AcDbEntity
  8
0
100
AcDbLine
 10
170.8
 20
75.13333333333301
 30
-0.49999999999999145
 11
170.8
 21
70.333333333333
 31
-0.49999999999999145
  0
LINE
  5
2013F
330
4F
100
AcDbEntity
  8
0
100
AcDbLine
 10
170.8
 20
70.333333333333
 30
-0.49999999999999
 11
182.5333333333333
 21
70.333333333333
 31
-0.4999999999999929
  0
LINE
  5
20140
330
4F
100
AcDbEntity
  8
0
100
AcDbLine
 10
182.5333333333333
 20
75.13333333333301
 30
-0.49999999999999145
 11
182.5333333333333
 21
70.333333333333
 31
-0.49999999999999145
  0
LINE
  5
20141
330
4F
100
AcDbEntity
  8
0
100
AcDbLine
 10
108.2
 20
71.76666666666631
 30
-0.49999999999998435
 11
98.4666666666667
 21
71.76666666666631
 31
-0.49999999999998435
  0
LINE
  5
20142
330
4F
100
AcDbEntity
  8
0
100
AcDbLine
 10
98.4666666666667
 20
71.76666666666631
 30
-0.49999999999998435
 11
98.4666666666667
 21
62.2999999999996
 31
-0.49999999999998435
  0
LINE
  5
20143
330
4F
100
AcDbEntity
  8
0
100
AcDbLine
 10
108.2
 20
62.2999999999996
 30
-0.49999999999998435
 11
98.4666666666667
 21
62.2999999999996
 31
-0.49999999999998435
  0
LINE
  5
20144
330
4F
100
AcDbEntity
  8
0
100
AcDbLine
 10
108.2
 20
71.76666666666631
 30
-0.49999999999998435
 11
108.2
 21
62.2999999999996
 31
-0.49999999999998435
  0
LINE
  5
20145
330
4F
100
AcDbEntity
  8
0
100
AcDbLine
 10
53.20000000000002
 20
75.133333333333
 30
-0.49999999999997724
 11
41.466666666666725
 21
75.133333333333
 31
-0.49999999999997724
  0
LINE
  5
20146
330
4F
100
AcDbEntity
  8
0
100
AcDbLine
 10
41.466666666666725
 20
75.13333333333301
 30
-0.49999999999997724
 11
41.466666666666725
 21
70.333333333333
 31
-0.49999999999997724
  0
LINE
  5
20147
330
4F
100
AcDbEntity
  8
0
100
AcDbLine
 10
53.20000000000002
 20
70.333333333333
 30
-0.49999999999997724
 11
41.466666666666725
 21
70.333333333333
 31
-0.49999999999997724
  0
LINE
  5
20148
330
4F
100
AcDbEntity
  8
0
100
AcDbLine
 10
53.2
 20
75.13333333333301
 30
-0.49999999999997724
 11
53.2
 21
70.333333333333
 31
-0.49999999999997724
  0
LINE
  5
20149
330
4F
100
AcDbEntity
  8
0
100
AcDbLine
 10
69.5333333333333
 20
71.76666666666631
 30
-0.49999999999997724
 11
59.8
 21
71.76666666666631
 31
-0.49999999999997724
  0
LINE
  5
2014A
330
4F
100
AcDbEntity
  8
0
100
AcDbLine
 10
59.8
 20
71.76666666666631
 30
-0.49999999999997724
 11
59.8
 21
62.2999999999996
 31
-0.49999999999997724
  0
LINE
  5
2014B
330
4F
100
AcDbEntity
  8
0
100
AcDbLine
 10
69.5333333333333
 20
62.2999999999996
 30
-0.49999999999997724
 11
59.8
 21
62.2999999999996
 31
-0.49999999999997724
  0
LINE
  5
2014C
330
4F
100
AcDbEntity
  8
0
100
AcDbLine
 10
69.5333333333333
 20
71.76666666666631
 30
-0.49999999999997724
 11
69.5333333333333
 21
62.2999999999996
 31
-0.49999999999997724
  0
LINE
  5
2014D
330
4F
100
AcDbEntity
  8
0
100
AcDbLine
 10
34.86666666666672
 20
71.76666666666631
 30
-0.49999999999997724
 11
25.13333333333331
 21
71.76666666666631
 31
-0.49999999999997724
  0
LINE
  5
2014E
330
4F
100
AcDbEntity
  8
0
100
AcDbLine
 10
25.13333333333331
 20
71.76666666666631
 30
-0.49999999999997014
 11
25.13333333333331
 21
62.2999999999996
 31
-0.49999999999997014
  0
LINE
  5
2014F
330
4F
100
AcDbEntity
  8
0
100
AcDbLine
 10
34.86666666666672
 20
62.2999999999996
 30
-0.49999999999997724
 11
25.13333333333331
 21
62.2999999999996
 31
-0.49999999999997724
  0
LINE
  5
20150
330
4F
100
AcDbEntity
  8
0
100
AcDbLine
 10
34.86666666666672
 20
71.76666666666631
 30
-0.49999999999997724
 11
34.86666666666672
 21
62.2999999999996
 31
-0.49999999999997724
  0
LINE
  5
20151
330
4F
100
AcDbEntity
  8
0
100
AcDbLine
 10
115.8
 20
71.76666666666631
 30
-0.4999999999999831
 11
125.5333333333333
 21
71.76666666666631
 31
-0.49999999999998557
  0
LINE
  5
20152
330
4F
100
AcDbEntity
  8
0
100
AcDbLine
 10
115.80000000000001
 20
71.76666666666631
 30
-0.49999999999998435
 11
115.80000000000001
 21
62.2999999999996
 31
-0.49999999999998435
  0
LINE
  5
20153
330
4F
100
AcDbEntity
  8
0
100
AcDbLine
 10
115.8
 20
62.2999999999996
 30
-0.4999999999999831
 11
125.5333333333333
 21
62.2999999999996
 31
-0.49999999999998557
  0
LINE
  5
20154
330
4F
100
AcDbEntity
  8
0
100
AcDbLine
 10
125.5333333333333
 20
71.76666666666631
 30
-0.49999999999998435
 11
125.5333333333333
 21
62.2999999999996
 31
-0.49999999999998435
  0
LINE
  5
20155
330
4F
100
AcDbEntity
  8
0
100
AcDbLine
 10
154.46666666666673
 20
71.76666666666631
 30
-0.49999999999999023
 11
164.20000000000002
 21
71.76666666666631
 31
-0.4999999999999927
  0
LINE
  5
20156
330
4F
100
AcDbEntity
  8
0
100
AcDbLine
 10
154.4666666666667
 20
71.76666666666631
 30
-0.49999999999999145
 11
154.4666666666667
 21
62.2999999999996
 31
-0.49999999999999145
  0
LINE
  5
20157
330
4F
100
AcDbEntity
  8
0
100
AcDbLine
 10
154.46666666666673
 20
62.2999999999996
 30
-0.49999999999999023
 11
164.20000000000002
 21
62.2999999999996
 31
-0.4999999999999927
  0
LINE
  5
20158
330
4F
100
AcDbEntity
  8
0
100
AcDbLine
 10
164.2
 20
71.76666666666631
 30
-0.49999999999999145
 11
164.2
 21
62.2999999999996
 31
-0.49999999999999145
  0
LINE
  5
20159
330
4F
100
AcDbEntity
  8
0
100
AcDbLine
 10
189.1333333333333
 20
71.76666666666631
 30
-0.49999999999999023
 11
198.8666666666667
 21
71.76666666666631
 31
-0.4999999999999927
  0
LINE
  5
2015A
330
4F
100
AcDbEntity
  8
0
100
AcDbLine
 10
189.13333333333333
 20
71.76666666666631
 30
-0.49999999999999145
 11
189.13333333333333
 21
62.2999999999996
 31
-0.49999999999999145
  0
LINE
  5
2015B
330
4F
100
AcDbEntity
  8
0
100
AcDbLine
 10
189.1333333333333
 20
62.2999999999996
 30
-0.49999999999999023
 11
198.8666666666667
 21
62.2999999999996
 31
-0.4999999999999927
  0
LINE
  5
2015C
330
4F
100
AcDbEntity
  8
0
100
AcDbLine
 10
198.86666666666673
 20
71.76666666666631
 30
-0.49999999999999856
 11
198.86666666666673
 21
62.2999999999996
 31
-0.49999999999999856
  0
LINE
  5
2015D
330
4F
100
AcDbEntity
  8
0
100
AcDbLine
 10
170.8
 20
57.133333333333
 30
-0.49999999999999
 11
182.5333333333333
 21
57.133333333333
 31
-0.4999999999999929
  0
LINE
  5
2015E
330
4F
100
AcDbEntity
  8
0
100
AcDbLine
 10
170.8
 20
57.133333333333
 30
-0.49999999999999145
 11
170.8
 21
52.333333333333
 31
-0.49999999999999145
  0
LINE
  5
2015F
330
4F
100
AcDbEntity
  8
0
100
AcDbLine
 10
170.8
 20
52.333333333333
 30
-0.49999999999999
 11
182.5333333333333
 21
52.333333333333
 31
-0.4999999999999929
  0
LINE
  5
20160
330
4F
100
AcDbEntity
  8
0
100
AcDbLine
 10
182.5333333333333
 20
57.133333333333
 30
-0.49999999999999145
 11
182.5333333333333
 21
52.333333333333
 31
-0.49999999999999145
  0
LINE
  5
20161
330
4F
100
AcDbEntity
  8
0
100
AcDbLine
 10
108.2
 20
53.7666666666663
 30
-0.49999999999998435
 11
98.4666666666667
 21
53.7666666666663
 31
-0.49999999999998435
  0
LINE
  5
20162
330
4F
100
AcDbEntity
  8
0
100
AcDbLine
 10
98.4666666666667
 20
53.7666666666663
 30
-0.49999999999998435
 11
98.4666666666667
 21
44.299999999999706
 31
-0.49999999999998435
  0
LINE
  5
20163
330
4F
100
AcDbEntity
  8
0
100
AcDbLine
 10
108.2
 20
44.299999999999706
 30
-0.49999999999998435
 11
98.4666666666667
 21
44.299999999999706
 31
-0.49999999999998435
  0
LINE
  5
20164
330
4F
100
AcDbEntity
  8
0
100
AcDbLine
 10
108.2
 20
53.7666666666663
 30
-0.49999999999998435
 11
108.2
 21
44.299999999999706
 31
-0.49999999999998435
  0
LINE
  5
20165
330
4F
100
AcDbEntity
  8
0
100
AcDbLine
 10
53.20000000000002
 20
57.133333333333
 30
-0.49999999999997724
 11
41.466666666666725
 21
57.133333333333
 31
-0.49999999999997724
  0
LINE
  5
20166
330
4F
100
AcDbEntity
  8
0
100
AcDbLine
 10
41.466666666666725
 20
57.133333333333
 30
-0.49999999999997724
 11
41.466666666666725
 21
52.333333333333
 31
-0.49999999999997724
  0
LINE
  5
20167
330
4F
100
AcDbEntity
  8
0
100
AcDbLine
 10
53.20000000000002
 20
52.333333333333
 30
-0.49999999999997724
 11
41.466666666666725
 21
52.333333333333
 31
-0.49999999999997724
  0
LINE
  5
20168
330
4F
100
AcDbEntity
  8
0
100
AcDbLine
 10
53.2
 20
57.133333333333
 30
-0.49999999999997724
 11
53.2
 21
52.333333333333
 31
-0.49999999999997724
  0
LINE
  5
20169
330
4F
100
AcDbEntity
  8
0
100
AcDbLine
 10
69.5333333333333
 20
53.7666666666663
 30
-0.49999999999997724
 11
59.8
 21
53.7666666666663
 31
-0.49999999999997724
  0
LINE
  5
2016A
330
4F
100
AcDbEntity
  8
0
100
AcDbLine
 10
59.8
 20
53.7666666666663
 30
-0.49999999999997724
 11
59.8
 21
44.299999999999706
 31
-0.49999999999997724
  0
LINE
  5
2016B
330
4F
100
AcDbEntity
  8
0
100
AcDbLine
 10
69.5333333333333
 20
44.299999999999706
 30
-0.49999999999997724
 11
59.8
 21
44.299999999999706
 31
-0.49999999999997724
  0
LINE
  5
2016C
330
4F
100
AcDbEntity
  8
0
100
AcDbLine
 10
69.5333333333333
 20
53.7666666666663
 30
-0.49999999999997724
 11
69.5333333333333
 21
44.299999999999706
 31
-0.49999999999997724
  0
LINE
  5
2016D
330
4F
100
AcDbEntity
  8
0
100
AcDbLine
 10
34.86666666666672
 20
53.7666666666663
 30
-0.49999999999997724
 11
25.13333333333331
 21
53.7666666666663
 31
-0.49999999999997724
  0
LINE
  5
2016E
330
4F
100
AcDbEntity
  8
0
100
AcDbLine
 10
25.13333333333331
 20
53.7666666666663
 30
-0.49999999999997014
 11
25.13333333333331
 21
44.299999999999706
 31
-0.49999999999997014
  0
LINE
  5
2016F
330
4F
100
AcDbEntity
  8
0
100
AcDbLine
 10
34.86666666666672
 20
44.299999999999706
 30
-0.49999999999997724
 11
25.13333333333331
 21
44.299999999999706
 31
-0.49999999999997724
  0
LINE
  5
20170
330
4F
100
AcDbEntity
  8
0
100
AcDbLine
 10
34.86666666666672
 20
53.7666666666663
 30
-0.49999999999997724
 11
34.86666666666672
 21
44.299999999999706
 31
-0.49999999999997724
  0
LINE
  5
20171
330
4F
100
AcDbEntity
  8
0
100
AcDbLine
 10
115.8
 20
53.7666666666663
 30
-0.4999999999999831
 11
125.5333333333333
 21
53.7666666666663
 31
-0.49999999999998557
  0
LINE
  5
20172
330
4F
100
AcDbEntity
  8
0
100
AcDbLine
 10
115.80000000000001
 20
53.7666666666663
 30
-0.49999999999998435
 11
115.80000000000001
 21
44.299999999999706
 31
-0.49999999999998435
  0
LINE
  5
20173
330
4F
100
AcDbEntity
  8
0
100
AcDbLine
 10
115.8
 20
44.299999999999706
 30
-0.4999999999999831
 11
125.5333333333333
 21
44.299999999999706
 31
-0.49999999999998557
  0
LINE
  5
20174
330
4F
100
AcDbEntity
  8
0
100
AcDbLine
 10
125.5333333333333
 20
53.7666666666663
 30
-0.49999999999998435
 11
125.5333333333333
 21
44.299999999999706
 31
-0.49999999999998435
  0
LINE
  5
20175
330
4F
100
AcDbEntity
  8
0
100
AcDbLine
 10
154.46666666666673
 20
53.7666666666663
 30
-0.49999999999999023
 11
164.20000000000002
 21
53.7666666666663
 31
-0.4999999999999927
  0
LINE
  5
20176
330
4F
100
AcDbEntity
  8
0
100
AcDbLine
 10
154.4666666666667
 20
53.7666666666663
 30
-0.49999999999999145
 11
154.4666666666667
 21
44.299999999999706
 31
-0.49999999999999145
  0
LINE
  5
20177
330
4F
100
AcDbEntity
  8
0
100
AcDbLine
 10
154.46666666666673
 20
44.299999999999706
 30
-0.49999999999999023
 11
164.20000000000002
 21
44.299999999999706
 31
-0.4999999999999927
  0
LINE
  5
20178
330
4F
100
AcDbEntity
  8
0
100
AcDbLine
 10
164.2
 20
53.7666666666663
 30
-0.49999999999999145
 11
164.2
 21
44.299999999999706
 31
-0.49999999999999145
  0
LINE
  5
20179
330
4F
100
AcDbEntity
  8
0
100
AcDbLine
 10
189.1333333333333
 20
53.7666666666663
 30
-0.49999999999999023
 11
198.8666666666667
 21
53.7666666666663
 31
-0.4999999999999927
  0
LINE
  5
2017A
330
4F
100
AcDbEntity
  8
0
100
AcDbLine
 10
189.13333333333333
 20
53.7666666666663
 30
-0.49999999999999145
 11
189.13333333333333
 21
44.299999999999706
 31
-0.49999999999999145
  0
LINE
  5
2017B
330
4F
100
AcDbEntity
  8
0
100
AcDbLine
 10
189.1333333333333
 20
44.299999999999706
 30
-0.49999999999999023
 11
198.8666666666667
 21
44.299999999999706
 31
-0.4999999999999927
  0
LINE
  5
2017C
330
4F
100
AcDbEntity
  8
0
100
AcDbLine
 10
198.86666666666673
 20
53.7666666666663
 30
-0.49999999999999856
 11
198.86666666666673
 21
44.299999999999706
 31
-0.49999999999999856
  0
LINE
  5
2017D
330
4F
100
AcDbEntity
  8
0
100
AcDbLine
 10
170.8
 20
39.133333333333006
 30
-0.49999999999999
 11
182.5333333333333
 21
39.133333333333006
 31
-0.4999999999999929
  0
LINE
  5
2017E
330
4F
100
AcDbEntity
  8
0
100
AcDbLine
 10
170.8
 20
39.133333333333006
 30
-0.49999999999999145
 11
170.8
 21
34.333333333333
 31
-0.49999999999999145
  0
LINE
  5
2017F
330
4F
100
AcDbEntity
  8
0
100
AcDbLine
 10
170.8
 20
34.333333333333
 30
-0.49999999999999
 11
182.5333333333333
 21
34.333333333333
 31
-0.4999999999999929
  0
LINE
  5
20180
330
4F
100
AcDbEntity
  8
0
100
AcDbLine
 10
182.5333333333333
 20
39.133333333333006
 30
-0.49999999999999145
 11
182.5333333333333
 21
34.333333333333
 31
-0.49999999999999145
  0
LINE
  5
20181
330
4F
100
AcDbEntity
  8
0
100
AcDbLine
 10
108.2
 20
35.766666666666296
 30
-0.49999999999998435
 11
98.46666666666671
 21
35.766666666666296
 31
-0.49999999999998435
  0
LINE
  5
20182
330
4F
100
AcDbEntity
  8
0
100
AcDbLine
 10
98.4666666666667
 20
35.766666666666296
 30
-0.49999999999998435
 11
98.4666666666667
 21
26.2999999999997
 31
-0.49999999999998435
  0
LINE
  5
20183
330
4F
100
AcDbEntity
  8
0
100
AcDbLine
 10
108.2
 20
26.2999999999997
 30
-0.49999999999998435
 11
98.46666666666671
 21
26.2999999999997
 31
-0.49999999999998435
  0
LINE
  5
20184
330
4F
100
AcDbEntity
  8
0
100
AcDbLine
 10
108.2
 20
35.766666666666296
 30
-0.49999999999998435
 11
108.2
 21
26.2999999999997
 31
-0.49999999999998435
  0
LINE
  5
20185
330
4F
100
AcDbEntity
  8
0
100
AcDbLine
 10
53.20000000000002
 20
39.133333333333006
 30
-0.49999999999997724
 11
41.46666666666661
 21
39.133333333333006
 31
-0.49999999999997724
  0
LINE
  5
20186
330
4F
100
AcDbEntity
  8
0
100
AcDbLine
 10
41.46666666666661
 20
39.133333333333006
 30
-0.49999999999997724
 11
41.46666666666661
 21
34.333333333333
 31
-0.49999999999997724
  0
LINE
  5
20187
330
4F
100
AcDbEntity
  8
0
100
AcDbLine
 10
53.20000000000002
 20
34.333333333333
 30
-0.49999999999997724
 11
41.46666666666661
 21
34.333333333333
 31
-0.49999999999997724
  0
LINE
  5
20188
330
4F
100
AcDbEntity
  8
0
100
AcDbLine
 10
53.2
 20
39.133333333333006
 30
-0.49999999999997724
 11
53.2
 21
34.333333333333
 31
-0.49999999999997724
  0
LINE
  5
20189
330
4F
100
AcDbEntity
  8
0
100
AcDbLine
 10
69.5333333333333
 20
35.766666666666296
 30
-0.49999999999997724
 11
59.8
 21
35.766666666666296
 31
-0.49999999999997724
  0
LINE
  5
2018A
330
4F
100
AcDbEntity
  8
0
100
AcDbLine
 10
59.8
 20
35.766666666666296
 30
-0.49999999999997724
 11
59.8
 21
26.2999999999997
 31
-0.49999999999997724
  0
LINE
  5
2018B
330
4F
100
AcDbEntity
  8
0
100
AcDbLine
 10
69.5333333333333
 20
26.2999999999997
 30
-0.49999999999997724
 11
59.8
 21
26.2999999999997
 31
-0.49999999999997724
  0
LINE
  5
2018C
330
4F
100
AcDbEntity
  8
0
100
AcDbLine
 10
69.5333333333333
 20
35.766666666666296
 30
-0.49999999999997724
 11
69.5333333333333
 21
26.2999999999997
 31
-0.49999999999997724
  0
LINE
  5
2018D
330
4F
100
AcDbEntity
  8
0
100
AcDbLine
 10
34.86666666666662
 20
35.766666666666296
 30
-0.49999999999997724
 11
25.13333333333331
 21
35.766666666666296
 31
-0.49999999999997724
  0
LINE
  5
2018E
330
4F
100
AcDbEntity
  8
0
100
AcDbLine
 10
25.13333333333331
 20
35.766666666666296
 30
-0.49999999999997014
 11
25.13333333333331
 21
26.2999999999997
 31
-0.49999999999997014
  0
LINE
  5
2018F
330
4F
100
AcDbEntity
  8
0
100
AcDbLine
 10
34.86666666666662
 20
26.2999999999997
 30
-0.49999999999997724
 11
25.13333333333331
 21
26.2999999999997
 31
-0.49999999999997724
  0
LINE
  5
20190
330
4F
100
AcDbEntity
  8
0
100
AcDbLine
 10
34.86666666666662
 20
35.766666666666296
 30
-0.49999999999997724
 11
34.86666666666662
 21
26.2999999999997
 31
-0.49999999999997724
  0
LINE
  5
20191
330
4F
100
AcDbEntity
  8
0
100
AcDbLine
 10
115.80000000000001
 20
35.766666666666296
 30
-0.4999999999999831
 11
125.5333333333333
 21
35.766666666666296
 31
-0.49999999999998557
  0
LINE
  5
20192
330
4F
100
AcDbEntity
  8
0
100
AcDbLine
 10
115.80000000000001
 20
35.766666666666296
 30
-0.49999999999998435
 11
115.80000000000001
 21
26.2999999999997
 31
-0.49999999999998435
  0
LINE
  5
20193
330
4F
100
AcDbEntity
  8
0
100
AcDbLine
 10
115.80000000000001
 20
26.2999999999997
 30
-0.4999999999999831
 11
125.5333333333333
 21
26.2999999999997
 31
-0.49999999999998557
  0
LINE
  5
20194
330
4F
100
AcDbEntity
  8
0
100
AcDbLine
 10
125.5333333333333
 20
35.766666666666296
 30
-0.49999999999998435
 11
125.5333333333333
 21
26.2999999999997
 31
-0.49999999999998435
  0
LINE
  5
20195
330
4F
100
AcDbEntity
  8
0
100
AcDbLine
 10
154.46666666666673
 20
35.766666666666296
 30
-0.49999999999999023
 11
164.20000000000002
 21
35.766666666666296
 31
-0.4999999999999927
  0
LINE
  5
20196
330
4F
100
AcDbEntity
  8
0
100
AcDbLine
 10
154.4666666666667
 20
35.766666666666296
 30
-0.49999999999999145
 11
154.4666666666667
 21
26.2999999999997
 31
-0.49999999999999145
  0
LINE
  5
20197
330
4F
100
AcDbEntity
  8
0
100
AcDbLine
 10
154.46666666666673
 20
26.2999999999997
 30
-0.49999999999999023
 11
164.20000000000002
 21
26.2999999999997
 31
-0.4999999999999927
  0
LINE
  5
20198
330
4F
100
AcDbEntity
  8
0
100
AcDbLine
 10
164.2
 20
35.766666666666296
 30
-0.49999999999999145
 11
164.2
 21
26.2999999999997
 31
-0.49999999999999145
  0
LINE
  5
20199
330
4F
100
AcDbEntity
  8
0
100
AcDbLine
 10
189.1333333333333
 20
35.766666666666296
 30
-0.49999999999999023
 11
198.8666666666667
 21
35.766666666666296
 31
-0.4999999999999927
  0
LINE
  5
2019A
330
4F
100
AcDbEntity
  8
0
100
AcDbLine
 10
189.13333333333333
 20
35.766666666666296
 30
-0.49999999999999145
 11
189.13333333333333
 21
26.2999999999997
 31
-0.49999999999999145
  0
LINE
  5
2019B
330
4F
100
AcDbEntity
  8
0
100
AcDbLine
 10
189.1333333333333
 20
26.2999999999997
 30
-0.49999999999999023
 11
198.8666666666667
 21
26.2999999999997
 31
-0.4999999999999927
  0
LINE
  5
2019C
330
4F
100
AcDbEntity
  8
0
100
AcDbLine
 10
198.86666666666673
 20
35.766666666666296
 30
-0.49999999999999856
 11
198.86666666666673
 21
26.2999999999997
 31
-0.49999999999999856
  0
LINE
  5
2019D
330
4F
100
AcDbEntity
  8
0
100
AcDbLine
 10
170.8
 20
21.133333333333013
 30
-0.49999999999999
 11
182.5333333333333
 21
21.133333333333013
 31
-0.4999999999999929
  0
LINE
  5
2019E
330
4F
100
AcDbEntity
  8
0
100
AcDbLine
 10
170.8
 20
21.133333333333013
 30
-0.49999999999999145
 11
170.8
 21
16.333333333333
 31
-0.49999999999999145
  0
LINE
  5
2019F
330
4F
100
AcDbEntity
  8
0
100
AcDbLine
 10
170.8
 20
16.333333333333
 30
-0.49999999999999
 11
182.5333333333333
 21
16.333333333333
 31
-0.4999999999999929
  0
LINE
  5
201A0
330
4F
100
AcDbEntity
  8
0
100
AcDbLine
 10
182.5333333333333
 20
21.133333333333013
 30
-0.49999999999999145
 11
182.5333333333333
 21
16.333333333333
 31
-0.49999999999999145
  0
LINE
  5
201A1
330
4F
100
AcDbEntity
  8
0
100
AcDbLine
 10
108.2
 20
17.766666666666296
 30
-0.49999999999998435
 11
98.46666666666671
 21
17.766666666666296
 31
-0.49999999999998435
  0
LINE
  5
201A2
330
4F
100
AcDbEntity
  8
0
100
AcDbLine
 10
98.4666666666667
 20
17.766666666666296
 30
-0.49999999999998435
 11
98.4666666666667
 21
8.299999999999699
 31
-0.49999999999998435
  0
LINE
  5
201A3
330
4F
100
AcDbEntity
  8
0
100
AcDbLine
 10
108.2
 20
8.299999999999699
 30
-0.49999999999998435
 11
98.46666666666671
 21
8.299999999999699
 31
-0.49999999999998435
  0
LINE
  5
201A4
330
4F
100
AcDbEntity
  8
0
100
AcDbLine
 10
108.2
 20
17.766666666666296
 30
-0.49999999999998435
 11
108.2
 21
8.299999999999699
 31
-0.49999999999998435
  0
LINE
  5
201A5
330
4F
100
AcDbEntity
  8
0
100
AcDbLine
 10
53.20000000000002
 20
21.133333333333013
 30
-0.49999999999997724
 11
41.46666666666661
 21
21.133333333333013
 31
-0.49999999999997724
  0
LINE
  5
201A6
330
4F
100
AcDbEntity
  8
0
100
AcDbLine
 10
41.46666666666661
 20
21.133333333333013
 30
-0.49999999999997724
 11
41.46666666666661
 21
16.333333333333
 31
-0.49999999999997724
  0
LINE
  5
201A7
330
4F
100
AcDbEntity
  8
0
100
AcDbLine
 10
53.20000000000002
 20
16.333333333333
 30
-0.49999999999997724
 11
41.46666666666661
 21
16.333333333333
 31
-0.49999999999997724
  0
LINE
  5
201A8
330
4F
100
AcDbEntity
  8
0
100
AcDbLine
 10
53.2
 20
21.133333333333013
 30
-0.49999999999997724
 11
53.2
 21
16.333333333333
 31
-0.49999999999997724
  0
LINE
  5
201A9
330
4F
100
AcDbEntity
  8
0
100
AcDbLine
 10
69.5333333333333
 20
17.766666666666296
 30
-0.49999999999997724
 11
59.8
 21
17.766666666666296
 31
-0.49999999999997724
  0
LINE
  5
201AA
330
4F
100
AcDbEntity
  8
0
100
AcDbLine
 10
59.8
 20
17.766666666666296
 30
-0.49999999999997724
 11
59.8
 21
8.299999999999699
 31
-0.49999999999997724
  0
LINE
  5
201AB
330
4F
100
AcDbEntity
  8
0
100
AcDbLine
 10
69.5333333333333
 20
8.299999999999699
 30
-0.49999999999997724
 11
59.8
 21
8.299999999999699
 31
-0.49999999999997724
  0
LINE
  5
201AC
330
4F
100
AcDbEntity
  8
0
100
AcDbLine
 10
69.5333333333333
 20
17.766666666666296
 30
-0.49999999999997724
 11
69.5333333333333
 21
8.299999999999699
 31
-0.49999999999997724
  0
LINE
  5
201AD
330
4F
100
AcDbEntity
  8
0
100
AcDbLine
 10
34.86666666666662
 20
17.766666666666296
 30
-0.49999999999997724
 11
25.13333333333331
 21
17.766666666666296
 31
-0.49999999999997724
  0
LINE
  5
201AE
330
4F
100
AcDbEntity
  8
0
100
AcDbLine
 10
25.13333333333331
 20
17.766666666666296
 30
-0.49999999999997014
 11
25.13333333333331
 21
8.299999999999699
 31
-0.49999999999997014
  0
LINE
  5
201AF
330
4F
100
AcDbEntity
  8
0
100
AcDbLine
 10
34.86666666666662
 20
8.299999999999699
 30
-0.49999999999997724
 11
25.13333333333331
 21
8.299999999999699
 31
-0.49999999999997724
  0
LINE
  5
201B0
330
4F
100
AcDbEntity
  8
0
100
AcDbLine
 10
34.86666666666662
 20
17.766666666666296
 30
-0.49999999999997724
 11
34.86666666666662
 21
8.299999999999699
 31
-0.49999999999997724
  0
LINE
  5
201B1
330
4F
100
AcDbEntity
  8
0
100
AcDbLine
 10
115.80000000000001
 20
17.766666666666296
 30
-0.4999999999999831
 11
125.5333333333333
 21
17.766666666666296
 31
-0.49999999999998557
  0
LINE
  5
201B2
330
4F
100
AcDbEntity
  8
0
100
AcDbLine
 10
115.80000000000001
 20
17.766666666666296
 30
-0.49999999999998435
 11
115.80000000000001
 21
8.299999999999699
 31
-0.49999999999998435
  0
LINE
  5
201B3
330
4F
100
AcDbEntity
  8
0
100
AcDbLine
 10
115.80000000000001
 20
8.299999999999699
 30
-0.4999999999999831
 11
125.5333333333333
 21
8.299999999999699
 31
-0.49999999999998557
  0
LINE
  5
201B4
330
4F
100
AcDbEntity
  8
0
100
AcDbLine
 10
125.5333333333333
 20
17.766666666666296
 30
-0.49999999999998435
 11
125.5333333333333
 21
8.299999999999699
 31
-0.49999999999998435
  0
LINE
  5
201B5
330
4F
100
AcDbEntity
  8
0
100
AcDbLine
 10
154.46666666666673
 20
17.766666666666296
 30
-0.49999999999999023
 11
164.20000000000002
 21
17.766666666666296
 31
-0.4999999999999927
  0
LINE
  5
201B6
330
4F
100
AcDbEntity
  8
0
100
AcDbLine
 10
154.4666666666667
 20
17.766666666666296
 30
-0.49999999999999145
 11
154.4666666666667
 21
8.299999999999699
 31
-0.49999999999999145
  0
LINE
  5
201B7
330
4F
100
AcDbEntity
  8
0
100
AcDbLine
 10
154.46666666666673
 20
8.299999999999699
 30
-0.49999999999999023
 11
164.20000000000002
 21
8.299999999999699
 31
-0.4999999999999927
  0
LINE
  5
201B8
330
4F
100
AcDbEntity
  8
0
100
AcDbLine
 10
164.2
 20
17.766666666666296
 30
-0.49999999999999145
 11
164.2
 21
8.299999999999699
 31
-0.49999999999999145
  0
LINE
  5
201B9
330
4F
100
AcDbEntity
  8
0
100
AcDbLine
 10
189.1333333333333
 20
17.766666666666296
 30
-0.49999999999999023
 11
198.8666666666667
 21
17.766666666666296
 31
-0.4999999999999927
  0
LINE
  5
201BA
330
4F
100
AcDbEntity
  8
0
100
AcDbLine
 10
189.13333333333333
 20
17.766666666666296
 30
-0.49999999999999145
 11
189.13333333333333
 21
8.299999999999699
 31
-0.49999999999999145
  0
LINE
  5
201BB
330
4F
100
AcDbEntity
  8
0
100
AcDbLine
 10
189.1333333333333
 20
8.299999999999699
 30
-0.49999999999999023
 11
198.8666666666667
 21
8.299999999999699
 31
-0.4999999999999927
  0
LINE
  5
201BC
330
4F
100
AcDbEntity
  8
0
100
AcDbLine
 10
198.86666666666673
 20
17.766666666666296
 30
-0.49999999999999856
 11
198.86666666666673
 21
8.299999999999699
 31
-0.49999999999999856
  0
LINE
  5
201BD
330
4F
100
AcDbEntity
  8
0
100
AcDbLine
 10
219.20000000000002
 20
93.26666666666634
 30
-0.49999999999999856
 11
219.20000000000002
 21
80.2999999999996
 31
-0.49999999999999856
  0
LINE
  5
201BE
330
4F
100
AcDbEntity
  8
0
100
AcDbLine
 10
219.20000000000002
 20
93.26666666666634
 30
-0.4999999999999991
 11
214.938888888889
 21
93.26666666666634
 31
-0.499999999999998
  0
LINE
  5
201BF
330
4F
100
AcDbEntity
  8
0
100
AcDbLine
 10
214.938888888889
 20
93.26666666666634
 30
-0.49999999999999856
 11
214.938888888889
 21
89.7666666666663
 31
-0.49999999999999856
  0
LINE
  5
201C0
330
4F
100
AcDbEntity
  8
0
100
AcDbLine
 10
207.46666666666673
 20
89.76666666666631
 30
-0.4999999999999976
 11
214.93888888888904
 21
89.76666666666631
 31
-0.4999999999999995
  0
LINE
  5
201C1
330
4F
100
AcDbEntity
  8
0
100
AcDbLine
 10
207.4666666666667
 20
89.7666666666663
 30
-0.49999999999999856
 11
207.4666666666667
 21
80.2999999999996
 31
-0.49999999999999856
  0
LINE
  5
201C2
330
4F
100
AcDbEntity
  8
0
100
AcDbLine
 10
207.46666666666673
 20
80.2999999999996
 30
-0.4999999999999971
 11
219.20000000000005
 21
80.2999999999996
 31
-0.5
  0
LINE
  5
201C3
330
4F
100
AcDbEntity
  8
0
100
AcDbLine
 10
219.20000000000002
 20
39.2666666666663
 30
-0.49999999999999856
 11
219.20000000000002
 21
26.2999999999997
 31
-0.49999999999999856
  0
LINE
  5
201C4
330
4F
100
AcDbEntity
  8
0
100
AcDbLine
 10
219.20000000000002
 20
39.2666666666663
 30
-0.4999999999999991
 11
214.938888888889
 21
39.2666666666663
 31
-0.499999999999998
  0
LINE
  5
201C5
330
4F
100
AcDbEntity
  8
0
100
AcDbLine
 10
214.938888888889
 20
39.2666666666663
 30
-0.49999999999999856
 11
214.938888888889
 21
35.766666666666296
 31
-0.49999999999999856
  0
LINE
  5
201C6
330
4F
100
AcDbEntity
  8
0
100
AcDbLine
 10
207.46666666666673
 20
35.766666666666296
 30
-0.4999999999999976
 11
214.93888888888904
 21
35.766666666666296
 31
-0.4999999999999995
  0
LINE
  5
201C7
330
4F
100
AcDbEntity
  8
0
100
AcDbLine
 10
207.4666666666667
 20
35.766666666666296
 30
-0.49999999999999856
 11
207.4666666666667
 21
26.2999999999997
 31
-0.49999999999999856
  0
LINE
  5
201C8
330
4F
100
AcDbEntity
  8
0
100
AcDbLine
 10
207.46666666666673
 20
26.2999999999997
 30
-0.4999999999999971
 11
219.20000000000005
 21
26.2999999999997
 31
-0.5
  0
LINE
  5
201C9
330
4F
100
AcDbEntity
  8
0
100
AcDbLine
 10
219.20000000000002
 20
57.2666666666664
 30
-0.49999999999999856
 11
219.20000000000002
 21
44.299999999999706
 31
-0.49999999999999856
  0
LINE
  5
201CA
330
4F
100
AcDbEntity
  8
0
100
AcDbLine
 10
219.20000000000002
 20
57.2666666666664
 30
-0.4999999999999991
 11
214.938888888889
 21
57.2666666666664
 31
-0.499999999999998
  0
LINE
  5
201CB
330
4F
100
AcDbEntity
  8
0
100
AcDbLine
 10
214.938888888889
 20
57.2666666666664
 30
-0.49999999999999856
 11
214.938888888889
 21
53.7666666666663
 31
-0.49999999999999856
  0
LINE
  5
201CC
330
4F
100
AcDbEntity
  8
0
100
AcDbLine
 10
207.46666666666673
 20
53.7666666666663
 30
-0.4999999999999976
 11
214.93888888888904
 21
53.7666666666663
 31
-0.4999999999999995
  0
LINE
  5
201CD
330
4F
100
AcDbEntity
  8
0
100
AcDbLine
 10
207.4666666666667
 20
53.7666666666663
 30
-0.49999999999999856
 11
207.4666666666667
 21
44.299999999999706
 31
-0.49999999999999856
  0
LINE
  5
201CE
330
4F
100
AcDbEntity
  8
0
100
AcDbLine
 10
207.46666666666673
 20
44.299999999999706
 30
-0.4999999999999971
 11
219.20000000000005
 21
44.299999999999706
 31
-0.5
  0
LINE
  5
201CF
330
4F
100
AcDbEntity
  8
0
100
AcDbLine
 10
219.20000000000002
 20
75.26666666666631
 30
-0.49999999999999856
 11
219.20000000000002
 21
62.2999999999996
 31
-0.49999999999999856
  0
LINE
  5
201D0
330
4F
100
AcDbEntity
  8
0
100
AcDbLine
 10
219.20000000000002
 20
75.26666666666631
 30
-0.4999999999999991
 11
214.938888888889
 21
75.26666666666631
 31
-0.499999999999998
  0
LINE
  5
201D1
330
4F
100
AcDbEntity
  8
0
100
AcDbLine
 10
214.938888888889
 20
75.2666666666663
 30
-0.49999999999999856
 11
214.938888888889
 21
71.7666666666663
 31
-0.49999999999999856
  0
LINE
  5
201D2
330
4F
100
AcDbEntity
  8
0
100
AcDbLine
 10
207.46666666666673
 20
71.76666666666631
 30
-0.4999999999999976
 11
214.93888888888904
 21
71.76666666666631
 31
-0.4999999999999995
  0
LINE
  5
201D3
330
4F
100
AcDbEntity
  8
0
100
AcDbLine
 10
207.4666666666667
 20
71.76666666666631
 30
-0.49999999999999856
 11
207.4666666666667
 21
62.2999999999996
 31
-0.49999999999999856
  0
LINE
  5
201D4
330
4F
100
AcDbEntity
  8
0
100
AcDbLine
 10
207.46666666666673
 20
62.2999999999996
 30
-0.4999999999999971
 11
219.20000000000005
 21
62.2999999999996
 31
-0.5
  0
LINE
  5
201D5
330
4F
100
AcDbEntity
  8
0
100
AcDbLine
 10
4.800000000000011
 20
93.26666666666634
 30
-0.49999999999997014
 11
4.800000000000011
 21
80.2999999999996
 31
-0.49999999999997014
  0
LINE
  5
201D6
330
4F
100
AcDbEntity
  8
0
100
AcDbLine
 10
16.533333333333317
 20
80.2999999999996
 30
-0.49999999999997014
 11
4.800000000000011
 21
80.2999999999996
 31
-0.49999999999997014
  0
LINE
  5
201D7
330
4F
100
AcDbEntity
  8
0
100
AcDbLine
 10
16.533333333333317
 20
89.7666666666663
 30
-0.49999999999997014
 11
16.533333333333317
 21
80.2999999999996
 31
-0.49999999999997014
  0
LINE
  5
201D8
330
4F
100
AcDbEntity
  8
0
100
AcDbLine
 10
16.533333333333317
 20
89.76666666666631
 30
-0.49999999999997014
 11
9.061111111111018
 21
89.76666666666631
 31
-0.49999999999997014
  0
LINE
  5
201D9
330
4F
100
AcDbEntity
  8
0
100
AcDbLine
 10
9.061111111111018
 20
93.26666666666634
 30
-0.49999999999997014
 11
9.061111111111018
 21
89.7666666666663
 31
-0.49999999999997014
  0
LINE
  5
201DA
330
4F
100
AcDbEntity
  8
0
100
AcDbLine
 10
4.800000000000011
 20
93.26666666666634
 30
-0.49999999999997014
 11
9.061111111111018
 21
93.26666666666634
 31
-0.49999999999997014
  0
LINE
  5
201DB
330
4F
100
AcDbEntity
  8
0
100
AcDbLine
 10
4.800000000000011
 20
75.26666666666631
 30
-0.49999999999997014
 11
4.800000000000011
 21
62.2999999999996
 31
-0.49999999999997014
  0
LINE
  5
201DC
330
4F
100
AcDbEntity
  8
0
100
AcDbLine
 10
16.533333333333317
 20
62.2999999999996
 30
-0.49999999999997014
 11
4.800000000000011
 21
62.2999999999996
 31
-0.49999999999997014
  0
LINE
  5
201DD
330
4F
100
AcDbEntity
  8
0
100
AcDbLine
 10
16.533333333333317
 20
71.76666666666631
 30
-0.49999999999997014
 11
16.533333333333317
 21
62.2999999999996
 31
-0.49999999999997014
  0
LINE
  5
201DE
330
4F
100
AcDbEntity
  8
0
100
AcDbLine
 10
16.533333333333317
 20
71.76666666666631
 30
-0.49999999999997014
 11
9.061111111111018
 21
71.76666666666631
 31
-0.49999999999997014
  0
LINE
  5
201DF
330
4F
100
AcDbEntity
  8
0
100
AcDbLine
 10
9.061111111111018
 20
75.2666666666663
 30
-0.49999999999997014
 11
9.061111111111018
 21
71.7666666666663
 31
-0.49999999999997014
  0
LINE
  5
201E0
330
4F
100
AcDbEntity
  8
0
100
AcDbLine
 10
4.800000000000011
 20
75.26666666666631
 30
-0.49999999999997014
 11
9.061111111111018
 21
75.26666666666631
 31
-0.49999999999997014
  0
LINE
  5
201E1
330
4F
100
AcDbEntity
  8
0
100
AcDbLine
 10
4.800000000000011
 20
57.2666666666664
 30
-0.49999999999997014
 11
4.800000000000011
 21
44.299999999999706
 31
-0.49999999999997014
  0
LINE
  5
201E2
330
4F
100
AcDbEntity
  8
0
100
AcDbLine
 10
16.533333333333317
 20
44.299999999999706
 30
-0.49999999999997014
 11
4.800000000000011
 21
44.299999999999706
 31
-0.49999999999997014
  0
LINE
  5
201E3
330
4F
100
AcDbEntity
  8
0
100
AcDbLine
 10
16.533333333333317
 20
53.7666666666663
 30
-0.49999999999997014
 11
16.533333333333317
 21
44.299999999999706
 31
-0.49999999999997014
  0
LINE
  5
201E4
330
4F
100
AcDbEntity
  8
0
100
AcDbLine
 10
16.533333333333317
 20
53.7666666666663
 30
-0.49999999999997014
 11
9.061111111111018
 21
53.7666666666663
 31
-0.49999999999997014
  0
LINE
  5
201E5
330
4F
100
AcDbEntity
  8
0
100
AcDbLine
 10
9.061111111111018
 20
57.2666666666664
 30
-0.49999999999997014
 11
9.061111111111018
 21
53.7666666666663
 31
-0.49999999999997014
  0
LINE
  5
201E6
330
4F
100
AcDbEntity
  8
0
100
AcDbLine
 10
4.800000000000011
 20
57.2666666666664
 30
-0.49999999999997014
 11
9.061111111111018
 21
57.2666666666664
 31
-0.49999999999997014
  0
LINE
  5
201E7
330
4F
100
AcDbEntity
  8
0
100
AcDbLine
 10
4.800000000000011
 20
39.2666666666663
 30
-0.49999999999997014
 11
4.800000000000011
 21
26.2999999999997
 31
-0.49999999999997014
  0
LINE
  5
201E8
330
4F
100
AcDbEntity
  8
0
100
AcDbLine
 10
16.533333333333317
 20
26.2999999999997
 30
-0.49999999999997014
 11
4.800000000000011
 21
26.2999999999997
 31
-0.49999999999997014
  0
LINE
  5
201E9
330
4F
100
AcDbEntity
  8
0
100
AcDbLine
 10
16.533333333333317
 20
35.766666666666296
 30
-0.49999999999997014
 11
16.533333333333317
 21
26.2999999999997
 31
-0.49999999999997014
  0
LINE
  5
201EA
330
4F
100
AcDbEntity
  8
0
100
AcDbLine
 10
16.533333333333317
 20
35.766666666666296
 30
-0.49999999999997014
 11
9.061111111111018
 21
35.766666666666296
 31
-0.49999999999997014
  0
LINE
  5
201EB
330
4F
100
AcDbEntity
  8
0
100
AcDbLine
 10
9.061111111111018
 20
39.2666666666663
 30
-0.49999999999997014
 11
9.061111111111018
 21
35.766666666666296
 31
-0.49999999999997014
  0
LINE
  5
201EC
330
4F
100
AcDbEntity
  8
0
100
AcDbLine
 10
4.800000000000011
 20
39.2666666666663
 30
-0.49999999999997014
 11
9.061111111111018
 21
39.2666666666663
 31
-0.49999999999997014
  0
LINE
  5
201ED
330
4F
100
AcDbEntity
  8
0
100
AcDbLine
 10
4.800000000000011
 20
21.266666666666296
 30
-0.49999999999997014
 11
4.800000000000011
 21
8.299999999999699
 31
-0.49999999999997014
  0
LINE
  5
201EE
330
4F
100
AcDbEntity
  8
0
100
AcDbLine
 10
16.533333333333317
 20
8.299999999999699
 30
-0.49999999999997014
 11
4.800000000000011
 21
8.299999999999699
 31
-0.49999999999997014
  0
LINE
  5
201EF
330
4F
100
AcDbEntity
  8
0
100
AcDbLine
 10
16.533333333333317
 20
17.766666666666296
 30
-0.49999999999997014
 11
16.533333333333317
 21
8.299999999999699
 31
-0.49999999999997014
  0
LINE
  5
201F0
330
4F
100
AcDbEntity
  8
0
100
AcDbLine
 10
16.533333333333317
 20
17.766666666666296
 30
-0.49999999999997014
 11
9.061111111111018
 21
17.766666666666296
 31
-0.49999999999997014
  0
LINE
  5
201F1
330
4F
100
AcDbEntity
  8
0
100
AcDbLine
 10
9.061111111111018
 20
21.266666666666296
 30
-0.49999999999997014
 11
9.061111111111018
 21
17.766666666666296
 31
-0.49999999999997014
  0
LINE
  5
201F2
330
4F
100
AcDbEntity
  8
0
100
AcDbLine
 10
4.800000000000011
 20
21.266666666666296
 30
-0.49999999999997014
 11
9.061111111111018
 21
21.266666666666296
 31
-0.49999999999997014
  0
LINE
  5
201F3
330
4F
100
AcDbEntity
  8
0
100
AcDbLine
 10
78.1333333333334
 20
93.26666666666634
 30
-0.49999999999997724
 11
78.1333333333334
 21
80.2999999999996
 31
-0.49999999999997724
  0
LINE
  5
201F4
330
4F
100
AcDbEntity
  8
0
100
AcDbLine
 10
89.8666666666667
 20
80.2999999999996
 30
-0.49999999999998435
 11
78.1333333333334
 21
80.2999999999996
 31
-0.49999999999998435
  0
LINE
  5
201F5
330
4F
100
AcDbEntity
  8
0
100
AcDbLine
 10
89.8666666666667
 20
89.7666666666663
 30
-0.49999999999998435
 11
89.8666666666667
 21
80.2999999999996
 31
-0.49999999999998435
  0
LINE
  5
201F6
330
4F
100
AcDbEntity
  8
0
100
AcDbLine
 10
89.8666666666667
 20
89.76666666666631
 30
-0.49999999999998435
 11
82.3944444444445
 21
89.76666666666631
 31
-0.49999999999998435
  0
LINE
  5
201F7
330
4F
100
AcDbEntity
  8
0
100
AcDbLine
 10
82.3944444444445
 20
93.26666666666634
 30
-0.49999999999997724
 11
82.3944444444445
 21
89.7666666666663
 31
-0.49999999999997724
  0
LINE
  5
201F8
330
4F
100
AcDbEntity
  8
0
100
AcDbLine
 10
78.13333333333341
 20
93.26666666666634
 30
-0.49999999999997724
 11
82.3944444444445
 21
93.26666666666634
 31
-0.49999999999997724
  0
LINE
  5
201F9
330
4F
100
AcDbEntity
  8
0
100
AcDbLine
 10
78.1333333333333
 20
21.266666666666296
 30
-0.49999999999997724
 11
78.1333333333333
 21
8.299999999999699
 31
-0.49999999999997724
  0
LINE
  5
201FA
330
4F
100
AcDbEntity
  8
0
100
AcDbLine
 10
89.8666666666667
 20
8.299999999999699
 30
-0.49999999999998435
 11
78.1333333333333
 21
8.299999999999699
 31
-0.49999999999998435
  0
LINE
  5
201FB
330
4F
100
AcDbEntity
  8
0
100
AcDbLine
 10
89.8666666666667
 20
17.766666666666296
 30
-0.49999999999998435
 11
89.8666666666667
 21
8.299999999999699
 31
-0.49999999999998435
  0
LINE
  5
201FC
330
4F
100
AcDbEntity
  8
0
100
AcDbLine
 10
89.8666666666667
 20
17.766666666666296
 30
-0.49999999999998435
 11
82.3944444444445
 21
17.766666666666296
 31
-0.49999999999998435
  0
LINE
  5
201FD
330
4F
100
AcDbEntity
  8
0
100
AcDbLine
 10
82.3944444444445
 20
21.266666666666296
 30
-0.49999999999997724
 11
82.3944444444445
 21
17.766666666666296
 31
-0.49999999999997724
  0
LINE
  5
201FE
330
4F
100
AcDbEntity
  8
0
100
AcDbLine
 10
78.13333333333341
 20
21.266666666666296
 30
-0.49999999999997724
 11
82.3944444444445
 21
21.266666666666296
 31
-0.49999999999997724
  0
LINE
  5
201FF
330
4F
100
AcDbEntity
  8
0
100
AcDbLine
 10
78.1333333333334
 20
75.26666666666631
 30
-0.49999999999997724
 11
78.1333333333334
 21
62.2999999999996
 31
-0.49999999999997724
  0
LINE
  5
20200
330
4F
100
AcDbEntity
  8
0
100
AcDbLine
 10
89.8666666666667
 20
62.2999999999996
 30
-0.49999999999998435
 11
78.1333333333334
 21
62.2999999999996
 31
-0.49999999999998435
  0
LINE
  5
20201
330
4F
100
AcDbEntity
  8
0
100
AcDbLine
 10
89.8666666666667
 20
71.76666666666631
 30
-0.49999999999998435
 11
89.8666666666667
 21
62.2999999999996
 31
-0.49999999999998435
  0
LINE
  5
20202
330
4F
100
AcDbEntity
  8
0
100
AcDbLine
 10
89.8666666666667
 20
71.76666666666631
 30
-0.49999999999998435
 11
82.3944444444445
 21
71.76666666666631
 31
-0.49999999999998435
  0
LINE
  5
20203
330
4F
100
AcDbEntity
  8
0
100
AcDbLine
 10
82.3944444444445
 20
75.2666666666663
 30
-0.49999999999997724
 11
82.3944444444445
 21
71.7666666666663
 31
-0.49999999999997724
  0
LINE
  5
20204
330
4F
100
AcDbEntity
  8
0
100
AcDbLine
 10
78.13333333333341
 20
75.26666666666631
 30
-0.49999999999997724
 11
82.3944444444445
 21
75.26666666666631
 31
-0.49999999999997724
  0
LINE
  5
20205
330
4F
100
AcDbEntity
  8
0
100
AcDbLine
 10
78.1333333333334
 20
57.2666666666664
 30
-0.49999999999997724
 11
78.1333333333334
 21
44.299999999999706
 31
-0.49999999999997724
  0
LINE
  5
20206
330
4F
100
AcDbEntity
  8
0
100
AcDbLine
 10
89.8666666666667
 20
44.299999999999706
 30
-0.49999999999998435
 11
78.1333333333334
 21
44.299999999999706
 31
-0.49999999999998435
  0
LINE
  5
20207
330
4F
100
AcDbEntity
  8
0
100
AcDbLine
 10
89.8666666666667
 20
53.7666666666663
 30
-0.49999999999998435
 11
89.8666666666667
 21
44.299999999999706
 31
-0.49999999999998435
  0
LINE
  5
20208
330
4F
100
AcDbEntity
  8
0
100
AcDbLine
 10
89.8666666666667
 20
53.7666666666663
 30
-0.49999999999998435
 11
82.3944444444445
 21
53.7666666666663
 31
-0.49999999999998435
  0
LINE
  5
20209
330
4F
100
AcDbEntity
  8
0
100
AcDbLine
 10
82.3944444444445
 20
57.2666666666664
 30
-0.49999999999997724
 11
82.3944444444445
 21
53.7666666666663
 31
-0.49999999999997724
  0
LINE
  5
2020A
330
4F
100
AcDbEntity
  8
0
100
AcDbLine
 10
78.13333333333341
 20
57.2666666666664
 30
-0.49999999999997724
 11
82.3944444444445
 21
57.2666666666664
 31
-0.49999999999997724
  0
LINE
  5
2020B
330
4F
100
AcDbEntity
  8
0
100
AcDbLine
 10
78.1333333333333
 20
39.2666666666663
 30
-0.49999999999997724
 11
78.1333333333333
 21
26.2999999999997
 31
-0.49999999999997724
  0
LINE
  5
2020C
330
4F
100
AcDbEntity
  8
0
100
AcDbLine
 10
89.8666666666667
 20
26.2999999999997
 30
-0.49999999999998435
 11
78.1333333333333
 21
26.2999999999997
 31
-0.49999999999998435
  0
LINE
  5
2020D
330
4F
100
AcDbEntity
  8
0
100
AcDbLine
 10
89.8666666666667
 20
35.766666666666296
 30
-0.49999999999998435
 11
89.8666666666667
 21
26.2999999999997
 31
-0.49999999999998435
  0
LINE
  5
2020E
330
4F
100
AcDbEntity
  8
0
100
AcDbLine
 10
89.8666666666667
 20
35.766666666666296
 30
-0.49999999999998435
 11
82.3944444444445
 21
35.766666666666296
 31
-0.49999999999998435
  0
LINE
  5
2020F
330
4F
100
AcDbEntity
  8
0
100
AcDbLine
 10
82.3944444444445
 20
39.2666666666663
 30
-0.49999999999997724
 11
82.3944444444445
 21
35.766666666666296
 31
-0.49999999999997724
  0
LINE
  5
20210
330
4F
100
AcDbEntity
  8
0
100
AcDbLine
 10
78.13333333333341
 20
39.2666666666663
 30
-0.49999999999997724
 11
82.3944444444445
 21
39.2666666666663
 31
-0.49999999999997724
  0
LINE
  5
20211
330
4F
100
AcDbEntity
  8
0
100
AcDbLine
 10
145.86666666666662
 20
21.266666666666296
 30
-0.49999999999999145
 11
145.86666666666662
 21
8.299999999999699
 31
-0.49999999999999145
  0
LINE
  5
20212
330
4F
100
AcDbEntity
  8
0
100
AcDbLine
 10
145.86666666666662
 20
21.266666666666296
 30
-0.499999999999992
 11
141.60555555555553
 21
21.266666666666296
 31
-0.4999999999999909
  0
LINE
  5
20213
330
4F
100
AcDbEntity
  8
0
100
AcDbLine
 10
141.6055555555555
 20
21.266666666666296
 30
-0.49999999999999145
 11
141.6055555555555
 21
17.766666666666296
 31
-0.49999999999999145
  0
LINE
  5
20214
330
4F
100
AcDbEntity
  8
0
100
AcDbLine
 10
134.1333333333333
 20
17.766666666666296
 30
-0.4999999999999834
 11
141.6055555555555
 21
17.766666666666296
 31
-0.4999999999999853
  0
LINE
  5
20215
330
4F
100
AcDbEntity
  8
0
100
AcDbLine
 10
134.1333333333333
 20
17.766666666666296
 30
-0.49999999999998435
 11
134.1333333333333
 21
8.299999999999699
 31
-0.49999999999998435
  0
LINE
  5
20216
330
4F
100
AcDbEntity
  8
0
100
AcDbLine
 10
134.1333333333333
 20
8.299999999999699
 30
-0.4999999999999829
 11
145.86666666666662
 21
8.299999999999699
 31
-0.4999999999999858
  0
LINE
  5
20217
330
4F
100
AcDbEntity
  8
0
100
AcDbLine
 10
145.86666666666662
 20
39.2666666666663
 30
-0.49999999999999145
 11
145.86666666666662
 21
26.2999999999997
 31
-0.49999999999999145
  0
LINE
  5
20218
330
4F
100
AcDbEntity
  8
0
100
AcDbLine
 10
145.86666666666662
 20
39.2666666666663
 30
-0.499999999999992
 11
141.60555555555553
 21
39.2666666666663
 31
-0.4999999999999909
  0
LINE
  5
20219
330
4F
100
AcDbEntity
  8
0
100
AcDbLine
 10
141.6055555555555
 20
39.2666666666663
 30
-0.49999999999999145
 11
141.6055555555555
 21
35.766666666666296
 31
-0.49999999999999145
  0
LINE
  5
2021A
330
4F
100
AcDbEntity
  8
0
100
AcDbLine
 10
134.1333333333333
 20
35.766666666666296
 30
-0.4999999999999834
 11
141.6055555555555
 21
35.766666666666296
 31
-0.4999999999999853
  0
LINE
  5
2021B
330
4F
100
AcDbEntity
  8
0
100
AcDbLine
 10
134.1333333333333
 20
35.766666666666296
 30
-0.49999999999998435
 11
134.1333333333333
 21
26.2999999999997
 31
-0.49999999999998435
  0
LINE
  5
2021C
330
4F
100
AcDbEntity
  8
0
100
AcDbLine
 10
134.1333333333333
 20
26.2999999999997
 30
-0.4999999999999829
 11
145.86666666666662
 21
26.2999999999997
 31
-0.4999999999999858
  0
LINE
  5
2021D
330
4F
100
AcDbEntity
  8
0
100
AcDbLine
 10
145.86666666666662
 20
57.2666666666664
 30
-0.49999999999999145
 11
145.86666666666662
 21
44.299999999999706
 31
-0.49999999999999145
  0
LINE
  5
2021E
330
4F
100
AcDbEntity
  8
0
100
AcDbLine
 10
145.86666666666662
 20
57.2666666666664
 30
-0.499999999999992
 11
141.60555555555553
 21
57.2666666666664
 31
-0.4999999999999909
  0
LINE
  5
2021F
330
4F
100
AcDbEntity
  8
0
100
AcDbLine
 10
141.6055555555555
 20
57.2666666666664
 30
-0.49999999999999145
 11
141.6055555555555
 21
53.7666666666663
 31
-0.49999999999999145
  0
LINE
  5
20220
330
4F
100
AcDbEntity
  8
0
100
AcDbLine
 10
134.1333333333333
 20
53.7666666666663
 30
-0.4999999999999834
 11
141.6055555555555
 21
53.7666666666663
 31
-0.4999999999999853
  0
LINE
  5
20221
330
4F
100
AcDbEntity
  8
0
100
AcDbLine
 10
134.1333333333333
 20
53.7666666666663
 30
-0.49999999999998435
 11
134.1333333333333
 21
44.299999999999706
 31
-0.49999999999998435
  0
LINE
  5
20222
330
4F
100
AcDbEntity
  8
0
100
AcDbLine
 10
134.1333333333333
 20
44.299999999999706
 30
-0.4999999999999829
 11
145.86666666666662
 21
44.299999999999706
 31
-0.4999999999999858
  0
LINE
  5
20223
330
4F
100
AcDbEntity
  8
0
100
AcDbLine
 10
145.86666666666662
 20
75.26666666666631
 30
-0.49999999999999145
 11
145.86666666666662
 21
62.2999999999996
 31
-0.49999999999999145
  0
LINE
  5
20224
330
4F
100
AcDbEntity
  8
0
100
AcDbLine
 10
145.86666666666662
 20
75.26666666666631
 30
-0.499999999999992
 11
141.60555555555553
 21
75.26666666666631
 31
-0.4999999999999909
  0
LINE
  5
20225
330
4F
100
AcDbEntity
  8
0
100
AcDbLine
 10
141.6055555555555
 20
75.2666666666663
 30
-0.49999999999999145
 11
141.6055555555555
 21
71.7666666666663
 31
-0.49999999999999145
  0
LINE
  5
20226
330
4F
100
AcDbEntity
  8
0
100
AcDbLine
 10
134.1333333333333
 20
71.76666666666631
 30
-0.4999999999999834
 11
141.6055555555555
 21
71.76666666666631
 31
-0.4999999999999853
  0
LINE
  5
20227
330
4F
100
AcDbEntity
  8
0
100
AcDbLine
 10
134.1333333333333
 20
71.76666666666631
 30
-0.49999999999998435
 11
134.1333333333333
 21
62.2999999999996
 31
-0.49999999999998435
  0
LINE
  5
20228
330
4F
100
AcDbEntity
  8
0
100
AcDbLine
 10
134.1333333333333
 20
62.2999999999996
 30
-0.4999999999999829
 11
145.86666666666662
 21
62.2999999999996
 31
-0.4999999999999858
  0
LINE
  5
20229
330
4F
100
AcDbEntity
  8
0
100
AcDbLine
 10
145.86666666666662
 20
93.26666666666634
 30
-0.49999999999999145
 11
145.86666666666662
 21
80.2999999999996
 31
-0.49999999999999145
  0
LINE
  5
2022A
330
4F
100
AcDbEntity
  8
0
100
AcDbLine
 10
145.86666666666662
 20
93.26666666666634
 30
-0.499999999999992
 11
141.60555555555553
 21
93.26666666666634
 31
-0.4999999999999909
  0
LINE
  5
2022B
330
4F
100
AcDbEntity
  8
0
100
AcDbLine
 10
141.6055555555555
 20
93.26666666666634
 30
-0.49999999999999145
 11
141.6055555555555
 21
89.7666666666663
 31
-0.49999999999999145
  0
LINE
  5
2022C
330
4F
100
AcDbEntity
  8
0
100
AcDbLine
 10
134.1333333333333
 20
89.76666666666631
 30
-0.4999999999999834
 11
141.6055555555555
 21
89.76666666666631
 31
-0.4999999999999853
  0
LINE
  5
2022D
330
4F
100
AcDbEntity
  8
0
100
AcDbLine
 10
134.1333333333333
 20
89.7666666666663
 30
-0.49999999999998435
 11
134.1333333333333
 21
80.2999999999996
 31
-0.49999999999998435
  0
LINE
  5
2022E
330
4F
100
AcDbEntity
  8
0
100
AcDbLine
 10
134.1333333333333
 20
80.2999999999996
 30
-0.4999999999999829
 11
145.86666666666662
 21
80.2999999999996
 31
-0.4999999999999858
  0
ENDBLK
  5
51
330
4F
100
AcDbEntity
  8
0
100
AcDbBlockEnd
  0
ENDSEC
  0
SECTION
  2
ENTITIES
  0
INSERT
  5
26E
330
1F
100
AcDbEntity
  8
0
  6
ByLayer
100
AcDbBlockReference
  2
BASE_GEOMETRY
 10
0.0
 20
0.0
 30
0.0
 43
0.0
  0
LINE
  5
26F
330
1F
100
AcDbEntity
  8
engraving
  6
ByLayer
100
AcDbLine
 10
1.4210854715202e-14
 20
77.333333333333
 30
0.0
 11
224.0000012195127
 21
77.333333333333
 31
0.0
  0
LINE
  5
270
330
1F
100
AcDbEntity
  8
engraving
  6
ByLayer
100
AcDbLine
 10
224.0000012195127
 20
59.333333333333
 30
0.0
 11
-1.296631921832159e-07
 21
59.33333333333303
 31
0.0
  0
LINE
  5
271
330
1F
100
AcDbEntity
  8
engraving
  6
ByLayer
100
AcDbLine
 10
-1.296631921832159e-07
 20
41.33333333333303
 30
0.0
 11
224.0000844080886
 21
41.33333333333297
 31
0.0
  0
LINE
  5
272
330
1F
100
AcDbEntity
  8
engraving
  6
ByLayer
100
AcDbLine
 10
224.0000844080886
 20
23.33333333333297
 30
0.0
 11
-1.191237353737051e-05
 21
23.333333333333
 31
0.0
  0
LINE
  5
273
330
1F
100
AcDbEntity
  8
engraving
  6
ByLayer
100
AcDbLine
 10
-1.191237353737051e-05
 20
5.333333333333002
 30
0.0
 11
224.0000144519385
 21
5.333333333332947
 31
0.0
  0
POINT
  5
274
330
1F
100
AcDbEntity
  8
engraving
  6
ByLayer
100
AcDbPoint
 10
1.4210854715202e-14
 20
95.333333333333
 30
0.0
  0
LINE
  5
275
330
1F
100
AcDbEntity
  8
engraving
  6
ByLayer
100
AcDbLine
 10
21.33300000000001
 20
95.333333333333
 30
0.0
 11
21.33299999999999
 21
-0.0001025615352574505
 31
0.0
  0
LINE
  5
276
330
1F
100
AcDbEntity
  8
engraving
  6
ByLayer
100
AcDbLine
 10
38.66632999999999
 20
-0.0001025615352574505
 30
0.0
 11
38.66633
 21
95.33450449615647
 31
0.0
  0
LINE
  5
277
330
1F
100
AcDbEntity
  8
engraving
  6
ByLayer
100
AcDbLine
 10
55.99966000000001
 20
95.33450449615647
 30
0.0
 11
55.99965999999999
 21
-0.0005213119916618325
 31
0.0
  0
LINE
  5
278
330
1F
100
AcDbEntity
  8
engraving
  6
ByLayer
100
AcDbLine
 10
73.33299
 20
-0.0005213119916618325
 30
0.0
 11
73.33299
 21
95.50161920787309
 31
0.0
  0
LINE
  5
279
330
1F
100
AcDbEntity
  8
engraving
  6
ByLayer
100
AcDbLine
 10
94.66632
 20
95.50161920787309
 30
0.0
 11
94.66631999999998
 21
-0.02522996398570854
 31
0.0
  0
LINE
  5
27A
330
1F
100
AcDbEntity
  8
engraving
  6
ByLayer
100
AcDbLine
 10
111.99965
 20
-0.02522996398570854
 30
0.0
 11
111.99965
 21
95.33650418008217
 31
0.0
  0
LINE
  5
27B
330
1F
100
AcDbEntity
  8
engraving
  6
ByLayer
100
AcDbLine
 10
129.33298
 20
95.33650418008217
 30
0.0
 11
129.33298
 21
-0.002238732593028203
 31
0.0
  0
LINE
  5
27C
330
1F
100
AcDbEntity
  8
engraving
  6
ByLayer
100
AcDbLine
 10
150.66631
 20
-0.002238732593028203
 30
0.0
 11
150.66631
 21
95.33368166754991
 31
0.0
  0
LINE
  5
27D
330
1F
100
AcDbEntity
  8
engraving
  6
ByLayer
100
AcDbLine
 10
167.9996399999999
 20
95.33368166754991
 30
0.0
 11
167.9996399999999
 21
-0.003365868529726868
 31
0.0
  0
LINE
  5
27E
330
1F
100
AcDbEntity
  8
engraving
  6
ByLayer
100
AcDbLine
 10
185.3329699999999
 20
-0.003365868529726868
 30
0.0
 11
185.3329699999999
 21
95.33363277789807
 31
0.0
  0
LINE
  5
27F
330
1F
100
AcDbEntity
  8
engraving
  6
ByLayer
100
AcDbLine
 10
202.6662999999999
 20
95.33363277789807
 30
0.0
 11
202.6662999999999
 21
-6.626540692877825e-05
 31
0.0
  0
ENDSEC
  0
SECTION
  2
OBJECTS
  0
DICTIONARY
  5
C
330
0
100
AcDbDictionary
281
1
  3
ACAD_GROUP
350
D
  3
ACAD_COLOR
350
20001
  3
ACAD_LAYOUT
350
20002
  3
ACAD_MATERIAL
350
20003
  3
ACAD_MLEADERSTYLE
350
20004
  3
ACAD_MLINESTYLE
350
20005
  3
ACAD_PLOTSETTINGS
350
20006
  3
ACAD_PLOTSTYLENAME
350
20007
  3
ACAD_SCALELIST
350
20009
  3
ACAD_TABLESTYLE
350
2000A
  3
ACAD_VISUALSTYLE
350
2000B
  3
EZDXF_META
350
20231
  0
DICTIONARY
  5
D
330
C
100
AcDbDictionary
281
1
  0
PLOTSETTINGS
  5
280
330
0
100
AcDbPlotSettings
  1

  4
A3
  6
1x1
 40
0.0
 41
0.0
 42
0.0
 43
0.0
 44
420.0
 45
297.0
 46
0.0
 47
0.0
 48
0.0
 49
0.0
140
0.0
141
0.0
142
1.0
143
1.0
 70
688
 72
1
 73
0
 74
5
  7

 75
16
 76
0
 77
2
 78
300
147
1.0
148
0.0
149
0.0
  0
DICTIONARY
  5
20001
330
C
100
AcDbDictionary
281
1
  0
DICTIONARY
  5
20002
330
C
100
AcDbDictionary
281
1
  3
Model
350
2000C
  3
Layout1
350
2000D
  0
DICTIONARY
  5
20003
330
C
100
AcDbDictionary
281
1
  3
ByBlock
350
2000E
  3
ByLayer
350
2000F
  3
Global
350
20010
  0
DICTIONARY
  5
20004
330
C
100
AcDbDictionary
281
1
  3
Standard
350
20012
  0
DICTIONARY
  5
20005
330
C
100
AcDbDictionary
281
1
  3
Standard
350
20011
  0
DICTIONARY
  5
20006
330
C
100
AcDbDictionary
281
1
  0
ACDBDICTIONARYWDFLT
  5
20007
330
C
100
AcDbDictionary
281
1
  3
Normal
350
20008
100
AcDbDictionaryWithDefault
340
20008
  0
ACDBPLACEHOLDER
  5
20008
330
20007
  0
DICTIONARY
  5
20009
330
C
100
AcDbDictionary
281
1
  0
DICTIONARY
  5
2000A
330
C
100
AcDbDictionary
281
1
  0
DICTIONARY
  5
2000B
330
C
100
AcDbDictionary
281
1
  0
LAYOUT
  5
2000C
330
20002
100
AcDbPlotSettings
  1

  4
A3
  6

 40
7.5
 41
20.0
 42
7.5
 43
20.0
 44
420.0
 45
297.0
 46
0.0
 47
0.0
 48
0.0
 49
0.0
140
0.0
141
0.0
142
1.0
143
1.0
 70
1024
 72
1
 73
0
 74
5
  7

 75
16
 76
0
 77
2
 78
300
147
1.0
148
0.0
149
0.0
100
AcDbLayout
  1
Model
 70
1
 71
0
 10
0.0
 20
0.0
 11
420.0
 21
297.0
 12
0.0
 22
0.0
 32
0.0
 14
1e+20
 24
1e+20
 34
1e+20
 15
-1e+20
 25
-1e+20
 35
-1e+20
146
0.0
 13
0.0
 23
0.0
 33
0.0
 16
1.0
 26
0.0
 36
0.0
 17
0.0
 27
1.0
 37
0.0
 76
1
330
1F
  0
LAYOUT
  5
2000D
330
20002
100
AcDbPlotSettings
  1

  4
A3
  6

 40
7.5
 41
20.0
 42
7.5
 43
20.0
 44
420.0
 45
297.0
 46
0.0
 47
0.0
 48
0.0
 49
0.0
140
0.0
141
0.0
142
1.0
143
1.0
 70
0
 72
1
 73
0
 74
5
  7

 75
16
 76
0
 77
2
 78
300
147
1.0
148
0.0
149
0.0
100
AcDbLayout
  1
Layout1
 70
1
 71
1
 10
0.0
 20
0.0
 11
420.0
 21
297.0
 12
0.0
 22
0.0
 32
0.0
 14
1e+20
 24
1e+20
 34
1e+20
 15
-1e+20
 25
-1e+20
 35
-1e+20
146
0.0
 13
0.0
 23
0.0
 33
0.0
 16
1.0
 26
0.0
 36
0.0
 17
0.0
 27
1.0
 37
0.0
 76
1
330
1E
  0
MATERIAL
  5
2000E
102
{ACAD_REACTORS
330
20003
102
}
330
20003
100
AcDbMaterial
  1
ByBlock
  2

 70
0
 40
1.0
 71
1
 41
1.0
 91
-1023410177
 42
1.0
 72
1
  3

 73
1
 74
1
 75
1
 44
0.5
 73
0
 45
1.0
 46
1.0
 77
1
  4

 78
1
 79
1
170
1
 48
1.0
171
1
  6

172
1
173
1
174
1
140
1.0
141
1.0
175
1
  7

176
1
177
1
178
1
143
1.0
179
1
  8

270
1
271
1
272
1
145
1.0
146
1.0
273
1
  9

274
1
275
1
276
1
 42
1.0
 72
1
  3

 73
1
 74
1
 75
1
 94
63
  0
MATERIAL
  5
2000F
102
{ACAD_REACTORS
330
20003
102
}
330
20003
100
AcDbMaterial
  1
ByLayer
  2

 70
0
 40
1.0
 71
1
 41
1.0
 91
-1023410177
 42
1.0
 72
1
  3

 73
1
 74
1
 75
1
 44
0.5
 73
0
 45
1.0
 46
1.0
 77
1
  4

 78
1
 79
1
170
1
 48
1.0
171
1
  6

172
1
173
1
174
1
140
1.0
141
1.0
175
1
  7

176
1
177
1
178
1
143
1.0
179
1
  8

270
1
271
1
272
1
145
1.0
146
1.0
273
1
  9

274
1
275
1
276
1
 42
1.0
 72
1
  3

 73
1
 74
1
 75
1
 94
63
  0
MATERIAL
  5
20010
102
{ACAD_REACTORS
330
20003
102
}
330
20003
100
AcDbMaterial
  1
Global
  2

 70
0
 40
1.0
 71
1
 41
1.0
 91
-1023410177
 42
1.0
 72
1
  3

 73
1
 74
1
 75
1
 44
0.5
 73
0
 45
1.0
 46
1.0
 77
1
  4

 78
1
 79
1
170
1
 48
1.0
171
1
  6

172
1
173
1
174
1
140
1.0
141
1.0
175
1
  7

176
1
177
1
178
1
143
1.0
179
1
  8

270
1
271
1
272
1
145
1.0
146
1.0
273
1
  9

274
1
275
1
276
1
 42
1.0
 72
1
  3

 73
1
 74
1
 75
1
 94
63
  0
MLINESTYLE
  5
20011
102
{ACAD_REACTORS
330
20005
102
}
330
20005
100
AcDbMlineStyle
  2
Standard
 70
0
  3

 62
256
 51
90.0
 52
90.0
 71
2
 49
0.5
 62
256
  6
BYLAYER
 49
-0.5
 62
256
  6
BYLAYER
  0
MLEADERSTYLE
  5
20012
102
{ACAD_REACTORS
330
20004
102
}
330
20004
100
AcDbMLeaderStyle
179
2
170
2
171
1
172
0
 90
2
 40
0.0
 41
0.0
173
1
 91
-1056964608
 92
-2
290
1
 42
2.0
291
1
 43
8.0
  3
Standard
 44
4.0
300

342
4C
174
1
175
1
176
0
178
1
 93
-1056964608
 45
4.0
292
0
297
0
 46
4.0
 94
-1056964608
 47
1.0
 49
1.0
140
1.0
294
1
141
0.0
177
0
142
1.0
295
0
296
0
143
3.75
271
0
272
9
273
9
  0
DICTIONARY
  5
20231
330
C
100
AcDbDictionary
280
1
281
1
  3
WRITTEN_BY_EZDXF
350
20232
  0
DICTIONARYVAR
  5
20232
330
20231
100
DictionaryVariables
280
0
  1
1.4.3 @ 2026-05-03T20:15:37.581636+00:00
  0
ENDSEC
  0
EOF
